<svg width="1600" height="1072" viewBox="0 0 1600 1072" fill="none" xmlns="http://www.w3.org/2000/svg">
<rect width="1600" height="1072" fill="#111032"/>
<path d="M116.432 129.115C117.836 125.09 122.704 125.388 123.754 129.563L132.215 163.206C132.559 164.572 133.411 165.673 134.525 166.193L165.908 180.821C169.283 182.394 169.18 188.124 165.752 189.523L134.651 202.215C133.463 202.699 132.545 203.835 132.185 205.267L123.99 237.772C122.914 242.044 117.89 242.217 116.607 238.027L106.499 205.014C106.106 203.728 105.256 202.716 104.176 202.247L74.5585 189.382C71.2626 187.95 71.1146 182.464 74.3265 180.783L102.353 166.118C103.27 165.637 103.997 164.754 104.381 163.653L116.432 129.115Z" fill="#151439"/>
<path d="M1440.43 788.99C1441.84 784.966 1446.7 785.264 1447.75 789.439L1456.22 823.082C1456.56 824.447 1457.41 825.549 1458.53 826.068L1489.91 840.696C1493.28 842.269 1493.18 848 1489.75 849.398L1458.65 862.09C1457.46 862.574 1456.55 863.711 1456.18 865.142L1447.99 897.648C1446.91 901.919 1441.89 902.093 1440.61 897.903L1430.5 864.889C1430.11 863.604 1429.26 862.591 1428.18 862.122L1398.56 849.258C1395.26 847.826 1395.11 842.339 1398.33 840.658L1426.35 825.993C1427.27 825.513 1428 824.63 1428.38 823.528L1440.43 788.99Z" fill="#151439"/>
</svg>
