<svg width="500"  viewBox="0 0 582 656" fill="none" xmlns="http://www.w3.org/2000/svg">
<path d="M290.585 655.554C451.071 655.554 581.17 525.455 581.17 364.969C581.17 204.483 451.071 74.3838 290.585 74.3838C130.099 74.3838 0 204.483 0 364.969C0 525.455 130.099 655.554 290.585 655.554Z" fill="#218DD8"/>
<path d="M225.651 536.614L24.4414 482.425L32.5886 499.399L41.4149 515.013L50.92 529.95L63.1408 546.924L211.107 589.095C225.02 593.06 239.605 585.453 244.316 571.776C249.454 556.862 240.884 540.715 225.651 536.614Z" fill="white"/>
<path d="M301.585 278.508L580.491 345.28C579.811 335.774 577.097 317.443 575.059 306.579C573.632 298.971 570.987 286.212 564.875 269.239L318.858 207.852C299.781 203.091 280.379 214.353 275.045 233.276C269.446 253.153 281.502 273.699 301.585 278.508Z" fill="#46CC5D"/>
<path d="M322.641 376.494L510.111 423.289C527.782 427.701 545.499 416.247 548.73 398.323C551.749 378.006 538.913 358.694 519.01 353.609L339.969 307.879C320.027 302.784 299.962 315.721 296.37 335.99C293.126 354.296 304.604 371.991 322.641 376.494Z" fill="#46CC5D"/>
<path d="M420.267 312.481C424.81 295.53 406.11 278.853 396.192 272.633L502.473 301.111C492.799 301.191 472.18 306.086 467.104 325.03C462.027 343.978 476.099 363.512 483.771 370.911L377.49 342.433C389.856 339.511 415.726 329.434 420.267 312.481Z" fill="#46CC5D"/>
<path d="M361.193 274.813L50.2413 199.308C44.8098 206.777 35.2078 221.714 30.5522 232.576C27.5029 239.691 17.6523 261.771 17.6523 263.129L343.704 345.439C362.809 350.264 382.282 338.998 387.625 320.031C393.215 300.192 381.223 279.675 361.193 274.813Z" fill="white"/>
<path d="M299.327 361.66L118.523 316.034C102.011 311.867 85.4502 322.654 82.5838 339.44C80.0338 354.386 89.342 368.798 104.012 372.621L284.461 419.63C301.587 424.092 318.823 412.795 321.566 395.31C323.962 380.03 314.32 365.445 299.327 361.66Z" fill="white"/>
<path d="M237.359 180.157L117.357 149.873C106.398 147.109 95.4058 154.267 93.5034 165.409C91.8102 175.327 97.9885 184.895 107.726 187.431L227.492 218.631C238.86 221.593 250.301 214.095 252.121 202.492C253.711 192.351 247.312 182.667 237.359 180.157Z" fill="white"/>
<path d="M226.091 324.703C230.633 307.75 211.932 291.073 202.015 284.855L308.297 313.332C298.622 313.411 278.002 318.306 272.927 337.253C267.849 356.199 281.923 375.732 289.593 383.131L183.312 354.653C195.68 351.731 221.55 341.654 226.091 324.703Z" fill="white"/>
<path d="M141.818 210.229C144.766 199.229 132.632 188.407 126.197 184.371L195.161 202.849C188.884 202.902 175.504 206.078 172.21 218.371C168.916 230.666 178.048 243.341 183.025 248.142L114.061 229.663C122.086 227.767 138.872 221.227 141.818 210.229Z" fill="white"/>
<path d="M421.186 477.064L322.816 450.706C311.225 447.601 299.312 454.479 296.207 466.07C293.101 477.659 299.979 489.571 311.57 492.677L409.94 519.037C421.531 522.142 433.443 515.264 436.549 503.673C439.655 492.083 432.777 480.17 421.186 477.064Z" fill="white"/>
<path d="M513.573 206.036L431.388 184.016C421.706 181.42 411.753 187.167 409.158 196.85C406.564 206.533 412.31 216.486 421.992 219.08L504.177 241.102C513.86 243.696 523.813 237.95 526.407 228.268C529.002 218.583 523.256 208.632 513.573 206.036Z" fill="white"/>
<path d="M421.186 148.458L322.816 122.1C311.225 118.995 299.312 125.873 296.207 137.463C293.101 149.053 299.979 160.966 311.57 164.072L409.94 190.43C421.531 193.536 433.443 186.658 436.549 175.067C439.655 163.477 432.777 151.564 421.186 148.458Z" fill="#46CC5D"/>
<path d="M195.983 435.545L74.9602 403.118C60.7012 399.298 46.0447 407.76 42.224 422.018C38.4033 436.277 46.8653 450.933 61.1242 454.755L182.146 487.182C196.406 491.002 211.061 482.542 214.883 468.282C218.703 454.023 210.241 439.367 195.983 435.545Z" fill="#46CC5D"/>
<path d="M467.79 540.135C483.163 540.135 495.626 527.672 495.626 512.299C495.626 496.925 483.163 484.462 467.79 484.462C452.416 484.462 439.953 496.925 439.953 512.299C439.953 527.672 452.416 540.135 467.79 540.135Z" fill="white"/>
<path d="M204.441 643.632C240.979 654.648 279.326 658.357 317.296 654.551C355.266 650.747 392.115 639.499 425.738 621.451C459.361 603.405 489.1 578.913 513.258 549.374C537.416 519.834 555.518 485.824 566.533 449.288C577.547 412.752 581.257 374.404 577.452 336.435C573.646 298.465 562.4 261.617 544.352 227.993C526.306 194.37 501.814 164.63 472.273 140.472C442.733 116.315 408.725 98.2123 372.189 87.198L288.315 365.414L204.441 643.632Z" fill="#1467D2" fill-opacity="0.28"/>
<path d="M215.687 288.617C209.849 301.78 190.986 301.237 185.914 287.759L123.02 120.654C100.674 61.2839 145.68 -1.78545 209.091 0.0386481C272.501 1.86273 313.806 67.415 288.083 125.403L215.687 288.617Z" fill="#7ADE75"/>
<path d="M204.53 160.335C242.183 160.335 272.706 129.811 272.706 92.1585C272.706 54.5058 242.183 23.9822 204.53 23.9822C166.877 23.9822 136.354 54.5058 136.354 92.1585C136.354 129.811 166.877 160.335 204.53 160.335Z" fill="#FFFDFF"/>
<path d="M266.516 27.2528C263.076 24.2681 258.054 19.1056 251.502 15.137C249.88 14.1552 247.809 14.6201 246.636 16.1088C245.232 17.8904 245.607 20.4817 247.453 21.8006C253.373 26.0318 257.274 29.0031 262.449 34.3269C270.952 43.0766 277.764 54.3689 281.635 66.6606C282.362 68.9656 284.858 70.272 287.116 69.4149C289.072 68.6734 290.128 66.5729 289.449 64.5947C286.826 56.937 279.501 38.5191 266.516 27.2528Z" fill="#BEFCA9"/>
<path d="M201.564 56.3316C203.077 56.3316 204.303 55.1041 204.303 53.59V40.9547C204.303 39.4405 203.077 38.2131 201.564 38.2131C200.05 38.2131 198.824 39.4405 198.824 40.9547V53.59C198.824 55.1041 200.05 56.3316 201.564 56.3316Z" fill="#007AB0"/>
<path d="M201.564 31.7761C197.946 31.7761 195.012 34.7113 195.012 38.3322C195.012 41.9529 197.946 44.8883 201.564 44.8883C205.182 44.8883 208.116 41.9529 208.116 38.3322C208.116 34.7113 205.182 31.7761 201.564 31.7761Z" fill="#2DE68C"/>
<path d="M201.564 56.3316C203.077 56.3316 204.303 55.1041 204.303 53.59V40.9547C204.303 39.4405 203.077 38.2131 201.564 38.2131C200.05 38.2131 198.824 39.4405 198.824 40.9547V53.59C198.824 55.1041 200.05 56.3316 201.564 56.3316Z" fill="#007AB0"/>
<path d="M201.564 31.7761C197.946 31.7761 195.012 34.7113 195.012 38.3322C195.012 41.9529 197.946 44.8883 201.564 44.8883C205.182 44.8883 208.116 41.9529 208.116 38.3322C208.116 34.7113 205.182 31.7761 201.564 31.7761Z" fill="#2DE68C"/>
<path d="M196.845 33.7917C195.57 34.9568 195.023 36.8392 194.979 38.179C194.965 38.6137 195.324 38.9437 195.757 38.9727C196.268 39.007 196.721 38.6153 196.836 38.1152C197.02 37.3261 197.425 36.1495 198.309 35.0748C199.246 33.9357 200.518 33.6776 202.385 33.6226C202.994 33.6048 203.422 33.0134 203.231 32.4372C203.132 32.1406 202.884 31.9137 202.575 31.8633C199.598 31.3768 197.977 32.7582 196.845 33.7917Z" fill="#BEFCA9"/>
<path d="M204.352 34.3416C204.858 34.3416 205.268 33.9315 205.268 33.4255C205.268 32.9194 204.858 32.5093 204.352 32.5093C203.846 32.5093 203.438 32.9194 203.438 33.4255C203.438 33.9315 203.846 34.3416 204.352 34.3416Z" fill="#BEFCA9"/>
<path d="M204.352 42.2215C202.704 43.2362 200.69 43.6874 197.211 43.1377C197.211 43.1377 200.69 46.8026 205.634 43.5042C207.371 42.3453 208.199 40.0225 208.015 37.2737C206.917 39.8391 206.734 40.7554 204.352 42.2215Z" fill="#00BFAA"/>
<path d="M215.982 58.7434C217.322 59.4443 218.978 58.9243 219.678 57.5822L225.523 46.382C226.223 45.0397 225.703 43.3836 224.363 42.6828C223.021 41.9819 221.365 42.5019 220.665 43.844L214.822 55.0442C214.121 56.3865 214.64 58.0425 215.982 58.7434Z" fill="#007AB0"/>
<path d="M227.342 36.9768C224.134 35.301 220.176 36.5442 218.501 39.7537C216.827 42.9632 218.068 46.9238 221.276 48.5997C224.484 50.2757 228.442 49.0324 230.117 45.8228C231.792 42.6133 230.549 38.6528 227.342 36.9768Z" fill="#2DE68C"/>
<path d="M222.224 36.5771C220.554 37.0194 219.2 38.4349 218.54 39.6021C218.326 39.9808 218.492 40.4394 218.864 40.6661C219.3 40.9337 219.882 40.7954 220.217 40.4059C220.744 39.7914 221.647 38.9358 222.929 38.393C224.288 37.8174 225.533 38.1774 227.215 38.9939C227.761 39.259 228.415 38.9338 228.511 38.3343C228.56 38.0255 228.445 37.7097 228.196 37.5222C225.782 35.7121 223.704 36.1848 222.224 36.5771Z" fill="#BEFCA9"/>
<path d="M228.626 40.5422C229.073 40.7763 229.627 40.6026 229.86 40.154C230.095 39.7055 229.92 39.1519 229.473 38.9178C229.024 38.6834 228.472 38.8573 228.237 39.3058C228.003 39.7545 228.176 40.3078 228.626 40.5422Z" fill="#BEFCA9"/>
<path d="M224.978 47.527C223.047 47.6632 221.054 47.13 218.223 45.0311C218.223 45.0311 219.613 49.8915 225.521 49.2577C227.598 49.035 229.405 47.359 230.514 44.8376C228.353 46.6028 227.767 47.3302 224.978 47.527Z" fill="#00BFAA"/>
<path d="M201.931 117.903C200.417 117.903 199.191 119.13 199.191 120.645V133.28C199.191 134.794 200.417 136.022 201.931 136.022C203.445 136.022 204.67 134.794 204.67 133.28V120.645C204.67 119.13 203.445 117.903 201.931 117.903Z" fill="#007AB0"/>
<path d="M201.929 142.458C205.548 142.458 208.482 139.523 208.482 135.902C208.482 132.281 205.548 129.346 201.929 129.346C198.311 129.346 195.377 132.281 195.377 135.902C195.377 139.523 198.311 142.458 201.929 142.458Z" fill="#2DE68C"/>
<path d="M206.651 140.443C207.926 139.278 208.472 137.395 208.516 136.056C208.531 135.621 208.173 135.291 207.738 135.262C207.227 135.227 206.776 135.619 206.66 136.119C206.476 136.909 206.071 138.085 205.186 139.16C204.249 140.299 202.978 140.557 201.11 140.612C200.503 140.63 200.074 141.221 200.265 141.797C200.364 142.094 200.611 142.321 200.921 142.371C203.897 142.858 205.521 141.476 206.651 140.443Z" fill="#BEFCA9"/>
<path d="M199.143 139.893C198.637 139.893 198.227 140.303 198.227 140.809C198.227 141.315 198.637 141.725 199.143 141.725C199.648 141.725 200.057 141.315 200.057 140.809C200.057 140.303 199.648 139.893 199.143 139.893Z" fill="#BEFCA9"/>
<path d="M199.143 132.013C200.791 130.998 202.805 130.547 206.284 131.097C206.284 131.097 202.805 127.432 197.861 130.731C196.124 131.889 195.296 134.212 195.48 136.961C196.578 134.396 196.762 133.479 199.143 132.013Z" fill="#00BFAA"/>
<path d="M188.076 116.146C186.656 115.621 185.081 116.346 184.555 117.766L180.173 129.616C179.648 131.036 180.373 132.613 181.791 133.139C183.211 133.664 184.787 132.939 185.312 131.519L189.695 119.669C190.22 118.249 189.495 116.672 188.076 116.146Z" fill="#007AB0"/>
<path d="M179.557 139.176C182.951 140.432 186.72 138.698 187.975 135.303C189.231 131.907 187.498 128.135 184.104 126.879C180.71 125.622 176.942 127.356 175.686 130.752C174.431 134.148 176.164 137.919 179.557 139.176Z" fill="#2DE68C"/>
<path d="M184.682 138.925C186.282 138.275 187.448 136.699 187.953 135.458C188.118 135.055 187.897 134.621 187.499 134.443C187.03 134.234 186.471 134.444 186.19 134.873C185.745 135.549 184.956 136.512 183.753 137.213C182.48 137.955 181.198 137.756 179.427 137.159C178.851 136.965 178.244 137.37 178.223 137.977C178.214 138.29 178.368 138.589 178.639 138.743C181.261 140.233 183.263 139.501 184.682 138.925Z" fill="#BEFCA9"/>
<path d="M177.83 135.801C177.357 135.626 176.83 135.868 176.655 136.343C176.479 136.817 176.721 137.344 177.196 137.52C177.67 137.695 178.197 137.453 178.372 136.978C178.549 136.504 178.306 135.977 177.83 135.801Z" fill="#BEFCA9"/>
<path d="M180.565 128.412C182.463 128.032 184.509 128.309 187.581 130.033C187.581 130.033 185.59 125.387 179.808 126.763C177.776 127.247 176.196 129.138 175.414 131.78C177.334 129.756 177.824 128.96 180.565 128.412Z" fill="#00BFAA"/>
<path d="M176.827 110.444C175.757 109.373 174.022 109.373 172.952 110.444L164.023 119.379C162.953 120.449 162.953 122.185 164.023 123.256C165.093 124.326 166.828 124.326 167.898 123.256L176.827 114.321C177.897 113.251 177.897 111.515 176.827 110.444Z" fill="#007AB0"/>
<path d="M159.476 127.808C162.034 130.368 166.183 130.368 168.741 127.808C171.3 125.247 171.3 121.096 168.741 118.536C166.183 115.976 162.034 115.976 159.476 118.536C156.917 121.096 156.917 125.247 159.476 127.808Z" fill="#2DE68C"/>
<path d="M164.236 129.722C165.961 129.801 167.678 128.856 168.656 127.94C168.973 127.643 168.952 127.156 168.666 126.828C168.328 126.442 167.733 126.4 167.297 126.671C166.61 127.099 165.492 127.645 164.107 127.779C162.639 127.921 161.558 127.204 160.198 125.921C159.756 125.504 159.035 125.619 158.763 126.162C158.624 126.441 158.639 126.777 158.821 127.031C160.582 129.481 162.706 129.653 164.236 129.722Z" fill="#BEFCA9"/>
<path d="M159.315 124.021C158.958 123.663 158.378 123.663 158.02 124.021C157.662 124.379 157.663 124.959 158.02 125.317C158.378 125.675 158.958 125.675 159.315 125.317C159.673 124.959 159.673 124.379 159.315 124.021Z" fill="#BEFCA9"/>
<path d="M164.885 118.449C166.768 118.898 168.511 120.004 170.583 122.855C170.583 122.855 170.712 117.802 164.885 116.635C162.837 116.226 160.612 117.283 158.799 119.356C161.389 118.32 162.166 117.802 164.885 118.449Z" fill="#00BFAA"/>
<path d="M173.106 99.6647L173.106 99.6645C172.701 98.2056 171.191 97.3511 169.733 97.7561L157.566 101.136C156.108 101.541 155.254 103.052 155.659 104.511C156.064 105.97 157.574 106.824 159.032 106.419L171.199 103.04C172.657 102.635 173.511 101.124 173.106 99.6647Z" fill="#007AB0"/>
<path d="M149.461 106.233C150.429 109.721 154.04 111.765 157.527 110.796C161.013 109.828 163.055 106.214 162.087 102.725C161.119 99.2366 157.508 97.1935 154.022 98.1619C150.535 99.1303 148.493 102.744 149.461 106.233Z" fill="#2DE68C"/>
<path d="M152.664 110.245C154.127 111.163 156.086 111.186 157.388 110.87C157.81 110.768 158.032 110.334 157.944 109.907C157.84 109.405 157.342 109.075 156.83 109.096C156.02 109.131 154.779 109.055 153.508 108.489C152.16 107.89 151.572 106.734 151.019 104.947C150.839 104.367 150.155 104.111 149.652 104.45C149.393 104.624 149.24 104.924 149.274 105.235C149.602 108.236 151.366 109.431 152.664 110.245Z" fill="#BEFCA9"/>
<path d="M151.187 102.859C151.052 102.371 150.547 102.085 150.06 102.221C149.572 102.356 149.287 102.861 149.422 103.349C149.558 103.836 150.062 104.122 150.549 103.987C151.037 103.851 151.322 103.346 151.187 102.859Z" fill="#BEFCA9"/>
<path d="M158.773 100.751C160.191 102.069 161.165 103.89 161.566 107.392C161.566 107.392 164.164 103.057 159.666 99.1719C158.085 97.8068 155.627 97.6312 153.029 98.5427C155.794 98.9162 156.725 98.8476 158.773 100.751Z" fill="#00BFAA"/>
<path d="M227.05 66.3284C227.74 67.6762 229.391 68.209 230.737 67.5186L241.976 61.7582C243.324 61.0679 243.856 59.4158 243.166 58.0682C242.477 56.7206 240.825 56.1877 239.479 56.878L228.24 62.6384C226.892 63.3288 226.36 64.9808 227.05 66.3284Z" fill="#007AB0"/>
<path d="M248.891 55.1339C247.241 51.9113 243.292 50.6371 240.072 52.2878C236.851 53.9384 235.578 57.889 237.228 61.1116C238.878 64.3342 242.825 65.6084 246.046 63.9577C249.266 62.3071 250.54 58.3565 248.891 55.1339Z" fill="#2DE68C"/>
<path d="M244.947 51.8486C243.329 51.2441 241.405 51.6157 240.193 52.1873C239.801 52.3728 239.67 52.8427 239.842 53.2422C240.045 53.7137 240.6 53.9369 241.097 53.8126C241.882 53.6161 243.113 53.4401 244.473 53.7381C245.913 54.0538 246.723 55.0682 247.623 56.7069C247.917 57.2392 248.638 57.3519 249.063 56.9184C249.282 56.6952 249.37 56.3711 249.275 56.0736C248.35 53.2003 246.381 52.3847 244.947 51.8486Z" fill="#BEFCA9"/>
<path d="M247.882 58.7861C248.113 59.2364 248.665 59.4145 249.114 59.1838C249.565 58.9531 249.742 58.4009 249.512 57.9507C249.282 57.5002 248.73 57.3221 248.28 57.5529C247.83 57.7835 247.652 58.3357 247.882 58.7861Z" fill="#BEFCA9"/>
<path d="M240.875 62.3785C239.22 61.3734 237.9 59.7849 236.802 56.4355C236.802 56.4355 235.129 61.2052 240.318 64.1051C242.141 65.1239 244.584 64.801 246.944 63.3848C244.161 63.5758 243.262 63.8304 240.875 62.3785Z" fill="#00BFAA"/>
<path d="M226.718 107.37C225.655 108.448 225.666 110.184 226.743 111.247L235.73 120.122C236.807 121.186 238.542 121.174 239.605 120.097C240.668 119.019 240.657 117.283 239.58 116.219L230.593 107.345C229.516 106.281 227.781 106.293 226.718 107.37Z" fill="#007AB0"/>
<path d="M244.186 124.618C246.727 122.04 246.701 117.89 244.124 115.346C241.549 112.803 237.4 112.831 234.859 115.408C232.317 117.985 232.345 122.136 234.92 124.679C237.497 127.223 241.644 127.195 244.186 124.618Z" fill="#2DE68C"/>
<path d="M246.067 119.84C246.134 118.113 245.177 116.402 244.256 115.43C243.957 115.114 243.471 115.138 243.145 115.426C242.762 115.767 242.723 116.364 242.997 116.797C243.43 117.482 243.982 118.597 244.125 119.982C244.277 121.45 243.568 122.537 242.295 123.906C241.881 124.351 241.999 125.072 242.544 125.34C242.825 125.478 243.161 125.461 243.412 125.277C245.85 123.498 246.007 121.372 246.067 119.84Z" fill="#BEFCA9"/>
<path d="M240.403 124.801C240.048 125.161 240.051 125.742 240.41 126.097C240.771 126.453 241.351 126.449 241.706 126.088C242.062 125.728 242.057 125.148 241.698 124.793C241.337 124.437 240.757 124.441 240.403 124.801Z" fill="#BEFCA9"/>
<path d="M234.8 119.267C235.235 117.38 236.329 115.629 239.164 113.536C239.164 113.536 234.113 113.44 232.985 119.279C232.591 121.33 233.662 123.55 235.746 125.351C234.693 122.766 234.17 121.992 234.8 119.267Z" fill="#00BFAA"/>
<path d="M214.717 116.378H214.715C213.464 117.229 213.139 118.935 213.99 120.187L221.087 130.638C221.937 131.89 223.641 132.215 224.893 131.365V131.364C226.143 130.514 226.468 128.808 225.618 127.556L218.522 117.105C217.672 115.853 215.967 115.527 214.717 116.378Z" fill="#007AB0"/>
<path d="M228.508 136.689C231.5 134.654 232.278 130.576 230.245 127.581C228.211 124.586 224.136 123.808 221.144 125.843C218.15 127.878 217.373 131.956 219.407 134.951C221.441 137.945 225.516 138.723 228.508 136.689Z" fill="#2DE68C"/>
<path d="M231.278 132.367C231.68 130.686 231.073 128.822 230.359 127.688C230.125 127.321 229.644 127.25 229.269 127.47C228.825 127.729 228.673 128.307 228.857 128.786C229.149 129.542 229.474 130.743 229.347 132.129C229.211 133.599 228.305 134.527 226.79 135.623C226.298 135.979 226.275 136.71 226.758 137.078C227.006 137.268 227.338 137.316 227.623 137.185C230.357 135.913 230.925 133.858 231.278 132.367Z" fill="#BEFCA9"/>
<path d="M224.76 136.134C224.343 136.418 224.233 136.988 224.518 137.407C224.803 137.825 225.372 137.934 225.789 137.65C226.209 137.365 226.316 136.795 226.034 136.377C225.749 135.958 225.179 135.85 224.76 136.134Z" fill="#BEFCA9"/>
<path d="M220.334 129.616C221.128 127.85 222.541 126.344 225.728 124.842C225.728 124.842 220.792 123.768 218.554 129.277C217.767 131.212 218.388 133.598 220.084 135.769C219.552 133.029 219.189 132.168 220.334 129.616Z" fill="#00BFAA"/>
<path d="M174.388 70.35C175.295 69.138 175.048 67.4197 173.837 66.512L163.73 58.9379C162.519 58.0303 160.802 58.277 159.895 59.489C158.988 60.701 159.234 62.4191 160.445 63.3269L170.552 70.9009C171.763 71.8085 173.481 71.5619 174.388 70.35Z" fill="#007AB0"/>
<path d="M154.746 55.6303C152.576 58.5286 153.166 62.6374 156.062 64.8079C158.959 66.9784 163.065 66.3884 165.234 63.4903C167.403 60.5921 166.813 56.4833 163.917 54.3128C161.021 52.1423 156.915 52.7323 154.746 55.6303Z" fill="#2DE68C"/>
<path d="M153.528 60.6193C153.695 62.339 154.874 63.9052 155.919 64.7434C156.258 65.0156 156.737 64.926 157.02 64.5959C157.354 64.2065 157.312 63.6104 156.981 63.2176C156.46 62.5975 155.762 61.5679 155.432 60.2153C155.083 58.7814 155.638 57.6089 156.714 56.0793C157.064 55.5827 156.848 54.8845 156.272 54.6928C155.976 54.5941 155.646 54.6564 155.421 54.8732C153.247 56.9659 153.379 59.0939 153.528 60.6193Z" fill="#BEFCA9"/>
<path d="M158.469 54.9356C158.772 54.5304 158.69 53.9562 158.285 53.6529C157.88 53.3496 157.306 53.432 157.003 53.837C156.7 54.2421 156.782 54.8164 157.187 55.1197C157.592 55.423 158.166 55.3406 158.469 54.9356Z" fill="#BEFCA9"/>
<path d="M164.771 59.6588C164.595 61.5873 163.748 63.4712 161.223 65.9285C161.223 65.9285 166.24 65.3385 166.566 59.4011C166.68 57.3148 165.317 55.2605 163.009 53.7595C164.402 56.1774 165.025 56.8733 164.771 59.6588Z" fill="#00BFAA"/>
<path d="M186.409 60.0759C187.707 59.2988 188.13 57.6153 187.353 56.3158L180.873 45.4715C180.097 44.172 178.413 43.7484 177.115 44.5255C175.817 45.3026 175.393 46.986 176.17 48.2855L182.651 59.1299C183.427 60.4294 185.109 60.853 186.409 60.0759Z" fill="#007AB0"/>
<path d="M173.813 39.001C170.708 40.8592 169.696 44.8849 171.553 47.9923C173.41 51.0999 177.432 52.1128 180.538 50.2546C183.643 48.3962 184.657 44.3707 182.8 41.2631C180.943 38.1556 176.919 37.1428 173.813 39.001Z" fill="#2DE68C"/>
<path d="M170.798 43.1547C170.301 44.8096 170.798 46.7058 171.447 47.8784C171.658 48.259 172.135 48.3578 172.522 48.1599C172.979 47.9265 173.165 47.3586 173.008 46.8698C172.761 46.0982 172.505 44.8806 172.713 43.5038C172.934 42.0446 173.892 41.1706 175.467 40.1637C175.979 39.8368 176.044 39.109 175.584 38.7129C175.347 38.5091 175.018 38.4416 174.728 38.5567C171.923 39.6679 171.239 41.687 170.798 43.1547Z" fill="#BEFCA9"/>
<path d="M177.525 39.7712C177.958 39.5114 178.1 38.9488 177.84 38.5144C177.581 38.0803 177.019 37.9386 176.585 38.1984C176.151 38.458 176.009 39.0206 176.269 39.4549C176.528 39.8893 177.09 40.0308 177.525 39.7712Z" fill="#BEFCA9"/>
<path d="M181.564 46.5339C180.67 48.2515 179.172 49.6731 175.904 50.9881C175.904 50.9881 180.77 52.3467 183.322 46.9766C184.219 45.0898 183.736 42.6717 182.169 40.4067C182.542 43.1727 182.855 44.0532 181.564 46.5339Z" fill="#00BFAA"/>
<path d="M170.454 83.7779C170.454 82.2637 169.228 81.0364 167.715 81.0364H155.087C153.574 81.0364 152.348 82.2637 152.348 83.7779C152.348 85.2921 153.574 86.5195 155.087 86.5195H167.715C169.228 86.5195 170.454 85.2921 170.454 83.7779Z" fill="#007AB0"/>
<path d="M145.916 83.7777C145.916 87.3984 148.849 90.3336 152.468 90.3336C156.086 90.3336 159.019 87.3984 159.019 83.7777C159.019 80.1569 156.086 77.2217 152.468 77.2217C148.849 77.2217 145.916 80.1569 145.916 83.7777Z" fill="#2DE68C"/>
<path d="M147.93 88.5013C149.094 89.7775 150.976 90.3239 152.314 90.3683C152.749 90.3825 153.079 90.0238 153.108 89.5895C153.142 89.0775 152.751 88.626 152.251 88.5094C151.462 88.3257 150.286 87.9207 149.212 87.0357C148.074 86.0975 147.816 84.8258 147.761 82.9563C147.743 82.349 147.152 81.9194 146.576 82.1115C146.28 82.2103 146.053 82.4581 146.003 82.7667C145.517 85.7456 146.897 87.3696 147.93 88.5013Z" fill="#BEFCA9"/>
<path d="M148.48 80.9885C148.48 80.4824 148.07 80.0723 147.564 80.0723C147.058 80.0723 146.648 80.4824 146.648 80.9885C146.648 81.4945 147.058 81.9046 147.564 81.9046C148.07 81.9046 148.48 81.4945 148.48 80.9885Z" fill="#BEFCA9"/>
<path d="M156.355 80.9883C157.369 82.6376 157.82 84.6532 157.27 88.135C157.27 88.135 160.933 84.6532 157.637 79.7056C156.478 77.9673 154.157 77.14 151.41 77.3234C153.974 78.4229 154.89 78.6061 156.355 80.9883Z" fill="#00BFAA"/>
<path d="M233.105 80.0973C233.105 81.6115 234.331 82.839 235.845 82.839H248.472C249.984 82.839 251.212 81.6115 251.212 80.0973C251.212 78.5832 249.984 77.3557 248.472 77.3557H235.845C234.331 77.3557 233.105 78.5832 233.105 80.0973Z" fill="#007AB0"/>
<path d="M257.642 80.0974C257.642 76.4767 254.71 73.5415 251.09 73.5415C247.471 73.5415 244.539 76.4767 244.539 80.0974C244.539 83.7183 247.471 86.6535 251.09 86.6535C254.71 86.6535 257.642 83.7183 257.642 80.0974Z" fill="#2DE68C"/>
<path d="M255.631 75.3739C254.466 74.0977 252.586 73.551 251.247 73.507C250.812 73.4927 250.481 73.8515 250.453 74.2855C250.42 74.7978 250.81 75.2493 251.311 75.3655C252.1 75.5491 253.274 75.9541 254.349 76.8396C255.486 77.7778 255.745 79.0495 255.799 80.919C255.817 81.5263 256.408 81.9557 256.984 81.7639C257.281 81.6648 257.508 81.417 257.557 81.1084C258.044 78.1296 256.664 76.5057 255.631 75.3739Z" fill="#BEFCA9"/>
<path d="M255.08 82.887C255.08 83.3929 255.489 83.8032 255.994 83.8032C256.5 83.8032 256.91 83.3929 256.91 82.887C256.91 82.381 256.5 81.9707 255.994 81.9707C255.489 81.9707 255.08 82.381 255.08 82.887Z" fill="#BEFCA9"/>
<path d="M247.205 82.8867C246.192 81.2374 245.741 79.2217 246.289 75.74C246.289 75.74 242.626 79.2217 245.923 84.1694C247.081 85.9077 249.403 86.7349 252.15 86.5516C249.585 85.4522 248.669 85.2689 247.205 82.8867Z" fill="#00BFAA"/>
<path d="M232.808 95.8629C232.369 97.3121 233.186 98.8429 234.635 99.282L246.719 102.947C248.167 103.387 249.697 102.568 250.136 101.119C250.574 99.67 249.757 98.1394 248.309 97.7001L236.225 94.0347C234.776 93.5954 233.247 94.414 232.808 95.8629Z" fill="#007AB0"/>
<path d="M256.292 102.986C257.341 99.5214 255.385 95.8609 251.922 94.8106C248.46 93.7601 244.802 95.7176 243.752 99.1827C242.703 102.648 244.659 106.308 248.122 107.359C251.585 108.409 255.242 106.451 256.292 102.986Z" fill="#2DE68C"/>
<path d="M255.734 97.8817C254.989 96.3226 253.348 95.2532 252.078 94.8222C251.668 94.6825 251.247 94.9303 251.093 95.337C250.913 95.8175 251.157 96.3629 251.601 96.6194C252.303 97.024 253.311 97.753 254.082 98.9119C254.899 100.14 254.777 101.432 254.287 103.237C254.128 103.824 254.57 104.406 255.177 104.39C255.488 104.381 255.778 104.21 255.916 103.929C257.244 101.219 256.393 99.2644 255.734 97.8817Z" fill="#BEFCA9"/>
<path d="M253.03 104.912C252.883 105.396 253.157 105.908 253.642 106.055C254.125 106.201 254.636 105.928 254.782 105.444C254.929 104.959 254.657 104.448 254.172 104.301C253.688 104.154 253.177 104.428 253.03 104.912Z" fill="#BEFCA9"/>
<path d="M245.493 102.626C245.001 100.753 245.154 98.6931 246.689 95.5208C246.689 95.5208 242.175 97.7898 243.894 103.482C244.499 105.481 246.482 106.947 249.163 107.569C247.028 105.772 246.206 105.331 245.493 102.626Z" fill="#00BFAA"/>
<path d="M201.606 121.569C220.621 121.569 236.034 106.145 236.034 87.1184C236.034 68.0918 220.621 52.6677 201.606 52.6677C182.593 52.6677 167.178 68.0918 167.178 87.1184C167.178 106.145 182.593 121.569 201.606 121.569Z" fill="#ED1C77"/>
<path d="M191.896 107.093C176.696 100.448 173.028 90.6004 168.821 76.8567C163.694 90.9668 170.659 112.605 188.788 119.187C204.532 124.903 223.761 119.553 232.738 101.778C214.421 110.574 199.856 110.573 191.896 107.093Z" fill="#D91866"/>
<path d="M214.787 55.2333C208.434 52.7722 203.595 52.5124 199.197 52.7259C198.124 52.778 197.349 53.7617 197.517 54.8238C197.655 55.6985 198.396 56.3508 199.28 56.3492C203.348 56.3418 208.02 56.0524 212.406 58.1651C214.309 59.0824 218.478 61.6687 221.199 63.6588C222.103 64.3194 223.403 64.1526 224.048 63.2381C224.611 62.44 224.489 61.3302 223.751 60.6914C222.023 59.1977 219.089 56.8999 214.787 55.2333Z" fill="#FF599F"/>
<path d="M180.552 75.023C183.484 75.023 185.862 72.6436 185.862 69.7087C185.862 66.7737 183.484 64.3945 180.552 64.3945C177.618 64.3945 175.24 66.7737 175.24 69.7087C175.24 72.6436 177.618 75.023 180.552 75.023Z" fill="#442525"/>
<path d="M172.143 61.1028C174.577 58.5837 178.776 59.2683 180.284 62.4304L183.024 68.1712C183.538 69.248 183.356 70.5283 182.562 71.4184C181.648 72.4436 180.148 72.7044 178.942 72.0485L173.356 69.0116C170.437 67.4254 169.834 63.4919 172.143 61.1028Z" fill="#CF30FF"/>
<path d="M189.648 66.1257C192.403 67.1336 195.452 65.7162 196.46 62.9596C197.467 60.2032 196.05 57.1516 193.296 56.1437C190.541 55.1358 187.492 56.5533 186.484 59.3099C185.478 62.0663 186.894 65.1179 189.648 66.1257Z" fill="#FF5599"/>
<path d="M186.527 50.1628C189.677 48.6334 193.385 50.7192 193.718 54.2074L194.321 60.5405C194.434 61.7284 193.822 62.8682 192.772 63.4315C191.562 64.0798 190.064 63.8098 189.155 62.7793L184.951 58.0075C182.755 55.5149 183.538 51.6134 186.527 50.1628Z" fill="#0399FF"/>
<path d="M202.161 62.4769C203.937 64.8125 207.268 65.2651 209.603 63.4879C211.937 61.7106 212.39 58.3764 210.613 56.0407C208.837 53.7052 205.505 53.2524 203.171 55.0298C200.836 56.8072 200.385 60.1413 202.161 62.4769Z" fill="#FF5599"/>
<path d="M208.138 47.3509C211.615 47.7639 213.614 51.5218 212.013 54.6384L209.106 60.2965C208.561 61.3577 207.433 61.9877 206.243 61.8945C204.874 61.7871 203.76 60.7515 203.551 59.3936L202.583 53.1062C202.078 49.8215 204.84 46.9594 208.138 47.3509Z" fill="#0399FF"/>
<path d="M215.032 67.0736C215.745 69.9202 218.631 71.6484 221.475 70.9339C224.321 70.2193 226.048 67.3324 225.334 64.4858C224.62 61.639 221.735 59.9108 218.89 60.6253C216.044 61.3399 214.318 64.2268 215.032 67.0736Z" fill="#FF5599"/>
<path d="M226.477 55.5228C229.512 57.2718 229.871 61.5134 227.172 63.748L222.275 67.8049C221.357 68.5658 220.071 68.7003 219.016 68.1464C217.799 67.5087 217.182 66.1176 217.523 64.787L219.106 58.6256C219.933 55.4071 223.6 53.8639 226.477 55.5228Z" fill="#0399FF"/>
<path d="M221.478 77.8237C220.325 80.5225 221.577 83.6453 224.274 84.7991C226.971 85.9529 230.09 84.7004 231.243 82.0017C232.397 79.3029 231.144 76.1801 228.449 75.0263C225.752 73.8727 222.631 75.125 221.478 77.8237Z" fill="#FF5599"/>
<path d="M237.575 75.558C238.934 78.788 236.654 82.3818 233.154 82.5273L226.801 82.7916C225.611 82.8411 224.506 82.1699 224 81.0895C223.418 79.8452 223.767 78.3639 224.844 77.5115L229.831 73.565C232.436 71.5035 236.288 72.4949 237.575 75.558Z" fill="#0399FF"/>
<path d="M221.678 95.3436C218.933 96.3777 217.545 99.4425 218.578 102.189C219.612 104.936 222.674 106.325 225.42 105.291C228.165 104.257 229.552 101.192 228.519 98.4449C227.486 95.6982 224.423 94.3096 221.678 95.3436Z" fill="#FF5599"/>
<path d="M234.383 105.406C232.991 108.622 228.821 109.461 226.296 107.034L221.71 102.627C220.85 101.8 220.569 100.538 221.001 99.425C221.494 98.1437 222.806 97.371 224.166 97.5594L230.462 98.4321C233.753 98.8881 235.702 102.356 234.383 105.406Z" fill="#0399FF"/>
<path d="M214.571 106.552C211.652 106.268 209.055 108.406 208.772 111.327C208.487 114.248 210.623 116.847 213.543 117.131C216.463 117.415 219.059 115.277 219.344 112.356C219.627 109.435 217.49 106.836 214.571 106.552Z" fill="#FF5599"/>
<path d="M221.597 121.221C218.93 123.493 214.816 122.405 213.621 119.112L211.449 113.132C211.042 112.011 211.348 110.754 212.224 109.945C213.234 109.014 214.751 108.899 215.888 109.669L221.153 113.232C223.905 115.094 224.126 119.067 221.597 121.221Z" fill="#0399FF"/>
<path d="M202.487 110.5C201.187 107.869 198.002 106.79 195.372 108.091C192.743 109.392 191.666 112.579 192.965 115.21C194.265 117.841 197.45 118.919 200.08 117.619C202.71 116.318 203.787 113.131 202.487 110.5Z" fill="#FF5599"/>
<path d="M193.743 124.212C190.408 123.145 189.161 119.076 191.324 116.32L195.253 111.319C195.991 110.381 197.218 109.977 198.368 110.295C199.691 110.661 200.589 111.889 200.536 113.262L200.29 119.619C200.163 122.94 196.907 125.224 193.743 124.212Z" fill="#0399FF"/>
<path d="M186.82 109.099C186.871 106.164 184.537 103.743 181.605 103.692C178.671 103.64 176.252 105.976 176.2 108.911C176.148 111.845 178.483 114.266 181.415 114.318C184.349 114.37 186.769 112.033 186.82 109.099Z" fill="#FF5599"/>
<path d="M172.764 117.266C170.29 114.786 171.048 110.598 174.234 109.144L180.018 106.504C181.104 106.009 182.379 106.214 183.255 107.025C184.263 107.957 184.498 109.461 183.821 110.657L180.687 116.193C179.051 119.084 175.11 119.618 172.764 117.266Z" fill="#0399FF"/>
<path d="M177.848 98.0161C179.319 95.4772 178.454 92.2252 175.917 90.7529C173.38 89.2805 170.13 90.1451 168.659 92.684C167.187 95.2229 168.052 98.4747 170.589 99.9471C173.126 101.42 176.376 100.555 177.848 98.0161Z" fill="#FF5599"/>
<path d="M161.595 98.3119C160.639 94.9413 163.337 91.6502 166.827 91.9305L173.165 92.4388C174.354 92.5341 175.369 93.3342 175.74 94.4685C176.167 95.7741 175.641 97.2021 174.469 97.9177L169.041 101.23C166.205 102.96 162.502 101.509 161.595 98.3119Z" fill="#0399FF"/>
<path d="M173.68 86.4794C176.285 85.1297 177.302 81.9227 175.953 79.3166C174.604 76.7105 171.4 75.692 168.795 77.0417C166.191 78.3916 165.173 81.5985 166.522 84.2048C167.871 86.8108 171.076 87.8293 173.68 86.4794Z" fill="#FF5599"/>
<path d="M159.813 77.9891C160.817 74.6321 164.86 73.3075 167.653 75.4211L172.725 79.258C173.676 79.9775 174.102 81.1983 173.806 82.3542C173.465 83.685 172.255 84.6066 170.882 84.5791L164.525 84.4538C161.205 84.3881 158.862 81.173 159.813 77.9891Z" fill="#0399FF"/>
<path d="M180.552 75.023C183.484 75.023 185.862 72.6436 185.862 69.7087C185.862 66.7737 183.484 64.3945 180.552 64.3945C177.618 64.3945 175.24 66.7737 175.24 69.7087C175.24 72.6436 177.618 75.023 180.552 75.023Z" fill="#FF5599"/>
<path d="M172.143 61.1028C174.577 58.5837 178.776 59.2683 180.284 62.4304L183.024 68.1712C183.538 69.248 183.356 70.5283 182.562 71.4184C181.648 72.4436 180.148 72.7044 178.942 72.0485L173.356 69.0116C170.437 67.4254 169.834 63.4919 172.143 61.1028Z" fill="#0399FF"/>
<path d="M236.04 91.5153C236.04 94.1463 235.373 96.2797 232.743 96.2797C230.113 96.2797 227.982 94.1463 227.982 91.5153C227.982 88.8837 230.113 86.7507 232.743 86.7507C235.373 86.7507 236.04 88.8837 236.04 91.5153Z" fill="#FF5599"/>
<path d="M244.902 91.1453C245.157 94.6403 241.848 97.316 238.486 96.3338L232.383 94.5513C231.238 94.2171 230.407 93.2274 230.273 92.0418C230.119 90.6767 230.924 89.3848 232.216 88.9218L238.201 86.7785C241.329 85.6592 244.661 87.8311 244.902 91.1453Z" fill="#0399FF"/>
<path d="M227.793 73.5568C229.311 73.5568 230.54 72.326 230.54 70.8081C230.54 69.29 229.311 68.0593 227.793 68.0593C226.276 68.0593 225.047 69.29 225.047 70.8081C225.047 72.326 226.276 73.5568 227.793 73.5568Z" fill="#FF599F"/>
</svg>
