<svg width='520' id="eZmefAcivNz1" xmlns="http://www.w3.org/2000/svg" xmlns:xlink="http://www.w3.org/1999/xlink" viewBox="0 0 582 656" shape-rendering="geometricPrecision" text-rendering="geometricPrecision"><style><![CDATA[#eZmefAcivNz21_tr {animation: eZmefAcivNz21_tr__tr 3000ms linear infinite normal forwards}@keyframes eZmefAcivNz21_tr__tr { 0% {transform: translate(201.780190px,87.117229px) rotate(0deg);animation-timing-function: cubic-bezier(1,0,0,1)} 100% {transform: translate(201.780190px,87.117229px) rotate(360deg)}}]]></style><path id="eZmefAcivNz2" d="M290.585000,655.554000C451.071000,655.554000,581.170000,525.455000,581.170000,364.969000C581.170000,204.483000,451.071000,74.383800,290.585000,74.383800C130.099000,74.383800,0,204.483000,0,364.969000C0,525.455000,130.099000,655.554000,290.585000,655.554000Z" fill="rgb(33,141,216)" stroke="none" stroke-width="1"/><path id="eZmefAcivNz3" d="M225.651000,536.614000L24.441400,482.425000L32.588600,499.399000L41.414900,515.013000L50.920000,529.950000L63.140800,546.924000L211.107000,589.095000C225.020000,593.060000,239.605000,585.453000,244.316000,571.776000C249.454000,556.862000,240.884000,540.715000,225.651000,536.614000Z" fill="rgb(255,255,255)" stroke="none" stroke-width="1"/><path id="eZmefAcivNz4" d="M301.585000,278.508000L580.491000,345.280000C579.811000,335.774000,577.097000,317.443000,575.059000,306.579000C573.632000,298.971000,570.987000,286.212000,564.875000,269.239000L318.858000,207.852000C299.781000,203.091000,280.379000,214.353000,275.045000,233.276000C269.446000,253.153000,281.502000,273.699000,301.585000,278.508000Z" fill="rgb(70,204,93)" stroke="none" stroke-width="1"/><path id="eZmefAcivNz5" d="M322.641000,376.494000L510.111000,423.289000C527.782000,427.701000,545.499000,416.247000,548.730000,398.323000C551.749000,378.006000,538.913000,358.694000,519.010000,353.609000L339.969000,307.879000C320.027000,302.784000,299.962000,315.721000,296.370000,335.990000C293.126000,354.296000,304.604000,371.991000,322.641000,376.494000Z" fill="rgb(70,204,93)" stroke="none" stroke-width="1"/><path id="eZmefAcivNz6" d="M420.267000,312.481000C424.810000,295.530000,406.110000,278.853000,396.192000,272.633000L502.473000,301.111000C492.799000,301.191000,472.180000,306.086000,467.104000,325.030000C462.027000,343.978000,476.099000,363.512000,483.771000,370.911000L377.490000,342.433000C389.856000,339.511000,415.726000,329.434000,420.267000,312.481000Z" fill="rgb(70,204,93)" stroke="none" stroke-width="1"/><path id="eZmefAcivNz7" d="M361.193000,274.813000L50.241300,199.308000C44.809800,206.777000,35.207800,221.714000,30.552200,232.576000C27.502900,239.691000,17.652300,261.771000,17.652300,263.129000L343.704000,345.439000C362.809000,350.264000,382.282000,338.998000,387.625000,320.031000C393.215000,300.192000,381.223000,279.675000,361.193000,274.813000Z" fill="rgb(255,255,255)" stroke="none" stroke-width="1"/><path id="eZmefAcivNz8" d="M299.327000,361.660000L118.523000,316.034000C102.011000,311.867000,85.450200,322.654000,82.583800,339.440000C80.033800,354.386000,89.342000,368.798000,104.012000,372.621000L284.461000,419.630000C301.587000,424.092000,318.823000,412.795000,321.566000,395.310000C323.962000,380.030000,314.320000,365.445000,299.327000,361.660000Z" fill="rgb(255,255,255)" stroke="none" stroke-width="1"/><path id="eZmefAcivNz9" d="M237.359000,180.157000L117.357000,149.873000C106.398000,147.109000,95.405800,154.267000,93.503400,165.409000C91.810200,175.327000,97.988500,184.895000,107.726000,187.431000L227.492000,218.631000C238.860000,221.593000,250.301000,214.095000,252.121000,202.492000C253.711000,192.351000,247.312000,182.667000,237.359000,180.157000Z" fill="rgb(255,255,255)" stroke="none" stroke-width="1"/><path id="eZmefAcivNz10" d="M226.091000,324.703000C230.633000,307.750000,211.932000,291.073000,202.015000,284.855000L308.297000,313.332000C298.622000,313.411000,278.002000,318.306000,272.927000,337.253000C267.849000,356.199000,281.923000,375.732000,289.593000,383.131000L183.312000,354.653000C195.680000,351.731000,221.550000,341.654000,226.091000,324.703000Z" fill="rgb(255,255,255)" stroke="none" stroke-width="1"/><path id="eZmefAcivNz11" d="M141.818000,210.229000C144.766000,199.229000,132.632000,188.407000,126.197000,184.371000L195.161000,202.849000C188.884000,202.902000,175.504000,206.078000,172.210000,218.371000C168.916000,230.666000,178.048000,243.341000,183.025000,248.142000L114.061000,229.663000C122.086000,227.767000,138.872000,221.227000,141.818000,210.229000Z" fill="rgb(255,255,255)" stroke="none" stroke-width="1"/><path id="eZmefAcivNz12" d="M421.186000,477.064000L322.816000,450.706000C311.225000,447.601000,299.312000,454.479000,296.207000,466.070000C293.101000,477.659000,299.979000,489.571000,311.570000,492.677000L409.940000,519.037000C421.531000,522.142000,433.443000,515.264000,436.549000,503.673000C439.655000,492.083000,432.777000,480.170000,421.186000,477.064000Z" fill="rgb(255,255,255)" stroke="none" stroke-width="1"/><path id="eZmefAcivNz13" d="M513.573000,206.036000L431.388000,184.016000C421.706000,181.420000,411.753000,187.167000,409.158000,196.850000C406.564000,206.533000,412.310000,216.486000,421.992000,219.080000L504.177000,241.102000C513.860000,243.696000,523.813000,237.950000,526.407000,228.268000C529.002000,218.583000,523.256000,208.632000,513.573000,206.036000Z" fill="rgb(255,255,255)" stroke="none" stroke-width="1"/><path id="eZmefAcivNz14" d="M421.186000,148.458000L322.816000,122.100000C311.225000,118.995000,299.312000,125.873000,296.207000,137.463000C293.101000,149.053000,299.979000,160.966000,311.570000,164.072000L409.940000,190.430000C421.531000,193.536000,433.443000,186.658000,436.549000,175.067000C439.655000,163.477000,432.777000,151.564000,421.186000,148.458000Z" fill="rgb(70,204,93)" stroke="none" stroke-width="1"/><path id="eZmefAcivNz15" d="M195.983000,435.545000L74.960200,403.118000C60.701200,399.298000,46.044700,407.760000,42.224000,422.018000C38.403300,436.277000,46.865300,450.933000,61.124200,454.755000L182.146000,487.182000C196.406000,491.002000,211.061000,482.542000,214.883000,468.282000C218.703000,454.023000,210.241000,439.367000,195.983000,435.545000Z" fill="rgb(70,204,93)" stroke="none" stroke-width="1"/><path id="eZmefAcivNz16" d="M467.790000,540.135000C483.163000,540.135000,495.626000,527.672000,495.626000,512.299000C495.626000,496.925000,483.163000,484.462000,467.790000,484.462000C452.416000,484.462000,439.953000,496.925000,439.953000,512.299000C439.953000,527.672000,452.416000,540.135000,467.790000,540.135000Z" fill="rgb(255,255,255)" stroke="none" stroke-width="1"/><path id="eZmefAcivNz17" d="M204.441000,643.632000C240.979000,654.648000,279.326000,658.357000,317.296000,654.551000C355.266000,650.747000,392.115000,639.499000,425.738000,621.451000C459.361000,603.405000,489.100000,578.913000,513.258000,549.374000C537.416000,519.834000,555.518000,485.824000,566.533000,449.288000C577.547000,412.752000,581.257000,374.404000,577.452000,336.435000C573.646000,298.465000,562.400000,261.617000,544.352000,227.993000C526.306000,194.370000,501.814000,164.630000,472.273000,140.472000C442.733000,116.315000,408.725000,98.212300,372.189000,87.198000L288.315000,365.414000L204.441000,643.632000Z" fill="rgb(20,103,210)" fill-opacity="0.28" stroke="none" stroke-width="1"/><path id="eZmefAcivNz18" d="M215.687000,288.617000C209.849000,301.780000,190.986000,301.237000,185.914000,287.759000L123.020000,120.654000C100.674000,61.283900,145.680000,-1.785450,209.091000,0.038648C272.501000,1.862730,313.806000,67.415000,288.083000,125.403000L215.687000,288.617000Z" fill="rgb(122,222,117)" stroke="none" stroke-width="1"/><path id="eZmefAcivNz19" d="M204.530000,160.335000C242.183000,160.335000,272.706000,129.811000,272.706000,92.158500C272.706000,54.505800,242.183000,23.982200,204.530000,23.982200C166.877000,23.982200,136.354000,54.505800,136.354000,92.158500C136.354000,129.811000,166.877000,160.335000,204.530000,160.335000Z" fill="rgb(255,253,255)" stroke="none" stroke-width="1"/><path id="eZmefAcivNz20" d="M266.516000,27.252800C263.076000,24.268100,258.054000,19.105600,251.502000,15.137000C249.880000,14.155200,247.809000,14.620100,246.636000,16.108800C245.232000,17.890400,245.607000,20.481700,247.453000,21.800600C253.373000,26.031800,257.274000,29.003100,262.449000,34.326900C270.952000,43.076600,277.764000,54.368900,281.635000,66.660600C282.362000,68.965600,284.858000,70.272000,287.116000,69.414900C289.072000,68.673400,290.128000,66.572900,289.449000,64.594700C286.826000,56.937000,279.501000,38.519100,266.516000,27.252800Z" fill="rgb(190,252,169)" stroke="none" stroke-width="1"/><g id="eZmefAcivNz21_tr" transform="translate(201.780190,87.117229) rotate(0)"><g id="eZmefAcivNz21" transform="translate(-201.780190,-87.117229)"><path id="eZmefAcivNz22" d="M201.564000,56.331600C203.077000,56.331600,204.303000,55.104100,204.303000,53.590000L204.303000,40.954700C204.303000,39.440500,203.077000,38.213100,201.564000,38.213100C200.050000,38.213100,198.824000,39.440500,198.824000,40.954700L198.824000,53.590000C198.824000,55.104100,200.050000,56.331600,201.564000,56.331600Z" fill="rgb(0,122,176)" stroke="none" stroke-width="1"/><path id="eZmefAcivNz23" d="M201.564000,31.776100C197.946000,31.776100,195.012000,34.711300,195.012000,38.332200C195.012000,41.952900,197.946000,44.888300,201.564000,44.888300C205.182000,44.888300,208.116000,41.952900,208.116000,38.332200C208.116000,34.711300,205.182000,31.776100,201.564000,31.776100Z" fill="rgb(45,230,140)" stroke="none" stroke-width="1"/><path id="eZmefAcivNz24" d="M201.564000,56.331600C203.077000,56.331600,204.303000,55.104100,204.303000,53.590000L204.303000,40.954700C204.303000,39.440500,203.077000,38.213100,201.564000,38.213100C200.050000,38.213100,198.824000,39.440500,198.824000,40.954700L198.824000,53.590000C198.824000,55.104100,200.050000,56.331600,201.564000,56.331600Z" fill="rgb(0,122,176)" stroke="none" stroke-width="1"/><path id="eZmefAcivNz25" d="M201.564000,31.776100C197.946000,31.776100,195.012000,34.711300,195.012000,38.332200C195.012000,41.952900,197.946000,44.888300,201.564000,44.888300C205.182000,44.888300,208.116000,41.952900,208.116000,38.332200C208.116000,34.711300,205.182000,31.776100,201.564000,31.776100Z" fill="rgb(45,230,140)" stroke="none" stroke-width="1"/><path id="eZmefAcivNz26" d="M196.845000,33.791700C195.570000,34.956800,195.023000,36.839200,194.979000,38.179000C194.965000,38.613700,195.324000,38.943700,195.757000,38.972700C196.268000,39.007000,196.721000,38.615300,196.836000,38.115200C197.020000,37.326100,197.425000,36.149500,198.309000,35.074800C199.246000,33.935700,200.518000,33.677600,202.385000,33.622600C202.994000,33.604800,203.422000,33.013400,203.231000,32.437200C203.132000,32.140600,202.884000,31.913700,202.575000,31.863300C199.598000,31.376800,197.977000,32.758200,196.845000,33.791700Z" fill="rgb(190,252,169)" stroke="none" stroke-width="1"/><path id="eZmefAcivNz27" d="M204.352000,34.341600C204.858000,34.341600,205.268000,33.931500,205.268000,33.425500C205.268000,32.919400,204.858000,32.509300,204.352000,32.509300C203.846000,32.509300,203.438000,32.919400,203.438000,33.425500C203.438000,33.931500,203.846000,34.341600,204.352000,34.341600Z" fill="rgb(190,252,169)" stroke="none" stroke-width="1"/><path id="eZmefAcivNz28" d="M204.352000,42.221500C202.704000,43.236200,200.690000,43.687400,197.211000,43.137700C197.211000,43.137700,200.690000,46.802600,205.634000,43.504200C207.371000,42.345300,208.199000,40.022500,208.015000,37.273700C206.917000,39.839100,206.734000,40.755400,204.352000,42.221500Z" fill="rgb(0,191,170)" stroke="none" stroke-width="1"/><path id="eZmefAcivNz29" d="M215.982000,58.743400C217.322000,59.444300,218.978000,58.924300,219.678000,57.582200L225.523000,46.382000C226.223000,45.039700,225.703000,43.383600,224.363000,42.682800C223.021000,41.981900,221.365000,42.501900,220.665000,43.844000L214.822000,55.044200C214.121000,56.386500,214.640000,58.042500,215.982000,58.743400Z" fill="rgb(0,122,176)" stroke="none" stroke-width="1"/><path id="eZmefAcivNz30" d="M227.342000,36.976800C224.134000,35.301000,220.176000,36.544200,218.501000,39.753700C216.827000,42.963200,218.068000,46.923800,221.276000,48.599700C224.484000,50.275700,228.442000,49.032400,230.117000,45.822800C231.792000,42.613300,230.549000,38.652800,227.342000,36.976800Z" fill="rgb(45,230,140)" stroke="none" stroke-width="1"/><path id="eZmefAcivNz31" d="M222.224000,36.577100C220.554000,37.019400,219.200000,38.434900,218.540000,39.602100C218.326000,39.980800,218.492000,40.439400,218.864000,40.666100C219.300000,40.933700,219.882000,40.795400,220.217000,40.405900C220.744000,39.791400,221.647000,38.935800,222.929000,38.393000C224.288000,37.817400,225.533000,38.177400,227.215000,38.993900C227.761000,39.259000,228.415000,38.933800,228.511000,38.334300C228.560000,38.025500,228.445000,37.709700,228.196000,37.522200C225.782000,35.712100,223.704000,36.184800,222.224000,36.577100Z" fill="rgb(190,252,169)" stroke="none" stroke-width="1"/><path id="eZmefAcivNz32" d="M228.626000,40.542200C229.073000,40.776300,229.627000,40.602600,229.860000,40.154000C230.095000,39.705500,229.920000,39.151900,229.473000,38.917800C229.024000,38.683400,228.472000,38.857300,228.237000,39.305800C228.003000,39.754500,228.176000,40.307800,228.626000,40.542200Z" fill="rgb(190,252,169)" stroke="none" stroke-width="1"/><path id="eZmefAcivNz33" d="M224.978000,47.527000C223.047000,47.663200,221.054000,47.130000,218.223000,45.031100C218.223000,45.031100,219.613000,49.891500,225.521000,49.257700C227.598000,49.035000,229.405000,47.359000,230.514000,44.837600C228.353000,46.602800,227.767000,47.330200,224.978000,47.527000Z" fill="rgb(0,191,170)" stroke="none" stroke-width="1"/><path id="eZmefAcivNz34" d="M201.931000,117.903000C200.417000,117.903000,199.191000,119.130000,199.191000,120.645000L199.191000,133.280000C199.191000,134.794000,200.417000,136.022000,201.931000,136.022000C203.445000,136.022000,204.670000,134.794000,204.670000,133.280000L204.670000,120.645000C204.670000,119.130000,203.445000,117.903000,201.931000,117.903000Z" fill="rgb(0,122,176)" stroke="none" stroke-width="1"/><path id="eZmefAcivNz35" d="M201.929000,142.458000C205.548000,142.458000,208.482000,139.523000,208.482000,135.902000C208.482000,132.281000,205.548000,129.346000,201.929000,129.346000C198.311000,129.346000,195.377000,132.281000,195.377000,135.902000C195.377000,139.523000,198.311000,142.458000,201.929000,142.458000Z" fill="rgb(45,230,140)" stroke="none" stroke-width="1"/><path id="eZmefAcivNz36" d="M206.651000,140.443000C207.926000,139.278000,208.472000,137.395000,208.516000,136.056000C208.531000,135.621000,208.173000,135.291000,207.738000,135.262000C207.227000,135.227000,206.776000,135.619000,206.660000,136.119000C206.476000,136.909000,206.071000,138.085000,205.186000,139.160000C204.249000,140.299000,202.978000,140.557000,201.110000,140.612000C200.503000,140.630000,200.074000,141.221000,200.265000,141.797000C200.364000,142.094000,200.611000,142.321000,200.921000,142.371000C203.897000,142.858000,205.521000,141.476000,206.651000,140.443000Z" fill="rgb(190,252,169)" stroke="none" stroke-width="1"/><path id="eZmefAcivNz37" d="M199.143000,139.893000C198.637000,139.893000,198.227000,140.303000,198.227000,140.809000C198.227000,141.315000,198.637000,141.725000,199.143000,141.725000C199.648000,141.725000,200.057000,141.315000,200.057000,140.809000C200.057000,140.303000,199.648000,139.893000,199.143000,139.893000Z" fill="rgb(190,252,169)" stroke="none" stroke-width="1"/><path id="eZmefAcivNz38" d="M199.143000,132.013000C200.791000,130.998000,202.805000,130.547000,206.284000,131.097000C206.284000,131.097000,202.805000,127.432000,197.861000,130.731000C196.124000,131.889000,195.296000,134.212000,195.480000,136.961000C196.578000,134.396000,196.762000,133.479000,199.143000,132.013000Z" fill="rgb(0,191,170)" stroke="none" stroke-width="1"/><path id="eZmefAcivNz39" d="M188.076000,116.146000C186.656000,115.621000,185.081000,116.346000,184.555000,117.766000L180.173000,129.616000C179.648000,131.036000,180.373000,132.613000,181.791000,133.139000C183.211000,133.664000,184.787000,132.939000,185.312000,131.519000L189.695000,119.669000C190.220000,118.249000,189.495000,116.672000,188.076000,116.146000Z" fill="rgb(0,122,176)" stroke="none" stroke-width="1"/><path id="eZmefAcivNz40" d="M179.557000,139.176000C182.951000,140.432000,186.720000,138.698000,187.975000,135.303000C189.231000,131.907000,187.498000,128.135000,184.104000,126.879000C180.710000,125.622000,176.942000,127.356000,175.686000,130.752000C174.431000,134.148000,176.164000,137.919000,179.557000,139.176000Z" fill="rgb(45,230,140)" stroke="none" stroke-width="1"/><path id="eZmefAcivNz41" d="M184.682000,138.925000C186.282000,138.275000,187.448000,136.699000,187.953000,135.458000C188.118000,135.055000,187.897000,134.621000,187.499000,134.443000C187.030000,134.234000,186.471000,134.444000,186.190000,134.873000C185.745000,135.549000,184.956000,136.512000,183.753000,137.213000C182.480000,137.955000,181.198000,137.756000,179.427000,137.159000C178.851000,136.965000,178.244000,137.370000,178.223000,137.977000C178.214000,138.290000,178.368000,138.589000,178.639000,138.743000C181.261000,140.233000,183.263000,139.501000,184.682000,138.925000Z" fill="rgb(190,252,169)" stroke="none" stroke-width="1"/><path id="eZmefAcivNz42" d="M177.830000,135.801000C177.357000,135.626000,176.830000,135.868000,176.655000,136.343000C176.479000,136.817000,176.721000,137.344000,177.196000,137.520000C177.670000,137.695000,178.197000,137.453000,178.372000,136.978000C178.549000,136.504000,178.306000,135.977000,177.830000,135.801000Z" fill="rgb(190,252,169)" stroke="none" stroke-width="1"/><path id="eZmefAcivNz43" d="M180.565000,128.412000C182.463000,128.032000,184.509000,128.309000,187.581000,130.033000C187.581000,130.033000,185.590000,125.387000,179.808000,126.763000C177.776000,127.247000,176.196000,129.138000,175.414000,131.780000C177.334000,129.756000,177.824000,128.960000,180.565000,128.412000Z" fill="rgb(0,191,170)" stroke="none" stroke-width="1"/><path id="eZmefAcivNz44" d="M176.827000,110.444000C175.757000,109.373000,174.022000,109.373000,172.952000,110.444000L164.023000,119.379000C162.953000,120.449000,162.953000,122.185000,164.023000,123.256000C165.093000,124.326000,166.828000,124.326000,167.898000,123.256000L176.827000,114.321000C177.897000,113.251000,177.897000,111.515000,176.827000,110.444000Z" fill="rgb(0,122,176)" stroke="none" stroke-width="1"/><path id="eZmefAcivNz45" d="M159.476000,127.808000C162.034000,130.368000,166.183000,130.368000,168.741000,127.808000C171.300000,125.247000,171.300000,121.096000,168.741000,118.536000C166.183000,115.976000,162.034000,115.976000,159.476000,118.536000C156.917000,121.096000,156.917000,125.247000,159.476000,127.808000Z" fill="rgb(45,230,140)" stroke="none" stroke-width="1"/><path id="eZmefAcivNz46" d="M164.236000,129.722000C165.961000,129.801000,167.678000,128.856000,168.656000,127.940000C168.973000,127.643000,168.952000,127.156000,168.666000,126.828000C168.328000,126.442000,167.733000,126.400000,167.297000,126.671000C166.610000,127.099000,165.492000,127.645000,164.107000,127.779000C162.639000,127.921000,161.558000,127.204000,160.198000,125.921000C159.756000,125.504000,159.035000,125.619000,158.763000,126.162000C158.624000,126.441000,158.639000,126.777000,158.821000,127.031000C160.582000,129.481000,162.706000,129.653000,164.236000,129.722000Z" fill="rgb(190,252,169)" stroke="none" stroke-width="1"/><path id="eZmefAcivNz47" d="M159.315000,124.021000C158.958000,123.663000,158.378000,123.663000,158.020000,124.021000C157.662000,124.379000,157.663000,124.959000,158.020000,125.317000C158.378000,125.675000,158.958000,125.675000,159.315000,125.317000C159.673000,124.959000,159.673000,124.379000,159.315000,124.021000Z" fill="rgb(190,252,169)" stroke="none" stroke-width="1"/><path id="eZmefAcivNz48" d="M164.885000,118.449000C166.768000,118.898000,168.511000,120.004000,170.583000,122.855000C170.583000,122.855000,170.712000,117.802000,164.885000,116.635000C162.837000,116.226000,160.612000,117.283000,158.799000,119.356000C161.389000,118.320000,162.166000,117.802000,164.885000,118.449000Z" fill="rgb(0,191,170)" stroke="none" stroke-width="1"/><path id="eZmefAcivNz49" d="M173.106000,99.664700L173.106000,99.664500C172.701000,98.205600,171.191000,97.351100,169.733000,97.756100L157.566000,101.136000C156.108000,101.541000,155.254000,103.052000,155.659000,104.511000C156.064000,105.970000,157.574000,106.824000,159.032000,106.419000L171.199000,103.040000C172.657000,102.635000,173.511000,101.124000,173.106000,99.664700Z" fill="rgb(0,122,176)" stroke="none" stroke-width="1"/><path id="eZmefAcivNz50" d="M149.461000,106.233000C150.429000,109.721000,154.040000,111.765000,157.527000,110.796000C161.013000,109.828000,163.055000,106.214000,162.087000,102.725000C161.119000,99.236600,157.508000,97.193500,154.022000,98.161900C150.535000,99.130300,148.493000,102.744000,149.461000,106.233000Z" fill="rgb(45,230,140)" stroke="none" stroke-width="1"/><path id="eZmefAcivNz51" d="M152.664000,110.245000C154.127000,111.163000,156.086000,111.186000,157.388000,110.870000C157.810000,110.768000,158.032000,110.334000,157.944000,109.907000C157.840000,109.405000,157.342000,109.075000,156.830000,109.096000C156.020000,109.131000,154.779000,109.055000,153.508000,108.489000C152.160000,107.890000,151.572000,106.734000,151.019000,104.947000C150.839000,104.367000,150.155000,104.111000,149.652000,104.450000C149.393000,104.624000,149.240000,104.924000,149.274000,105.235000C149.602000,108.236000,151.366000,109.431000,152.664000,110.245000Z" fill="rgb(190,252,169)" stroke="none" stroke-width="1"/><path id="eZmefAcivNz52" d="M151.187000,102.859000C151.052000,102.371000,150.547000,102.085000,150.060000,102.221000C149.572000,102.356000,149.287000,102.861000,149.422000,103.349000C149.558000,103.836000,150.062000,104.122000,150.549000,103.987000C151.037000,103.851000,151.322000,103.346000,151.187000,102.859000Z" fill="rgb(190,252,169)" stroke="none" stroke-width="1"/><path id="eZmefAcivNz53" d="M158.773000,100.751000C160.191000,102.069000,161.165000,103.890000,161.566000,107.392000C161.566000,107.392000,164.164000,103.057000,159.666000,99.171900C158.085000,97.806800,155.627000,97.631200,153.029000,98.542700C155.794000,98.916200,156.725000,98.847600,158.773000,100.751000Z" fill="rgb(0,191,170)" stroke="none" stroke-width="1"/><path id="eZmefAcivNz54" d="M227.050000,66.328400C227.740000,67.676200,229.391000,68.209000,230.737000,67.518600L241.976000,61.758200C243.324000,61.067900,243.856000,59.415800,243.166000,58.068200C242.477000,56.720600,240.825000,56.187700,239.479000,56.878000L228.240000,62.638400C226.892000,63.328800,226.360000,64.980800,227.050000,66.328400Z" fill="rgb(0,122,176)" stroke="none" stroke-width="1"/><path id="eZmefAcivNz55" d="M248.891000,55.133900C247.241000,51.911300,243.292000,50.637100,240.072000,52.287800C236.851000,53.938400,235.578000,57.889000,237.228000,61.111600C238.878000,64.334200,242.825000,65.608400,246.046000,63.957700C249.266000,62.307100,250.540000,58.356500,248.891000,55.133900Z" fill="rgb(45,230,140)" stroke="none" stroke-width="1"/><path id="eZmefAcivNz56" d="M244.947000,51.848600C243.329000,51.244100,241.405000,51.615700,240.193000,52.187300C239.801000,52.372800,239.670000,52.842700,239.842000,53.242200C240.045000,53.713700,240.600000,53.936900,241.097000,53.812600C241.882000,53.616100,243.113000,53.440100,244.473000,53.738100C245.913000,54.053800,246.723000,55.068200,247.623000,56.706900C247.917000,57.239200,248.638000,57.351900,249.063000,56.918400C249.282000,56.695200,249.370000,56.371100,249.275000,56.073600C248.350000,53.200300,246.381000,52.384700,244.947000,51.848600Z" fill="rgb(190,252,169)" stroke="none" stroke-width="1"/><path id="eZmefAcivNz57" d="M247.882000,58.786100C248.113000,59.236400,248.665000,59.414500,249.114000,59.183800C249.565000,58.953100,249.742000,58.400900,249.512000,57.950700C249.282000,57.500200,248.730000,57.322100,248.280000,57.552900C247.830000,57.783500,247.652000,58.335700,247.882000,58.786100Z" fill="rgb(190,252,169)" stroke="none" stroke-width="1"/><path id="eZmefAcivNz58" d="M240.875000,62.378500C239.220000,61.373400,237.900000,59.784900,236.802000,56.435500C236.802000,56.435500,235.129000,61.205200,240.318000,64.105100C242.141000,65.123900,244.584000,64.801000,246.944000,63.384800C244.161000,63.575800,243.262000,63.830400,240.875000,62.378500Z" fill="rgb(0,191,170)" stroke="none" stroke-width="1"/><path id="eZmefAcivNz59" d="M226.718000,107.370000C225.655000,108.448000,225.666000,110.184000,226.743000,111.247000L235.730000,120.122000C236.807000,121.186000,238.542000,121.174000,239.605000,120.097000C240.668000,119.019000,240.657000,117.283000,239.580000,116.219000L230.593000,107.345000C229.516000,106.281000,227.781000,106.293000,226.718000,107.370000Z" fill="rgb(0,122,176)" stroke="none" stroke-width="1"/><path id="eZmefAcivNz60" d="M244.186000,124.618000C246.727000,122.040000,246.701000,117.890000,244.124000,115.346000C241.549000,112.803000,237.400000,112.831000,234.859000,115.408000C232.317000,117.985000,232.345000,122.136000,234.920000,124.679000C237.497000,127.223000,241.644000,127.195000,244.186000,124.618000Z" fill="rgb(45,230,140)" stroke="none" stroke-width="1"/><path id="eZmefAcivNz61" d="M246.067000,119.840000C246.134000,118.113000,245.177000,116.402000,244.256000,115.430000C243.957000,115.114000,243.471000,115.138000,243.145000,115.426000C242.762000,115.767000,242.723000,116.364000,242.997000,116.797000C243.430000,117.482000,243.982000,118.597000,244.125000,119.982000C244.277000,121.450000,243.568000,122.537000,242.295000,123.906000C241.881000,124.351000,241.999000,125.072000,242.544000,125.340000C242.825000,125.478000,243.161000,125.461000,243.412000,125.277000C245.850000,123.498000,246.007000,121.372000,246.067000,119.840000Z" fill="rgb(190,252,169)" stroke="none" stroke-width="1"/><path id="eZmefAcivNz62" d="M240.403000,124.801000C240.048000,125.161000,240.051000,125.742000,240.410000,126.097000C240.771000,126.453000,241.351000,126.449000,241.706000,126.088000C242.062000,125.728000,242.057000,125.148000,241.698000,124.793000C241.337000,124.437000,240.757000,124.441000,240.403000,124.801000Z" fill="rgb(190,252,169)" stroke="none" stroke-width="1"/><path id="eZmefAcivNz63" d="M234.800000,119.267000C235.235000,117.380000,236.329000,115.629000,239.164000,113.536000C239.164000,113.536000,234.113000,113.440000,232.985000,119.279000C232.591000,121.330000,233.662000,123.550000,235.746000,125.351000C234.693000,122.766000,234.170000,121.992000,234.800000,119.267000Z" fill="rgb(0,191,170)" stroke="none" stroke-width="1"/><path id="eZmefAcivNz64" d="M214.717000,116.378000L214.715000,116.378000C213.464000,117.229000,213.139000,118.935000,213.990000,120.187000L221.087000,130.638000C221.937000,131.890000,223.641000,132.215000,224.893000,131.365000L224.893000,131.364000C226.143000,130.514000,226.468000,128.808000,225.618000,127.556000L218.522000,117.105000C217.672000,115.853000,215.967000,115.527000,214.717000,116.378000Z" fill="rgb(0,122,176)" stroke="none" stroke-width="1"/><path id="eZmefAcivNz65" d="M228.508000,136.689000C231.500000,134.654000,232.278000,130.576000,230.245000,127.581000C228.211000,124.586000,224.136000,123.808000,221.144000,125.843000C218.150000,127.878000,217.373000,131.956000,219.407000,134.951000C221.441000,137.945000,225.516000,138.723000,228.508000,136.689000Z" fill="rgb(45,230,140)" stroke="none" stroke-width="1"/><path id="eZmefAcivNz66" d="M231.278000,132.367000C231.680000,130.686000,231.073000,128.822000,230.359000,127.688000C230.125000,127.321000,229.644000,127.250000,229.269000,127.470000C228.825000,127.729000,228.673000,128.307000,228.857000,128.786000C229.149000,129.542000,229.474000,130.743000,229.347000,132.129000C229.211000,133.599000,228.305000,134.527000,226.790000,135.623000C226.298000,135.979000,226.275000,136.710000,226.758000,137.078000C227.006000,137.268000,227.338000,137.316000,227.623000,137.185000C230.357000,135.913000,230.925000,133.858000,231.278000,132.367000Z" fill="rgb(190,252,169)" stroke="none" stroke-width="1"/><path id="eZmefAcivNz67" d="M224.760000,136.134000C224.343000,136.418000,224.233000,136.988000,224.518000,137.407000C224.803000,137.825000,225.372000,137.934000,225.789000,137.650000C226.209000,137.365000,226.316000,136.795000,226.034000,136.377000C225.749000,135.958000,225.179000,135.850000,224.760000,136.134000Z" fill="rgb(190,252,169)" stroke="none" stroke-width="1"/><path id="eZmefAcivNz68" d="M220.334000,129.616000C221.128000,127.850000,222.541000,126.344000,225.728000,124.842000C225.728000,124.842000,220.792000,123.768000,218.554000,129.277000C217.767000,131.212000,218.388000,133.598000,220.084000,135.769000C219.552000,133.029000,219.189000,132.168000,220.334000,129.616000Z" fill="rgb(0,191,170)" stroke="none" stroke-width="1"/><path id="eZmefAcivNz69" d="M174.388000,70.350000C175.295000,69.138000,175.048000,67.419700,173.837000,66.512000L163.730000,58.937900C162.519000,58.030300,160.802000,58.277000,159.895000,59.489000C158.988000,60.701000,159.234000,62.419100,160.445000,63.326900L170.552000,70.900900C171.763000,71.808500,173.481000,71.561900,174.388000,70.350000Z" fill="rgb(0,122,176)" stroke="none" stroke-width="1"/><path id="eZmefAcivNz70" d="M154.746000,55.630300C152.576000,58.528600,153.166000,62.637400,156.062000,64.807900C158.959000,66.978400,163.065000,66.388400,165.234000,63.490300C167.403000,60.592100,166.813000,56.483300,163.917000,54.312800C161.021000,52.142300,156.915000,52.732300,154.746000,55.630300Z" fill="rgb(45,230,140)" stroke="none" stroke-width="1"/><path id="eZmefAcivNz71" d="M153.528000,60.619300C153.695000,62.339000,154.874000,63.905200,155.919000,64.743400C156.258000,65.015600,156.737000,64.926000,157.020000,64.595900C157.354000,64.206500,157.312000,63.610400,156.981000,63.217600C156.460000,62.597500,155.762000,61.567900,155.432000,60.215300C155.083000,58.781400,155.638000,57.608900,156.714000,56.079300C157.064000,55.582700,156.848000,54.884500,156.272000,54.692800C155.976000,54.594100,155.646000,54.656400,155.421000,54.873200C153.247000,56.965900,153.379000,59.093900,153.528000,60.619300Z" fill="rgb(190,252,169)" stroke="none" stroke-width="1"/><path id="eZmefAcivNz72" d="M158.469000,54.935600C158.772000,54.530400,158.690000,53.956200,158.285000,53.652900C157.880000,53.349600,157.306000,53.432000,157.003000,53.837000C156.700000,54.242100,156.782000,54.816400,157.187000,55.119700C157.592000,55.423000,158.166000,55.340600,158.469000,54.935600Z" fill="rgb(190,252,169)" stroke="none" stroke-width="1"/><path id="eZmefAcivNz73" d="M164.771000,59.658800C164.595000,61.587300,163.748000,63.471200,161.223000,65.928500C161.223000,65.928500,166.240000,65.338500,166.566000,59.401100C166.680000,57.314800,165.317000,55.260500,163.009000,53.759500C164.402000,56.177400,165.025000,56.873300,164.771000,59.658800Z" fill="rgb(0,191,170)" stroke="none" stroke-width="1"/><path id="eZmefAcivNz74" d="M186.409000,60.075900C187.707000,59.298800,188.130000,57.615300,187.353000,56.315800L180.873000,45.471500C180.097000,44.172000,178.413000,43.748400,177.115000,44.525500C175.817000,45.302600,175.393000,46.986000,176.170000,48.285500L182.651000,59.129900C183.427000,60.429400,185.109000,60.853000,186.409000,60.075900Z" fill="rgb(0,122,176)" stroke="none" stroke-width="1"/><path id="eZmefAcivNz75" d="M173.813000,39.001000C170.708000,40.859200,169.696000,44.884900,171.553000,47.992300C173.410000,51.099900,177.432000,52.112800,180.538000,50.254600C183.643000,48.396200,184.657000,44.370700,182.800000,41.263100C180.943000,38.155600,176.919000,37.142800,173.813000,39.001000Z" fill="rgb(45,230,140)" stroke="none" stroke-width="1"/><path id="eZmefAcivNz76" d="M170.798000,43.154700C170.301000,44.809600,170.798000,46.705800,171.447000,47.878400C171.658000,48.259000,172.135000,48.357800,172.522000,48.159900C172.979000,47.926500,173.165000,47.358600,173.008000,46.869800C172.761000,46.098200,172.505000,44.880600,172.713000,43.503800C172.934000,42.044600,173.892000,41.170600,175.467000,40.163700C175.979000,39.836800,176.044000,39.109000,175.584000,38.712900C175.347000,38.509100,175.018000,38.441600,174.728000,38.556700C171.923000,39.667900,171.239000,41.687000,170.798000,43.154700Z" fill="rgb(190,252,169)" stroke="none" stroke-width="1"/><path id="eZmefAcivNz77" d="M177.525000,39.771200C177.958000,39.511400,178.100000,38.948800,177.840000,38.514400C177.581000,38.080300,177.019000,37.938600,176.585000,38.198400C176.151000,38.458000,176.009000,39.020600,176.269000,39.454900C176.528000,39.889300,177.090000,40.030800,177.525000,39.771200Z" fill="rgb(190,252,169)" stroke="none" stroke-width="1"/><path id="eZmefAcivNz78" d="M181.564000,46.533900C180.670000,48.251500,179.172000,49.673100,175.904000,50.988100C175.904000,50.988100,180.770000,52.346700,183.322000,46.976600C184.219000,45.089800,183.736000,42.671700,182.169000,40.406700C182.542000,43.172700,182.855000,44.053200,181.564000,46.533900Z" fill="rgb(0,191,170)" stroke="none" stroke-width="1"/><path id="eZmefAcivNz79" d="M170.454000,83.777900C170.454000,82.263700,169.228000,81.036400,167.715000,81.036400L155.087000,81.036400C153.574000,81.036400,152.348000,82.263700,152.348000,83.777900C152.348000,85.292100,153.574000,86.519500,155.087000,86.519500L167.715000,86.519500C169.228000,86.519500,170.454000,85.292100,170.454000,83.777900Z" fill="rgb(0,122,176)" stroke="none" stroke-width="1"/><path id="eZmefAcivNz80" d="M145.916000,83.777700C145.916000,87.398400,148.849000,90.333600,152.468000,90.333600C156.086000,90.333600,159.019000,87.398400,159.019000,83.777700C159.019000,80.156900,156.086000,77.221700,152.468000,77.221700C148.849000,77.221700,145.916000,80.156900,145.916000,83.777700Z" fill="rgb(45,230,140)" stroke="none" stroke-width="1"/><path id="eZmefAcivNz81" d="M147.930000,88.501300C149.094000,89.777500,150.976000,90.323900,152.314000,90.368300C152.749000,90.382500,153.079000,90.023800,153.108000,89.589500C153.142000,89.077500,152.751000,88.626000,152.251000,88.509400C151.462000,88.325700,150.286000,87.920700,149.212000,87.035700C148.074000,86.097500,147.816000,84.825800,147.761000,82.956300C147.743000,82.349000,147.152000,81.919400,146.576000,82.111500C146.280000,82.210300,146.053000,82.458100,146.003000,82.766700C145.517000,85.745600,146.897000,87.369600,147.930000,88.501300Z" fill="rgb(190,252,169)" stroke="none" stroke-width="1"/><path id="eZmefAcivNz82" d="M148.480000,80.988500C148.480000,80.482400,148.070000,80.072300,147.564000,80.072300C147.058000,80.072300,146.648000,80.482400,146.648000,80.988500C146.648000,81.494500,147.058000,81.904600,147.564000,81.904600C148.070000,81.904600,148.480000,81.494500,148.480000,80.988500Z" fill="rgb(190,252,169)" stroke="none" stroke-width="1"/><path id="eZmefAcivNz83" d="M156.355000,80.988300C157.369000,82.637600,157.820000,84.653200,157.270000,88.135000C157.270000,88.135000,160.933000,84.653200,157.637000,79.705600C156.478000,77.967300,154.157000,77.140000,151.410000,77.323400C153.974000,78.422900,154.890000,78.606100,156.355000,80.988300Z" fill="rgb(0,191,170)" stroke="none" stroke-width="1"/><path id="eZmefAcivNz84" d="M233.105000,80.097300C233.105000,81.611500,234.331000,82.839000,235.845000,82.839000L248.472000,82.839000C249.984000,82.839000,251.212000,81.611500,251.212000,80.097300C251.212000,78.583200,249.984000,77.355700,248.472000,77.355700L235.845000,77.355700C234.331000,77.355700,233.105000,78.583200,233.105000,80.097300Z" fill="rgb(0,122,176)" stroke="none" stroke-width="1"/><path id="eZmefAcivNz85" d="M257.642000,80.097400C257.642000,76.476700,254.710000,73.541500,251.090000,73.541500C247.471000,73.541500,244.539000,76.476700,244.539000,80.097400C244.539000,83.718300,247.471000,86.653500,251.090000,86.653500C254.710000,86.653500,257.642000,83.718300,257.642000,80.097400Z" fill="rgb(45,230,140)" stroke="none" stroke-width="1"/><path id="eZmefAcivNz86" d="M255.631000,75.373900C254.466000,74.097700,252.586000,73.551000,251.247000,73.507000C250.812000,73.492700,250.481000,73.851500,250.453000,74.285500C250.420000,74.797800,250.810000,75.249300,251.311000,75.365500C252.100000,75.549100,253.274000,75.954100,254.349000,76.839600C255.486000,77.777800,255.745000,79.049500,255.799000,80.919000C255.817000,81.526300,256.408000,81.955700,256.984000,81.763900C257.281000,81.664800,257.508000,81.417000,257.557000,81.108400C258.044000,78.129600,256.664000,76.505700,255.631000,75.373900Z" fill="rgb(190,252,169)" stroke="none" stroke-width="1"/><path id="eZmefAcivNz87" d="M255.080000,82.887000C255.080000,83.392900,255.489000,83.803200,255.994000,83.803200C256.500000,83.803200,256.910000,83.392900,256.910000,82.887000C256.910000,82.381000,256.500000,81.970700,255.994000,81.970700C255.489000,81.970700,255.080000,82.381000,255.080000,82.887000Z" fill="rgb(190,252,169)" stroke="none" stroke-width="1"/><path id="eZmefAcivNz88" d="M247.205000,82.886700C246.192000,81.237400,245.741000,79.221700,246.289000,75.740000C246.289000,75.740000,242.626000,79.221700,245.923000,84.169400C247.081000,85.907700,249.403000,86.734900,252.150000,86.551600C249.585000,85.452200,248.669000,85.268900,247.205000,82.886700Z" fill="rgb(0,191,170)" stroke="none" stroke-width="1"/><path id="eZmefAcivNz89" d="M232.808000,95.862900C232.369000,97.312100,233.186000,98.842900,234.635000,99.282000L246.719000,102.947000C248.167000,103.387000,249.697000,102.568000,250.136000,101.119000C250.574000,99.670000,249.757000,98.139400,248.309000,97.700100L236.225000,94.034700C234.776000,93.595400,233.247000,94.414000,232.808000,95.862900Z" fill="rgb(0,122,176)" stroke="none" stroke-width="1"/><path id="eZmefAcivNz90" d="M256.292000,102.986000C257.341000,99.521400,255.385000,95.860900,251.922000,94.810600C248.460000,93.760100,244.802000,95.717600,243.752000,99.182700C242.703000,102.648000,244.659000,106.308000,248.122000,107.359000C251.585000,108.409000,255.242000,106.451000,256.292000,102.986000Z" fill="rgb(45,230,140)" stroke="none" stroke-width="1"/><path id="eZmefAcivNz91" d="M255.734000,97.881700C254.989000,96.322600,253.348000,95.253200,252.078000,94.822200C251.668000,94.682500,251.247000,94.930300,251.093000,95.337000C250.913000,95.817500,251.157000,96.362900,251.601000,96.619400C252.303000,97.024000,253.311000,97.753000,254.082000,98.911900C254.899000,100.140000,254.777000,101.432000,254.287000,103.237000C254.128000,103.824000,254.570000,104.406000,255.177000,104.390000C255.488000,104.381000,255.778000,104.210000,255.916000,103.929000C257.244000,101.219000,256.393000,99.264400,255.734000,97.881700Z" fill="rgb(190,252,169)" stroke="none" stroke-width="1"/><path id="eZmefAcivNz92" d="M253.030000,104.912000C252.883000,105.396000,253.157000,105.908000,253.642000,106.055000C254.125000,106.201000,254.636000,105.928000,254.782000,105.444000C254.929000,104.959000,254.657000,104.448000,254.172000,104.301000C253.688000,104.154000,253.177000,104.428000,253.030000,104.912000Z" fill="rgb(190,252,169)" stroke="none" stroke-width="1"/><path id="eZmefAcivNz93" d="M245.493000,102.626000C245.001000,100.753000,245.154000,98.693100,246.689000,95.520800C246.689000,95.520800,242.175000,97.789800,243.894000,103.482000C244.499000,105.481000,246.482000,106.947000,249.163000,107.569000C247.028000,105.772000,246.206000,105.331000,245.493000,102.626000Z" fill="rgb(0,191,170)" stroke="none" stroke-width="1"/><path id="eZmefAcivNz94" d="M201.606000,121.569000C220.621000,121.569000,236.034000,106.145000,236.034000,87.118400C236.034000,68.091800,220.621000,52.667700,201.606000,52.667700C182.593000,52.667700,167.178000,68.091800,167.178000,87.118400C167.178000,106.145000,182.593000,121.569000,201.606000,121.569000Z" fill="rgb(237,28,119)" stroke="none" stroke-width="1"/><path id="eZmefAcivNz95" d="M191.896000,107.093000C176.696000,100.448000,173.028000,90.600400,168.821000,76.856700C163.694000,90.966800,170.659000,112.605000,188.788000,119.187000C204.532000,124.903000,223.761000,119.553000,232.738000,101.778000C214.421000,110.574000,199.856000,110.573000,191.896000,107.093000Z" fill="rgb(217,24,102)" stroke="none" stroke-width="1"/><path id="eZmefAcivNz96" d="M214.787000,55.233300C208.434000,52.772200,203.595000,52.512400,199.197000,52.725900C198.124000,52.778000,197.349000,53.761700,197.517000,54.823800C197.655000,55.698500,198.396000,56.350800,199.280000,56.349200C203.348000,56.341800,208.020000,56.052400,212.406000,58.165100C214.309000,59.082400,218.478000,61.668700,221.199000,63.658800C222.103000,64.319400,223.403000,64.152600,224.048000,63.238100C224.611000,62.440000,224.489000,61.330200,223.751000,60.691400C222.023000,59.197700,219.089000,56.899900,214.787000,55.233300Z" fill="rgb(255,89,159)" stroke="none" stroke-width="1"/><path id="eZmefAcivNz97" d="M180.552000,75.023000C183.484000,75.023000,185.862000,72.643600,185.862000,69.708700C185.862000,66.773700,183.484000,64.394500,180.552000,64.394500C177.618000,64.394500,175.240000,66.773700,175.240000,69.708700C175.240000,72.643600,177.618000,75.023000,180.552000,75.023000Z" fill="rgb(68,37,37)" stroke="none" stroke-width="1"/><path id="eZmefAcivNz98" d="M172.143000,61.102800C174.577000,58.583700,178.776000,59.268300,180.284000,62.430400L183.024000,68.171200C183.538000,69.248000,183.356000,70.528300,182.562000,71.418400C181.648000,72.443600,180.148000,72.704400,178.942000,72.048500L173.356000,69.011600C170.437000,67.425400,169.834000,63.491900,172.143000,61.102800Z" fill="rgb(207,48,255)" stroke="none" stroke-width="1"/><path id="eZmefAcivNz99" d="M189.648000,66.125700C192.403000,67.133600,195.452000,65.716200,196.460000,62.959600C197.467000,60.203200,196.050000,57.151600,193.296000,56.143700C190.541000,55.135800,187.492000,56.553300,186.484000,59.309900C185.478000,62.066300,186.894000,65.117900,189.648000,66.125700Z" fill="rgb(255,85,153)" stroke="none" stroke-width="1"/><path id="eZmefAcivNz100" d="M186.527000,50.162800C189.677000,48.633400,193.385000,50.719200,193.718000,54.207400L194.321000,60.540500C194.434000,61.728400,193.822000,62.868200,192.772000,63.431500C191.562000,64.079800,190.064000,63.809800,189.155000,62.779300L184.951000,58.007500C182.755000,55.514900,183.538000,51.613400,186.527000,50.162800Z" fill="rgb(3,153,255)" stroke="none" stroke-width="1"/><path id="eZmefAcivNz101" d="M202.161000,62.476900C203.937000,64.812500,207.268000,65.265100,209.603000,63.487900C211.937000,61.710600,212.390000,58.376400,210.613000,56.040700C208.837000,53.705200,205.505000,53.252400,203.171000,55.029800C200.836000,56.807200,200.385000,60.141300,202.161000,62.476900Z" fill="rgb(255,85,153)" stroke="none" stroke-width="1"/><path id="eZmefAcivNz102" d="M208.138000,47.350900C211.615000,47.763900,213.614000,51.521800,212.013000,54.638400L209.106000,60.296500C208.561000,61.357700,207.433000,61.987700,206.243000,61.894500C204.874000,61.787100,203.760000,60.751500,203.551000,59.393600L202.583000,53.106200C202.078000,49.821500,204.840000,46.959400,208.138000,47.350900Z" fill="rgb(3,153,255)" stroke="none" stroke-width="1"/><path id="eZmefAcivNz103" d="M215.032000,67.073600C215.745000,69.920200,218.631000,71.648400,221.475000,70.933900C224.321000,70.219300,226.048000,67.332400,225.334000,64.485800C224.620000,61.639000,221.735000,59.910800,218.890000,60.625300C216.044000,61.339900,214.318000,64.226800,215.032000,67.073600Z" fill="rgb(255,85,153)" stroke="none" stroke-width="1"/><path id="eZmefAcivNz104" d="M226.477000,55.522800C229.512000,57.271800,229.871000,61.513400,227.172000,63.748000L222.275000,67.804900C221.357000,68.565800,220.071000,68.700300,219.016000,68.146400C217.799000,67.508700,217.182000,66.117600,217.523000,64.787000L219.106000,58.625600C219.933000,55.407100,223.600000,53.863900,226.477000,55.522800Z" fill="rgb(3,153,255)" stroke="none" stroke-width="1"/><path id="eZmefAcivNz105" d="M221.478000,77.823700C220.325000,80.522500,221.577000,83.645300,224.274000,84.799100C226.971000,85.952900,230.090000,84.700400,231.243000,82.001700C232.397000,79.302900,231.144000,76.180100,228.449000,75.026300C225.752000,73.872700,222.631000,75.125000,221.478000,77.823700Z" fill="rgb(255,85,153)" stroke="none" stroke-width="1"/><path id="eZmefAcivNz106" d="M237.575000,75.558000C238.934000,78.788000,236.654000,82.381800,233.154000,82.527300L226.801000,82.791600C225.611000,82.841100,224.506000,82.169900,224,81.089500C223.418000,79.845200,223.767000,78.363900,224.844000,77.511500L229.831000,73.565000C232.436000,71.503500,236.288000,72.494900,237.575000,75.558000Z" fill="rgb(3,153,255)" stroke="none" stroke-width="1"/><path id="eZmefAcivNz107" d="M221.678000,95.343600C218.933000,96.377700,217.545000,99.442500,218.578000,102.189000C219.612000,104.936000,222.674000,106.325000,225.420000,105.291000C228.165000,104.257000,229.552000,101.192000,228.519000,98.444900C227.486000,95.698200,224.423000,94.309600,221.678000,95.343600Z" fill="rgb(255,85,153)" stroke="none" stroke-width="1"/><path id="eZmefAcivNz108" d="M234.383000,105.406000C232.991000,108.622000,228.821000,109.461000,226.296000,107.034000L221.710000,102.627000C220.850000,101.800000,220.569000,100.538000,221.001000,99.425000C221.494000,98.143700,222.806000,97.371000,224.166000,97.559400L230.462000,98.432100C233.753000,98.888100,235.702000,102.356000,234.383000,105.406000Z" fill="rgb(3,153,255)" stroke="none" stroke-width="1"/><path id="eZmefAcivNz109" d="M214.571000,106.552000C211.652000,106.268000,209.055000,108.406000,208.772000,111.327000C208.487000,114.248000,210.623000,116.847000,213.543000,117.131000C216.463000,117.415000,219.059000,115.277000,219.344000,112.356000C219.627000,109.435000,217.490000,106.836000,214.571000,106.552000Z" fill="rgb(255,85,153)" stroke="none" stroke-width="1"/><path id="eZmefAcivNz110" d="M221.597000,121.221000C218.930000,123.493000,214.816000,122.405000,213.621000,119.112000L211.449000,113.132000C211.042000,112.011000,211.348000,110.754000,212.224000,109.945000C213.234000,109.014000,214.751000,108.899000,215.888000,109.669000L221.153000,113.232000C223.905000,115.094000,224.126000,119.067000,221.597000,121.221000Z" fill="rgb(3,153,255)" stroke="none" stroke-width="1"/><path id="eZmefAcivNz111" d="M202.487000,110.500000C201.187000,107.869000,198.002000,106.790000,195.372000,108.091000C192.743000,109.392000,191.666000,112.579000,192.965000,115.210000C194.265000,117.841000,197.450000,118.919000,200.080000,117.619000C202.710000,116.318000,203.787000,113.131000,202.487000,110.500000Z" fill="rgb(255,85,153)" stroke="none" stroke-width="1"/><path id="eZmefAcivNz112" d="M193.743000,124.212000C190.408000,123.145000,189.161000,119.076000,191.324000,116.320000L195.253000,111.319000C195.991000,110.381000,197.218000,109.977000,198.368000,110.295000C199.691000,110.661000,200.589000,111.889000,200.536000,113.262000L200.290000,119.619000C200.163000,122.940000,196.907000,125.224000,193.743000,124.212000Z" fill="rgb(3,153,255)" stroke="none" stroke-width="1"/><path id="eZmefAcivNz113" d="M186.820000,109.099000C186.871000,106.164000,184.537000,103.743000,181.605000,103.692000C178.671000,103.640000,176.252000,105.976000,176.200000,108.911000C176.148000,111.845000,178.483000,114.266000,181.415000,114.318000C184.349000,114.370000,186.769000,112.033000,186.820000,109.099000Z" fill="rgb(255,85,153)" stroke="none" stroke-width="1"/><path id="eZmefAcivNz114" d="M172.764000,117.266000C170.290000,114.786000,171.048000,110.598000,174.234000,109.144000L180.018000,106.504000C181.104000,106.009000,182.379000,106.214000,183.255000,107.025000C184.263000,107.957000,184.498000,109.461000,183.821000,110.657000L180.687000,116.193000C179.051000,119.084000,175.110000,119.618000,172.764000,117.266000Z" fill="rgb(3,153,255)" stroke="none" stroke-width="1"/><path id="eZmefAcivNz115" d="M177.848000,98.016100C179.319000,95.477200,178.454000,92.225200,175.917000,90.752900C173.380000,89.280500,170.130000,90.145100,168.659000,92.684000C167.187000,95.222900,168.052000,98.474700,170.589000,99.947100C173.126000,101.420000,176.376000,100.555000,177.848000,98.016100Z" fill="rgb(255,85,153)" stroke="none" stroke-width="1"/><path id="eZmefAcivNz116" d="M161.595000,98.311900C160.639000,94.941300,163.337000,91.650200,166.827000,91.930500L173.165000,92.438800C174.354000,92.534100,175.369000,93.334200,175.740000,94.468500C176.167000,95.774100,175.641000,97.202100,174.469000,97.917700L169.041000,101.230000C166.205000,102.960000,162.502000,101.509000,161.595000,98.311900Z" fill="rgb(3,153,255)" stroke="none" stroke-width="1"/><path id="eZmefAcivNz117" d="M173.680000,86.479400C176.285000,85.129700,177.302000,81.922700,175.953000,79.316600C174.604000,76.710500,171.400000,75.692000,168.795000,77.041700C166.191000,78.391600,165.173000,81.598500,166.522000,84.204800C167.871000,86.810800,171.076000,87.829300,173.680000,86.479400Z" fill="rgb(255,85,153)" stroke="none" stroke-width="1"/><path id="eZmefAcivNz118" d="M159.813000,77.989100C160.817000,74.632100,164.860000,73.307500,167.653000,75.421100L172.725000,79.258000C173.676000,79.977500,174.102000,81.198300,173.806000,82.354200C173.465000,83.685000,172.255000,84.606600,170.882000,84.579100L164.525000,84.453800C161.205000,84.388100,158.862000,81.173000,159.813000,77.989100Z" fill="rgb(3,153,255)" stroke="none" stroke-width="1"/><path id="eZmefAcivNz119" d="M180.552000,75.023000C183.484000,75.023000,185.862000,72.643600,185.862000,69.708700C185.862000,66.773700,183.484000,64.394500,180.552000,64.394500C177.618000,64.394500,175.240000,66.773700,175.240000,69.708700C175.240000,72.643600,177.618000,75.023000,180.552000,75.023000Z" fill="rgb(255,85,153)" stroke="none" stroke-width="1"/><path id="eZmefAcivNz120" d="M172.143000,61.102800C174.577000,58.583700,178.776000,59.268300,180.284000,62.430400L183.024000,68.171200C183.538000,69.248000,183.356000,70.528300,182.562000,71.418400C181.648000,72.443600,180.148000,72.704400,178.942000,72.048500L173.356000,69.011600C170.437000,67.425400,169.834000,63.491900,172.143000,61.102800Z" fill="rgb(3,153,255)" stroke="none" stroke-width="1"/><path id="eZmefAcivNz121" d="M236.040000,91.515300C236.040000,94.146300,235.373000,96.279700,232.743000,96.279700C230.113000,96.279700,227.982000,94.146300,227.982000,91.515300C227.982000,88.883700,230.113000,86.750700,232.743000,86.750700C235.373000,86.750700,236.040000,88.883700,236.040000,91.515300Z" fill="rgb(255,85,153)" stroke="none" stroke-width="1"/><path id="eZmefAcivNz122" d="M244.902000,91.145300C245.157000,94.640300,241.848000,97.316000,238.486000,96.333800L232.383000,94.551300C231.238000,94.217100,230.407000,93.227400,230.273000,92.041800C230.119000,90.676700,230.924000,89.384800,232.216000,88.921800L238.201000,86.778500C241.329000,85.659200,244.661000,87.831100,244.902000,91.145300Z" fill="rgb(3,153,255)" stroke="none" stroke-width="1"/><path id="eZmefAcivNz123" d="M227.793000,73.556800C229.311000,73.556800,230.540000,72.326000,230.540000,70.808100C230.540000,69.290000,229.311000,68.059300,227.793000,68.059300C226.276000,68.059300,225.047000,69.290000,225.047000,70.808100C225.047000,72.326000,226.276000,73.556800,227.793000,73.556800Z" fill="rgb(255,89,159)" stroke="none" stroke-width="1"/></g></g></svg>