<svg width='560' id="egi9hPajGWd1" xmlns="http://www.w3.org/2000/svg" xmlns:xlink="http://www.w3.org/1999/xlink" viewBox="0 0 585 670" shape-rendering="geometricPrecision" text-rendering="geometricPrecision"><style><![CDATA[#egi9hPajGWd27 {animation: egi9hPajGWd27_c_o 3000ms linear infinite normal forwards}@keyframes egi9hPajGWd27_c_o { 0% {opacity: 1} 50% {opacity: 0} 100% {opacity: 0.900000}} #egi9hPajGWd28 {animation: egi9hPajGWd28_c_o 3000ms linear infinite normal forwards}@keyframes egi9hPajGWd28_c_o { 0% {opacity: 0} 50% {opacity: 1} 100% {opacity: 0}}]]></style><g id="egi9hPajGWd2" clip-path="url(#egi9hPajGWd35)"><g id="egi9hPajGWd3"><path id="egi9hPajGWd4" d="M82.868200,431.897000C139.193000,516.969000,191.248000,534.469000,216.818000,532.494000C222.348000,532.067000,227.531000,529.504000,230.930000,525.122000C248.634000,502.300000,259.865000,435.364000,200.737000,348.848000C118.788000,228.937000,48.712700,212.327000,34.297200,222.483000C22.425500,230.848000,3.809270,312.488000,82.868200,431.897000Z" fill="rgb(0,110,255)" stroke="none" stroke-width="1"/><rect id="egi9hPajGWd5" width="6.223880" height="248.955000" rx="3.111940" ry="3.111940" transform="matrix(0.81746600000000 -0.57597700000000 0.57597700000000 0.81746600000000 115.66769877400000 370.71825295200006)" fill="rgb(76,185,252)" stroke="none" stroke-width="1"/><rect id="egi9hPajGWd6" width="6.223880" height="70.816600" rx="3.111940" ry="3.111940" transform="matrix(0.99593500000000 -0.09007800000000 0.09007800000000 0.99593500000000 181.34384836400000 402.45820339800002)" fill="rgb(76,185,252)" stroke="none" stroke-width="1"/><rect id="egi9hPajGWd7" width="6.223880" height="70.816600" rx="3.111940" ry="3.111940" transform="matrix(0.41995700000000 -0.90754400000000 0.90754400000000 0.41995700000000 104.66373720000001 412.73292726500006)" fill="rgb(76,185,252)" stroke="none" stroke-width="1"/><rect id="egi9hPajGWd8" width="6.223880" height="54.849900" rx="3.111940" ry="3.111940" transform="matrix(0.41995700000000 -0.90754400000000 0.90754400000000 0.41995700000000 168.14569449000004 488.97132078000004)" fill="rgb(76,185,252)" stroke="none" stroke-width="1"/><path id="egi9hPajGWd9" d="M137.602000,576.067000C213.574000,605.714000,256.445000,594.178000,273.490000,581.162000C277.898000,577.795000,280.681000,572.660000,280.686000,567.114000C280.709000,542.924000,256.008000,494.287000,177.312000,464.901000C65.920100,423.307000,11.192400,445.239000,6.335640,458.835000C2.335960,470.031000,28.380600,533.444000,137.602000,576.067000Z" fill="rgb(24,159,255)" stroke="none" stroke-width="1"/><rect id="egi9hPajGWd10" width="5.095400" height="203.816000" rx="2.547700" ry="2.547700" transform="matrix(0.33640000000000 -0.94171900000000 0.94171900000000 0.33640000000000 130.69895570200003 519.65821961899996)" fill="rgb(237,248,255)" stroke="none" stroke-width="1"/><rect id="egi9hPajGWd11" width="5.095400" height="57.976500" rx="2.547700" ry="2.547700" transform="matrix(0.76219100000000 -0.64735300000000 0.64735300000000 0.76219100000000 189.61720201899999 509.92434968300006)" fill="rgb(237,248,255)" stroke="none" stroke-width="1"/><rect id="egi9hPajGWd12" width="5.095400" height="57.976500" rx="2.547700" ry="2.547700" transform="matrix(-0.17952300000000 -0.98375400000000 0.98375400000000 -0.17952300000000 143.14984565199984 552.96303825099972)" fill="rgb(237,248,255)" stroke="none" stroke-width="1"/><rect id="egi9hPajGWd13" width="5.095400" height="44.904900" rx="2.547700" ry="2.547700" transform="matrix(-0.17952300000000 -0.98375400000000 0.98375400000000 -0.17952300000000 221.58795489799985 574.04299715899970)" fill="rgb(237,248,255)" stroke="none" stroke-width="1"/><path id="egi9hPajGWd14" d="M428.623000,0L183.549000,0C165.143000,0,150.223000,14.920600,150.223000,33.326000L150.223000,600.381000C150.223000,618.787000,165.143000,633.707000,183.549000,633.707000L428.623000,633.707000C447.029000,633.707000,461.949000,618.787000,461.949000,600.381000L461.949000,33.326000C461.949000,14.920600,447.029000,0,428.623000,0Z" fill="rgb(30,56,217)" stroke="none" stroke-width="1"/><path id="egi9hPajGWd15" d="M428.625000,10.766800L183.550000,10.766800C170.808000,10.766800,160.479000,21.096500,160.479000,33.838700L160.479000,599.869000C160.479000,612.611000,170.808000,622.940000,183.550000,622.940000L428.625000,622.940000C441.367000,622.940000,451.697000,612.611000,451.697000,599.869000L451.697000,33.838700C451.697000,21.096500,441.367000,10.766800,428.625000,10.766800Z" fill="rgb(7,13,102)" stroke="none" stroke-width="1"/><path id="egi9hPajGWd16" d="M285.924000,159.551000L285.678000,159.797000C283.075000,162.400000,283.075000,166.620000,285.678000,169.223000L332.670000,216.215000C335.273000,218.818000,339.493000,218.818000,342.096000,216.215000L342.342000,215.969000C344.945000,213.366000,344.945000,209.146000,342.342000,206.543000L295.350000,159.551000C292.747000,156.948000,288.526000,156.948000,285.924000,159.551000Z" fill="rgb(0,180,186)" stroke="none" stroke-width="1"/><path id="egi9hPajGWd17" d="M294.295000,194.829000C311.568000,194.829000,325.570000,180.827000,325.570000,163.554000C325.570000,146.281000,311.568000,132.279000,294.295000,132.279000C277.022000,132.279000,263.020000,146.281000,263.020000,163.554000C263.020000,180.827000,277.022000,194.829000,294.295000,194.829000Z" fill="rgb(28,217,198)" stroke="none" stroke-width="1"/><path id="egi9hPajGWd18" d="M294.551000,186.113000C306.868000,186.113000,316.854000,176.128000,316.854000,163.810000C316.854000,151.493000,306.868000,141.507000,294.551000,141.507000C282.233000,141.507000,272.248000,151.493000,272.248000,163.810000C272.248000,176.128000,282.233000,186.113000,294.551000,186.113000Z" fill="rgb(28,148,217)" stroke="none" stroke-width="1"/><path id="egi9hPajGWd19" d="M283.270000,174.321000C277.118000,168.425000,274.554000,162.272000,274.041000,154.838000C273.272000,157.658000,268.520000,168.475000,278.143000,178.935000C289.935000,191.753000,305.317000,183.293000,305.317000,183.293000C292.499000,181.499000,288.390000,179.227000,283.270000,174.321000Z" fill="rgb(24,121,177)" stroke="none" stroke-width="1"/><path id="egi9hPajGWd20" d="M296.989000,147.287000C294.567000,147.044000,292.446000,147.964000,290.977000,149.225000C290.273000,149.830000,289.212000,149.976000,288.492000,149.390000C287.814000,148.838000,287.685000,147.839000,288.304000,147.222000C288.956000,146.571000,289.766000,145.921000,290.737000,145.386000C292.306000,144.521000,294.420000,143.843000,297.155000,144.061000C299.969000,144.285000,301.850000,145.622000,302.903000,146.370000C303.758000,146.978000,304.638000,148.061000,305.288000,149.098000C305.747000,149.830000,305.383000,150.752000,304.589000,151.093000C303.767000,151.447000,302.806000,151.032000,302.265000,150.318000C301.217000,148.935000,299.377000,147.526000,296.989000,147.287000Z" fill="rgb(0,182,255)" stroke="none" stroke-width="1"/><path id="egi9hPajGWd21" d="M398.887000,250.714000L213.799000,250.714000C201.907000,250.714000,192.266000,260.355000,192.266000,272.248000C192.266000,284.141000,201.907000,293.782000,213.799000,293.782000L398.887000,293.782000C410.780000,293.782000,420.421000,284.141000,420.421000,272.248000C420.421000,260.355000,410.780000,250.714000,398.887000,250.714000Z" fill="rgb(0,110,255)" stroke="none" stroke-width="1"/><path id="egi9hPajGWd22" d="M213.534000,272.534000L213.534000,251C201.641000,251,192,260.641000,192,272.534000C192,284.426000,201.641000,294.067000,213.534000,294.067000L213.534000,272.534000Z" fill="rgb(24,159,255)" stroke="none" stroke-width="1"/><path id="egi9hPajGWd23" d="M402.732000,301.472000L351.974000,301.472000C342.205000,301.472000,334.285000,309.392000,334.285000,319.161000C334.285000,328.930000,342.205000,336.849000,351.974000,336.849000L402.732000,336.849000C412.501000,336.849000,420.420000,328.930000,420.420000,319.161000C420.420000,309.392000,412.501000,301.472000,402.732000,301.472000Z" fill="rgb(0,110,255)" stroke="none" stroke-width="1"/><path id="egi9hPajGWd24" d="M306.086000,669.084000C414.537000,669.084000,502.453000,662.772000,502.453000,654.985000C502.453000,647.198000,414.537000,640.885000,306.086000,640.885000C197.635000,640.885000,109.719000,647.198000,109.719000,654.985000C109.719000,662.772000,197.635000,669.084000,306.086000,669.084000Z" fill="rgb(21,20,57)" stroke="none" stroke-width="1"/><g id="egi9hPajGWd25"><rect id="egi9hPajGWd26" width="240" height="85" rx="42.500000" ry="42.500000" transform="matrix(1 0 0 1 186 387)" fill="rgb(0,110,255)" stroke="none" stroke-width="1"/><rect id="egi9hPajGWd27" width="128" height="19" rx="9.500000" ry="9.500000" transform="matrix(1 0 0 1 217 405)" fill="rgb(24,159,255)" stroke="none" stroke-width="1"/><rect id="egi9hPajGWd28" width="175" height="19" rx="9.500000" ry="9.500000" transform="matrix(1 0 0 1 217 432)" opacity="0" fill="rgb(24,159,255)" stroke="none" stroke-width="1"/></g><rect id="egi9hPajGWd29" width="240" height="85" rx="42.500000" ry="42.500000" transform="matrix(1 0 0 1 186 478)" fill="rgb(0,110,255)" stroke="none" stroke-width="1"/><rect id="egi9hPajGWd30" width="81" height="19" rx="9.500000" ry="9.500000" transform="matrix(1 0 0 1 215 496)" fill="rgb(24,159,255)" stroke="none" stroke-width="1"/><rect id="egi9hPajGWd31" width="153" height="19" rx="9.500000" ry="9.500000" transform="matrix(1 0 0 1 217 527)" fill="rgb(24,159,255)" stroke="none" stroke-width="1"/><path id="egi9hPajGWd32" d="M382.971000,582.927000C386.820000,622.684000,422.170000,651.793000,461.928000,647.944000C501.685000,644.094000,530.794000,608.744000,526.945000,568.987000C523.095000,529.230000,487.745000,500.121000,447.988000,503.970000C408.230000,507.819000,379.121000,543.170000,382.971000,582.927000Z" fill="rgb(76,185,252)" stroke="none" stroke-width="1"/><path id="egi9hPajGWd33" d="M382.970000,582.927000C386.819000,622.684000,422.169000,651.793000,461.926000,647.944000C501.684000,644.094000,530.793000,608.744000,526.943000,568.987000C526.943000,568.987000,496.757000,608.651000,457,612.500000C417.243000,616.349000,382.970000,582.927000,382.970000,582.927000Z" fill="rgb(4,84,199)" stroke="none" stroke-width="1"/><path id="egi9hPajGWd34" d="M430.509000,544.998000C431.980000,560.184000,445.483000,571.304000,460.669000,569.833000C475.856000,568.363000,486.975000,554.860000,485.504000,539.673000C484.034000,524.487000,470.531000,513.368000,455.344000,514.838000C440.158000,516.308000,429.039000,529.812000,430.509000,544.998000Z" opacity="0.9" fill="rgb(255,255,255)" stroke="none" stroke-width="1"/></g><clipPath id="egi9hPajGWd35"><rect id="egi9hPajGWd36" width="585" height="669.084000" rx="0" ry="0" fill="rgb(255,255,255)" stroke="none" stroke-width="1"/></clipPath></g></svg>