<svg width='350' id="epvfk7a61yb1" xmlns="http://www.w3.org/2000/svg" xmlns:xlink="http://www.w3.org/1999/xlink" viewBox="0 0 393 736" shape-rendering="geometricPrecision" text-rendering="geometricPrecision"><style><![CDATA[#epvfk7a61yb8 {animation: epvfk7a61yb8_c_o 3000ms linear infinite normal forwards}@keyframes epvfk7a61yb8_c_o { 0% {opacity: 1} 66.666667% {opacity: 0.480000} 100% {opacity: 1}}]]></style><g id="epvfk7a61yb2" clip-path="url(#epvfk7a61yb41)"><g id="epvfk7a61yb3"><path id="epvfk7a61yb4" d="M308.727000,689.999000L81.210100,689.999000C50.166100,689.999000,25,664.878000,25,633.890000L25,56.108300C25,25.120500,50.166100,0,81.210100,0L308.727000,0C339.771000,0,364.938000,25.120500,364.938000,56.108300L364.938000,633.890000C364.938000,664.878000,339.771000,689.999000,308.727000,689.999000Z" fill="rgb(28,200,116)" stroke="none" stroke-width="1"/><path id="epvfk7a61yb5" d="M73.851200,22.042500L110.376000,22.042500C111.693000,22.042500,112.815000,22.999100,112.923000,24.309400C113.245000,28.215500,113.187000,32.964200,114.670000,37.405500C116.242000,42.111200,119.806000,43.722700,123.023000,44.575700C125.455000,45.220600,127.988000,45.420900,130.505000,45.420900L264.396000,45.420900C265.810000,45.420900,267.191000,44.979200,268.388000,44.227800L268.511000,44.151200C271.089000,42.534200,274.525000,40.378400,276.609000,36.737500C277.954000,34.387000,278.567000,28.926300,278.654000,24.873700C278.688000,23.336700,279.915000,22.042500,281.455000,22.042500L314.171000,22.042500C316.328000,22.042500,318.479000,22.356600,320.547000,22.974000C324.776000,24.237100,331.209000,26.446800,336.165000,31.393900C342.857000,38.073400,344.195000,48.092800,344.195000,50.764600L344.195000,638.386000C344.195000,640.726000,343.973000,643.068000,343.325000,645.315000C341.832000,650.497000,339.444000,656,336.165000,659.273000C333.511000,661.922000,327.533000,665.061000,322.897000,666.773000C320.210000,667.765000,317.327000,667.956000,314.461000,667.956000L73.851200,667.956000C69.836200,667.956000,61.137000,665.284000,54.445300,659.273000C48.917300,654.307000,45.969200,645.246000,45.746100,640.570000L45.746100,54.307200C45.746100,52.394000,45.870000,50.475900,46.337400,48.620500C48.144500,41.446100,52.194100,34.113400,56.452800,29.390000C61.270800,24.046300,70.505300,22.042500,73.851200,22.042500Z" fill="rgb(255,255,255)" stroke="none" stroke-width="1"/><path id="epvfk7a61yb6" d="M251.182000,391.422000L251.182000,368.712000C251.182000,366.498000,252.979000,364.704000,255.197000,364.704000L283.971000,364.704000C286.189000,364.704000,287.986000,366.498000,287.986000,368.712000L287.986000,391.422000C287.986000,393.636000,286.189000,395.430000,283.971000,395.430000L255.197000,395.430000C252.979000,395.430000,251.182000,393.636000,251.182000,391.422000Z" fill="rgb(236,238,240)" stroke="none" stroke-width="1"/><path id="epvfk7a61yb7" d="M58,113.351000L58,252.286000L331.690000,252.286000L331.690000,113.351000C331.690000,108.187000,327.495000,104,322.321000,104L67.368400,104C62.194300,104,58,108.187000,58,113.351000Z" fill="rgb(40,224,134)" stroke="none" stroke-width="1"/><path id="epvfk7a61yb8" d="M239.270000,364.024000L64.616600,364.024000C62.399100,364.024000,60.601600,365.818000,60.601600,368.032000L60.601600,390.074000C60.601600,392.288000,62.399100,394.082000,64.616600,394.082000L239.270000,394.082000C241.487000,394.082000,243.285000,392.288000,243.285000,390.074000L243.285000,368.032000C243.285000,365.818000,241.487000,364.024000,239.270000,364.024000Z" fill="rgb(40,224,134)" stroke="none" stroke-width="1"/><path id="epvfk7a61yb9" d="M296.014000,390.754000L296.014000,368.044000C296.014000,365.830000,297.811000,364.036000,300.029000,364.036000L328.803000,364.036000C331.021000,364.036000,332.818000,365.830000,332.818000,368.044000L332.818000,390.754000C332.818000,392.968000,331.021000,394.762000,328.803000,394.762000L300.029000,394.762000C297.811000,394.762000,296.014000,392.968000,296.014000,390.754000Z" fill="rgb(236,238,240)" stroke="none" stroke-width="1"/><path id="epvfk7a61yb10" d="M195.640000,303.920000C229.640000,303.920000,257.203000,276.407000,257.203000,242.468000C257.203000,208.529000,229.640000,181.016000,195.640000,181.016000C161.639000,181.016000,134.076000,208.529000,134.076000,242.468000C134.076000,276.407000,161.639000,303.920000,195.640000,303.920000Z" fill="rgb(255,255,255)" stroke="none" stroke-width="1"/><path id="epvfk7a61yb11" d="M195.638000,303.252000C229.269000,303.252000,256.533000,276.038000,256.533000,242.468000C256.533000,208.898000,229.269000,181.684000,195.638000,181.684000C162.007000,181.684000,134.744000,208.898000,134.744000,242.468000C134.744000,276.038000,162.007000,303.252000,195.638000,303.252000Z" fill="rgb(40,224,134)" stroke="rgb(255,255,255)" stroke-width="3"/><path id="epvfk7a61yb12" d="M269.915000,373.388000C266.589000,373.388000,263.893000,375.879000,263.893000,378.953000C263.893000,380.706000,264.768000,382.268000,266.137000,383.288000L266.137000,385.411000L268.187000,384.287000C268.735000,384.438000,269.314000,384.520000,269.915000,384.520000C273.241000,384.520000,275.938000,382.028000,275.938000,378.954000C275.938000,375.880000,273.241000,373.388000,269.915000,373.388000ZM270.513000,380.883000L268.980000,379.251000L265.987000,380.883000L269.279000,377.395000L270.851000,379.028000L273.806000,377.395000L270.513000,380.883000Z" fill="rgb(0,0,0)" stroke="none" stroke-width="1"/><path id="epvfk7a61yb13" d="M47.750000,88.837900L345.530000,88.837900" fill="none" stroke="rgb(244,244,244)" stroke-width="1"/><path id="epvfk7a61yb14" d="M45.746100,619.195000L343.526000,619.195000" fill="none" stroke="rgb(244,244,244)" stroke-width="1"/><g id="epvfk7a61yb15" clip-path="url(#epvfk7a61yb19)"><g id="epvfk7a61yb16"><path id="epvfk7a61yb17" d="M332.430000,66.715000C332.430000,73.737400,326.737000,79.430000,319.715000,79.430000C312.693000,79.430000,307,73.737400,307,66.715000C307,59.692600,312.693000,54,319.715000,54C326.737000,54,332.430000,59.692600,332.430000,66.715000Z" fill="rgb(254,187,0)" stroke="none" stroke-width="1"/><path id="epvfk7a61yb18" d="M322.605000,66.314300C323.773000,65.434700,324.530000,64.037000,324.530000,62.465700C324.530000,59.810600,322.370000,57.650400,319.715000,57.650400C317.059000,57.650400,314.899000,59.810600,314.899000,62.465700C314.899000,64.037000,315.656000,65.434700,316.824000,66.314300C313.697000,67.488100,311.465000,70.508600,311.465000,74.040800L312.955000,74.040800C312.955000,70.313400,315.987000,67.281100,319.715000,67.281100C323.442000,67.281100,326.474000,70.313400,326.474000,74.040800L327.965000,74.040800C327.964000,70.508600,325.733000,67.488100,322.605000,66.314300L322.605000,66.314300ZM316.389000,62.465700C316.389000,60.632000,317.881000,59.140400,319.715000,59.140400C321.548000,59.140400,323.040000,60.632000,323.040000,62.465700C323.040000,64.299300,321.548000,65.791100,319.715000,65.791100C317.881000,65.791100,316.389000,64.299300,316.389000,62.465700L316.389000,62.465700Z" fill="rgb(255,255,255)" stroke="none" stroke-width="1"/></g><clipPath id="epvfk7a61yb19"><rect id="epvfk7a61yb20" width="25.430000" height="25.430000" rx="0" ry="0" transform="matrix(1 0 0 1 307 54)" fill="rgb(255,255,255)" stroke="none" stroke-width="1"/></clipPath></g><path id="epvfk7a61yb21" d="M68.495600,60.116200L61.134800,66.795800L68.495600,74.143300" fill="none" stroke="rgb(0,0,0)" stroke-width="1"/><path id="epvfk7a61yb22" d="M120.771000,61.410500L123.704000,69.676300L126.621000,61.410500L129.711000,61.410500L129.711000,72.807400L127.351000,72.807400L127.351000,69.692000L127.586000,64.314500L124.504000,72.807400L122.889000,72.807400L119.815000,64.322200L120.050000,69.692000L120.050000,72.807400L117.697000,72.807400L117.697000,61.410500L120.771000,61.410500ZM131.264000,68.510000C131.264000,67.189700,131.559000,66.138300,132.150000,65.355500C132.746000,64.572700,133.559000,64.181400,134.589000,64.181400C135.415000,64.181400,136.097000,64.489200,136.635000,65.105100L136.635000,60.784200L138.909000,60.784200L138.909000,72.807400L136.863000,72.807400L136.753000,71.907300C136.188000,72.611700,135.462000,72.964000,134.573000,72.964000C133.574000,72.964000,132.772000,72.572500,132.165000,71.789800C131.564000,71.001800,131.264000,69.908600,131.264000,68.510000ZM133.530000,68.674300C133.530000,69.467600,133.668000,70.075600,133.945000,70.498300C134.223000,70.920900,134.625000,71.132300,135.153000,71.132300C135.854000,71.132300,136.348000,70.837500,136.635000,70.247800L136.635000,66.905300C136.353000,66.315700,135.864000,66.020800,135.169000,66.020800C134.076000,66.020800,133.530000,66.905300,133.530000,68.674300ZM151.260000,70.459100L147.135000,70.459100L146.351000,72.807400L143.850000,72.807400L148.100000,61.410500L150.280000,61.410500L154.554000,72.807400L152.052000,72.807400L151.260000,70.459100ZM147.771000,68.557100L150.625000,68.557100L149.190000,64.290900L147.771000,68.557100ZM163.117000,68.651000C163.117000,70.007700,162.826000,71.067100,162.247000,71.829000C161.666000,72.585600,160.856000,72.964000,159.815000,72.964000C158.896000,72.964000,158.161000,72.611700,157.612000,71.907300L157.510000,72.807400L155.471000,72.807400L155.471000,60.784200L157.738000,60.784200L157.738000,65.097200C158.260000,64.486700,158.948000,64.181400,159.800000,64.181400C160.835000,64.181400,161.646000,64.562300,162.231000,65.324100C162.822000,66.080800,163.117000,67.148100,163.117000,68.525700L163.117000,68.651000ZM160.851000,68.486500C160.851000,67.630700,160.714000,67.007100,160.443000,66.615700C160.171000,66.219200,159.766000,66.020800,159.228000,66.020800C158.506000,66.020800,158.009000,66.315700,157.738000,66.905300L157.738000,70.247800C158.015000,70.842700,158.517000,71.140200,159.244000,71.140200C159.976000,71.140200,160.456000,70.780000,160.686000,70.060000C160.796000,69.715400,160.851000,69.191100,160.851000,68.486500ZM169.289000,66.459100C168.980000,66.417500,168.708000,66.396600,168.473000,66.396600C167.616000,66.396600,167.054000,66.686200,166.787000,67.265500L166.787000,72.807400L164.521000,72.807400L164.521000,64.338000L166.662000,64.338000L166.725000,65.347700C167.179000,64.570200,167.809000,64.181400,168.615000,64.181400C168.865000,64.181400,169.100000,64.215300,169.320000,64.283100L169.289000,66.459100ZM175.068000,72.807400C174.964000,72.603900,174.887000,72.350800,174.841000,72.048100C174.292000,72.658700,173.579000,72.964000,172.699000,72.964000C171.868000,72.964000,171.179000,72.723900,170.629000,72.243800C170.086000,71.763800,169.814000,71.158300,169.814000,70.427900C169.814000,69.530300,170.146000,68.841300,170.810000,68.361300C171.479000,67.881200,172.444000,67.638600,173.703000,67.633400L174.747000,67.633400L174.747000,67.148100C174.747000,66.756600,174.644000,66.443500,174.440000,66.208700C174.242000,65.973900,173.925000,65.856500,173.492000,65.856500C173.110000,65.856500,172.809000,65.947700,172.590000,66.130500C172.375000,66.313100,172.268000,66.563600,172.268000,66.881900L170.003000,66.881900C170.003000,66.391400,170.154000,65.937300,170.458000,65.519900C170.760000,65.102400,171.188000,64.776300,171.744000,64.541400C172.298000,64.301400,172.919000,64.181400,173.609000,64.181400C174.655000,64.181400,175.483000,64.444800,176.095000,64.972000C176.712000,65.493800,177.021000,66.229600,177.021000,67.179300L177.021000,70.850500C177.026000,71.654100,177.139000,72.262100,177.358000,72.674300L177.358000,72.807400L175.068000,72.807400ZM173.194000,71.234100C173.529000,71.234100,173.837000,71.161000,174.119000,71.014900C174.402000,70.863500,174.610000,70.662600,174.747000,70.412100L174.747000,68.956200L173.900000,68.956200C172.765000,68.956200,172.161000,69.347600,172.088000,70.130400L172.080000,70.263400C172.080000,70.545200,172.180000,70.777500,172.378000,70.960100C172.577000,71.142700,172.849000,71.234100,173.194000,71.234100ZM183.529000,66.459100C183.221000,66.417500,182.950000,66.396600,182.714000,66.396600C181.856000,66.396600,181.294000,66.686200,181.028000,67.265500L181.028000,72.807400L178.762000,72.807400L178.762000,64.338000L180.902000,64.338000L180.965000,65.347700C181.420000,64.570200,182.050000,64.181400,182.855000,64.181400C183.106000,64.181400,183.342000,64.215300,183.561000,64.283100L183.529000,66.459100ZM191.269000,70.920900L197.025000,70.920900L197.025000,72.807400L188.328000,72.807400L188.328000,71.429800L193.975000,63.312500L188.336000,63.312500L188.336000,61.410500L196.899000,61.410500L196.899000,62.756800L191.269000,70.920900ZM203.283000,72.807400C203.179000,72.603900,203.102000,72.350800,203.055000,72.048100C202.507000,72.658700,201.793000,72.964000,200.914000,72.964000C200.083000,72.964000,199.394000,72.723900,198.845000,72.243800C198.300000,71.763800,198.029000,71.158300,198.029000,70.427900C198.029000,69.530300,198.361000,68.841300,199.024000,68.361300C199.694000,67.881200,200.658000,67.638600,201.918000,67.633400L202.962000,67.633400L202.962000,67.148100C202.962000,66.756600,202.860000,66.443500,202.655000,66.208700C202.457000,65.973900,202.140000,65.856500,201.706000,65.856500C201.325000,65.856500,201.024000,65.947700,200.804000,66.130500C200.590000,66.313100,200.483000,66.563600,200.483000,66.881900L198.217000,66.881900C198.217000,66.391400,198.369000,65.937300,198.672000,65.519900C198.975000,65.102400,199.403000,64.776300,199.959000,64.541400C200.513000,64.301400,201.134000,64.181400,201.824000,64.181400C202.869000,64.181400,203.698000,64.444800,204.311000,64.972000C204.926000,65.493800,205.236000,66.229600,205.236000,67.179300L205.236000,70.850500C205.241000,71.654100,205.353000,72.262100,205.573000,72.674300L205.573000,72.807400L203.283000,72.807400ZM201.409000,71.234100C201.744000,71.234100,202.052000,71.161000,202.334000,71.014900C202.616000,70.863500,202.825000,70.662600,202.962000,70.412100L202.962000,68.956200L202.115000,68.956200C200.980000,68.956200,200.376000,69.347600,200.302000,70.130400L200.296000,70.263400C200.296000,70.545200,200.395000,70.777500,200.593000,70.960100C200.792000,71.142700,201.064000,71.234100,201.409000,71.234100ZM209.188000,65.261600C209.789000,64.541400,210.545000,64.181400,211.453000,64.181400C213.294000,64.181400,214.228000,65.248500,214.253000,67.382900L214.253000,72.807400L211.987000,72.807400L211.987000,67.445400C211.987000,66.960100,211.883000,66.602700,211.673000,66.373100C211.464000,66.138300,211.116000,66.020800,210.630000,66.020800C209.967000,66.020800,209.486000,66.276500,209.188000,66.787900L209.188000,72.807400L206.922000,72.807400L206.922000,60.784200L209.188000,60.784200L209.188000,65.261600ZM218.355000,72.807400L216.080000,72.807400L216.080000,64.338000L218.355000,64.338000L218.355000,72.807400ZM215.948000,62.146100C215.948000,61.807000,216.060000,61.527700,216.285000,61.308700C216.515000,61.089400,216.826000,60.979900,217.218000,60.979900C217.604000,60.979900,217.914000,61.089400,218.142000,61.308700C218.373000,61.527700,218.488000,61.807000,218.488000,62.146100C218.488000,62.490500,218.370000,62.772400,218.136000,62.991500C217.906000,63.210700,217.599000,63.320300,217.218000,63.320300C216.836000,63.320300,216.527000,63.210700,216.293000,62.991500C216.063000,62.772400,215.948000,62.490500,215.948000,62.146100ZM222.315000,64.338000L222.385000,65.316400C222.993000,64.559700,223.805000,64.181400,224.825000,64.181400C225.724000,64.181400,226.393000,64.444800,226.832000,64.972000C227.271000,65.499000,227.496000,66.286900,227.507000,67.335900L227.507000,72.807400L225.240000,72.807400L225.240000,67.390700C225.240000,66.910500,225.135000,66.563600,224.927000,66.349600C224.718000,66.130500,224.370000,66.020800,223.884000,66.020800C223.246000,66.020800,222.768000,66.292100,222.448000,66.834900L222.448000,72.807400L220.182000,72.807400L220.182000,64.338000L222.315000,64.338000ZM239.826000,70.459100L235.701000,70.459100L234.917000,72.807400L232.416000,72.807400L236.665000,61.410500L238.845000,61.410500L243.120000,72.807400L240.617000,72.807400L239.826000,70.459100ZM236.336000,68.557100L239.191000,68.557100L237.756000,64.290900L236.336000,68.557100ZM245.746000,64.338000L245.817000,65.316400C246.423000,64.559700,247.237000,64.181400,248.255000,64.181400C249.154000,64.181400,249.824000,64.444800,250.263000,64.972000C250.703000,65.499000,250.928000,66.286900,250.937000,67.335900L250.937000,72.807400L248.671000,72.807400L248.671000,67.390700C248.671000,66.910500,248.567000,66.563600,248.358000,66.349600C248.148000,66.130500,247.801000,66.020800,247.314000,66.020800C246.677000,66.020800,246.198000,66.292100,245.880000,66.834900L245.880000,72.807400L243.614000,72.807400L243.614000,64.338000L245.746000,64.338000ZM255.376000,62.255800L255.376000,64.338000L256.827000,64.338000L256.827000,65.997300L255.376000,65.997300L255.376000,70.224300C255.376000,70.537400,255.437000,70.761800,255.557000,70.897400C255.676000,71.033200,255.906000,71.101000,256.246000,71.101000C256.498000,71.101000,256.720000,71.082700,256.913000,71.046100L256.913000,72.760400C256.468000,72.896100,256.011000,72.964000,255.541000,72.964000C253.951000,72.964000,253.141000,72.162900,253.109000,70.560900L253.109000,65.997300L251.871000,65.997300L251.871000,64.338000L253.109000,64.338000L253.109000,62.255800L255.376000,62.255800ZM257.502000,68.494400C257.502000,67.654200,257.664000,66.905300,257.987000,66.247800C258.311000,65.590400,258.777000,65.081500,259.383000,64.721500C259.995000,64.361400,260.703000,64.181400,261.509000,64.181400C262.653000,64.181400,263.587000,64.531000,264.308000,65.230200C265.035000,65.929600,265.439000,66.879300,265.524000,68.079500L265.540000,68.658700C265.540000,69.958200,265.176000,71.001800,264.449000,71.789800C263.722000,72.572500,262.748000,72.964000,261.525000,72.964000C260.300000,72.964000,259.323000,72.572500,258.591000,71.789800C257.864000,71.007000,257.502000,69.942500,257.502000,68.596200L257.502000,68.494400ZM259.767000,68.658700C259.767000,69.462400,259.919000,70.078100,260.222000,70.506000C260.525000,70.928800,260.960000,71.140200,261.525000,71.140200C262.073000,71.140200,262.502000,70.931400,262.809000,70.513900C263.119000,70.091200,263.273000,69.418000,263.273000,68.494400C263.273000,67.706300,263.119000,67.095800,262.809000,66.662700C262.502000,66.229600,262.068000,66.013100,261.509000,66.013100C260.955000,66.013100,260.525000,66.229600,260.222000,66.662700C259.919000,67.090600,259.767000,67.756000,259.767000,68.658700ZM271.703000,66.459100C271.395000,66.417500,271.122000,66.396600,270.888000,66.396600C270.030000,66.396600,269.468000,66.686200,269.201000,67.265500L269.201000,72.807400L266.934000,72.807400L266.934000,64.338000L269.076000,64.338000L269.138000,65.347700C269.594000,64.570200,270.224000,64.181400,271.028000,64.181400C271.280000,64.181400,271.514000,64.215300,271.734000,64.283100L271.703000,66.459100Z" fill="rgb(0,0,0)" stroke="none" stroke-width="1"/><path id="epvfk7a61yb23" d="M115.760000,312.948000L118.937000,321.903000L122.097000,312.948000L125.444000,312.948000L125.444000,325.295000L122.887000,325.295000L122.887000,321.920000L123.142000,316.094000L119.804000,325.295000L118.054000,325.295000L114.723000,316.102000L114.978000,321.920000L114.978000,325.295000L112.430000,325.295000L112.430000,312.948000L115.760000,312.948000ZM127.126000,320.639000C127.126000,319.208000,127.446000,318.070000,128.086000,317.222000C128.732000,316.373000,129.613000,315.950000,130.728000,315.950000C131.623000,315.950000,132.362000,316.284000,132.946000,316.951000L132.946000,312.270000L135.409000,312.270000L135.409000,325.295000L133.192000,325.295000L133.073000,324.319000C132.462000,325.082000,131.674000,325.464000,130.712000,325.464000C129.630000,325.464000,128.760000,325.041000,128.103000,324.193000C127.452000,323.339000,127.126000,322.154000,127.126000,320.639000ZM129.582000,320.817000C129.582000,321.677000,129.732000,322.336000,130.032000,322.793000C130.332000,323.251000,130.768000,323.481000,131.340000,323.481000C132.099000,323.481000,132.634000,323.161000,132.946000,322.521000L132.946000,318.901000C132.640000,318.262000,132.110000,317.943000,131.357000,317.943000C130.173000,317.943000,129.582000,318.901000,129.582000,320.817000ZM148.790000,322.751000L144.321000,322.751000L143.471000,325.295000L140.761000,325.295000L145.366000,312.948000L147.728000,312.948000L152.358000,325.295000L149.648000,325.295000L148.790000,322.751000ZM145.009000,320.690000L148.101000,320.690000L146.547000,316.069000L145.009000,320.690000ZM161.635000,320.791000C161.635000,322.262000,161.320000,323.410000,160.691000,324.235000C160.063000,325.054000,159.186000,325.464000,158.058000,325.464000C157.061000,325.464000,156.265000,325.082000,155.671000,324.319000L155.560000,325.295000L153.352000,325.295000L153.352000,312.270000L155.807000,312.270000L155.807000,316.943000C156.373000,316.280000,157.118000,315.950000,158.041000,315.950000C159.163000,315.950000,160.041000,316.363000,160.675000,317.188000C161.315000,318.007000,161.635000,319.164000,161.635000,320.656000L161.635000,320.791000ZM159.179000,320.614000C159.179000,319.687000,159.032000,319.011000,158.738000,318.587000C158.443000,318.157000,158.004000,317.943000,157.421000,317.943000C156.639000,317.943000,156.101000,318.262000,155.807000,318.901000L155.807000,322.521000C156.107000,323.167000,156.651000,323.489000,157.438000,323.489000C158.231000,323.489000,158.752000,323.098000,159.001000,322.318000C159.120000,321.946000,159.179000,321.376000,159.179000,320.614000ZM168.320000,318.417000C167.986000,318.372000,167.692000,318.349000,167.436000,318.349000C166.508000,318.349000,165.899000,318.663000,165.611000,319.291000L165.611000,325.295000L163.155000,325.295000L163.155000,316.120000L165.474000,316.120000L165.543000,317.214000C166.035000,316.371000,166.718000,315.950000,167.590000,315.950000C167.862000,315.950000,168.116000,315.986000,168.354000,316.060000L168.320000,318.417000ZM174.582000,325.295000C174.468000,325.074000,174.386000,324.800000,174.336000,324.472000C173.740000,325.133000,172.968000,325.464000,172.016000,325.464000C171.115000,325.464000,170.367000,325.204000,169.773000,324.684000C169.184000,324.165000,168.890000,323.509000,168.890000,322.716000C168.890000,321.744000,169.248000,320.998000,169.969000,320.479000C170.694000,319.958000,171.738000,319.695000,173.103000,319.689000L174.232000,319.689000L174.232000,319.164000C174.232000,318.739000,174.123000,318.400000,173.902000,318.146000C173.686000,317.891000,173.344000,317.764000,172.874000,317.764000C172.461000,317.764000,172.135000,317.863000,171.897000,318.061000C171.664000,318.260000,171.549000,318.531000,171.549000,318.876000L169.093000,318.876000C169.093000,318.344000,169.258000,317.852000,169.586000,317.399000C169.915000,316.948000,170.379000,316.594000,170.979000,316.340000C171.580000,316.080000,172.253000,315.950000,173.001000,315.950000C174.133000,315.950000,175.031000,316.236000,175.694000,316.806000C176.363000,317.371000,176.696000,318.169000,176.696000,319.198000L176.696000,323.175000C176.702000,324.046000,176.823000,324.704000,177.062000,325.150000L177.062000,325.295000L174.582000,325.295000ZM172.552000,323.590000C172.913000,323.590000,173.247000,323.511000,173.554000,323.352000C173.859000,323.189000,174.085000,322.972000,174.232000,322.700000L174.232000,321.123000L173.316000,321.123000C172.087000,321.123000,171.433000,321.546000,171.354000,322.394000L171.344000,322.539000C171.344000,322.845000,171.453000,323.096000,171.667000,323.293000C171.882000,323.491000,172.177000,323.590000,172.552000,323.590000ZM183.748000,318.417000C183.413000,318.372000,183.119000,318.349000,182.865000,318.349000C181.936000,318.349000,181.327000,318.663000,181.038000,319.291000L181.038000,325.295000L178.582000,325.295000L178.582000,316.120000L180.901000,316.120000L180.970000,317.214000C181.462000,316.371000,182.145000,315.950000,183.017000,315.950000C183.289000,315.950000,183.543000,315.986000,183.781000,316.060000L183.748000,318.417000ZM192.133000,323.251000L198.368000,323.251000L198.368000,325.295000L188.947000,325.295000L188.947000,323.802000L195.064000,315.008000L188.955000,315.008000L188.955000,312.948000L198.233000,312.948000L198.233000,314.407000L192.133000,323.251000ZM205.148000,325.295000C205.034000,325.074000,204.953000,324.800000,204.900000,324.472000C204.306000,325.133000,203.533000,325.464000,202.582000,325.464000C201.682000,325.464000,200.934000,325.204000,200.339000,324.684000C199.751000,324.165000,199.456000,323.509000,199.456000,322.716000C199.456000,321.744000,199.815000,320.998000,200.535000,320.479000C201.259000,319.958000,202.304000,319.695000,203.669000,319.689000L204.799000,319.689000L204.799000,319.164000C204.799000,318.739000,204.689000,318.400000,204.468000,318.146000C204.253000,317.891000,203.910000,317.764000,203.440000,317.764000C203.027000,317.764000,202.700000,317.863000,202.463000,318.061000C202.230000,318.260000,202.114000,318.531000,202.114000,318.876000L199.660000,318.876000C199.660000,318.344000,199.824000,317.852000,200.152000,317.399000C200.481000,316.948000,200.946000,316.594000,201.545000,316.340000C202.146000,316.080000,202.819000,315.950000,203.567000,315.950000C204.700000,315.950000,205.598000,316.236000,206.260000,316.806000C206.928000,317.371000,207.263000,318.169000,207.263000,319.198000L207.263000,323.175000C207.268000,324.046000,207.390000,324.704000,207.628000,325.150000L207.628000,325.295000L205.148000,325.295000ZM203.116000,323.590000C203.479000,323.590000,203.814000,323.511000,204.119000,323.352000C204.425000,323.189000,204.652000,322.972000,204.799000,322.700000L204.799000,321.123000L203.882000,321.123000C202.652000,321.123000,201.999000,321.546000,201.919000,322.394000L201.911000,322.539000C201.911000,322.845000,202.018000,323.096000,202.233000,323.293000C202.449000,323.491000,202.743000,323.590000,203.116000,323.590000ZM211.544000,317.120000C212.196000,316.340000,213.013000,315.950000,214,315.950000C215.993000,315.950000,217.004000,317.106000,217.032000,319.418000L217.032000,325.295000L214.577000,325.295000L214.577000,319.486000C214.577000,318.960000,214.464000,318.572000,214.238000,318.324000C214.010000,318.070000,213.634000,317.943000,213.107000,317.943000C212.388000,317.943000,211.868000,318.220000,211.544000,318.774000L211.544000,325.295000L209.089000,325.295000L209.089000,312.270000L211.544000,312.270000L211.544000,317.120000ZM221.476000,325.295000L219.012000,325.295000L219.012000,316.120000L221.476000,316.120000L221.476000,325.295000ZM218.867000,313.744000C218.867000,313.377000,218.989000,313.075000,219.233000,312.837000C219.482000,312.601000,219.819000,312.482000,220.243000,312.482000C220.662000,312.482000,220.997000,312.601000,221.246000,312.837000C221.496000,313.075000,221.620000,313.377000,221.620000,313.744000C221.620000,314.118000,221.492000,314.423000,221.238000,314.661000C220.989000,314.899000,220.657000,315.018000,220.243000,315.018000C219.830000,315.018000,219.496000,314.899000,219.241000,314.661000C218.992000,314.423000,218.867000,314.118000,218.867000,313.744000ZM225.765000,316.120000L225.841000,317.179000C226.499000,316.360000,227.379000,315.950000,228.485000,315.950000C229.458000,315.950000,230.183000,316.236000,230.659000,316.806000C231.135000,317.377000,231.378000,318.230000,231.389000,319.367000L231.389000,325.295000L228.934000,325.295000L228.934000,319.426000C228.934000,318.906000,228.821000,318.531000,228.594000,318.299000C228.368000,318.061000,227.991000,317.943000,227.465000,317.943000C226.774000,317.943000,226.255000,318.237000,225.910000,318.825000L225.910000,325.295000L223.455000,325.295000L223.455000,316.120000L225.765000,316.120000ZM244.736000,322.751000L240.267000,322.751000L239.417000,325.295000L236.707000,325.295000L241.311000,312.948000L243.673000,312.948000L248.304000,325.295000L245.594000,325.295000L244.736000,322.751000ZM240.955000,320.690000L244.047000,320.690000L242.493000,316.069000L240.955000,320.690000ZM251.149000,316.120000L251.226000,317.179000C251.883000,316.360000,252.763000,315.950000,253.868000,315.950000C254.842000,315.950000,255.567000,316.236000,256.042000,316.806000C256.519000,317.377000,256.762000,318.230000,256.773000,319.367000L256.773000,325.295000L254.319000,325.295000L254.319000,319.426000C254.319000,318.906000,254.205000,318.531000,253.979000,318.299000C253.752000,318.061000,253.375000,317.943000,252.849000,317.943000C252.157000,317.943000,251.639000,318.237000,251.294000,318.825000L251.294000,325.295000L248.839000,325.295000L248.839000,316.120000L251.149000,316.120000ZM261.582000,313.863000L261.582000,316.120000L263.153000,316.120000L263.153000,317.918000L261.582000,317.918000L261.582000,322.496000C261.582000,322.835000,261.647000,323.078000,261.777000,323.225000C261.907000,323.372000,262.157000,323.446000,262.525000,323.446000C262.797000,323.446000,263.038000,323.426000,263.247000,323.387000L263.247000,325.244000C262.765000,325.391000,262.270000,325.464000,261.760000,325.464000C260.039000,325.464000,259.161000,324.596000,259.127000,322.861000L259.127000,317.918000L257.785000,317.918000L257.785000,316.120000L259.127000,316.120000L259.127000,313.863000L261.582000,313.863000ZM263.884000,320.622000C263.884000,319.712000,264.059000,318.901000,264.411000,318.189000C264.762000,317.476000,265.266000,316.925000,265.923000,316.535000C266.586000,316.145000,267.353000,315.950000,268.225000,315.950000C269.466000,315.950000,270.476000,316.328000,271.258000,317.085000C272.045000,317.844000,272.484000,318.873000,272.575000,320.173000L272.592000,320.801000C272.592000,322.207000,272.197000,323.339000,271.410000,324.193000C270.623000,325.041000,269.568000,325.464000,268.243000,325.464000C266.916000,325.464000,265.858000,325.041000,265.065000,324.193000C264.277000,323.344000,263.884000,322.191000,263.884000,320.733000L263.884000,320.622000ZM266.339000,320.801000C266.339000,321.670000,266.503000,322.338000,266.832000,322.802000C267.160000,323.260000,267.631000,323.489000,268.243000,323.489000C268.837000,323.489000,269.301000,323.263000,269.636000,322.810000C269.969000,322.352000,270.136000,321.622000,270.136000,320.622000C270.136000,319.768000,269.969000,319.107000,269.636000,318.638000C269.301000,318.169000,268.831000,317.934000,268.225000,317.934000C267.624000,317.934000,267.160000,318.169000,266.832000,318.638000C266.503000,319.101000,266.339000,319.823000,266.339000,320.801000ZM279.269000,318.417000C278.935000,318.372000,278.640000,318.349000,278.386000,318.349000C277.457000,318.349000,276.848000,318.663000,276.559000,319.291000L276.559000,325.295000L274.103000,325.295000L274.103000,316.120000L276.422000,316.120000L276.491000,317.214000C276.983000,316.371000,277.666000,315.950000,278.538000,315.950000C278.810000,315.950000,279.064000,315.986000,279.303000,316.060000L279.269000,318.417000Z" fill="rgb(0,0,0)" stroke="none" stroke-width="1"/><path id="epvfk7a61yb24" d="M134.590000,379.029000L129.697000,379.029000L129.697000,384.075000L127.148000,384.075000L127.148000,371.728000L135.202000,371.728000L135.202000,373.788000L129.697000,373.788000L129.697000,376.977000L134.590000,376.977000L134.590000,379.029000ZM135.950000,379.402000C135.950000,378.492000,136.125000,377.681000,136.476000,376.969000C136.827000,376.256000,137.331000,375.705000,137.988000,375.315000C138.651000,374.925000,139.418000,374.730000,140.291000,374.730000C141.531000,374.730000,142.542000,375.108000,143.323000,375.866000C144.111000,376.625000,144.550000,377.653000,144.640000,378.953000L144.657000,379.581000C144.657000,380.988000,144.264000,382.119000,143.476000,382.973000C142.689000,383.821000,141.633000,384.245000,140.308000,384.245000C138.982000,384.245000,137.923000,383.821000,137.130000,382.973000C136.343000,382.125000,135.950000,380.972000,135.950000,379.513000L135.950000,379.402000ZM138.405000,379.581000C138.405000,380.451000,138.569000,381.119000,138.897000,381.582000C139.226000,382.040000,139.696000,382.269000,140.308000,382.269000C140.902000,382.269000,141.367000,382.043000,141.701000,381.590000C142.035000,381.132000,142.202000,380.403000,142.202000,379.402000C142.202000,378.548000,142.035000,377.887000,141.701000,377.418000C141.367000,376.949000,140.897000,376.714000,140.291000,376.714000C139.690000,376.714000,139.226000,376.949000,138.897000,377.418000C138.569000,377.882000,138.405000,378.603000,138.405000,379.581000ZM148.760000,384.075000L146.297000,384.075000L146.297000,371.050000L148.760000,371.050000L148.760000,384.075000ZM153.382000,384.075000L150.918000,384.075000L150.918000,371.050000L153.382000,371.050000L153.382000,384.075000ZM155.030000,379.402000C155.030000,378.492000,155.206000,377.681000,155.557000,376.969000C155.908000,376.256000,156.412000,375.705000,157.069000,375.315000C157.732000,374.925000,158.499000,374.730000,159.371000,374.730000C160.612000,374.730000,161.622000,375.108000,162.404000,375.866000C163.191000,376.625000,163.630000,377.653000,163.721000,378.953000L163.738000,379.581000C163.738000,380.988000,163.343000,382.119000,162.557000,382.973000C161.770000,383.821000,160.714000,384.245000,159.389000,384.245000C158.063000,384.245000,157.004000,383.821000,156.211000,382.973000C155.424000,382.125000,155.030000,380.972000,155.030000,379.513000L155.030000,379.402000ZM157.485000,379.581000C157.485000,380.451000,157.649000,381.119000,157.978000,381.582000C158.306000,382.040000,158.776000,382.269000,159.389000,382.269000C159.983000,382.269000,160.447000,382.043000,160.782000,381.590000C161.115000,381.132000,161.282000,380.403000,161.282000,379.402000C161.282000,378.548000,161.115000,377.887000,160.782000,377.418000C160.447000,376.949000,159.978000,376.714000,159.371000,376.714000C158.771000,376.714000,158.306000,376.949000,157.978000,377.418000C157.649000,377.882000,157.485000,378.603000,157.485000,379.581000ZM173.245000,380.742000L174.450000,374.900000L176.821000,374.900000L174.476000,384.075000L172.420000,384.075000L170.679000,378.300000L168.936000,384.075000L166.890000,384.075000L164.545000,374.900000L166.916000,374.900000L168.113000,380.734000L169.794000,374.900000L171.570000,374.900000L173.245000,380.742000Z" fill="rgb(255,255,255)" stroke="none" stroke-width="1"/><path id="epvfk7a61yb25" d="M306.320000,381.670000C307.577000,381.670000,308.595000,380.653000,308.595000,379.399000C308.595000,378.145000,307.577000,377.128000,306.320000,377.128000C305.063000,377.128000,304.045000,378.145000,304.045000,379.399000C304.045000,380.653000,305.063000,381.670000,306.320000,381.670000Z" fill="rgb(0,0,0)" stroke="none" stroke-width="1"/><path id="epvfk7a61yb26" d="M315.426000,381.670000C316.682000,381.670000,317.701000,380.653000,317.701000,379.399000C317.701000,378.145000,316.682000,377.128000,315.426000,377.128000C314.169000,377.128000,313.150000,378.145000,313.150000,379.399000C313.150000,380.653000,314.169000,381.670000,315.426000,381.670000Z" fill="rgb(0,0,0)" stroke="none" stroke-width="1"/><path id="epvfk7a61yb27" d="M324.523000,381.670000C325.779000,381.670000,326.798000,380.653000,326.798000,379.399000C326.798000,378.145000,325.779000,377.128000,324.523000,377.128000C323.267000,377.128000,322.248000,378.145000,322.248000,379.399000C322.248000,380.653000,323.267000,381.670000,324.523000,381.670000Z" fill="rgb(0,0,0)" stroke="none" stroke-width="1"/><path id="epvfk7a61yb28" d="M157.127000,339.935000L152.742000,339.935000L151.757000,342.661000L150.334000,342.661000L154.331000,332.215000L155.538000,332.215000L159.543000,342.661000L158.126000,342.661000L157.127000,339.935000ZM153.159000,338.801000L156.717000,338.801000L154.935000,333.915000L153.159000,338.801000ZM162.187000,342.661000L160.858000,342.661000L160.858000,331.640000L162.187000,331.640000L162.187000,342.661000ZM165.652000,335.838000C166.242000,335.115000,167.009000,334.754000,167.953000,334.754000C169.596000,334.754000,170.426000,335.680000,170.439000,337.532000L170.439000,342.661000L169.110000,342.661000L169.110000,337.523000C169.105000,336.964000,168.975000,336.551000,168.722000,336.282000C168.472000,336.015000,168.082000,335.880000,167.550000,335.880000C167.119000,335.880000,166.740000,335.995000,166.415000,336.225000C166.088000,336.455000,165.834000,336.757000,165.652000,337.129000L165.652000,342.661000L164.323000,342.661000L164.323000,331.640000L165.652000,331.640000L165.652000,335.838000ZM177.233000,342.661000C177.156000,342.508000,177.093000,342.235000,177.045000,341.844000C176.427000,342.485000,175.690000,342.804000,174.832000,342.804000C174.065000,342.804000,173.434000,342.589000,172.941000,342.159000C172.452000,341.724000,172.209000,341.173000,172.209000,340.509000C172.209000,339.701000,172.515000,339.073000,173.128000,338.628000C173.746000,338.179000,174.614000,337.955000,175.730000,337.955000L177.024000,337.955000L177.024000,337.344000C177.024000,336.881000,176.885000,336.512000,176.608000,336.240000C176.329000,335.962000,175.920000,335.823000,175.378000,335.823000C174.904000,335.823000,174.506000,335.943000,174.185000,336.182000C173.864000,336.421000,173.703000,336.711000,173.703000,337.051000L172.366000,337.051000C172.366000,336.663000,172.503000,336.289000,172.776000,335.931000C173.054000,335.568000,173.428000,335.280000,173.898000,335.069000C174.371000,334.860000,174.892000,334.754000,175.457000,334.754000C176.353000,334.754000,177.056000,334.979000,177.563000,335.429000C178.072000,335.874000,178.335000,336.488000,178.354000,337.272000L178.354000,340.846000C178.354000,341.559000,178.445000,342.126000,178.627000,342.547000L178.627000,342.661000L177.233000,342.661000ZM175.026000,341.650000C175.443000,341.650000,175.838000,341.542000,176.212000,341.327000C176.586000,341.112000,176.857000,340.831000,177.024000,340.488000L177.024000,338.894000L175.981000,338.894000C174.353000,338.894000,173.538000,339.370000,173.538000,340.322000C173.538000,340.739000,173.677000,341.064000,173.955000,341.297000C174.232000,341.533000,174.589000,341.650000,175.026000,341.650000ZM181.689000,334.897000L181.725000,335.759000C182.296000,335.089000,183.065000,334.754000,184.033000,334.754000C185.121000,334.754000,185.861000,335.171000,186.254000,336.003000C186.513000,335.629000,186.849000,335.329000,187.261000,335.099000C187.677000,334.869000,188.168000,334.754000,188.734000,334.754000C190.441000,334.754000,191.308000,335.656000,191.336000,337.459000L191.336000,342.661000L190.006000,342.661000L190.006000,337.538000C190.006000,336.984000,189.880000,336.570000,189.626000,336.297000C189.371000,336.019000,188.944000,335.880000,188.346000,335.880000C187.852000,335.880000,187.443000,336.029000,187.116000,336.325000C186.791000,336.618000,186.601000,337.012000,186.549000,337.510000L186.549000,342.661000L185.212000,342.661000L185.212000,337.574000C185.212000,336.445000,184.658000,335.880000,183.551000,335.880000C182.680000,335.880000,182.083000,336.252000,181.762000,336.993000L181.762000,342.661000L180.431000,342.661000L180.431000,334.897000L181.689000,334.897000ZM193.025000,338.715000C193.025000,337.523000,193.309000,336.567000,193.874000,335.844000C194.440000,335.118000,195.180000,334.754000,196.095000,334.754000C197.005000,334.754000,197.727000,335.065000,198.258000,335.687000L198.258000,331.640000L199.588000,331.640000L199.588000,342.661000L198.366000,342.661000L198.302000,341.829000C197.769000,342.480000,197.029000,342.804000,196.080000,342.804000C195.180000,342.804000,194.444000,342.437000,193.874000,341.700000C193.309000,340.963000,193.025000,340.002000,193.025000,338.815000L193.025000,338.715000ZM194.355000,338.866000C194.355000,339.746000,194.537000,340.434000,194.901000,340.933000C195.265000,341.430000,195.769000,341.678000,196.411000,341.678000C197.254000,341.678000,197.870000,341.300000,198.258000,340.545000L198.258000,336.978000C197.860000,336.246000,197.250000,335.880000,196.426000,335.880000C195.774000,335.880000,195.265000,336.131000,194.901000,336.634000C194.537000,337.136000,194.355000,337.880000,194.355000,338.866000ZM206.461000,341.893000C205.943000,342.501000,205.184000,342.804000,204.181000,342.804000C203.353000,342.804000,202.720000,342.565000,202.284000,342.087000C201.853000,341.605000,201.635000,340.891000,201.631000,339.949000L201.631000,334.897000L202.960000,334.897000L202.960000,339.913000C202.960000,341.090000,203.439000,341.678000,204.397000,341.678000C205.414000,341.678000,206.089000,341.300000,206.424000,340.545000L206.424000,334.897000L207.755000,334.897000L207.755000,342.661000L206.489000,342.661000L206.461000,341.893000ZM211.226000,342.661000L209.896000,342.661000L209.896000,331.640000L211.226000,331.640000L211.226000,342.661000ZM214.806000,342.661000L213.476000,342.661000L213.476000,334.897000L214.806000,334.897000L214.806000,342.661000ZM213.369000,332.838000C213.369000,332.623000,213.433000,332.442000,213.563000,332.293000C213.697000,332.145000,213.894000,332.070000,214.152000,332.070000C214.410000,332.070000,214.607000,332.145000,214.741000,332.293000C214.876000,332.442000,214.943000,332.623000,214.943000,332.838000C214.943000,333.054000,214.876000,333.233000,214.741000,333.377000C214.607000,333.520000,214.410000,333.592000,214.152000,333.592000C213.894000,333.592000,213.697000,333.520000,213.563000,333.377000C213.433000,333.233000,213.369000,333.054000,213.369000,332.838000ZM218.387000,342.661000L217.056000,342.661000L217.056000,331.640000L218.387000,331.640000L218.387000,342.661000ZM221.965000,342.661000L220.636000,342.661000L220.636000,331.640000L221.965000,331.640000L221.965000,342.661000ZM228.902000,342.661000C228.826000,342.508000,228.764000,342.235000,228.716000,341.844000C228.097000,342.485000,227.359000,342.804000,226.501000,342.804000C225.735000,342.804000,225.105000,342.589000,224.611000,342.159000C224.123000,341.724000,223.878000,341.173000,223.878000,340.509000C223.878000,339.701000,224.184000,339.073000,224.798000,338.628000C225.415000,338.179000,226.284000,337.955000,227.400000,337.955000L228.694000,337.955000L228.694000,337.344000C228.694000,336.881000,228.555000,336.512000,228.277000,336.240000C227.998000,335.962000,227.589000,335.823000,227.048000,335.823000C226.573000,335.823000,226.176000,335.943000,225.854000,336.182000C225.533000,336.421000,225.373000,336.711000,225.373000,337.051000L224.036000,337.051000C224.036000,336.663000,224.172000,336.289000,224.445000,335.931000C224.724000,335.568000,225.097000,335.280000,225.567000,335.069000C226.042000,334.860000,226.561000,334.754000,227.127000,334.754000C228.023000,334.754000,228.725000,334.979000,229.234000,335.429000C229.741000,335.874000,230.005000,336.488000,230.023000,337.272000L230.023000,340.846000C230.023000,341.559000,230.114000,342.126000,230.296000,342.547000L230.296000,342.661000L228.902000,342.661000ZM226.696000,341.650000C227.112000,341.650000,227.507000,341.542000,227.882000,341.327000C228.255000,341.112000,228.526000,340.831000,228.694000,340.488000L228.694000,338.894000L227.652000,338.894000C226.022000,338.894000,225.208000,339.370000,225.208000,340.322000C225.208000,340.739000,225.347000,341.064000,225.624000,341.297000C225.903000,341.533000,226.260000,341.650000,226.696000,341.650000ZM233.439000,335.838000C234.028000,335.115000,234.795000,334.754000,235.738000,334.754000C237.383000,334.754000,238.211000,335.680000,238.226000,337.532000L238.226000,342.661000L236.896000,342.661000L236.896000,337.523000C236.892000,336.964000,236.762000,336.551000,236.508000,336.282000C236.259000,336.015000,235.868000,335.880000,235.337000,335.880000C234.904000,335.880000,234.526000,335.995000,234.200000,336.225000C233.874000,336.455000,233.621000,336.757000,233.439000,337.129000L233.439000,342.661000L232.108000,342.661000L232.108000,331.640000L233.439000,331.640000L233.439000,335.838000Z" fill="rgb(142,142,142)" stroke="none" stroke-width="1"/><path id="epvfk7a61yb29" d="M324.118000,504.975000L68.495600,504.975000C64.430300,504.975000,61.134800,508.265000,61.134800,512.323000L61.134800,604.501000C61.134800,608.558000,64.430300,611.848000,68.495600,611.848000L324.118000,611.848000C328.183000,611.848000,331.479000,608.558000,331.479000,604.501000L331.479000,512.323000C331.479000,508.265000,328.183000,504.975000,324.118000,504.975000Z" fill="none" stroke="rgb(88,89,90)" stroke-width="3"/><path id="epvfk7a61yb30" d="M185.601000,417.473000L67.827600,417.473000C63.762400,417.473000,60.466800,420.762000,60.466800,424.820000C60.466800,428.878000,63.762400,432.168000,67.827600,432.168000L185.601000,432.168000C189.667000,432.168000,192.962000,428.878000,192.962000,424.820000C192.962000,420.762000,189.667000,417.473000,185.601000,417.473000Z" fill="rgb(236,238,240)" stroke="none" stroke-width="1"/><path id="epvfk7a61yb31" d="M134.744000,438.847000L67.827600,438.847000C63.762400,438.847000,60.466800,442.137000,60.466800,446.195000C60.466800,450.253000,63.762400,453.542000,67.827600,453.542000L134.744000,453.542000C138.810000,453.542000,142.105000,450.253000,142.105000,446.195000C142.105000,442.137000,138.810000,438.847000,134.744000,438.847000Z" fill="rgb(236,238,240)" stroke="none" stroke-width="1"/><path id="epvfk7a61yb32" d="M268.578000,460.222000L67.827600,460.222000C63.762400,460.222000,60.466800,463.511000,60.466800,467.569000C60.466800,471.627000,63.762400,474.917000,67.827600,474.917000L268.578000,474.917000C272.643000,474.917000,275.939000,471.627000,275.939000,467.569000C275.939000,463.511000,272.643000,460.222000,268.578000,460.222000Z" fill="rgb(236,238,240)" stroke="none" stroke-width="1"/><path id="epvfk7a61yb33" d="M268.578000,481.597000L67.827600,481.597000C63.762400,481.597000,60.466800,484.886000,60.466800,488.944000C60.466800,493.002000,63.762400,496.292000,67.827600,496.292000L268.578000,496.292000C272.643000,496.292000,275.939000,493.002000,275.939000,488.944000C275.939000,484.886000,272.643000,481.597000,268.578000,481.597000Z" fill="rgb(236,238,240)" stroke="none" stroke-width="1"/><path id="epvfk7a61yb34" d="M342.854000,484.268000L87.231600,484.268000C82.057600,484.268000,77.863300,488.455000,77.863300,493.619000L77.863300,585.797000C77.863300,590.962000,82.057600,595.149000,87.231600,595.149000L342.854000,595.149000C348.028000,595.149000,352.222000,590.962000,352.222000,585.797000L352.222000,493.619000C352.222000,488.455000,348.028000,484.268000,342.854000,484.268000Z" fill="rgb(254,187,0)" stroke="none" stroke-width="1"/><path id="epvfk7a61yb35" d="M227.088000,504.307000L109.314000,504.307000C105.249000,504.307000,101.953000,507.596000,101.953000,511.654000C101.953000,515.712000,105.249000,519.002000,109.314000,519.002000L227.088000,519.002000C231.153000,519.002000,234.448000,515.712000,234.448000,511.654000C234.448000,507.596000,231.153000,504.307000,227.088000,504.307000Z" fill="rgb(255,255,255)" stroke="none" stroke-width="1"/><path id="epvfk7a61yb36" d="M321.440000,531.025000L107.306000,531.025000C104.350000,531.025000,101.953000,533.417000,101.953000,536.369000C101.953000,539.320000,104.350000,541.712000,107.306000,541.712000L321.440000,541.712000C324.397000,541.712000,326.794000,539.320000,326.794000,536.369000C326.794000,533.417000,324.397000,531.025000,321.440000,531.025000Z" fill="rgb(255,255,255)" stroke="none" stroke-width="1"/><path id="epvfk7a61yb37" d="M251.847000,548.392000L107.306000,548.392000C104.350000,548.392000,101.953000,550.784000,101.953000,553.736000C101.953000,556.687000,104.350000,559.079000,107.306000,559.079000L251.847000,559.079000C254.803000,559.079000,257.200000,556.687000,257.200000,553.736000C257.200000,550.784000,254.803000,548.392000,251.847000,548.392000Z" fill="rgb(255,255,255)" stroke="none" stroke-width="1"/><path id="epvfk7a61yb38" d="M282.629000,565.759000L107.306000,565.759000C104.350000,565.759000,101.953000,568.151000,101.953000,571.102000C101.953000,574.054000,104.350000,576.446000,107.306000,576.446000L282.629000,576.446000C285.585000,576.446000,287.982000,574.054000,287.982000,571.102000C287.982000,568.151000,285.585000,565.759000,282.629000,565.759000Z" fill="rgb(255,255,255)" stroke="none" stroke-width="1"/><path id="epvfk7a61yb39" d="M256,242.500000C256,275.361000,229.361000,302,196.500000,302C163.639000,302,137,275.361000,137,242.500000C137,209.639000,163.639000,183,196.500000,183C229.361000,183,256,209.639000,256,242.500000Z" fill="rgb(254,187,0)" stroke="rgb(255,255,255)" stroke-width="2"/><path id="epvfk7a61yb40" d="M210.255000,240.595000C215.812000,236.409000,219.412000,229.759000,219.412000,222.282000C219.412000,209.649000,209.134000,199.370000,196.500000,199.370000C183.866000,199.370000,173.588000,209.649000,173.588000,222.282000C173.588000,229.759000,177.187000,236.409000,182.745000,240.595000C167.865000,246.180000,157.246000,260.551000,157.246000,277.358000L164.336000,277.358000C164.336000,259.623000,178.765000,245.195000,196.501000,245.195000C214.235000,245.195000,228.664000,259.623000,228.664000,277.358000L235.754000,277.358000C235.753000,260.551000,225.135000,246.180000,210.255000,240.595000L210.255000,240.595000ZM180.678000,222.282000C180.678000,213.557000,187.775000,206.460000,196.500000,206.460000C205.224000,206.460000,212.322000,213.557000,212.322000,222.282000C212.322000,231.007000,205.224000,238.105000,196.500000,238.105000C187.775000,238.105000,180.678000,231.007000,180.678000,222.282000L180.678000,222.282000Z" fill="rgb(255,255,255)" stroke="none" stroke-width="1"/></g><clipPath id="epvfk7a61yb41"><rect id="epvfk7a61yb42" width="339.938000" height="690.667000" rx="0" ry="0" transform="matrix(1 0 0 1 25 0)" fill="rgb(255,255,255)" stroke="none" stroke-width="1"/></clipPath></g><path id="epvfk7a61yb43" d="M196.367000,735.199000C304.818000,735.199000,392.734000,728.886000,392.734000,721.099000C392.734000,713.313000,304.818000,707,196.367000,707C87.916600,707,0,713.313000,0,721.099000C0,728.886000,87.916600,735.199000,196.367000,735.199000Z" fill="rgb(21,20,57)" stroke="none" stroke-width="1"/></svg>