<svg width="560"  viewBox="0 0 825 510" fill="none" xmlns="http://www.w3.org/2000/svg">
<path d="M804.999 0H19.6448C8.79526 0 0 8.79526 0 19.6448V490.246C0 501.096 8.79526 509.891 19.6448 509.891H804.999C815.848 509.891 824.644 501.096 824.644 490.246V19.6448C824.644 8.79526 815.848 0 804.999 0Z" fill="#FFC729"/>
<path d="M723.362 68.1019C723.362 63.2799 719.454 59.3708 714.632 59.3708C709.81 59.3708 705.9 63.2799 705.9 68.1019V214.783C705.9 219.605 709.81 223.514 714.632 223.514C719.454 223.514 723.362 219.605 723.362 214.783V68.1019Z" fill="#FFA72C"/>
<path d="M517.314 71.1575C517.314 66.3356 513.405 62.4265 508.583 62.4265C503.761 62.4265 499.852 66.3356 499.852 71.1575V217.838C499.852 222.66 503.761 226.57 508.583 226.57C513.405 226.57 517.314 222.66 517.314 217.838V71.1575Z" fill="#FFA72C"/>
<path d="M629.07 8.73101C629.07 3.909 625.161 0 620.339 0C615.517 0 611.607 3.909 611.607 8.73101V90.8025C611.607 95.6245 615.517 99.5335 620.339 99.5335C625.161 99.5335 629.07 95.6245 629.07 90.8025V8.73101Z" fill="#FFA72C"/>
<path d="M393.333 27.9393C393.333 23.1172 389.424 19.2083 384.602 19.2083C379.78 19.2083 375.871 23.1172 375.871 27.9393V174.621C375.871 179.443 379.78 183.351 384.602 183.351C389.424 183.351 393.333 179.443 393.333 174.621V27.9393Z" fill="#FFA72C"/>
<path d="M316.937 41.0359C316.937 36.2139 313.028 32.3049 308.206 32.3049C303.384 32.3049 299.475 36.2139 299.475 41.0359V187.717C299.475 192.539 303.384 196.448 308.206 196.448C313.028 196.448 316.937 192.539 316.937 187.717V41.0359Z" fill="#FFA72C"/>
<path d="M240.54 18.3353C240.54 13.5132 236.631 9.60425 231.809 9.60425C226.987 9.60425 223.078 13.5132 223.078 18.3353V165.016C223.078 169.838 226.987 173.747 231.809 173.747C236.631 173.747 240.54 169.838 240.54 165.016V18.3353Z" fill="#FFA72C"/>
<path d="M770.513 26.1932C770.513 21.3712 766.604 17.4622 761.782 17.4622C756.96 17.4622 753.051 21.3712 753.051 26.1932V172.874C753.051 177.696 756.96 181.605 761.782 181.605C766.604 181.605 770.513 177.696 770.513 172.874V26.1932Z" fill="#FFA72C"/>
<path d="M581.921 27.9393C581.921 23.1172 578.012 19.2083 573.19 19.2083C568.368 19.2083 564.459 23.1172 564.459 27.9393V174.621C564.459 179.443 568.368 183.351 573.19 183.351C578.012 183.351 581.921 179.443 581.921 174.621V27.9393Z" fill="#FFA72C"/>
<path d="M658.754 0H676.215V155.412C676.215 160.234 672.308 164.143 667.484 164.143C662.66 164.143 658.754 160.234 658.754 155.412V0Z" fill="#FFA72C"/>
<path d="M456.195 0H473.658V155.412C473.658 160.234 469.75 164.143 464.926 164.143C460.102 164.143 456.195 160.234 456.195 155.412V0Z" fill="#FFA72C"/>
<path d="M770.513 212.164C770.513 207.342 766.604 203.433 761.782 203.433C756.96 203.433 753.051 207.342 753.051 212.164V296.418C753.051 301.24 756.96 305.149 761.782 305.149C766.604 305.149 770.513 301.24 770.513 296.418V212.164Z" fill="#FFA72C"/>
<path d="M564.46 213.91C564.46 209.087 560.551 205.179 555.729 205.179C550.907 205.179 546.998 209.087 546.998 213.91V298.164C546.998 302.986 550.907 306.895 555.729 306.895C560.551 306.895 564.46 302.986 564.46 298.164V213.91Z" fill="#FFA72C"/>
<path d="M676.215 232.244C676.215 227.422 672.306 223.514 667.484 223.514C662.662 223.514 658.754 227.422 658.754 232.244V316.499C658.754 321.321 662.662 325.23 667.484 325.23C672.306 325.23 676.215 321.321 676.215 316.499V232.244Z" fill="#FFA72C"/>
<path d="M450.085 235.3C450.085 230.479 446.176 226.569 441.354 226.569C436.532 226.569 432.623 230.479 432.623 235.3V319.554C432.623 324.376 436.532 328.286 441.354 328.286C446.176 328.286 450.085 324.376 450.085 319.554V235.3Z" fill="#FFA72C"/>
<path d="M770.513 376.306C770.513 371.484 766.604 367.575 761.782 367.575C756.96 367.575 753.051 371.484 753.051 376.306V460.56C753.051 465.382 756.96 469.291 761.782 469.291C766.604 469.291 770.513 465.382 770.513 460.56V376.306Z" fill="#FFA72C"/>
<path d="M581.921 378.052C581.921 373.23 578.012 369.321 573.19 369.321C568.368 369.321 564.459 373.23 564.459 378.052V462.307C564.459 467.129 568.368 471.038 573.19 471.038C578.012 471.038 581.921 467.129 581.921 462.307V378.052Z" fill="#FFA72C"/>
<path d="M676.215 401.626C676.215 396.804 672.306 392.895 667.484 392.895C662.662 392.895 658.754 396.804 658.754 401.626V461.434C658.754 466.256 662.662 470.165 667.484 470.165C672.306 470.165 676.215 466.256 676.215 461.434V401.626Z" fill="#FFA72C"/>
<path d="M333.962 230.936C333.962 226.114 330.053 222.205 325.231 222.205C320.409 222.205 316.5 226.114 316.5 230.936V290.743C316.5 295.565 320.409 299.474 325.231 299.474C330.053 299.474 333.962 295.565 333.962 290.743V230.936Z" fill="#FFA72C"/>
<path d="M473.658 378.052C473.658 373.23 469.748 369.321 464.926 369.321C460.104 369.321 456.195 373.23 456.195 378.052V462.307C456.195 467.129 460.104 471.038 464.926 471.038C469.748 471.038 473.658 467.129 473.658 462.307V378.052Z" fill="#FFA72C"/>
<path d="M176.804 108.265C176.804 103.443 172.895 99.5337 168.073 99.5337C163.251 99.5337 159.342 103.443 159.342 108.265V254.946C159.342 259.768 163.251 263.677 168.073 263.677C172.895 263.677 176.804 259.768 176.804 254.946V108.265Z" fill="#FFA72C"/>
<path d="M40.5987 160.651C40.5987 155.829 36.6897 151.919 31.8678 151.919C27.0457 151.919 23.1367 155.829 23.1367 160.651V307.331C23.1367 312.153 27.0457 316.062 31.8678 316.062C36.6897 316.062 40.5987 312.153 40.5987 307.331V160.651Z" fill="#FABD27"/>
<path d="M124.414 354.479C124.414 349.657 120.505 345.748 115.683 345.748C110.861 345.748 106.953 349.657 106.953 354.479V420.835C106.953 425.657 110.861 429.565 115.683 429.565C120.505 429.565 124.414 425.657 124.414 420.835V354.479Z" fill="#FABD27"/>
<path d="M287.25 420.835C287.25 416.013 283.342 412.104 278.52 412.104C273.698 412.104 269.789 416.013 269.789 420.835V487.19C269.789 492.012 273.698 495.921 278.52 495.921C283.342 495.921 287.25 492.012 287.25 487.19V420.835Z" fill="#FABD27"/>
<path d="M361.466 110.011C361.466 105.189 357.557 101.28 352.735 101.28C347.913 101.28 344.004 105.189 344.004 110.011V176.366C344.004 181.188 347.913 185.098 352.735 185.098C357.557 185.098 361.466 181.188 361.466 176.366V110.011Z" fill="#FABD27"/>
<path d="M439.171 66.3557C439.171 61.5337 435.262 57.6248 430.44 57.6248C425.618 57.6248 421.709 61.5337 421.709 66.3557V132.712C421.709 137.534 425.618 141.443 430.44 141.443C435.262 141.443 439.171 137.534 439.171 132.712V66.3557Z" fill="#FABD27"/>
<path d="M546.999 427.383C546.999 422.561 543.09 418.651 538.268 418.651C533.446 418.651 529.537 422.561 529.537 427.383V493.738C529.537 498.56 533.446 502.469 538.268 502.469C543.09 502.469 546.999 498.56 546.999 493.738V427.383Z" fill="#FABD27"/>
<path d="M803.688 192.082C803.688 187.26 799.779 183.352 794.957 183.352C790.135 183.352 786.227 187.26 786.227 192.082V393.769C786.227 398.591 790.135 402.5 794.957 402.5C799.779 402.5 803.688 398.591 803.688 393.769V192.082Z" fill="#FABD27"/>
<path d="M803.688 38.8531C803.688 34.0311 799.779 30.1221 794.957 30.1221C790.135 30.1221 786.227 34.0311 786.227 38.8531V105.646C786.227 110.467 790.135 114.377 794.957 114.377C799.779 114.377 803.688 110.467 803.688 105.646V38.8531Z" fill="#FABD27"/>
<path d="M130.529 41.0359C130.529 36.2139 126.62 32.3049 121.798 32.3049C116.976 32.3049 113.066 36.2139 113.066 41.0359V187.717C113.066 192.539 116.976 196.448 121.798 196.448C126.62 196.448 130.529 192.539 130.529 187.717V41.0359Z" fill="#FABD27"/>
<path d="M278.519 169.818C278.519 164.996 274.61 161.088 269.788 161.088C264.966 161.088 261.057 164.996 261.057 169.818V316.5C261.057 321.322 264.966 325.231 269.788 325.231C274.61 325.231 278.519 321.322 278.519 316.5V169.818Z" fill="#FABD27"/>
<path d="M426.509 298.601C426.509 293.778 422.6 289.87 417.778 289.87C412.956 289.87 409.047 293.778 409.047 298.601V445.282C409.047 450.104 412.956 454.013 417.778 454.013C422.6 454.013 426.509 450.104 426.509 445.282V298.601Z" fill="#FABD27"/>
<path d="M652.644 110.011C652.644 105.189 648.735 101.28 643.913 101.28C639.091 101.28 635.182 105.189 635.182 110.011V256.691C635.182 261.513 639.091 265.422 643.913 265.422C648.735 265.422 652.644 261.513 652.644 256.691V110.011Z" fill="#FABD27"/>
<path d="M208.671 354.479C208.671 349.657 204.762 345.748 199.94 345.748C195.118 345.748 191.209 349.657 191.209 354.479V501.16C191.209 505.982 195.118 509.891 199.94 509.891C204.762 509.891 208.671 505.982 208.671 501.16V354.479Z" fill="#FABD27"/>
<path d="M40.5987 375.433C40.5987 370.611 36.6897 366.702 31.8678 366.702C27.0457 366.702 23.1367 370.611 23.1367 375.433V480.642C23.1367 485.464 27.0457 489.373 31.8678 489.373C36.6897 489.373 40.5987 485.464 40.5987 480.642V375.433Z" fill="#FABD27"/>
<path d="M176.804 354.479C176.804 349.657 172.895 345.748 168.073 345.748C163.251 345.748 159.342 349.657 159.342 354.479V469.729C159.342 474.551 163.251 478.46 168.073 478.46C172.895 478.46 176.804 474.551 176.804 469.729V354.479Z" fill="#FFA72C"/>
<path d="M70.2832 0H87.7453V155.412C87.7453 160.234 83.8364 164.143 79.0142 164.143C74.1921 164.143 70.2832 160.234 70.2832 155.412V0Z" fill="#FFA72C"/>
<path d="M87.7453 205.179C87.7453 200.357 83.8362 196.448 79.0142 196.448C74.1923 196.448 70.2832 200.357 70.2832 205.179V268.915C70.2832 273.737 74.1923 277.646 79.0142 277.646C83.8362 277.646 87.7453 273.737 87.7453 268.915V205.179Z" fill="#FFA72C"/>
<path d="M87.7453 313.88C87.7453 309.058 83.8362 305.148 79.0142 305.148C74.1923 305.148 70.2832 309.058 70.2832 313.88V420.834C70.2832 425.657 74.1923 429.565 79.0142 429.565C83.8362 429.565 87.7453 425.657 87.7453 420.834V313.88Z" fill="#FFA72C"/>
<path d="M723.362 253.199C723.362 248.377 719.454 244.469 714.632 244.469C709.81 244.469 705.9 248.377 705.9 253.199V384.165C705.9 388.987 709.81 392.895 714.632 392.895C719.454 392.895 723.362 388.987 723.362 384.165V253.199Z" fill="#FFA72C"/>
<path d="M517.314 272.408C517.314 267.586 513.405 263.677 508.583 263.677C503.761 263.677 499.852 267.586 499.852 272.408V403.373C499.852 408.195 503.761 412.104 508.583 412.104C513.405 412.104 517.314 408.195 517.314 403.373V272.408Z" fill="#FFA72C"/>
<path d="M629.07 254.073C629.07 249.251 625.161 245.342 620.339 245.342C615.517 245.342 611.607 249.251 611.607 254.073V359.718C611.607 364.54 615.517 368.449 620.339 368.449C625.161 368.449 629.07 364.54 629.07 359.718V254.073Z" fill="#FFA72C"/>
<path d="M393.333 252.326C393.333 247.504 389.424 243.595 384.602 243.595C379.78 243.595 375.871 247.504 375.871 252.326V357.971C375.871 362.793 379.78 366.702 384.602 366.702C389.424 366.702 393.333 362.793 393.333 357.971V252.326Z" fill="#FFA72C"/>
<path d="M325.23 333.962C325.23 329.14 321.321 325.23 316.499 325.23C311.677 325.23 307.768 329.14 307.768 333.962V439.606C307.768 444.429 311.677 448.337 316.499 448.337C321.321 448.337 325.23 444.429 325.23 439.606V333.962Z" fill="#FFA72C"/>
<path d="M240.54 242.722C240.54 237.9 236.631 233.991 231.809 233.991C226.987 233.991 223.078 237.9 223.078 242.722V420.835C223.078 425.657 226.987 429.565 231.809 429.565C236.631 429.565 240.54 425.657 240.54 420.835V242.722Z" fill="#FFA72C"/>
<path d="M199.503 79.4521H69.4107C63.6244 79.4521 58.9336 84.1429 58.9336 89.9294V220.022C58.9336 225.808 63.6244 230.499 69.4107 230.499H199.503C205.289 230.499 209.98 225.808 209.98 220.022V89.9294C209.98 84.1429 205.289 79.4521 199.503 79.4521Z" fill="#1565CF"/>
<path d="M199.503 279.392H69.4107C63.6244 279.392 58.9336 284.083 58.9336 289.87V419.961C58.9336 425.748 63.6244 430.439 69.4107 430.439H199.503C205.289 430.439 209.98 425.748 209.98 419.961V289.87C209.98 284.083 205.289 279.392 199.503 279.392Z" fill="white"/>
<path d="M384.6 279.392H254.508C248.722 279.392 244.031 284.083 244.031 289.87V419.961C244.031 425.748 248.722 430.439 254.508 430.439H384.6C390.387 430.439 395.078 425.748 395.078 419.961V289.87C395.078 284.083 390.387 279.392 384.6 279.392Z" fill="white"/>
<path d="M569.698 279.392H439.606C433.82 279.392 429.129 284.083 429.129 289.87V419.961C429.129 425.748 433.82 430.439 439.606 430.439H569.698C575.485 430.439 580.175 425.748 580.175 419.961V289.87C580.175 284.083 575.485 279.392 569.698 279.392Z" fill="white"/>
<path d="M754.796 279.392H624.704C618.918 279.392 614.227 284.083 614.227 289.87V419.961C614.227 425.748 618.918 430.439 624.704 430.439H754.796C760.582 430.439 765.273 425.748 765.273 419.961V289.87C765.273 284.083 760.582 279.392 754.796 279.392Z" fill="white"/>
<path d="M384.6 79.4521H254.508C248.722 79.4521 244.031 84.1429 244.031 89.9294V220.022C244.031 225.808 248.722 230.499 254.508 230.499H384.6C390.387 230.499 395.078 225.808 395.078 220.022V89.9294C395.078 84.1429 390.387 79.4521 384.6 79.4521Z" fill="white"/>
<path d="M566.641 79.4521H436.55C430.763 79.4521 426.072 84.1429 426.072 89.9294V220.022C426.072 225.808 430.763 230.499 436.55 230.499H566.641C572.428 230.499 577.119 225.808 577.119 220.022V89.9294C577.119 84.1429 572.428 79.4521 566.641 79.4521Z" fill="white"/>
<path d="M749.122 79.4521H619.029C613.243 79.4521 608.553 84.1429 608.553 89.9294V220.022C608.553 225.808 613.243 230.499 619.029 230.499H749.122C754.908 230.499 759.598 225.808 759.598 220.022V89.9294C759.598 84.1429 754.908 79.4521 749.122 79.4521Z" fill="white"/>
<path d="M199.503 79.4521H69.4107C63.6244 79.4521 58.9336 84.1429 58.9336 89.9294V220.022C58.9336 225.808 63.6244 230.499 69.4107 230.499H199.503C205.289 230.499 209.98 225.808 209.98 220.022V89.9294C209.98 84.1429 205.289 79.4521 199.503 79.4521Z" fill="white"/>
<path d="M280.89 115.5C280.438 116.283 272.325 128.366 268.325 134.31L264.51 139.276C264.336 139.031 263.837 138.409 263.23 137.885C262.472 137.229 261.907 138.207 260.726 138.611C259.781 138.935 257.849 140.643 257 141.456C256.494 141.02 255.36 140.162 254.868 140.226C254.255 140.305 253.594 140.793 253.508 143.567C253.422 146.341 256.299 152.1 256.895 153.124C257.275 153.778 258.416 155.74 259.081 156.557C259.744 157.376 262.408 160.31 265.388 163.024C267.996 165.397 297.741 182.789 299.446 183.773C301.152 184.757 303.095 186.314 304.089 186.888C305.084 187.463 311.196 191.643 311.954 192.298C312.713 192.953 323.987 199.679 324.697 200.089C325.407 200.499 325.593 199.52 326.446 200.013C327.298 200.505 326.306 200.584 326.686 201.238C327.066 201.892 333.081 204.929 333.649 205.257C334.217 205.586 334.925 205.343 335.255 205.099C335.586 204.855 336.108 205.591 336.252 206.326C336.396 207.061 343.496 209.857 344.491 210.432C345.486 211.006 345.53 209.945 346.523 209.867C347.516 209.788 347.094 210.848 347.804 211.258C348.514 211.668 356.084 214.063 357.501 213.164C358.398 212.596 359.533 212.599 359.677 213.334C359.821 214.069 367.482 214.583 368.096 214.503C368.711 214.423 368.803 213.607 369.938 213.611C371.073 213.614 370.793 214.756 371.784 214.677C372.777 214.599 382.651 212.263 383.784 211.614C384.917 210.965 387.358 205.424 388.577 202.001C389.796 198.577 383.395 192.927 381.025 191.125C378.656 189.322 365.854 177.369 363.624 174.996C361.395 172.623 358.634 166.902 352.034 157.662C345.433 148.421 334.351 127.253 333.638 125.537C332.923 123.821 329.401 116.14 328.076 115.81C326.75 115.479 324.722 116.697 323.305 117.183C321.887 117.668 320.66 118.479 320.098 120.11C319.649 121.414 319.415 123.262 319.355 124.024C315.558 124.801 307.162 126.108 303.945 125.119C299.922 123.882 297.688 120.203 297.62 113.431C297.552 106.658 293.931 97.8345 292.51 97.0141C291.09 96.1938 288.73 97.6552 288.166 98.6326C287.601 99.61 287.481 106.709 286.824 107.849C286.297 108.762 283.435 113.061 282.071 115.096C281.866 114.905 281.342 114.718 280.89 115.5Z" fill="#1341C7"/>
<path d="M290.19 141.069C288.945 141.914 283.278 143.087 280.6 143.568L267.996 134.554C269.344 132.219 272.993 126.883 273.971 125.189C275.194 123.071 280.326 116.478 280.985 115.337C281.643 114.198 281.265 114.196 282.032 117.462C282.799 120.728 291.687 135.851 292.353 137.323C293.02 138.793 291.747 140.013 290.19 141.069Z" fill="#1692EA"/>
<path d="M368.375 212.709C373.93 213.081 379.3 212.901 383.499 211.355C384.498 210.987 384.355 209.454 383.356 209.34C379.788 208.933 374.481 208.274 372.143 208.151C368.649 207.968 355.386 201.735 350.651 199.436C342.513 195.483 336.016 190.335 332.462 188.282C325.214 184.098 318.732 177.934 316.158 175.829C313.586 173.722 305.788 164.585 302.828 161.182C297.931 155.552 282.774 143.74 280.783 141.938C276.676 138.223 269.186 133.799 267.711 134.391C265.491 135.281 265.789 136.538 264.931 137.564C263.706 139.029 263.89 137.398 262.662 137.557C261.433 137.717 255.866 141.453 255.589 143.899C255.313 146.347 258.118 151.007 260.301 153.787C262.564 156.669 269.879 162.793 272.155 164.758C274.809 167.052 302.562 182.314 307.255 186.327C311.949 190.34 333.118 202.562 337.099 204.86C341.504 207.404 346.567 208.807 350.305 209.878C353.239 210.72 363.504 212.286 368.375 212.709Z" fill="#1764E2"/>
<path d="M327.015 178.296L297.366 145.034C296.483 144.043 297.112 142.279 298.468 141.986C305.891 140.384 316.254 138.709 316.514 137.806C316.888 136.501 316.389 128.177 318.796 126.96C321.204 125.743 326.221 127.554 327.926 128.539C329.631 129.523 334.092 134.922 336.326 138.6C338.559 142.28 338.703 143.015 337.765 145.296C336.826 147.579 340.987 147.591 342.454 148.003C343.921 148.416 345.31 154.214 346.21 154.951C347.111 155.688 344.942 157.476 345.798 159.274C346.655 161.072 350.01 160.185 350.484 160.676C350.957 161.167 354.096 166.888 354.997 167.625C355.467 168.01 356.459 168.209 357.337 168.302C358.022 168.374 358.547 168.929 358.549 169.674C358.551 170.421 358.029 171.118 357.331 171.297L328.521 178.729C327.952 178.876 327.386 178.713 327.015 178.296Z" fill="#1691E7"/>
<path d="M331.076 153.43L307.569 158.786C307.031 158.908 306.764 159.609 307.1 160.017L311.211 165.003C311.357 165.18 311.587 165.253 311.821 165.196L335.695 159.335C336.253 159.198 336.5 158.451 336.115 158.065L331.636 153.584C331.491 153.439 331.285 153.382 331.076 153.43Z" fill="#EDEDED"/>
<path d="M341.557 164.482L318.4 169.971C317.85 170.102 317.594 170.831 317.959 171.225L322.45 176.083C322.597 176.242 322.817 176.305 323.039 176.249L346.317 170.47C346.876 170.331 347.121 169.582 346.733 169.198L342.121 164.632C341.976 164.487 341.768 164.432 341.557 164.482Z" fill="#EDEDED"/>
<path d="M300.548 153.652L296.067 148.434C295.713 148.023 295.994 147.298 296.548 147.19L320.724 142.456C320.94 142.414 321.149 142.482 321.289 142.64L325.707 147.632C326.067 148.038 325.793 148.768 325.238 148.882L301.125 153.841C300.904 153.886 300.689 153.816 300.548 153.652Z" fill="#EDEDED"/>
<path d="M353.287 180.105C352.144 179.883 344.426 180.887 338.911 181.673C338.507 181.73 338.453 182.33 338.849 182.366C344.057 182.848 351.07 183.388 352.967 183.612C355.237 183.881 369.617 191.415 375.98 194.944C368.983 190.108 354.649 180.369 353.287 180.105Z" fill="#EDEDED"/>
<path d="M339.097 148.239C341.058 149.37 343.702 148.466 345 146.216C346.299 143.967 345.761 141.226 343.799 140.093C341.837 138.961 339.194 139.865 337.896 142.115C336.597 144.363 337.134 147.106 339.097 148.239Z" fill="#29238D"/>
<path d="M331.683 136.139C333.644 137.272 336.288 136.366 337.587 134.117C338.884 131.868 338.347 129.126 336.385 127.994C334.423 126.861 331.78 127.766 330.481 130.015C329.183 132.265 329.72 135.006 331.683 136.139Z" fill="#29238D"/>
<path d="M346.704 161.318C348.666 162.449 351.309 161.545 352.608 159.295C353.906 157.047 353.368 154.305 351.407 153.172C349.444 152.04 346.802 152.944 345.503 155.194C344.204 157.443 344.742 160.185 346.704 161.318Z" fill="#29238D"/>
<path d="M0 477.898H824.824V490.895C824.824 501.386 816.318 509.891 805.828 509.891H18.9959C8.50475 509.891 0 501.386 0 490.895V477.898Z" fill="#FFA72C"/>
<path d="M472.232 206.072C472.126 204.949 472.188 148.422 472.232 120.298C472.099 114.776 472.299 103.33 472.299 101.794C472.299 100.458 473.101 99.0453 473.97 98.0528C475.956 95.7816 478.312 94.98 479.18 94.98C480.783 94.98 524.739 95.0468 525.407 95.0468C526.075 95.0468 527.411 95.982 528.948 97.4517C530.315 98.7593 531.219 100.658 531.219 101.727C531.219 102.929 531.153 204.802 531.153 206.74C531.153 208.678 529.482 210.681 528.547 211.616C526.609 213.554 524.472 213.554 523.603 213.554C522.735 213.554 505.233 213.955 504.765 213.955C504.364 213.955 504.565 213.554 504.297 213.554H498.954C498.62 213.554 498.82 213.955 498.486 213.955C497.417 213.955 481.785 213.554 480.85 213.554C480.249 213.554 475.973 213.621 474.103 211.216C472.232 208.811 472.379 207.608 472.232 206.072Z" fill="#0FBBAC"/>
<path d="M476.109 204.134V103.798C476.109 101.994 476.444 100.991 477.245 99.923C478.18 98.6765 479.717 97.9857 480.452 97.9857H484.922C486.265 97.9857 487.173 99.1462 487.465 100.457C487.598 101.058 488.734 102.212 489.47 102.261C490.319 102.318 506.926 102.278 512.525 102.265L512.917 102.264H512.976C514.067 102.261 514.46 102.26 514.787 102.061C515.374 101.703 516.285 100.738 516.391 99.9896C516.547 98.8896 517.285 97.9773 518.396 97.9761C520.416 97.9739 522.78 97.9857 523.405 97.9857C524.072 97.9857 525.743 99.2783 526.211 99.7894C526.679 100.301 527.48 101.326 527.48 102.328V206.272C527.48 206.94 526.478 208.342 526.077 208.676C525.13 209.465 524.206 210.08 523.272 210.213C522.518 210.321 480.919 210.236 480.117 210.146C478.914 210.013 477.979 208.991 477.712 208.743C475.843 207.006 476.109 205.337 476.109 204.134Z" fill="#F0FFF8"/>
<path d="M471.898 115.989V112.114C471.898 111.948 472.033 111.814 472.199 111.814C472.365 111.814 472.499 111.948 472.499 112.114V115.989C472.499 116.155 472.365 116.289 472.199 116.289C472.033 116.289 471.898 116.155 471.898 115.989Z" fill="#0189C0"/>
<path d="M471.898 127.68V120.799C471.898 120.632 472.033 120.498 472.199 120.498C472.365 120.498 472.499 120.632 472.499 120.799V127.68C472.499 127.845 472.365 127.979 472.199 127.979C472.033 127.979 471.898 127.845 471.898 127.68Z" fill="#0189C0"/>
<path d="M472.499 137.901V130.752C472.499 130.586 472.365 130.451 472.199 130.451C472.033 130.451 471.898 130.586 471.898 130.752V137.901C471.898 138.067 472.033 138.201 472.199 138.201C472.365 138.201 472.499 138.067 472.499 137.901Z" fill="#0189C0"/>
<path d="M531.217 136.598V121.767C531.217 121.62 531.337 121.5 531.484 121.5C531.632 121.5 531.751 121.62 531.751 121.767V136.598C531.751 136.745 531.632 136.865 531.484 136.865C531.337 136.865 531.217 136.745 531.217 136.598Z" fill="#0189C0"/>
<path d="M505.267 98.7207H498.118C497.842 98.7207 497.617 98.9451 497.617 99.2217C497.617 99.4984 497.842 99.7227 498.118 99.7227H505.267C505.543 99.7227 505.767 99.4984 505.767 99.2217C505.767 98.9451 505.543 98.7207 505.267 98.7207Z" fill="#0189C0"/>
<path d="M471.898 115.989V112.114C471.898 111.948 472.033 111.814 472.199 111.814C472.365 111.814 472.499 111.948 472.499 112.114V115.989C472.499 116.155 472.365 116.289 472.199 116.289C472.033 116.289 471.898 116.155 471.898 115.989Z" stroke="#0FBBAC" stroke-width="2"/>
<path d="M471.898 127.68V120.799C471.898 120.632 472.033 120.498 472.199 120.498C472.365 120.498 472.499 120.632 472.499 120.799V127.68C472.499 127.845 472.365 127.979 472.199 127.979C472.033 127.979 471.898 127.845 471.898 127.68Z" stroke="#0FBBAC" stroke-width="2"/>
<path d="M472.499 137.901V130.752C472.499 130.586 472.365 130.451 472.199 130.451C472.033 130.451 471.898 130.586 471.898 130.752V137.901C471.898 138.067 472.033 138.201 472.199 138.201C472.365 138.201 472.499 138.067 472.499 137.901Z" stroke="#0FBBAC" stroke-width="2"/>
<path d="M531.217 136.598V121.767C531.217 121.62 531.337 121.5 531.484 121.5C531.632 121.5 531.751 121.62 531.751 121.767V136.598C531.751 136.745 531.632 136.865 531.484 136.865C531.337 136.865 531.217 136.745 531.217 136.598Z" stroke="#0FBBAC" stroke-width="2"/>
<path d="M505.267 98.7207H498.118C497.842 98.7207 497.617 98.9451 497.617 99.2217C497.617 99.4984 497.842 99.7227 498.118 99.7227H505.267C505.543 99.7227 505.767 99.4984 505.767 99.2217C505.767 98.9451 505.543 98.7207 505.267 98.7207Z" stroke="#0FBBAC" stroke-width="2"/>
<path d="M527.528 103.43C527.528 102.652 526.897 102.021 526.119 102.021C525.342 102.021 524.711 102.652 524.711 103.43V115.048C524.711 115.826 525.342 116.457 526.119 116.457C526.897 116.457 527.528 115.826 527.528 115.048V103.43Z" fill="#02ABCB"/>
<path d="M526.119 119.802C526.897 119.802 527.528 119.172 527.528 118.394C527.528 117.616 526.897 116.985 526.119 116.985C525.341 116.985 524.711 117.616 524.711 118.394C524.711 119.172 525.341 119.802 526.119 119.802Z" fill="#02ABCB"/>
<path d="M717.833 137.325H708.181H705.601L703.403 139.809L699.868 149.46L692.223 164.464L696.332 186.251L709.71 191.985L732.358 153.952L729.587 143.344L717.833 137.325Z" fill="#432A2A"/>
<path d="M732.93 169.242C732.854 170.54 731.56 172.777 730.923 173.733C726.113 178.543 716.226 188.449 715.155 189.595C713.818 191.029 713.245 190.073 712.098 190.073C711.18 190.073 705.344 187.207 702.541 185.773C703.37 185.231 705.484 183.671 707.32 181.76C709.613 179.371 717.64 167.139 720.889 163.317C724.138 159.494 730.158 143.822 730.923 144.491C731.688 145.16 733.789 156.627 733.407 156.818C733.026 157.009 732.93 156.818 732.93 157.296C732.93 157.774 733.407 157.774 733.407 158.252C733.407 158.73 733.026 167.617 732.93 169.242Z" fill="#652A2A"/>
<path d="M687.058 191.316C688.434 192.233 700.5 195.265 706.361 196.667H709.132C710.374 196.667 711.617 195.998 712.764 195.138C713.91 194.278 729.773 175.643 731.972 172.49C733.729 169.968 733.404 161.118 733.022 157.009C733.213 156.946 733.863 156.359 734.934 154.525C736.272 152.231 737.322 144.874 737.418 140.86C737.513 136.847 735.411 128.532 734.934 127.004C734.456 125.475 731.303 118.404 730.06 116.588C728.818 114.772 724.039 109.611 722.607 107.987C721.173 106.362 716.682 104.738 710.183 105.024C703.686 105.311 697.856 108.083 688.491 111.618C679.126 115.154 669.475 124.232 666.322 127.004C663.168 129.775 646.445 148.409 645.489 149.269C644.533 150.129 645.489 150.129 644.629 150.703C643.769 151.276 641.093 152.9 640.998 153.474C640.921 153.933 640.584 156.086 640.424 157.105C640.297 156.977 639.774 156.837 638.704 157.296C637.367 157.869 636.411 159.685 636.029 160.163C635.646 160.641 631.25 162.074 631.25 163.03C631.25 163.986 631.728 164.941 631.25 166.087C630.773 167.234 630.008 179.18 630.008 180.135C630.008 181.091 629.244 180.804 631.25 186.346C633.258 191.889 641.476 201.732 643.101 202.974C644.724 204.216 654.28 204.885 656.192 204.694C657.72 204.541 660.078 202.974 661.066 202.21C662.785 201.987 666.971 200.05 669.953 194.087C673.679 186.633 672.246 180.326 670.526 174.974C669.15 170.693 664.665 166.119 662.594 164.368C662.658 164.113 662.747 163.297 662.594 162.074C662.441 160.851 661.893 160.673 661.639 160.736C661.925 160.45 662.995 158.978 664.984 155.385C667.468 150.894 675.591 143.727 680.273 138.47C684.956 133.215 705.023 125.188 709.036 123.659C712.248 122.436 717.383 123.15 719.548 123.659C718.242 124.614 715.516 126.622 715.057 127.004C714.483 127.482 713.528 131.017 713.146 131.591C712.84 132.049 709.578 135.094 707.986 136.56C704.991 136.783 698.564 137.344 696.805 137.801C694.608 138.375 689.065 141.625 687.344 143.058C685.624 144.491 676.355 162.839 676.355 163.603C676.355 164.368 674.062 171.821 676.355 177.746C678.648 183.671 685.337 190.169 687.058 191.316Z" fill="#28E086"/>
<path d="M640.14 157.01V158.73C639.662 159.016 638.649 159.877 638.419 161.023C638.133 162.457 636.412 173.159 637.942 180.422C639.471 187.685 650.077 198.101 650.46 198.77C650.765 199.305 657.468 201.477 660.78 202.497C663.17 201.732 664.603 200.872 666.801 198.77C668.998 196.667 669.667 195.426 671.101 192.08C672.535 188.736 672.63 183.289 672.248 179.849C671.675 174.689 670.27 172.204 661.641 162.935C653.901 154.621 650.268 154.143 648.071 154.143C646.312 154.143 644.663 155.481 644.058 156.15L644.153 153.666L640.904 156.341L640.14 157.01Z" fill="#28E086"/>
<path d="M637.558 158.157C638.17 157.393 639.534 157.074 640.139 157.01V158.825C639.948 158.794 639.432 158.902 638.897 159.59C638.227 160.45 637.558 165.228 637.176 169.146C636.794 173.064 637.463 179.849 639.279 183.576C641.095 187.302 648.739 197.145 650.364 198.483C651.663 199.554 657.722 201.541 660.588 202.401C660.525 202.975 659.863 204.083 657.722 203.931C655.047 203.739 648.166 200.968 647.592 200.585C647.019 200.204 646.541 199.63 644.726 197.528C642.91 195.426 637.081 186.729 636.126 184.914C635.17 183.098 634.788 180.136 634.597 177.842C634.406 175.549 635.17 168.764 635.265 167.236C635.361 165.706 636.221 160.737 636.412 160.068C636.603 159.399 636.794 159.112 637.558 158.157Z" fill="#7CFF7F"/>
<path d="M651.606 204.886C648.624 204.886 644.439 204.408 642.432 202.497L647.593 200.395C648.006 200.617 649.236 201.235 650.841 201.923C652.447 202.611 656.894 203.453 658.581 203.835C656.289 205.363 653.421 204.886 651.606 204.886Z" fill="#21E986"/>
<path d="M709.9 176.027C709.594 175.415 705.122 164.559 702.924 159.208C702.478 158.825 701.548 158.156 701.395 158.539C701.204 159.016 700.248 160.259 699.101 162.361C697.955 164.464 696.043 167.139 696.043 168.573C696.043 170.006 702.064 185.487 702.924 186.251C703.783 187.016 710.569 189.501 711.811 190.17C713.053 190.838 713.34 190.17 715.156 189.501C716.971 188.832 721.558 182.429 721.081 181.855C720.603 181.282 710.282 176.79 709.9 176.027Z" fill="#FEBB00"/>
<path d="M696.712 167.712C696.177 168.553 700.375 180.104 702.541 185.773C701.012 187.334 697.534 190.589 695.852 191.125C693.75 191.794 694.323 191.411 692.89 190.456C691.456 189.501 690.788 186.347 688.303 180.614C685.819 174.88 687.06 168.286 687.156 165.802C687.251 163.317 700.344 142.485 701.203 140.956C701.891 139.732 701.49 137.771 701.203 136.942C703.784 137.006 708.715 137.21 707.797 137.516C706.65 137.898 705.599 139.426 705.886 140.191C706.172 140.956 707.224 142.294 707.797 143.154C708.371 144.013 707.893 146.403 707.224 147.454C706.555 148.505 697.381 166.662 696.712 167.712Z" fill="#23CE7B"/>
<path d="M694.012 189.978H689.807C688.469 187.111 685.373 180.039 683.691 174.689C681.589 167.999 683.309 166.661 683.691 164.846C684.073 163.03 689.807 152.136 692.387 147.835C694.451 144.396 699.172 139.076 701.274 136.847C701.529 138.12 701.886 140.898 701.274 141.816C700.51 142.962 694.012 152.996 691.623 158.252C691.02 159.58 687.513 163.221 687.8 170.006C688.029 175.433 692.036 185.582 694.012 189.978Z" fill="#22DB80"/>
<path d="M680.275 178.989C680.795 180.488 683.381 185.691 685.485 188.834C686.421 190.229 687.893 191.101 689.495 191.607L694.322 193.131C691.902 191.953 687.254 189.412 687.06 188.831C686.677 187.684 683.142 179.658 681.9 174.688C680.657 169.719 680.848 167.999 681.9 164.559C682.951 161.119 684.766 158.347 688.302 151.945C691.131 146.823 693.558 142.867 699.483 137.515C698.368 137.77 695.259 139.082 691.743 142.294C687.347 146.307 678.555 164.941 678.364 167.043C678.104 169.905 679.414 176.503 680.275 178.989Z" fill="#1CC874"/>
<path d="M702.731 185.773L694.705 190.456C695.756 191.22 698.087 192.845 699.005 193.228C700.152 193.705 703.209 194.851 707.318 196.094C708.561 196.47 708.943 196.094 710.377 196.094C711.809 196.094 713.912 194.087 715.059 192.75C715.976 191.679 726.143 179.563 731.113 173.637C730.444 173.606 728.533 174.249 726.239 177.077C723.373 180.613 715.728 188.354 715.059 189.213C714.39 190.073 712.861 189.787 712.001 189.787C711.313 189.787 705.535 187.111 702.731 185.773Z" fill="#25DB82"/>
<path d="M688.873 150.703C690.975 146.881 694.129 142.58 698.047 138.279L701.105 136.847C700.914 137.229 700.192 138.121 699.767 138.662C698.715 140 693.725 145.141 691.358 149.651C689.351 153.474 683.904 163.986 683.427 165.896C682.949 167.808 682.471 169.433 683.904 174.306C685.337 179.18 688.873 188.736 690.211 189.978C691.281 190.972 694.989 192.941 696.709 193.8C695.467 193.45 692.428 192.52 690.211 191.602C687.44 190.456 687.154 189.309 686.198 187.589C685.242 185.869 682.949 179.276 681.993 175.739C681.562 174.147 680.093 169.624 681.611 165.324C683.904 158.825 686.771 154.525 688.873 150.703Z" fill="#7CFF7F"/>
<path d="M703.498 195.52C705.868 196.055 707.989 196.189 708.753 196.189C707.734 195.966 705.256 195.386 703.498 194.851C701.3 194.182 699.484 193.227 697.859 192.558C696.429 191.969 694.642 190.551 693.942 189.882H689.832L694.324 193.227C696.395 193.768 701.128 194.985 703.498 195.52Z" fill="#21E986"/>
<path d="M715.251 136.847C715.021 137.458 710.122 137.548 707.701 137.516C709.74 135.541 713.989 131.419 714.677 130.731C715.536 129.87 715.251 127.1 716.301 126.335C717.352 125.57 719.933 123.946 720.601 123.373C721.136 122.914 723.309 122.799 724.329 122.799C723.469 123.851 721.519 126.182 720.601 127.1C719.455 128.247 719.933 130.922 719.933 131.591C719.933 132.26 717.543 134.553 716.97 134.457C716.396 134.362 715.537 136.082 715.251 136.847Z" fill="#23D07B"/>
<path d="M729.395 142.293C728.554 141.758 720.572 137.292 716.686 135.126C717.736 133.183 719.093 129.736 719.935 128.054C720.776 126.373 723.183 122.735 724.33 121.843C727.675 124.423 733.562 130.673 734.173 131.208C734.938 131.877 737.04 138.757 737.04 139.809C737.04 140.86 736.466 147.74 736.466 148.504C736.466 149.116 734.428 154.238 733.409 156.722C732.421 152.136 730.236 142.828 729.395 142.293Z" fill="#27D982"/>
<path d="M725.76 114.964C726.219 116.798 725.124 120.569 724.519 122.226C725.824 123.436 729.087 126.43 731.685 128.724C734.285 131.017 736.145 135.286 736.75 137.133C736.75 130.826 735.126 129.393 734.362 125.857C733.597 122.321 730.825 119.073 730.157 117.639C729.622 116.492 725.665 111.873 723.754 109.708C724.232 110.695 725.303 113.128 725.76 114.964Z" fill="#FEBB00"/>
<path d="M719.659 110.687C720.883 111.451 721.762 114.956 722.049 116.612C722.367 117.663 723.004 120.091 723.004 121.39C723.004 123.014 722.526 122.728 721.284 122.919C720.542 123.033 720.074 123.332 719.831 123.568C719.714 123.682 719.553 123.758 719.393 123.728C717.492 123.368 713.628 122.773 711.441 122.919C708.575 123.11 700.629 126.335 698.622 126.813C696.615 127.291 694.814 128.748 690.036 130.946C685.258 133.144 683.524 134.363 681.422 136.082C679.877 137.346 676.276 139.757 674.474 140.948C674.159 141.156 673.101 140.886 672.876 140.583C670.913 137.937 664.788 131.252 665.095 130.946C665.477 130.563 673.53 123.779 678.76 120.339C683.989 116.898 693.08 112.621 697.298 111.26C700.261 110.305 705.039 109.254 710.294 108.68C715.534 108.109 718.115 109.722 719.645 110.679L719.659 110.687Z" fill="#009673"/>
<path d="M723.18 116.11L722.034 116.588V122.704C722.416 122.863 723.467 122.99 724.614 122.226C726.048 121.27 725.857 118.499 725.857 115.727C725.857 114.39 724.614 111.116 723.945 109.612C723.181 107.892 720.123 105.408 713.434 105.025C705.407 104.567 699.1 107.605 700.246 107.223C701.393 106.84 708.858 105.539 712.669 105.884C716.874 106.267 720.696 108.752 722.034 110.281C723.105 111.504 723.244 114.677 723.18 116.11Z" fill="#FFAA11"/>
<path d="M666.991 152.232L655.142 138.854L648.357 146.976L661.736 160.832L666.991 152.232Z" fill="#009673"/>
<path d="M641.665 154.164L641.143 155.816L643.344 154.087C644.488 153.187 645.157 151.813 645.157 150.358V149.891L643.911 150.888C642.854 151.734 642.072 152.873 641.665 154.164Z" fill="#1CD77B"/>
<path d="M632.813 161.431L636.701 159.59C636.541 160.195 635.827 162.324 635.458 166.088C634.98 170.962 634.024 177.389 635.458 182.524C636.376 185.812 643.676 197.241 647.498 200.395C646.129 201.095 643.217 202.497 642.529 202.497C641.67 202.497 637.751 197.241 635.458 193.992C633.164 190.743 631.54 188.64 630.011 181.952C629.543 179.903 630.287 169.815 631.023 163.881C631.156 162.811 631.839 161.893 632.813 161.431Z" fill="#22DB80"/>
<path d="M640.722 169.768C640.34 163.193 642.665 157.79 643.876 155.912C643.876 155.816 643.819 155.529 643.589 155.147C643.36 154.765 643.493 154.16 643.589 153.905L640.339 156.294L639.576 157.154C639.289 157.314 638.563 157.861 637.951 158.778C637.186 159.925 636.804 161.646 636.422 163.461C636.039 165.277 635.657 177.604 636.422 180.471C637.186 183.337 647.794 197.481 649.227 198.819C650.373 199.888 656.904 201.749 660.025 202.545C660.184 202.513 660.618 202.373 661.076 202.067C661.65 201.685 660.981 201.494 658.878 200.538C656.776 199.582 649.704 194.71 647.794 192.033C645.882 189.358 644.544 186.013 643.876 184.771C643.207 183.529 641.2 177.986 640.722 169.768Z" fill="#1CC874"/>
<path d="M663.223 318.836V320.337C663.223 321.4 664.096 322.256 665.159 322.233L686.103 321.799H699.262C700.31 321.799 701.159 320.95 701.159 319.903V317.295C701.159 316.247 700.31 315.397 699.262 315.397H688.974C688.016 315.397 687.066 315.568 686.168 315.902L683.376 316.939H665.119C664.073 316.939 663.223 317.788 663.223 318.836Z" fill="#1691E7"/>
<path d="M686.902 315.804L682.833 317.194C682.449 317.325 682.191 317.686 682.191 318.091V319.732C682.191 320.178 682.501 320.563 682.936 320.659L686.951 321.54C687.018 321.555 687.086 321.562 687.154 321.562H689.779C690.303 321.562 690.727 321.138 690.727 320.614V316.702C690.727 316.178 690.303 315.753 689.779 315.753H687.209C687.105 315.753 687.001 315.771 686.902 315.804Z" fill="#1764E2"/>
<path d="M668.199 381.903V330.571H670.333V381.903H668.199Z" fill="#1764E2"/>
<path d="M665.89 323.222H665.179C664.95 323.222 664.764 323.036 664.764 322.807C664.764 322.578 664.95 322.392 665.179 322.392H673.833C674.062 322.392 674.248 322.578 674.248 322.807C674.248 323.036 674.062 323.222 673.833 323.222H673.122C672.958 323.222 672.825 323.355 672.825 323.518C672.825 323.682 672.693 323.815 672.529 323.815H672.505C672.348 323.815 672.214 323.929 672.189 324.084L671.229 330.054C671.192 330.284 670.994 330.453 670.761 330.453H668.146C667.907 330.453 667.705 330.275 667.676 330.038L666.939 324.146C666.915 323.957 666.755 323.815 666.564 323.815H666.483C666.319 323.815 666.186 323.682 666.186 323.518C666.186 323.355 666.053 323.222 665.89 323.222Z" fill="#29238D"/>
<path d="M716.924 382.852V352.504H719.057V382.852H716.924Z" fill="#1764E2"/>
<path d="M663.459 316.819H669.031C670.968 316.701 674.034 316.819 675.077 316.819C675.907 316.819 676.5 316.345 677.33 315.041C678 313.988 678.396 311.959 678.396 310.18C678.396 309.114 678.515 306.269 678.278 304.254C678.028 302.134 677.448 299.867 676.5 298.326C675.551 296.784 673.485 295.389 670.809 295.007C668.319 294.651 664.763 295.718 663.459 296.666C661.355 298.197 660.732 299.749 660.259 301.526C659.737 303.484 659.757 311.84 660.14 314.33C660.432 316.227 662.63 316.819 663.459 316.819Z" fill="#29238D"/>
<path d="M665.709 318.953C665.804 317.531 667.488 317.175 668.318 317.175L682.899 317.412V321.087C677.841 321.206 667.843 321.324 667.369 321.324C666.776 321.324 665.591 320.731 665.709 318.953Z" fill="#1764E2"/>
<path d="M692.79 315.753H691.553C691.422 315.753 691.316 315.859 691.316 315.99V320.917C691.316 321.048 691.422 321.154 691.553 321.154H692.79C692.921 321.154 693.027 321.048 693.027 320.917V315.99C693.027 315.859 692.921 315.753 692.79 315.753Z" fill="white"/>
<path d="M693.258 320.917V315.99C693.258 315.859 693.365 315.753 693.495 315.753H694.39C694.521 315.753 694.627 315.859 694.627 315.99V320.917C694.627 321.048 694.521 321.154 694.39 321.154H693.495C693.365 321.154 693.258 321.048 693.258 320.917Z" fill="white"/>
<path d="M694.854 320.917V315.99C694.854 315.859 694.959 315.753 695.09 315.753H695.756C695.887 315.753 695.994 315.859 695.994 315.99V320.917C695.994 321.048 695.887 321.154 695.756 321.154H695.09C694.959 321.154 694.854 321.048 694.854 320.917Z" fill="white"/>
<path d="M696.336 320.917V315.99C696.336 315.859 696.443 315.753 696.574 315.753H697.24C697.371 315.753 697.477 315.859 697.477 315.99V320.917C697.477 321.048 697.371 321.154 697.24 321.154H696.574C696.443 321.154 696.336 321.048 696.336 320.917Z" fill="white"/>
<path d="M697.82 320.917V315.99C697.82 315.859 697.926 315.753 698.057 315.753H698.723C698.854 315.753 698.96 315.859 698.96 315.99V320.917C698.96 321.048 698.854 321.154 698.723 321.154H698.057C697.926 321.154 697.82 321.048 697.82 320.917Z" fill="white"/>
<path d="M699.298 320.965L699.193 315.995C699.19 315.863 699.297 315.753 699.43 315.753H699.986C700.26 315.753 700.329 315.993 700.329 316.113V320.554C700.329 320.794 700.1 321.034 699.986 321.154C699.919 321.224 699.683 321.213 699.487 321.186C699.378 321.171 699.3 321.076 699.298 320.965Z" fill="white"/>
<path d="M682.546 317.175H668.794C668.532 317.175 668.32 317.388 668.32 317.649V320.138C668.32 320.4 668.532 320.613 668.794 320.613H682.546C682.808 320.613 683.02 320.4 683.02 320.138V317.649C683.02 317.388 682.808 317.175 682.546 317.175Z" fill="#1691E7"/>
<path d="M692.269 314.805H690.372C690.241 314.805 690.135 314.911 690.135 315.042C690.135 315.173 690.241 315.279 690.372 315.279H692.269C692.399 315.279 692.506 315.173 692.506 315.042C692.506 314.911 692.399 314.805 692.269 314.805Z" fill="white"/>
<path d="M690.486 322.629V321.918C690.486 321.787 690.592 321.681 690.723 321.681H692.739C692.87 321.681 692.976 321.787 692.976 321.918V322.629C692.976 322.76 692.87 322.866 692.739 322.866H690.723C690.592 322.866 690.486 322.76 690.486 322.629Z" fill="white"/>
<path d="M717.635 381.193V352.504H718.109V381.193H717.635Z" fill="#1692EA"/>
<path d="M668.91 379.058V330.571H669.503V379.058H668.91Z" fill="#1692EA"/>
<path fill-rule="evenodd" clip-rule="evenodd" d="M693.569 413.911C708.037 413.911 719.768 402.182 719.768 387.712C719.768 373.243 708.037 361.513 693.569 361.513C679.099 361.513 667.369 373.243 667.369 387.712C667.369 402.182 679.099 413.911 693.569 413.911ZM693.569 405.85C703.585 405.85 711.707 397.73 711.707 387.712C711.707 377.695 703.585 369.574 693.569 369.574C683.551 369.574 675.43 377.695 675.43 387.712C675.43 397.73 683.551 405.85 693.569 405.85Z" fill="#1341C7"/>
<path d="M720.007 352.621H716.332C716.201 352.621 716.095 352.515 716.095 352.384V351.613C716.095 351.581 716.122 351.554 716.154 351.554C716.187 351.554 716.214 351.527 716.214 351.495V351.317C716.214 351.186 716.107 351.081 715.977 351.081C715.845 351.081 715.739 350.975 715.739 350.844V350.606V350.369C715.739 350.238 715.845 350.132 715.977 350.132C716.107 350.132 716.214 350.026 716.214 349.895V349.658C716.214 349.527 716.107 349.421 715.977 349.421H715.858C715.727 349.421 715.621 349.315 715.621 349.183V348.709C715.621 348.578 715.727 348.472 715.858 348.472H715.977C716.107 348.472 716.214 348.366 716.214 348.235V347.998C716.214 347.867 716.107 347.761 715.977 347.761H715.739C715.608 347.761 715.502 347.655 715.502 347.523V337.565C715.502 337.434 715.608 337.328 715.739 337.328H715.858C715.923 337.328 715.977 337.275 715.977 337.209C715.977 337.144 716.029 337.091 716.095 337.091H716.332C716.398 337.091 716.451 337.039 716.451 336.973C716.451 336.908 716.504 336.855 716.569 336.855H716.688C716.819 336.855 716.925 336.749 716.925 336.618V329.267C716.925 329.136 717.031 329.03 717.162 329.03C717.293 329.03 717.399 328.924 717.399 328.793V326.378C717.399 326.247 717.505 326.141 717.637 326.141H717.658C717.776 326.141 717.873 326.044 717.873 325.926C717.873 325.807 717.969 325.711 718.088 325.711H718.606C718.725 325.711 718.821 325.807 718.821 325.926V326.022C718.821 326.088 718.874 326.141 718.94 326.141C719.005 326.141 719.058 326.194 719.058 326.259V328.793C719.058 328.924 719.164 329.03 719.296 329.03C719.427 329.03 719.533 329.136 719.533 329.267V336.618C719.533 336.749 719.639 336.855 719.77 336.855H719.889C720.019 336.855 720.126 336.961 720.126 337.091C720.126 337.222 720.232 337.328 720.363 337.328H720.481C720.612 337.328 720.719 337.434 720.719 337.565V347.523C720.719 347.655 720.612 347.761 720.481 347.761H720.244C720.113 347.761 720.007 347.867 720.007 347.998V348.235C720.007 348.366 720.113 348.472 720.244 348.472H720.481C720.612 348.472 720.719 348.578 720.719 348.709V349.183C720.719 349.315 720.612 349.421 720.481 349.421C720.35 349.421 720.244 349.527 720.244 349.658V349.776C720.244 349.842 720.297 349.895 720.363 349.895C720.428 349.895 720.481 349.948 720.481 350.014V350.606C720.481 350.738 720.375 350.844 720.244 350.844C720.113 350.844 720.007 350.95 720.007 351.081V351.435C720.007 351.501 720.06 351.554 720.126 351.554C720.191 351.554 720.244 351.607 720.244 351.673V352.384C720.244 352.515 720.138 352.621 720.007 352.621Z" fill="#29238D"/>
<path d="M719.532 329.267V336.618C719.532 336.749 719.426 336.855 719.295 336.855H717.161C717.03 336.855 716.924 336.749 716.924 336.618V329.267C716.924 329.136 717.03 329.03 717.161 329.03C717.292 329.03 717.398 328.924 717.398 328.793V326.378C717.398 326.247 717.504 326.141 717.636 326.141H717.658C717.776 326.141 717.873 326.044 717.873 325.926C717.873 325.807 717.969 325.711 718.088 325.711H718.605C718.724 325.711 718.82 325.807 718.82 325.926V326.022C718.82 326.088 718.873 326.141 718.939 326.141C719.004 326.141 719.057 326.194 719.057 326.259V328.793C719.057 328.924 719.163 329.03 719.295 329.03C719.426 329.03 719.532 329.136 719.532 329.267Z" fill="#EDEDED"/>
<path d="M476.49 327.34H475.275V327.977C475.275 328.382 475.275 329.047 476.866 330.406C478.139 331.494 480.81 332.036 481.986 332.171L535.008 320.918C534.748 320.793 534.071 320.473 533.446 320.195C532.665 319.849 531.971 319.299 530.987 318.489C530.201 317.841 529.773 316.676 529.657 316.174C512.281 319.897 477.323 327.34 476.49 327.34Z" fill="#FF900F"/>
<path d="M478.022 327.051C476.969 327.248 475.712 327.278 475.216 327.268C474.989 327.292 474.533 327.282 474.521 327.051C474.507 326.762 474.565 326.603 474.854 326.154C475.085 325.795 475.413 325.6 475.548 325.546C476.088 325.527 477.223 325.477 477.443 325.431C477.718 325.373 477.877 325.055 478.109 325.026C478.34 324.997 478.586 325.127 478.847 325.141C479.042 325.152 509.517 318.515 527.372 314.618C528.975 314.268 530.479 315.507 530.449 317.148L530.436 317.824C530.403 317.756 530.303 317.58 530.176 317.418C530.017 317.216 530.06 317.216 529.916 316.927C529.8 316.695 529.732 316.29 529.713 316.117C512.921 319.679 479.074 326.854 478.022 327.051Z" fill="#EC4B00"/>
<path d="M474.869 326.603C474.719 326.579 474.614 326.689 474.58 326.747C474.479 327.027 474.395 327.797 474.869 328.642C475.344 329.486 476.321 330.16 476.75 330.392C476.572 330.16 476.169 329.639 475.983 329.408C475.752 329.119 475.347 328.454 475.246 328.049C475.144 327.644 475.303 327.167 475.246 327.022C475.188 326.877 475.058 326.632 474.869 326.603Z" fill="#A72F38"/>
<path d="M489.39 409.491L485.572 331.158L537.171 320.486C538.526 320.206 539.785 321.273 539.729 322.655L536.935 392.614C536.871 394.197 535.812 395.564 534.296 396.019L489.39 409.491Z" fill="#EC4B00"/>
<path d="M474.652 326.544C474.826 326.128 475.323 325.648 475.564 325.517C475.289 325.517 474.707 325.653 474.464 325.734C474.221 325.815 474.103 326.086 474.074 326.212V327.051C474.074 327.557 474.349 328.815 475.81 330.348C476.979 331.575 480.375 332.161 481.928 332.301C481.832 332.262 481.393 332.142 480.409 331.968C479.179 331.751 477.126 330.695 476.475 330.232C475.824 329.769 475.159 328.945 474.869 328.468C474.58 327.991 474.435 327.065 474.652 326.544Z" fill="#B32525"/>
<path d="M487.536 409.49L483.371 331.505L485.598 331.245L489.359 409.49H487.536Z" fill="#DC4201"/>
<path d="M487.569 409.577L485.949 410.416L481.928 332.258L483.374 331.534L487.569 409.577Z" fill="#FF900F"/>
<path d="M481.928 332.315C479.758 332.142 477.82 331.456 475.766 330.203C475.65 330.092 475.297 329.704 474.811 329.032C474.204 328.193 474.16 326.096 474.103 326.183C474.045 326.269 473.9 326.747 473.9 326.949C473.9 327.152 474.435 332.46 474.493 333.212C474.551 333.964 477.271 375.329 477.357 376.023C477.427 376.579 478.253 395.173 478.658 404.4C479.092 405.498 479.192 406.12 480.77 407.9C482.574 409.931 485.052 410.474 485.862 410.474L481.928 332.315Z" fill="#B83600"/>
<path d="M350.1 404.914C350.882 404.914 351.361 404.056 350.952 403.39L289.789 303.946C289.261 303.087 287.938 303.461 287.938 304.47V403.914C287.938 404.466 288.385 404.914 288.937 404.914H350.1Z" fill="#F31B71"/>
<path d="M327.104 391.572C327.884 391.572 328.364 390.719 327.959 390.052L303.592 349.992C303.067 349.129 301.738 349.501 301.738 350.512V390.572C301.738 391.124 302.185 391.572 302.738 391.572H327.104Z" fill="white"/>
<path d="M288.166 366.957H295.296M288.166 357.756H295.296H288.166ZM288.166 362.126H295.296H288.166Z" stroke="#FF6892"/>
<path d="M287.938 380.53H295.069M287.938 371.328H295.069H287.938ZM287.938 375.699H295.069H287.938Z" stroke="#FF6892"/>
<path d="M124.643 348.345C123.557 345.972 120.753 344.928 118.38 346.014C116.006 347.099 114.962 349.904 116.048 352.277L137.557 399.296C138.643 401.67 141.447 402.714 143.82 401.628C146.194 400.542 147.238 397.738 146.152 395.365L124.643 348.345Z" fill="#F9D831"/>
<path d="M80.6432 340.186C75.3087 328.525 80.4377 314.746 92.0991 309.413L107.001 302.596C118.662 297.261 132.44 302.39 137.774 314.052L145.808 331.614C153.025 347.39 146.086 366.03 130.31 373.247C114.534 380.463 95.8939 373.525 88.6771 357.748L80.6432 340.186Z" fill="#D1501A"/>
<path d="M142.148 413.361C145.496 411.829 146.919 407.765 145.326 404.283C143.733 400.801 139.728 399.22 136.38 400.752C133.032 402.283 131.61 406.347 133.202 409.829C134.795 413.311 138.8 414.892 142.148 413.361Z" fill="#F9D831"/>
<path d="M153.785 408.036C157.133 406.505 158.555 402.441 156.963 398.959C155.37 395.477 151.365 393.896 148.017 395.428C144.669 396.959 143.246 401.023 144.839 404.505C146.432 407.987 150.437 409.568 153.785 408.036Z" fill="#F9D831"/>
<path d="M179.812 121.257C179.859 119.155 181.577 117.475 183.679 117.475C186.155 117.475 188.108 119.58 187.923 122.048L187.139 132.505C186.453 141.667 183.646 150.51 178.98 158.351L179.812 121.257Z" stroke="black" stroke-width="5"/>
<path d="M87.1299 120.924C87.0831 118.822 85.3649 117.141 83.2616 117.141C80.7866 117.141 78.8338 119.246 79.0179 121.713L79.8053 132.27C80.4908 141.459 83.2961 150.331 87.962 158.203L87.1299 120.924Z" stroke="black" stroke-width="5"/>
<path d="M87.5214 159.011L85.8378 137.125C85.617 134.253 86.9724 131.489 89.3774 129.905L89.8745 129.577C116.188 112.249 150.327 112.386 176.5 129.925C179.75 132.103 181.509 135.914 181.057 139.799L178.703 160.082C177.4 171.304 170.723 181.232 160.84 186.706C143.728 196.183 122.895 196.322 105.694 187.011C95.274 181.369 88.4302 170.824 87.5214 159.011Z" fill="#262626"/>
</svg>
