<svg width="500" height="auto" viewBox="0 0 585 670" fill="none" xmlns="http://www.w3.org/2000/svg">
<g clip-path="url(#clip0)">
<path d="M82.8682 431.897C139.193 516.969 191.248 534.469 216.818 532.494C222.348 532.067 227.531 529.504 230.93 525.122C248.634 502.3 259.865 435.364 200.737 348.848C118.788 228.937 48.7127 212.327 34.2972 222.483C22.4255 230.848 3.80927 312.488 82.8682 431.897Z" fill="#006EFF"/>
<rect x="115.668" y="370.718" width="6.22388" height="248.955" rx="3.11194" transform="rotate(-35.1681 115.668 370.718)" fill="#4CB9FC"/>
<rect x="181.344" y="402.458" width="6.22388" height="70.8166" rx="3.11194" transform="rotate(-5.16812 181.344 402.458)" fill="#4CB9FC"/>
<rect x="104.664" y="412.733" width="6.22388" height="70.8166" rx="3.11194" transform="rotate(-65.1681 104.664 412.733)" fill="#4CB9FC"/>
<rect x="168.146" y="488.972" width="6.22388" height="54.8499" rx="3.11194" transform="rotate(-65.1681 168.146 488.972)" fill="#4CB9FC"/>
<path d="M137.602 576.067C213.574 605.714 256.445 594.178 273.49 581.162C277.898 577.795 280.681 572.66 280.686 567.114C280.709 542.924 256.008 494.287 177.312 464.901C65.9201 423.307 11.1924 445.239 6.33564 458.835C2.33596 470.031 28.3806 533.444 137.602 576.067Z" fill="#189FFF"/>
<rect x="130.699" y="519.658" width="5.0954" height="203.816" rx="2.5477" transform="rotate(-70.3423 130.699 519.658)" fill="#EDF8FF"/>
<rect x="189.617" y="509.924" width="5.0954" height="57.9765" rx="2.5477" transform="rotate(-40.3423 189.617 509.924)" fill="#EDF8FF"/>
<rect x="143.15" y="552.963" width="5.0954" height="57.9765" rx="2.5477" transform="rotate(-100.342 143.15 552.963)" fill="#EDF8FF"/>
<rect x="221.588" y="574.043" width="5.0954" height="44.9049" rx="2.5477" transform="rotate(-100.342 221.588 574.043)" fill="#EDF8FF"/>
<path d="M428.623 0H183.549C165.143 0 150.223 14.9206 150.223 33.326V600.381C150.223 618.787 165.143 633.707 183.549 633.707H428.623C447.029 633.707 461.949 618.787 461.949 600.381V33.326C461.949 14.9206 447.029 0 428.623 0Z" fill="#1E38D9"/>
<path d="M428.625 10.7668H183.55C170.808 10.7668 160.479 21.0965 160.479 33.8387V599.869C160.479 612.611 170.808 622.94 183.55 622.94H428.625C441.367 622.94 451.697 612.611 451.697 599.869V33.8387C451.697 21.0965 441.367 10.7668 428.625 10.7668Z" fill="#070D66"/>
<path d="M285.924 159.551L285.678 159.797C283.075 162.4 283.075 166.62 285.678 169.223L332.67 216.215C335.273 218.818 339.493 218.818 342.096 216.215L342.342 215.969C344.945 213.366 344.945 209.146 342.342 206.543L295.35 159.551C292.747 156.948 288.526 156.948 285.924 159.551Z" fill="#00B4BA"/>
<path d="M294.295 194.829C311.568 194.829 325.57 180.827 325.57 163.554C325.57 146.281 311.568 132.279 294.295 132.279C277.022 132.279 263.02 146.281 263.02 163.554C263.02 180.827 277.022 194.829 294.295 194.829Z" fill="#1CD9C6"/>
<path d="M294.551 186.113C306.868 186.113 316.854 176.128 316.854 163.81C316.854 151.493 306.868 141.507 294.551 141.507C282.233 141.507 272.248 151.493 272.248 163.81C272.248 176.128 282.233 186.113 294.551 186.113Z" fill="#1C94D9"/>
<path d="M283.27 174.321C277.118 168.425 274.554 162.272 274.041 154.838C273.272 157.658 268.52 168.475 278.143 178.935C289.935 191.753 305.317 183.293 305.317 183.293C292.499 181.499 288.39 179.227 283.27 174.321Z" fill="#1879B1"/>
<path d="M296.989 147.287C294.567 147.044 292.446 147.964 290.977 149.225C290.273 149.83 289.212 149.976 288.492 149.39C287.814 148.838 287.685 147.839 288.304 147.222C288.956 146.571 289.766 145.921 290.737 145.386C292.306 144.521 294.42 143.843 297.155 144.061C299.969 144.285 301.85 145.622 302.903 146.37C303.758 146.978 304.638 148.061 305.288 149.098C305.747 149.83 305.383 150.752 304.589 151.093C303.767 151.447 302.806 151.032 302.265 150.318C301.217 148.935 299.377 147.526 296.989 147.287Z" fill="#00B6FF"/>
<path d="M398.887 250.714H213.799C201.907 250.714 192.266 260.355 192.266 272.248C192.266 284.141 201.907 293.782 213.799 293.782H398.887C410.78 293.782 420.421 284.141 420.421 272.248C420.421 260.355 410.78 250.714 398.887 250.714Z" fill="#006EFF"/>
<path d="M213.534 272.534V251C201.641 251 192 260.641 192 272.534C192 284.426 201.641 294.067 213.534 294.067V272.534Z" fill="#189FFF"/>
<path d="M402.732 301.472H351.974C342.205 301.472 334.285 309.392 334.285 319.161C334.285 328.93 342.205 336.849 351.974 336.849H402.732C412.501 336.849 420.42 328.93 420.42 319.161C420.42 309.392 412.501 301.472 402.732 301.472Z" fill="#006EFF"/>
<path d="M306.086 669.084C414.537 669.084 502.453 662.772 502.453 654.985C502.453 647.198 414.537 640.885 306.086 640.885C197.635 640.885 109.719 647.198 109.719 654.985C109.719 662.772 197.635 669.084 306.086 669.084Z" fill="#151439"/>
<rect x="186" y="387" width="240" height="85" rx="42.5" fill="#006EFF"/>
<rect x="186" y="478" width="240" height="85" rx="42.5" fill="#006EFF"/>
<rect x="217" y="405" width="128" height="19" rx="9.5" fill="#189FFF"/>
<rect x="215" y="496" width="81" height="19" rx="9.5" fill="#189FFF"/>
<rect x="217" y="432" width="175" height="19" rx="9.5" fill="#189FFF"/>
<rect x="217" y="527" width="153" height="19" rx="9.5" fill="#189FFF"/>
<path d="M382.971 582.927C386.82 622.684 422.17 651.793 461.928 647.944C501.685 644.094 530.794 608.744 526.945 568.987C523.095 529.23 487.745 500.121 447.988 503.97C408.23 507.819 379.121 543.17 382.971 582.927Z" fill="#4CB9FC"/>
<path d="M382.97 582.927C386.819 622.684 422.169 651.793 461.926 647.944C501.684 644.094 530.793 608.744 526.943 568.987C526.943 568.987 496.757 608.651 457 612.5C417.243 616.349 382.97 582.927 382.97 582.927Z" fill="#0454C7"/>
<path opacity="0.9" d="M430.509 544.998C431.98 560.184 445.483 571.304 460.669 569.833C475.856 568.363 486.975 554.86 485.504 539.673C484.034 524.487 470.531 513.368 455.344 514.838C440.158 516.308 429.039 529.812 430.509 544.998Z" fill="white"/>
</g>
<defs>
<clipPath id="clip0">
<rect width="585" height="669.084" fill="white"/>
</clipPath>
</defs>
</svg>
