<svg width='560' id="eQlf2V9Xtsa1" xmlns="http://www.w3.org/2000/svg" xmlns:xlink="http://www.w3.org/1999/xlink" viewBox="0 0 599 725" shape-rendering="geometricPrecision" text-rendering="geometricPrecision"><style><![CDATA[#eQlf2V9Xtsa2_ts {animation: eQlf2V9Xtsa2_ts__ts 3000ms linear infinite normal forwards}@keyframes eQlf2V9Xtsa2_ts__ts { 0% {transform: translate(303.367004px,710.099487px) scale(0.850000,0.850000);animation-timing-function: cubic-bezier(1,0,0,1)} 50% {transform: translate(303.367004px,710.099487px) scale(1,1);animation-timing-function: cubic-bezier(1,0,0,1)} 100% {transform: translate(303.367004px,710.099487px) scale(0.850000,0.850000)}} #eQlf2V9Xtsa3_to {animation: eQlf2V9Xtsa3_to__to 3000ms linear infinite normal forwards}@keyframes eQlf2V9Xtsa3_to__to { 0% {transform: translate(299.500000px,362.099487px);animation-timing-function: cubic-bezier(1,0,0,1)} 50% {transform: translate(299.500000px,386.686493px);animation-timing-function: cubic-bezier(1,0,0,1)} 100% {transform: translate(299.500000px,362.100000px)}}]]></style><g id="eQlf2V9Xtsa2_ts" transform="translate(303.367004,710.099487) scale(0.850000,0.850000)"><path id="eQlf2V9Xtsa2" d="M303.367000,724.199000C411.818000,724.199000,499.734000,717.886000,499.734000,710.099000C499.734000,702.313000,411.818000,696,303.367000,696C194.917000,696,107,702.313000,107,710.099000C107,717.886000,194.917000,724.199000,303.367000,724.199000Z" transform="translate(-303.367004,-710.099487)" fill="rgb(21,20,57)" stroke="none" stroke-width="1"/></g><g id="eQlf2V9Xtsa3_to" transform="translate(299.500000,362.099487)"><g id="eQlf2V9Xtsa3" transform="translate(-299.500000,-362.099487)"><path id="eQlf2V9Xtsa4" d="M134.898000,631.049000C134.291000,624.674000,134.645000,303.571000,134.898000,143.817000C134.139000,112.448000,135.277000,47.433000,135.277000,38.705300C135.277000,31.116100,139.831000,23.093100,144.764000,17.455300C156.053000,4.553570,169.429000,0,174.362000,0C183.469000,0,433.156000,0.379464,436.951000,0.379464C440.746000,0.379464,448.335000,5.691960,457.063000,14.040100C464.829000,21.467800,469.964000,32.254400,469.964000,38.325800C469.964000,45.156200,469.585000,623.839000,469.585000,634.844000C469.585000,645.848000,460.098000,657.233000,454.786000,662.545000C443.779000,673.549000,431.639000,673.549000,426.706000,673.549000C421.772000,673.549000,322.353000,675.826000,319.697000,675.826000C317.420000,675.826000,318.558000,673.549000,317.040000,673.549000L286.683000,673.549000C284.786000,673.549000,285.925000,675.826000,284.027000,675.826000C277.956000,675.826000,189.161000,673.549000,183.848000,673.549000C180.433000,673.549000,156.147000,673.928000,145.522000,660.268000C134.898000,646.607000,135.729000,639.777000,134.898000,631.049000Z" fill="rgb(23,77,237)" stroke="none" stroke-width="1"/><path id="eQlf2V9Xtsa5" d="M469.964000,236.406000L469.964000,152.165000C469.964000,151.327000,470.644000,150.647000,471.482000,150.647000C472.320000,150.647000,473,151.327000,473,152.165000L473,236.406000C473,237.245000,472.320000,237.924000,471.482000,237.924000C470.644000,237.924000,469.964000,237.245000,469.964000,236.406000Z" fill="rgb(255,255,255)" stroke="none" stroke-width="1"/><path id="eQlf2V9Xtsa6" d="M156.908000,620.044000L156.908000,50.089400C156.908000,39.843900,158.807000,34.151900,163.361000,28.080500C168.671000,21,177.401000,17.076000,181.575000,17.075900L215.731000,17.075900C218.612000,17.075900,220.895000,19.504700,220.887000,22.385000C220.878000,25.811700,221.027000,29.366600,221.416000,31.116200C222.174000,34.531400,228.625000,41.083000,232.803000,41.361700C237.627000,41.683500,331.961000,41.459500,363.763000,41.384000L365.991000,41.378700L366.327000,41.378000C372.522000,41.363600,374.752000,41.358500,376.616000,40.223300C379.953000,38.191300,385.124000,32.710600,385.727000,28.459900C385.956000,26.844500,385.906000,24.527300,385.832000,22.020400C385.751000,19.281600,387.930000,17.052300,390.670000,17.039100C402.939000,16.979800,421.324000,17.076000,425.567000,17.076000C429.362000,17.075900,438.849000,24.418300,441.508000,27.321500C444.167000,30.224700,448.715000,36.049200,448.715000,41.741200L448.718000,632.187000C448.718000,635.982000,443.023000,643.951000,440.746000,645.848000C435.371000,650.328000,430.121000,653.817000,424.811000,654.576000C420.528000,655.188000,184.228000,654.702000,179.676000,654.196000C172.844000,653.437000,167.532000,647.636000,166.016000,646.228000C155.393000,636.358000,156.909000,626.875000,156.908000,620.044000Z" fill="rgb(26,113,255)" stroke="none" stroke-width="1"/><path id="eQlf2V9Xtsa7" d="M133,119.342000L133,97.332600C133,96.389500,133.765000,95.625000,134.708000,95.625000C135.651000,95.625000,136.415000,96.389500,136.415000,97.332600L136.415000,119.342000C136.415000,120.285000,135.651000,121.049000,134.708000,121.049000C133.765000,121.049000,133,120.285000,133,119.342000Z" fill="rgb(255,255,255)" stroke="none" stroke-width="1"/><path id="eQlf2V9Xtsa8" d="M133,185.748000L133,146.663000C133,145.720000,133.765000,144.955000,134.708000,144.955000C135.651000,144.955000,136.415000,145.720000,136.415000,146.663000L136.415000,185.748000C136.415000,186.691000,135.651000,187.455000,134.708000,187.455000C133.765000,187.455000,133,186.691000,133,185.748000Z" fill="rgb(255,255,255)" stroke="none" stroke-width="1"/><path id="eQlf2V9Xtsa9" d="M136.415000,243.806000L136.415000,203.203000C136.415000,202.260000,135.651000,201.496000,134.708000,201.496000C133.765000,201.496000,133,202.260000,133,203.203000L133,243.806000C133,244.749000,133.765000,245.513000,134.708000,245.513000C135.651000,245.513000,136.415000,244.749000,136.415000,243.806000Z" fill="rgb(255,255,255)" stroke="none" stroke-width="1"/><path id="eQlf2V9Xtsa10" d="M322.542000,21.250000L281.940000,21.250000C280.368000,21.250000,279.094000,22.524200,279.094000,24.096000C279.094000,25.667800,280.368000,26.942000,281.940000,26.942000L322.542000,26.942000C324.114000,26.942000,325.388000,25.667800,325.388000,24.096000C325.388000,22.524200,324.114000,21.250000,322.542000,21.250000Z" fill="rgb(255,255,255)" stroke="none" stroke-width="1"/><path id="eQlf2V9Xtsa11" d="M133,119.342000L133,97.332600C133,96.389500,133.765000,95.625000,134.708000,95.625000C135.651000,95.625000,136.415000,96.389500,136.415000,97.332600L136.415000,119.342000C136.415000,120.285000,135.651000,121.049000,134.708000,121.049000C133.765000,121.049000,133,120.285000,133,119.342000Z" fill="none" stroke="rgb(255,255,255)" stroke-width="3"/><path id="eQlf2V9Xtsa12" d="M133,185.748000L133,146.663000C133,145.720000,133.765000,144.955000,134.708000,144.955000C135.651000,144.955000,136.415000,145.720000,136.415000,146.663000L136.415000,185.748000C136.415000,186.691000,135.651000,187.455000,134.708000,187.455000C133.765000,187.455000,133,186.691000,133,185.748000Z" fill="none" stroke="rgb(255,255,255)" stroke-width="3"/><path id="eQlf2V9Xtsa13" d="M136.415000,243.806000L136.415000,203.203000C136.415000,202.260000,135.651000,201.496000,134.708000,201.496000C133.765000,201.496000,133,202.260000,133,203.203000L133,243.806000C133,244.749000,133.765000,245.513000,134.708000,245.513000C135.651000,245.513000,136.415000,244.749000,136.415000,243.806000Z" fill="none" stroke="rgb(255,255,255)" stroke-width="3"/><path id="eQlf2V9Xtsa14" d="M469.964000,236.406000L469.964000,152.165000C469.964000,151.327000,470.644000,150.647000,471.482000,150.647000C472.320000,150.647000,473,151.327000,473,152.165000L473,236.406000C473,237.245000,472.320000,237.924000,471.482000,237.924000C470.644000,237.924000,469.964000,237.245000,469.964000,236.406000Z" fill="none" stroke="rgb(255,255,255)" stroke-width="3"/><path id="eQlf2V9Xtsa15" d="M322.542000,21.250000L281.940000,21.250000C280.368000,21.250000,279.094000,22.524200,279.094000,24.096000C279.094000,25.667800,280.368000,26.942000,281.940000,26.942000L322.542000,26.942000C324.114000,26.942000,325.388000,25.667800,325.388000,24.096000C325.388000,22.524200,324.114000,21.250000,322.542000,21.250000Z" fill="none" stroke="rgb(255,255,255)" stroke-width="3"/><rect id="eQlf2V9Xtsa16" width="16" height="82" rx="8" ry="8" transform="matrix(1 0 0 1 433 40)" fill="rgb(24,159,255)" stroke="none" stroke-width="1"/><circle id="eQlf2V9Xtsa17" r="8" transform="matrix(1 0 0 1 441 133)" fill="rgb(24,159,255)" stroke="none" stroke-width="1"/><path id="eQlf2V9Xtsa18" d="M385.250000,315.343000L358.209000,354.269000C354.856000,359.096000,347.281000,356.723000,347.281000,350.846000L347.281000,315.343000C312.332000,315.343000,284,287.011000,284,252.062000L284,246.672000C284,208.745000,314.745000,178,352.672000,178L530.328000,178C568.255000,178,599,208.745000,599,246.672000C599,284.598000,568.255000,315.343000,530.328000,315.343000L385.250000,315.343000Z" fill="rgb(38,220,131)" stroke="none" stroke-width="1"/><rect id="eQlf2V9Xtsa19" width="83" height="19" rx="9.500000" ry="9.500000" transform="matrix(1 0 0 1 334 210)" fill="rgb(126,254,127)" stroke="none" stroke-width="1"/><rect id="eQlf2V9Xtsa20" width="191" height="19" rx="9.500000" ry="9.500000" transform="matrix(1 0 0 1 334 241)" fill="rgb(126,254,127)" stroke="none" stroke-width="1"/><rect id="eQlf2V9Xtsa21" width="159" height="19" rx="9.500000" ry="9.500000" transform="matrix(1 0 0 1 334 264)" fill="rgb(126,254,127)" stroke="none" stroke-width="1"/><path id="eQlf2V9Xtsa22" d="M245,440.343000L245,481.101000C245,486.361000,238.713000,489.076000,234.885000,485.468000L187,440.343000L68.671500,440.343000C30.745300,440.343000,0,409.598000,0,371.672000C0,333.745000,30.745300,303,68.671500,303L246.328000,303C284.255000,303,315,333.745000,315,371.672000C315,409.598000,284.255000,440.343000,246.328000,440.343000L245,440.343000Z" fill="rgb(254,187,0)" stroke="none" stroke-width="1"/><rect id="eQlf2V9Xtsa23" width="101" height="19" rx="9.500000" ry="9.500000" transform="matrix(1 0 0 1 47 336)" fill="rgb(255,239,72)" stroke="none" stroke-width="1"/><rect id="eQlf2V9Xtsa24" width="34" height="19" rx="9.500000" ry="9.500000" transform="matrix(1 0 0 1 169 336)" fill="rgb(255,239,72)" stroke="none" stroke-width="1"/><rect id="eQlf2V9Xtsa25" width="208" height="19" rx="9.500000" ry="9.500000" transform="matrix(1 0 0 1 47 370)" fill="rgb(255,239,72)" stroke="none" stroke-width="1"/><rect id="eQlf2V9Xtsa26" width="186" height="19" rx="9.500000" ry="9.500000" transform="matrix(1 0 0 1 47 394)" fill="rgb(255,239,72)" stroke="none" stroke-width="1"/><rect id="eQlf2V9Xtsa27" width="263" height="43" rx="21.500000" ry="21.500000" transform="matrix(1 0 0 1 172 591)" fill="rgb(255,255,255)" stroke="none" stroke-width="1"/></g></g></svg>