<svg width="350" viewBox="0 0 393 736" fill="none" xmlns="http://www.w3.org/2000/svg">
<g clip-path="url(#clip0)">
<path d="M308.727 689.999H81.2101C50.1661 689.999 25 664.878 25 633.89V56.1083C25 25.1205 50.1661 0 81.2101 0H308.727C339.771 0 364.938 25.1205 364.938 56.1083V633.89C364.938 664.878 339.771 689.999 308.727 689.999Z" fill="#1CC874"/>
<path d="M73.8512 22.0425H110.376C111.693 22.0425 112.815 22.9991 112.923 24.3094C113.245 28.2155 113.187 32.9642 114.67 37.4055C116.242 42.1112 119.806 43.7227 123.023 44.5757C125.455 45.2206 127.988 45.4209 130.505 45.4209H264.396C265.81 45.4209 267.191 44.9792 268.388 44.2278L268.511 44.1512C271.089 42.5342 274.525 40.3784 276.609 36.7375C277.954 34.387 278.567 28.9263 278.654 24.8737C278.688 23.3367 279.915 22.0425 281.455 22.0425H314.171C316.328 22.0425 318.479 22.3566 320.547 22.974C324.776 24.2371 331.209 26.4468 336.165 31.3939C342.857 38.0734 344.195 48.0928 344.195 50.7646V638.386C344.195 640.726 343.973 643.068 343.325 645.315C341.832 650.497 339.444 656 336.165 659.273C333.511 661.922 327.533 665.061 322.897 666.773C320.21 667.765 317.327 667.956 314.461 667.956H73.8512C69.8362 667.956 61.137 665.284 54.4453 659.273C48.9173 654.307 45.9692 645.246 45.7461 640.57V54.3072C45.7461 52.394 45.87 50.4759 46.3374 48.6205C48.1445 41.4461 52.1941 34.1134 56.4528 29.39C61.2708 24.0463 70.5053 22.0425 73.8512 22.0425Z" fill="white"/>
<path d="M251.182 391.422V368.712C251.182 366.498 252.979 364.704 255.197 364.704H283.971C286.189 364.704 287.986 366.498 287.986 368.712V391.422C287.986 393.636 286.189 395.43 283.971 395.43H255.197C252.979 395.43 251.182 393.636 251.182 391.422Z" fill="#ECEEF0"/>
<path d="M58 113.351V252.286H331.69V113.351C331.69 108.187 327.495 104 322.321 104H67.3684C62.1943 104 58 108.187 58 113.351Z" fill="#28E086"/>
<path d="M239.27 364.024H64.6166C62.3991 364.024 60.6016 365.818 60.6016 368.032V390.074C60.6016 392.288 62.3991 394.082 64.6166 394.082H239.27C241.487 394.082 243.285 392.288 243.285 390.074V368.032C243.285 365.818 241.487 364.024 239.27 364.024Z" fill="#28E086"/>
<path d="M296.014 390.754V368.044C296.014 365.83 297.811 364.036 300.029 364.036H328.803C331.021 364.036 332.818 365.83 332.818 368.044V390.754C332.818 392.968 331.021 394.762 328.803 394.762H300.029C297.811 394.762 296.014 392.968 296.014 390.754Z" fill="#ECEEF0"/>
<path d="M195.64 303.92C229.64 303.92 257.203 276.407 257.203 242.468C257.203 208.529 229.64 181.016 195.64 181.016C161.639 181.016 134.076 208.529 134.076 242.468C134.076 276.407 161.639 303.92 195.64 303.92Z" fill="white"/>
<path d="M195.638 303.252C229.269 303.252 256.533 276.038 256.533 242.468C256.533 208.898 229.269 181.684 195.638 181.684C162.007 181.684 134.744 208.898 134.744 242.468C134.744 276.038 162.007 303.252 195.638 303.252Z" fill="#28E086" stroke="white" stroke-width="3"/>
<path d="M269.915 373.388C266.589 373.388 263.893 375.879 263.893 378.953C263.893 380.706 264.768 382.268 266.137 383.288V385.411L268.187 384.287C268.735 384.438 269.314 384.52 269.915 384.52C273.241 384.52 275.938 382.028 275.938 378.954C275.938 375.88 273.241 373.388 269.915 373.388ZM270.513 380.883L268.98 379.251L265.987 380.883L269.279 377.395L270.851 379.028L273.806 377.395L270.513 380.883Z" fill="black"/>
<path d="M47.75 88.8379H345.53" stroke="#F4F4F4"/>
<path d="M45.7461 619.195H343.526" stroke="#F4F4F4"/>
<g clip-path="url(#clip1)">
<path d="M332.43 66.715C332.43 73.7374 326.737 79.43 319.715 79.43C312.693 79.43 307 73.7374 307 66.715C307 59.6926 312.693 54 319.715 54C326.737 54 332.43 59.6926 332.43 66.715Z" fill="#FEBB00"/>
<path d="M322.605 66.3143C323.773 65.4347 324.53 64.037 324.53 62.4657C324.53 59.8106 322.37 57.6504 319.715 57.6504C317.059 57.6504 314.899 59.8106 314.899 62.4657C314.899 64.037 315.656 65.4347 316.824 66.3143C313.697 67.4881 311.465 70.5086 311.465 74.0408H312.955C312.955 70.3134 315.987 67.2811 319.715 67.2811C323.442 67.2811 326.474 70.3134 326.474 74.0408H327.965C327.964 70.5086 325.733 67.4881 322.605 66.3143V66.3143ZM316.389 62.4657C316.389 60.632 317.881 59.1404 319.715 59.1404C321.548 59.1404 323.04 60.632 323.04 62.4657C323.04 64.2993 321.548 65.7911 319.715 65.7911C317.881 65.7911 316.389 64.2993 316.389 62.4657V62.4657Z" fill="white"/>
</g>
<path d="M68.4956 60.1162L61.1348 66.7958L68.4956 74.1433" stroke="black"/>
<path d="M120.771 61.4105L123.704 69.6763L126.621 61.4105H129.711V72.8074H127.351V69.692L127.586 64.3145L124.504 72.8074H122.889L119.815 64.3222L120.05 69.692V72.8074H117.697V61.4105H120.771ZM131.264 68.51C131.264 67.1897 131.559 66.1383 132.15 65.3555C132.746 64.5727 133.559 64.1814 134.589 64.1814C135.415 64.1814 136.097 64.4892 136.635 65.1051V60.7842H138.909V72.8074H136.863L136.753 71.9073C136.188 72.6117 135.462 72.964 134.573 72.964C133.574 72.964 132.772 72.5725 132.165 71.7898C131.564 71.0018 131.264 69.9086 131.264 68.51ZM133.53 68.6743C133.53 69.4676 133.668 70.0756 133.945 70.4983C134.223 70.9209 134.625 71.1323 135.153 71.1323C135.854 71.1323 136.348 70.8375 136.635 70.2478V66.9053C136.353 66.3157 135.864 66.0208 135.169 66.0208C134.076 66.0208 133.53 66.9053 133.53 68.6743ZM151.26 70.4591H147.135L146.351 72.8074H143.85L148.1 61.4105H150.28L154.554 72.8074H152.052L151.26 70.4591ZM147.771 68.5571H150.625L149.19 64.2909L147.771 68.5571ZM163.117 68.651C163.117 70.0077 162.826 71.0671 162.247 71.829C161.666 72.5856 160.856 72.964 159.815 72.964C158.896 72.964 158.161 72.6117 157.612 71.9073L157.51 72.8074H155.471V60.7842H157.738V65.0972C158.26 64.4867 158.948 64.1814 159.8 64.1814C160.835 64.1814 161.646 64.5623 162.231 65.3241C162.822 66.0808 163.117 67.1481 163.117 68.5257V68.651ZM160.851 68.4865C160.851 67.6307 160.714 67.0071 160.443 66.6157C160.171 66.2192 159.766 66.0208 159.228 66.0208C158.506 66.0208 158.009 66.3157 157.738 66.9053V70.2478C158.015 70.8427 158.517 71.1402 159.244 71.1402C159.976 71.1402 160.456 70.78 160.686 70.06C160.796 69.7154 160.851 69.1911 160.851 68.4865ZM169.289 66.4591C168.98 66.4175 168.708 66.3966 168.473 66.3966C167.616 66.3966 167.054 66.6862 166.787 67.2655V72.8074H164.521V64.338H166.662L166.725 65.3477C167.179 64.5702 167.809 64.1814 168.615 64.1814C168.865 64.1814 169.1 64.2153 169.32 64.2831L169.289 66.4591ZM175.068 72.8074C174.964 72.6039 174.887 72.3508 174.841 72.0481C174.292 72.6587 173.579 72.964 172.699 72.964C171.868 72.964 171.179 72.7239 170.629 72.2438C170.086 71.7638 169.814 71.1583 169.814 70.4279C169.814 69.5303 170.146 68.8413 170.81 68.3613C171.479 67.8812 172.444 67.6386 173.703 67.6334H174.747V67.1481C174.747 66.7566 174.644 66.4435 174.44 66.2087C174.242 65.9739 173.925 65.8565 173.492 65.8565C173.11 65.8565 172.809 65.9477 172.59 66.1305C172.375 66.3131 172.268 66.5636 172.268 66.8819H170.003C170.003 66.3914 170.154 65.9373 170.458 65.5199C170.76 65.1024 171.188 64.7763 171.744 64.5414C172.298 64.3014 172.919 64.1814 173.609 64.1814C174.655 64.1814 175.483 64.4448 176.095 64.972C176.712 65.4938 177.021 66.2296 177.021 67.1793V70.8505C177.026 71.6541 177.139 72.2621 177.358 72.6743V72.8074H175.068ZM173.194 71.2341C173.529 71.2341 173.837 71.161 174.119 71.0149C174.402 70.8635 174.61 70.6626 174.747 70.4121V68.9562H173.9C172.765 68.9562 172.161 69.3476 172.088 70.1304L172.08 70.2634C172.08 70.5452 172.18 70.7775 172.378 70.9601C172.577 71.1427 172.849 71.2341 173.194 71.2341ZM183.529 66.4591C183.221 66.4175 182.95 66.3966 182.714 66.3966C181.856 66.3966 181.294 66.6862 181.028 67.2655V72.8074H178.762V64.338H180.902L180.965 65.3477C181.42 64.5702 182.05 64.1814 182.855 64.1814C183.106 64.1814 183.342 64.2153 183.561 64.2831L183.529 66.4591ZM191.269 70.9209H197.025V72.8074H188.328V71.4298L193.975 63.3125H188.336V61.4105H196.899V62.7568L191.269 70.9209ZM203.283 72.8074C203.179 72.6039 203.102 72.3508 203.055 72.0481C202.507 72.6587 201.793 72.964 200.914 72.964C200.083 72.964 199.394 72.7239 198.845 72.2438C198.3 71.7638 198.029 71.1583 198.029 70.4279C198.029 69.5303 198.361 68.8413 199.024 68.3613C199.694 67.8812 200.658 67.6386 201.918 67.6334H202.962V67.1481C202.962 66.7566 202.86 66.4435 202.655 66.2087C202.457 65.9739 202.14 65.8565 201.706 65.8565C201.325 65.8565 201.024 65.9477 200.804 66.1305C200.59 66.3131 200.483 66.5636 200.483 66.8819H198.217C198.217 66.3914 198.369 65.9373 198.672 65.5199C198.975 65.1024 199.403 64.7763 199.959 64.5414C200.513 64.3014 201.134 64.1814 201.824 64.1814C202.869 64.1814 203.698 64.4448 204.311 64.972C204.926 65.4938 205.236 66.2296 205.236 67.1793V70.8505C205.241 71.6541 205.353 72.2621 205.573 72.6743V72.8074H203.283ZM201.409 71.2341C201.744 71.2341 202.052 71.161 202.334 71.0149C202.616 70.8635 202.825 70.6626 202.962 70.4121V68.9562H202.115C200.98 68.9562 200.376 69.3476 200.302 70.1304L200.296 70.2634C200.296 70.5452 200.395 70.7775 200.593 70.9601C200.792 71.1427 201.064 71.2341 201.409 71.2341ZM209.188 65.2616C209.789 64.5414 210.545 64.1814 211.453 64.1814C213.294 64.1814 214.228 65.2485 214.253 67.3829V72.8074H211.987V67.4454C211.987 66.9601 211.883 66.6027 211.673 66.3731C211.464 66.1383 211.116 66.0208 210.63 66.0208C209.967 66.0208 209.486 66.2765 209.188 66.7879V72.8074H206.922V60.7842H209.188V65.2616ZM218.355 72.8074H216.08V64.338H218.355V72.8074ZM215.948 62.1461C215.948 61.807 216.06 61.5277 216.285 61.3087C216.515 61.0894 216.826 60.9799 217.218 60.9799C217.604 60.9799 217.914 61.0894 218.142 61.3087C218.373 61.5277 218.488 61.807 218.488 62.1461C218.488 62.4905 218.37 62.7724 218.136 62.9915C217.906 63.2107 217.599 63.3203 217.218 63.3203C216.836 63.3203 216.527 63.2107 216.293 62.9915C216.063 62.7724 215.948 62.4905 215.948 62.1461ZM222.315 64.338L222.385 65.3164C222.993 64.5597 223.805 64.1814 224.825 64.1814C225.724 64.1814 226.393 64.4448 226.832 64.972C227.271 65.499 227.496 66.2869 227.507 67.3359V72.8074H225.24V67.3907C225.24 66.9105 225.135 66.5636 224.927 66.3496C224.718 66.1305 224.37 66.0208 223.884 66.0208C223.246 66.0208 222.768 66.2921 222.448 66.8349V72.8074H220.182V64.338H222.315ZM239.826 70.4591H235.701L234.917 72.8074H232.416L236.665 61.4105H238.845L243.12 72.8074H240.617L239.826 70.4591ZM236.336 68.5571H239.191L237.756 64.2909L236.336 68.5571ZM245.746 64.338L245.817 65.3164C246.423 64.5597 247.237 64.1814 248.255 64.1814C249.154 64.1814 249.824 64.4448 250.263 64.972C250.703 65.499 250.928 66.2869 250.937 67.3359V72.8074H248.671V67.3907C248.671 66.9105 248.567 66.5636 248.358 66.3496C248.148 66.1305 247.801 66.0208 247.314 66.0208C246.677 66.0208 246.198 66.2921 245.88 66.8349V72.8074H243.614V64.338H245.746ZM255.376 62.2558V64.338H256.827V65.9973H255.376V70.2243C255.376 70.5374 255.437 70.7618 255.557 70.8974C255.676 71.0332 255.906 71.101 256.246 71.101C256.498 71.101 256.72 71.0827 256.913 71.0461V72.7604C256.468 72.8961 256.011 72.964 255.541 72.964C253.951 72.964 253.141 72.1629 253.109 70.5609V65.9973H251.871V64.338H253.109V62.2558H255.376ZM257.502 68.4944C257.502 67.6542 257.664 66.9053 257.987 66.2478C258.311 65.5904 258.777 65.0815 259.383 64.7215C259.995 64.3614 260.703 64.1814 261.509 64.1814C262.653 64.1814 263.587 64.531 264.308 65.2302C265.035 65.9296 265.439 66.8793 265.524 68.0795L265.54 68.6587C265.54 69.9582 265.176 71.0018 264.449 71.7898C263.722 72.5725 262.748 72.964 261.525 72.964C260.3 72.964 259.323 72.5725 258.591 71.7898C257.864 71.007 257.502 69.9425 257.502 68.5962V68.4944ZM259.767 68.6587C259.767 69.4624 259.919 70.0781 260.222 70.506C260.525 70.9288 260.96 71.1402 261.525 71.1402C262.073 71.1402 262.502 70.9314 262.809 70.5139C263.119 70.0912 263.273 69.418 263.273 68.4944C263.273 67.7063 263.119 67.0958 262.809 66.6627C262.502 66.2296 262.068 66.0131 261.509 66.0131C260.955 66.0131 260.525 66.2296 260.222 66.6627C259.919 67.0906 259.767 67.756 259.767 68.6587ZM271.703 66.4591C271.395 66.4175 271.122 66.3966 270.888 66.3966C270.03 66.3966 269.468 66.6862 269.201 67.2655V72.8074H266.934V64.338H269.076L269.138 65.3477C269.594 64.5702 270.224 64.1814 271.028 64.1814C271.28 64.1814 271.514 64.2153 271.734 64.2831L271.703 66.4591Z" fill="black"/>
<path d="M115.76 312.948L118.937 321.903L122.097 312.948H125.444V325.295H122.887V321.92L123.142 316.094L119.804 325.295H118.054L114.723 316.102L114.978 321.92V325.295H112.43V312.948H115.76ZM127.126 320.639C127.126 319.208 127.446 318.07 128.086 317.222C128.732 316.373 129.613 315.95 130.728 315.95C131.623 315.95 132.362 316.284 132.946 316.951V312.27H135.409V325.295H133.192L133.073 324.319C132.462 325.082 131.674 325.464 130.712 325.464C129.63 325.464 128.76 325.041 128.103 324.193C127.452 323.339 127.126 322.154 127.126 320.639ZM129.582 320.817C129.582 321.677 129.732 322.336 130.032 322.793C130.332 323.251 130.768 323.481 131.34 323.481C132.099 323.481 132.634 323.161 132.946 322.521V318.901C132.64 318.262 132.11 317.943 131.357 317.943C130.173 317.943 129.582 318.901 129.582 320.817ZM148.79 322.751H144.321L143.471 325.295H140.761L145.366 312.948H147.728L152.358 325.295H149.648L148.79 322.751ZM145.009 320.69H148.101L146.547 316.069L145.009 320.69ZM161.635 320.791C161.635 322.262 161.32 323.41 160.691 324.235C160.063 325.054 159.186 325.464 158.058 325.464C157.061 325.464 156.265 325.082 155.671 324.319L155.56 325.295H153.352V312.27H155.807V316.943C156.373 316.28 157.118 315.95 158.041 315.95C159.163 315.95 160.041 316.363 160.675 317.188C161.315 318.007 161.635 319.164 161.635 320.656V320.791ZM159.179 320.614C159.179 319.687 159.032 319.011 158.738 318.587C158.443 318.157 158.004 317.943 157.421 317.943C156.639 317.943 156.101 318.262 155.807 318.901V322.521C156.107 323.167 156.651 323.489 157.438 323.489C158.231 323.489 158.752 323.098 159.001 322.318C159.12 321.946 159.179 321.376 159.179 320.614ZM168.32 318.417C167.986 318.372 167.692 318.349 167.436 318.349C166.508 318.349 165.899 318.663 165.611 319.291V325.295H163.155V316.12H165.474L165.543 317.214C166.035 316.371 166.718 315.95 167.59 315.95C167.862 315.95 168.116 315.986 168.354 316.06L168.32 318.417ZM174.582 325.295C174.468 325.074 174.386 324.8 174.336 324.472C173.74 325.133 172.968 325.464 172.016 325.464C171.115 325.464 170.367 325.204 169.773 324.684C169.184 324.165 168.89 323.509 168.89 322.716C168.89 321.744 169.248 320.998 169.969 320.479C170.694 319.958 171.738 319.695 173.103 319.689H174.232V319.164C174.232 318.739 174.123 318.4 173.902 318.146C173.686 317.891 173.344 317.764 172.874 317.764C172.461 317.764 172.135 317.863 171.897 318.061C171.664 318.26 171.549 318.531 171.549 318.876H169.093C169.093 318.344 169.258 317.852 169.586 317.399C169.915 316.948 170.379 316.594 170.979 316.34C171.58 316.08 172.253 315.95 173.001 315.95C174.133 315.95 175.031 316.236 175.694 316.806C176.363 317.371 176.696 318.169 176.696 319.198V323.175C176.702 324.046 176.823 324.704 177.062 325.15V325.295H174.582ZM172.552 323.59C172.913 323.59 173.247 323.511 173.554 323.352C173.859 323.189 174.085 322.972 174.232 322.7V321.123H173.316C172.087 321.123 171.433 321.546 171.354 322.394L171.344 322.539C171.344 322.845 171.453 323.096 171.667 323.293C171.882 323.491 172.177 323.59 172.552 323.59ZM183.748 318.417C183.413 318.372 183.119 318.349 182.865 318.349C181.936 318.349 181.327 318.663 181.038 319.291V325.295H178.582V316.12H180.901L180.97 317.214C181.462 316.371 182.145 315.95 183.017 315.95C183.289 315.95 183.543 315.986 183.781 316.06L183.748 318.417ZM192.133 323.251H198.368V325.295H188.947V323.802L195.064 315.008H188.955V312.948H198.233V314.407L192.133 323.251ZM205.148 325.295C205.034 325.074 204.953 324.8 204.9 324.472C204.306 325.133 203.533 325.464 202.582 325.464C201.682 325.464 200.934 325.204 200.339 324.684C199.751 324.165 199.456 323.509 199.456 322.716C199.456 321.744 199.815 320.998 200.535 320.479C201.259 319.958 202.304 319.695 203.669 319.689H204.799V319.164C204.799 318.739 204.689 318.4 204.468 318.146C204.253 317.891 203.91 317.764 203.44 317.764C203.027 317.764 202.7 317.863 202.463 318.061C202.23 318.26 202.114 318.531 202.114 318.876H199.66C199.66 318.344 199.824 317.852 200.152 317.399C200.481 316.948 200.946 316.594 201.545 316.34C202.146 316.08 202.819 315.95 203.567 315.95C204.7 315.95 205.598 316.236 206.26 316.806C206.928 317.371 207.263 318.169 207.263 319.198V323.175C207.268 324.046 207.39 324.704 207.628 325.15V325.295H205.148ZM203.116 323.59C203.479 323.59 203.814 323.511 204.119 323.352C204.425 323.189 204.652 322.972 204.799 322.7V321.123H203.882C202.652 321.123 201.999 321.546 201.919 322.394L201.911 322.539C201.911 322.845 202.018 323.096 202.233 323.293C202.449 323.491 202.743 323.59 203.116 323.59ZM211.544 317.12C212.196 316.34 213.013 315.95 214 315.95C215.993 315.95 217.004 317.106 217.032 319.418V325.295H214.577V319.486C214.577 318.96 214.464 318.572 214.238 318.324C214.01 318.07 213.634 317.943 213.107 317.943C212.388 317.943 211.868 318.22 211.544 318.774V325.295H209.089V312.27H211.544V317.12ZM221.476 325.295H219.012V316.12H221.476V325.295ZM218.867 313.744C218.867 313.377 218.989 313.075 219.233 312.837C219.482 312.601 219.819 312.482 220.243 312.482C220.662 312.482 220.997 312.601 221.246 312.837C221.496 313.075 221.62 313.377 221.62 313.744C221.62 314.118 221.492 314.423 221.238 314.661C220.989 314.899 220.657 315.018 220.243 315.018C219.83 315.018 219.496 314.899 219.241 314.661C218.992 314.423 218.867 314.118 218.867 313.744ZM225.765 316.12L225.841 317.179C226.499 316.36 227.379 315.95 228.485 315.95C229.458 315.95 230.183 316.236 230.659 316.806C231.135 317.377 231.378 318.23 231.389 319.367V325.295H228.934V319.426C228.934 318.906 228.821 318.531 228.594 318.299C228.368 318.061 227.991 317.943 227.465 317.943C226.774 317.943 226.255 318.237 225.91 318.825V325.295H223.455V316.12H225.765ZM244.736 322.751H240.267L239.417 325.295H236.707L241.311 312.948H243.673L248.304 325.295H245.594L244.736 322.751ZM240.955 320.69H244.047L242.493 316.069L240.955 320.69ZM251.149 316.12L251.226 317.179C251.883 316.36 252.763 315.95 253.868 315.95C254.842 315.95 255.567 316.236 256.042 316.806C256.519 317.377 256.762 318.23 256.773 319.367V325.295H254.319V319.426C254.319 318.906 254.205 318.531 253.979 318.299C253.752 318.061 253.375 317.943 252.849 317.943C252.157 317.943 251.639 318.237 251.294 318.825V325.295H248.839V316.12H251.149ZM261.582 313.863V316.12H263.153V317.918H261.582V322.496C261.582 322.835 261.647 323.078 261.777 323.225C261.907 323.372 262.157 323.446 262.525 323.446C262.797 323.446 263.038 323.426 263.247 323.387V325.244C262.765 325.391 262.27 325.464 261.76 325.464C260.039 325.464 259.161 324.596 259.127 322.861V317.918H257.785V316.12H259.127V313.863H261.582ZM263.884 320.622C263.884 319.712 264.059 318.901 264.411 318.189C264.762 317.476 265.266 316.925 265.923 316.535C266.586 316.145 267.353 315.95 268.225 315.95C269.466 315.95 270.476 316.328 271.258 317.085C272.045 317.844 272.484 318.873 272.575 320.173L272.592 320.801C272.592 322.207 272.197 323.339 271.41 324.193C270.623 325.041 269.568 325.464 268.243 325.464C266.916 325.464 265.858 325.041 265.065 324.193C264.277 323.344 263.884 322.191 263.884 320.733V320.622ZM266.339 320.801C266.339 321.67 266.503 322.338 266.832 322.802C267.16 323.26 267.631 323.489 268.243 323.489C268.837 323.489 269.301 323.263 269.636 322.81C269.969 322.352 270.136 321.622 270.136 320.622C270.136 319.768 269.969 319.107 269.636 318.638C269.301 318.169 268.831 317.934 268.225 317.934C267.624 317.934 267.16 318.169 266.832 318.638C266.503 319.101 266.339 319.823 266.339 320.801ZM279.269 318.417C278.935 318.372 278.64 318.349 278.386 318.349C277.457 318.349 276.848 318.663 276.559 319.291V325.295H274.103V316.12H276.422L276.491 317.214C276.983 316.371 277.666 315.95 278.538 315.95C278.81 315.95 279.064 315.986 279.303 316.06L279.269 318.417Z" fill="black"/>
<path d="M134.59 379.029H129.697V384.075H127.148V371.728H135.202V373.788H129.697V376.977H134.59V379.029ZM135.95 379.402C135.95 378.492 136.125 377.681 136.476 376.969C136.827 376.256 137.331 375.705 137.988 375.315C138.651 374.925 139.418 374.73 140.291 374.73C141.531 374.73 142.542 375.108 143.323 375.866C144.111 376.625 144.55 377.653 144.64 378.953L144.657 379.581C144.657 380.988 144.264 382.119 143.476 382.973C142.689 383.821 141.633 384.245 140.308 384.245C138.982 384.245 137.923 383.821 137.13 382.973C136.343 382.125 135.95 380.972 135.95 379.513V379.402ZM138.405 379.581C138.405 380.451 138.569 381.119 138.897 381.582C139.226 382.04 139.696 382.269 140.308 382.269C140.902 382.269 141.367 382.043 141.701 381.59C142.035 381.132 142.202 380.403 142.202 379.402C142.202 378.548 142.035 377.887 141.701 377.418C141.367 376.949 140.897 376.714 140.291 376.714C139.69 376.714 139.226 376.949 138.897 377.418C138.569 377.882 138.405 378.603 138.405 379.581ZM148.76 384.075H146.297V371.05H148.76V384.075ZM153.382 384.075H150.918V371.05H153.382V384.075ZM155.03 379.402C155.03 378.492 155.206 377.681 155.557 376.969C155.908 376.256 156.412 375.705 157.069 375.315C157.732 374.925 158.499 374.73 159.371 374.73C160.612 374.73 161.622 375.108 162.404 375.866C163.191 376.625 163.63 377.653 163.721 378.953L163.738 379.581C163.738 380.988 163.343 382.119 162.557 382.973C161.77 383.821 160.714 384.245 159.389 384.245C158.063 384.245 157.004 383.821 156.211 382.973C155.424 382.125 155.03 380.972 155.03 379.513V379.402ZM157.485 379.581C157.485 380.451 157.649 381.119 157.978 381.582C158.306 382.04 158.776 382.269 159.389 382.269C159.983 382.269 160.447 382.043 160.782 381.59C161.115 381.132 161.282 380.403 161.282 379.402C161.282 378.548 161.115 377.887 160.782 377.418C160.447 376.949 159.978 376.714 159.371 376.714C158.771 376.714 158.306 376.949 157.978 377.418C157.649 377.882 157.485 378.603 157.485 379.581ZM173.245 380.742L174.45 374.9H176.821L174.476 384.075H172.42L170.679 378.3L168.936 384.075H166.89L164.545 374.9H166.916L168.113 380.734L169.794 374.9H171.57L173.245 380.742Z" fill="white"/>
<path d="M306.32 381.67C307.577 381.67 308.595 380.653 308.595 379.399C308.595 378.145 307.577 377.128 306.32 377.128C305.063 377.128 304.045 378.145 304.045 379.399C304.045 380.653 305.063 381.67 306.32 381.67Z" fill="black"/>
<path d="M315.426 381.67C316.682 381.67 317.701 380.653 317.701 379.399C317.701 378.145 316.682 377.128 315.426 377.128C314.169 377.128 313.15 378.145 313.15 379.399C313.15 380.653 314.169 381.67 315.426 381.67Z" fill="black"/>
<path d="M324.523 381.67C325.779 381.67 326.798 380.653 326.798 379.399C326.798 378.145 325.779 377.128 324.523 377.128C323.267 377.128 322.248 378.145 322.248 379.399C322.248 380.653 323.267 381.67 324.523 381.67Z" fill="black"/>
<path d="M157.127 339.935H152.742L151.757 342.661H150.334L154.331 332.215H155.538L159.543 342.661H158.126L157.127 339.935ZM153.159 338.801H156.717L154.935 333.915L153.159 338.801ZM162.187 342.661H160.858V331.64H162.187V342.661ZM165.652 335.838C166.242 335.115 167.009 334.754 167.953 334.754C169.596 334.754 170.426 335.68 170.439 337.532V342.661H169.11V337.523C169.105 336.964 168.975 336.551 168.722 336.282C168.472 336.015 168.082 335.88 167.55 335.88C167.119 335.88 166.74 335.995 166.415 336.225C166.088 336.455 165.834 336.757 165.652 337.129V342.661H164.323V331.64H165.652V335.838ZM177.233 342.661C177.156 342.508 177.093 342.235 177.045 341.844C176.427 342.485 175.69 342.804 174.832 342.804C174.065 342.804 173.434 342.589 172.941 342.159C172.452 341.724 172.209 341.173 172.209 340.509C172.209 339.701 172.515 339.073 173.128 338.628C173.746 338.179 174.614 337.955 175.73 337.955H177.024V337.344C177.024 336.881 176.885 336.512 176.608 336.24C176.329 335.962 175.92 335.823 175.378 335.823C174.904 335.823 174.506 335.943 174.185 336.182C173.864 336.421 173.703 336.711 173.703 337.051H172.366C172.366 336.663 172.503 336.289 172.776 335.931C173.054 335.568 173.428 335.28 173.898 335.069C174.371 334.86 174.892 334.754 175.457 334.754C176.353 334.754 177.056 334.979 177.563 335.429C178.072 335.874 178.335 336.488 178.354 337.272V340.846C178.354 341.559 178.445 342.126 178.627 342.547V342.661H177.233ZM175.026 341.65C175.443 341.65 175.838 341.542 176.212 341.327C176.586 341.112 176.857 340.831 177.024 340.488V338.894H175.981C174.353 338.894 173.538 339.37 173.538 340.322C173.538 340.739 173.677 341.064 173.955 341.297C174.232 341.533 174.589 341.65 175.026 341.65ZM181.689 334.897L181.725 335.759C182.296 335.089 183.065 334.754 184.033 334.754C185.121 334.754 185.861 335.171 186.254 336.003C186.513 335.629 186.849 335.329 187.261 335.099C187.677 334.869 188.168 334.754 188.734 334.754C190.441 334.754 191.308 335.656 191.336 337.459V342.661H190.006V337.538C190.006 336.984 189.88 336.57 189.626 336.297C189.371 336.019 188.944 335.88 188.346 335.88C187.852 335.88 187.443 336.029 187.116 336.325C186.791 336.618 186.601 337.012 186.549 337.51V342.661H185.212V337.574C185.212 336.445 184.658 335.88 183.551 335.88C182.68 335.88 182.083 336.252 181.762 336.993V342.661H180.431V334.897H181.689ZM193.025 338.715C193.025 337.523 193.309 336.567 193.874 335.844C194.44 335.118 195.18 334.754 196.095 334.754C197.005 334.754 197.727 335.065 198.258 335.687V331.64H199.588V342.661H198.366L198.302 341.829C197.769 342.48 197.029 342.804 196.08 342.804C195.18 342.804 194.444 342.437 193.874 341.7C193.309 340.963 193.025 340.002 193.025 338.815V338.715ZM194.355 338.866C194.355 339.746 194.537 340.434 194.901 340.933C195.265 341.43 195.769 341.678 196.411 341.678C197.254 341.678 197.87 341.3 198.258 340.545V336.978C197.86 336.246 197.25 335.88 196.426 335.88C195.774 335.88 195.265 336.131 194.901 336.634C194.537 337.136 194.355 337.88 194.355 338.866ZM206.461 341.893C205.943 342.501 205.184 342.804 204.181 342.804C203.353 342.804 202.72 342.565 202.284 342.087C201.853 341.605 201.635 340.891 201.631 339.949V334.897H202.96V339.913C202.96 341.09 203.439 341.678 204.397 341.678C205.414 341.678 206.089 341.3 206.424 340.545V334.897H207.755V342.661H206.489L206.461 341.893ZM211.226 342.661H209.896V331.64H211.226V342.661ZM214.806 342.661H213.476V334.897H214.806V342.661ZM213.369 332.838C213.369 332.623 213.433 332.442 213.563 332.293C213.697 332.145 213.894 332.07 214.152 332.07C214.41 332.07 214.607 332.145 214.741 332.293C214.876 332.442 214.943 332.623 214.943 332.838C214.943 333.054 214.876 333.233 214.741 333.377C214.607 333.52 214.41 333.592 214.152 333.592C213.894 333.592 213.697 333.52 213.563 333.377C213.433 333.233 213.369 333.054 213.369 332.838ZM218.387 342.661H217.056V331.64H218.387V342.661ZM221.965 342.661H220.636V331.64H221.965V342.661ZM228.902 342.661C228.826 342.508 228.764 342.235 228.716 341.844C228.097 342.485 227.359 342.804 226.501 342.804C225.735 342.804 225.105 342.589 224.611 342.159C224.123 341.724 223.878 341.173 223.878 340.509C223.878 339.701 224.184 339.073 224.798 338.628C225.415 338.179 226.284 337.955 227.4 337.955H228.694V337.344C228.694 336.881 228.555 336.512 228.277 336.24C227.998 335.962 227.589 335.823 227.048 335.823C226.573 335.823 226.176 335.943 225.854 336.182C225.533 336.421 225.373 336.711 225.373 337.051H224.036C224.036 336.663 224.172 336.289 224.445 335.931C224.724 335.568 225.097 335.28 225.567 335.069C226.042 334.86 226.561 334.754 227.127 334.754C228.023 334.754 228.725 334.979 229.234 335.429C229.741 335.874 230.005 336.488 230.023 337.272V340.846C230.023 341.559 230.114 342.126 230.296 342.547V342.661H228.902ZM226.696 341.65C227.112 341.65 227.507 341.542 227.882 341.327C228.255 341.112 228.526 340.831 228.694 340.488V338.894H227.652C226.022 338.894 225.208 339.37 225.208 340.322C225.208 340.739 225.347 341.064 225.624 341.297C225.903 341.533 226.26 341.65 226.696 341.65ZM233.439 335.838C234.028 335.115 234.795 334.754 235.738 334.754C237.383 334.754 238.211 335.68 238.226 337.532V342.661H236.896V337.523C236.892 336.964 236.762 336.551 236.508 336.282C236.259 336.015 235.868 335.88 235.337 335.88C234.904 335.88 234.526 335.995 234.2 336.225C233.874 336.455 233.621 336.757 233.439 337.129V342.661H232.108V331.64H233.439V335.838Z" fill="#8E8E8E"/>
<path d="M324.118 504.975H68.4956C64.4303 504.975 61.1348 508.265 61.1348 512.323V604.501C61.1348 608.558 64.4303 611.848 68.4956 611.848H324.118C328.183 611.848 331.479 608.558 331.479 604.501V512.323C331.479 508.265 328.183 504.975 324.118 504.975Z" stroke="#58595A" stroke-width="3"/>
<path d="M185.601 417.473H67.8276C63.7624 417.473 60.4668 420.762 60.4668 424.82C60.4668 428.878 63.7624 432.168 67.8276 432.168H185.601C189.667 432.168 192.962 428.878 192.962 424.82C192.962 420.762 189.667 417.473 185.601 417.473Z" fill="#ECEEF0"/>
<path d="M134.744 438.847H67.8276C63.7624 438.847 60.4668 442.137 60.4668 446.195C60.4668 450.253 63.7624 453.542 67.8276 453.542H134.744C138.81 453.542 142.105 450.253 142.105 446.195C142.105 442.137 138.81 438.847 134.744 438.847Z" fill="#ECEEF0"/>
<path d="M268.578 460.222H67.8276C63.7624 460.222 60.4668 463.511 60.4668 467.569C60.4668 471.627 63.7624 474.917 67.8276 474.917H268.578C272.643 474.917 275.939 471.627 275.939 467.569C275.939 463.511 272.643 460.222 268.578 460.222Z" fill="#ECEEF0"/>
<path d="M268.578 481.597H67.8276C63.7624 481.597 60.4668 484.886 60.4668 488.944C60.4668 493.002 63.7624 496.292 67.8276 496.292H268.578C272.643 496.292 275.939 493.002 275.939 488.944C275.939 484.886 272.643 481.597 268.578 481.597Z" fill="#ECEEF0"/>
<path d="M342.854 484.268H87.2316C82.0576 484.268 77.8633 488.455 77.8633 493.619V585.797C77.8633 590.962 82.0576 595.149 87.2316 595.149H342.854C348.028 595.149 352.222 590.962 352.222 585.797V493.619C352.222 488.455 348.028 484.268 342.854 484.268Z" fill="#FEBB00"/>
<path d="M227.088 504.307H109.314C105.249 504.307 101.953 507.596 101.953 511.654C101.953 515.712 105.249 519.002 109.314 519.002H227.088C231.153 519.002 234.448 515.712 234.448 511.654C234.448 507.596 231.153 504.307 227.088 504.307Z" fill="white"/>
<path d="M321.44 531.025H107.306C104.35 531.025 101.953 533.417 101.953 536.369C101.953 539.32 104.35 541.712 107.306 541.712H321.44C324.397 541.712 326.794 539.32 326.794 536.369C326.794 533.417 324.397 531.025 321.44 531.025Z" fill="white"/>
<path d="M251.847 548.392H107.306C104.35 548.392 101.953 550.784 101.953 553.736C101.953 556.687 104.35 559.079 107.306 559.079H251.847C254.803 559.079 257.2 556.687 257.2 553.736C257.2 550.784 254.803 548.392 251.847 548.392Z" fill="white"/>
<path d="M282.629 565.759H107.306C104.35 565.759 101.953 568.151 101.953 571.102C101.953 574.054 104.35 576.446 107.306 576.446H282.629C285.585 576.446 287.982 574.054 287.982 571.102C287.982 568.151 285.585 565.759 282.629 565.759Z" fill="white"/>
<path d="M256 242.5C256 275.361 229.361 302 196.5 302C163.639 302 137 275.361 137 242.5C137 209.639 163.639 183 196.5 183C229.361 183 256 209.639 256 242.5Z" fill="#FEBB00" stroke="white" stroke-width="2"/>
<path d="M210.255 240.595C215.812 236.409 219.412 229.759 219.412 222.282C219.412 209.649 209.134 199.37 196.5 199.37C183.866 199.37 173.588 209.649 173.588 222.282C173.588 229.759 177.187 236.409 182.745 240.595C167.865 246.18 157.246 260.551 157.246 277.358H164.336C164.336 259.623 178.765 245.195 196.501 245.195C214.235 245.195 228.664 259.623 228.664 277.358H235.754C235.753 260.551 225.135 246.18 210.255 240.595V240.595ZM180.678 222.282C180.678 213.557 187.775 206.46 196.5 206.46C205.224 206.46 212.322 213.557 212.322 222.282C212.322 231.007 205.224 238.105 196.5 238.105C187.775 238.105 180.678 231.007 180.678 222.282V222.282Z" fill="white"/>
</g>
<path d="M196.367 735.199C304.818 735.199 392.734 728.886 392.734 721.099C392.734 713.313 304.818 707 196.367 707C87.9166 707 0 713.313 0 721.099C0 728.886 87.9166 735.199 196.367 735.199Z" fill="#151439"/>
<defs>
<clipPath id="clip0">
<rect width="339.938" height="690.667" fill="white" transform="translate(25)"/>
</clipPath>
<clipPath id="clip1">
<rect width="25.43" height="25.43" fill="white" transform="translate(307 54)"/>
</clipPath>
</defs>
</svg>
