<svg width='580' id="ehEyqHni7Lw1" xmlns="http://www.w3.org/2000/svg" xmlns:xlink="http://www.w3.org/1999/xlink" viewBox="0 0 825 510" shape-rendering="geometricPrecision" text-rendering="geometricPrecision"><style><![CDATA[#ehEyqHni7Lw3 {animation: ehEyqHni7Lw3_c_o 3000ms linear infinite normal forwards}@keyframes ehEyqHni7Lw3_c_o { 0% {opacity: 1;animation-timing-function: cubic-bezier(0.420000,0,0.580000,1)} 50% {opacity: 0;animation-timing-function: cubic-bezier(0.420000,0,0.580000,1)} 100% {opacity: 1}} #ehEyqHni7Lw33 {animation: ehEyqHni7Lw33_c_o 3000ms linear infinite normal forwards}@keyframes ehEyqHni7Lw33_c_o { 0% {opacity: 0;animation-timing-function: cubic-bezier(0.420000,0,0.580000,1)} 50% {opacity: 1;animation-timing-function: cubic-bezier(0.420000,0,0.580000,1)} 100% {opacity: 0}}]]></style><path id="ehEyqHni7Lw2" d="M804.999000,0L19.644800,0C8.795260,0,0,8.795260,0,19.644800L0,490.246000C0,501.096000,8.795260,509.891000,19.644800,509.891000L804.999000,509.891000C815.848000,509.891000,824.644000,501.096000,824.644000,490.246000L824.644000,19.644800C824.644000,8.795260,815.848000,0,804.999000,0Z" fill="rgb(255,199,41)" stroke="none" stroke-width="1"/><g id="ehEyqHni7Lw3"><path id="ehEyqHni7Lw4" d="M723.362000,68.101900C723.362000,63.279900,719.454000,59.370800,714.632000,59.370800C709.810000,59.370800,705.900000,63.279900,705.900000,68.101900L705.900000,214.783000C705.900000,219.605000,709.810000,223.514000,714.632000,223.514000C719.454000,223.514000,723.362000,219.605000,723.362000,214.783000L723.362000,68.101900Z" fill="rgb(255,167,44)" stroke="none" stroke-width="1"/><path id="ehEyqHni7Lw5" d="M517.314000,71.157500C517.314000,66.335600,513.405000,62.426500,508.583000,62.426500C503.761000,62.426500,499.852000,66.335600,499.852000,71.157500L499.852000,217.838000C499.852000,222.660000,503.761000,226.570000,508.583000,226.570000C513.405000,226.570000,517.314000,222.660000,517.314000,217.838000L517.314000,71.157500Z" fill="rgb(255,167,44)" stroke="none" stroke-width="1"/><path id="ehEyqHni7Lw6" d="M629.070000,8.731010C629.070000,3.909000,625.161000,0,620.339000,0C615.517000,0,611.607000,3.909000,611.607000,8.731010L611.607000,90.802500C611.607000,95.624500,615.517000,99.533500,620.339000,99.533500C625.161000,99.533500,629.070000,95.624500,629.070000,90.802500L629.070000,8.731010Z" fill="rgb(255,167,44)" stroke="none" stroke-width="1"/><path id="ehEyqHni7Lw7" d="M393.333000,27.939300C393.333000,23.117200,389.424000,19.208300,384.602000,19.208300C379.780000,19.208300,375.871000,23.117200,375.871000,27.939300L375.871000,174.621000C375.871000,179.443000,379.780000,183.351000,384.602000,183.351000C389.424000,183.351000,393.333000,179.443000,393.333000,174.621000L393.333000,27.939300Z" fill="rgb(255,167,44)" stroke="none" stroke-width="1"/><path id="ehEyqHni7Lw8" d="M316.937000,41.035900C316.937000,36.213900,313.028000,32.304900,308.206000,32.304900C303.384000,32.304900,299.475000,36.213900,299.475000,41.035900L299.475000,187.717000C299.475000,192.539000,303.384000,196.448000,308.206000,196.448000C313.028000,196.448000,316.937000,192.539000,316.937000,187.717000L316.937000,41.035900Z" fill="rgb(255,167,44)" stroke="none" stroke-width="1"/><path id="ehEyqHni7Lw9" d="M240.540000,18.335300C240.540000,13.513200,236.631000,9.604250,231.809000,9.604250C226.987000,9.604250,223.078000,13.513200,223.078000,18.335300L223.078000,165.016000C223.078000,169.838000,226.987000,173.747000,231.809000,173.747000C236.631000,173.747000,240.540000,169.838000,240.540000,165.016000L240.540000,18.335300Z" fill="rgb(255,167,44)" stroke="none" stroke-width="1"/><path id="ehEyqHni7Lw10" d="M770.513000,26.193200C770.513000,21.371200,766.604000,17.462200,761.782000,17.462200C756.960000,17.462200,753.051000,21.371200,753.051000,26.193200L753.051000,172.874000C753.051000,177.696000,756.960000,181.605000,761.782000,181.605000C766.604000,181.605000,770.513000,177.696000,770.513000,172.874000L770.513000,26.193200Z" fill="rgb(255,167,44)" stroke="none" stroke-width="1"/><path id="ehEyqHni7Lw11" d="M581.921000,27.939300C581.921000,23.117200,578.012000,19.208300,573.190000,19.208300C568.368000,19.208300,564.459000,23.117200,564.459000,27.939300L564.459000,174.621000C564.459000,179.443000,568.368000,183.351000,573.190000,183.351000C578.012000,183.351000,581.921000,179.443000,581.921000,174.621000L581.921000,27.939300Z" fill="rgb(255,167,44)" stroke="none" stroke-width="1"/><path id="ehEyqHni7Lw12" d="M658.754000,0L676.215000,0L676.215000,155.412000C676.215000,160.234000,672.308000,164.143000,667.484000,164.143000C662.660000,164.143000,658.754000,160.234000,658.754000,155.412000L658.754000,0Z" fill="rgb(255,167,44)" stroke="none" stroke-width="1"/><path id="ehEyqHni7Lw13" d="M456.195000,0L473.658000,0L473.658000,155.412000C473.658000,160.234000,469.750000,164.143000,464.926000,164.143000C460.102000,164.143000,456.195000,160.234000,456.195000,155.412000L456.195000,0Z" fill="rgb(255,167,44)" stroke="none" stroke-width="1"/><path id="ehEyqHni7Lw14" d="M770.513000,212.164000C770.513000,207.342000,766.604000,203.433000,761.782000,203.433000C756.960000,203.433000,753.051000,207.342000,753.051000,212.164000L753.051000,296.418000C753.051000,301.240000,756.960000,305.149000,761.782000,305.149000C766.604000,305.149000,770.513000,301.240000,770.513000,296.418000L770.513000,212.164000Z" fill="rgb(255,167,44)" stroke="none" stroke-width="1"/><path id="ehEyqHni7Lw15" d="M564.460000,213.910000C564.460000,209.087000,560.551000,205.179000,555.729000,205.179000C550.907000,205.179000,546.998000,209.087000,546.998000,213.910000L546.998000,298.164000C546.998000,302.986000,550.907000,306.895000,555.729000,306.895000C560.551000,306.895000,564.460000,302.986000,564.460000,298.164000L564.460000,213.910000Z" fill="rgb(255,167,44)" stroke="none" stroke-width="1"/><path id="ehEyqHni7Lw16" d="M676.215000,232.244000C676.215000,227.422000,672.306000,223.514000,667.484000,223.514000C662.662000,223.514000,658.754000,227.422000,658.754000,232.244000L658.754000,316.499000C658.754000,321.321000,662.662000,325.230000,667.484000,325.230000C672.306000,325.230000,676.215000,321.321000,676.215000,316.499000L676.215000,232.244000Z" fill="rgb(255,167,44)" stroke="none" stroke-width="1"/><path id="ehEyqHni7Lw17" d="M450.085000,235.300000C450.085000,230.479000,446.176000,226.569000,441.354000,226.569000C436.532000,226.569000,432.623000,230.479000,432.623000,235.300000L432.623000,319.554000C432.623000,324.376000,436.532000,328.286000,441.354000,328.286000C446.176000,328.286000,450.085000,324.376000,450.085000,319.554000L450.085000,235.300000Z" fill="rgb(255,167,44)" stroke="none" stroke-width="1"/><path id="ehEyqHni7Lw18" d="M770.513000,376.306000C770.513000,371.484000,766.604000,367.575000,761.782000,367.575000C756.960000,367.575000,753.051000,371.484000,753.051000,376.306000L753.051000,460.560000C753.051000,465.382000,756.960000,469.291000,761.782000,469.291000C766.604000,469.291000,770.513000,465.382000,770.513000,460.560000L770.513000,376.306000Z" fill="rgb(255,167,44)" stroke="none" stroke-width="1"/><path id="ehEyqHni7Lw19" d="M581.921000,378.052000C581.921000,373.230000,578.012000,369.321000,573.190000,369.321000C568.368000,369.321000,564.459000,373.230000,564.459000,378.052000L564.459000,462.307000C564.459000,467.129000,568.368000,471.038000,573.190000,471.038000C578.012000,471.038000,581.921000,467.129000,581.921000,462.307000L581.921000,378.052000Z" fill="rgb(255,167,44)" stroke="none" stroke-width="1"/><path id="ehEyqHni7Lw20" d="M676.215000,401.626000C676.215000,396.804000,672.306000,392.895000,667.484000,392.895000C662.662000,392.895000,658.754000,396.804000,658.754000,401.626000L658.754000,461.434000C658.754000,466.256000,662.662000,470.165000,667.484000,470.165000C672.306000,470.165000,676.215000,466.256000,676.215000,461.434000L676.215000,401.626000Z" fill="rgb(255,167,44)" stroke="none" stroke-width="1"/><path id="ehEyqHni7Lw21" d="M333.962000,230.936000C333.962000,226.114000,330.053000,222.205000,325.231000,222.205000C320.409000,222.205000,316.500000,226.114000,316.500000,230.936000L316.500000,290.743000C316.500000,295.565000,320.409000,299.474000,325.231000,299.474000C330.053000,299.474000,333.962000,295.565000,333.962000,290.743000L333.962000,230.936000Z" fill="rgb(255,167,44)" stroke="none" stroke-width="1"/><path id="ehEyqHni7Lw22" d="M473.658000,378.052000C473.658000,373.230000,469.748000,369.321000,464.926000,369.321000C460.104000,369.321000,456.195000,373.230000,456.195000,378.052000L456.195000,462.307000C456.195000,467.129000,460.104000,471.038000,464.926000,471.038000C469.748000,471.038000,473.658000,467.129000,473.658000,462.307000L473.658000,378.052000Z" fill="rgb(255,167,44)" stroke="none" stroke-width="1"/><path id="ehEyqHni7Lw23" d="M176.804000,108.265000C176.804000,103.443000,172.895000,99.533700,168.073000,99.533700C163.251000,99.533700,159.342000,103.443000,159.342000,108.265000L159.342000,254.946000C159.342000,259.768000,163.251000,263.677000,168.073000,263.677000C172.895000,263.677000,176.804000,259.768000,176.804000,254.946000L176.804000,108.265000Z" fill="rgb(255,167,44)" stroke="none" stroke-width="1"/><path id="ehEyqHni7Lw24" d="M176.804000,354.479000C176.804000,349.657000,172.895000,345.748000,168.073000,345.748000C163.251000,345.748000,159.342000,349.657000,159.342000,354.479000L159.342000,469.729000C159.342000,474.551000,163.251000,478.460000,168.073000,478.460000C172.895000,478.460000,176.804000,474.551000,176.804000,469.729000L176.804000,354.479000Z" fill="rgb(255,167,44)" stroke="none" stroke-width="1"/><path id="ehEyqHni7Lw25" d="M70.283200,0L87.745300,0L87.745300,155.412000C87.745300,160.234000,83.836400,164.143000,79.014200,164.143000C74.192100,164.143000,70.283200,160.234000,70.283200,155.412000L70.283200,0Z" fill="rgb(255,167,44)" stroke="none" stroke-width="1"/><path id="ehEyqHni7Lw26" d="M87.745300,205.179000C87.745300,200.357000,83.836200,196.448000,79.014200,196.448000C74.192300,196.448000,70.283200,200.357000,70.283200,205.179000L70.283200,268.915000C70.283200,273.737000,74.192300,277.646000,79.014200,277.646000C83.836200,277.646000,87.745300,273.737000,87.745300,268.915000L87.745300,205.179000Z" fill="rgb(255,167,44)" stroke="none" stroke-width="1"/><path id="ehEyqHni7Lw27" d="M723.362000,253.199000C723.362000,248.377000,719.454000,244.469000,714.632000,244.469000C709.810000,244.469000,705.900000,248.377000,705.900000,253.199000L705.900000,384.165000C705.900000,388.987000,709.810000,392.895000,714.632000,392.895000C719.454000,392.895000,723.362000,388.987000,723.362000,384.165000L723.362000,253.199000Z" fill="rgb(255,167,44)" stroke="none" stroke-width="1"/><path id="ehEyqHni7Lw28" d="M517.314000,272.408000C517.314000,267.586000,513.405000,263.677000,508.583000,263.677000C503.761000,263.677000,499.852000,267.586000,499.852000,272.408000L499.852000,403.373000C499.852000,408.195000,503.761000,412.104000,508.583000,412.104000C513.405000,412.104000,517.314000,408.195000,517.314000,403.373000L517.314000,272.408000Z" fill="rgb(255,167,44)" stroke="none" stroke-width="1"/><path id="ehEyqHni7Lw29" d="M629.070000,254.073000C629.070000,249.251000,625.161000,245.342000,620.339000,245.342000C615.517000,245.342000,611.607000,249.251000,611.607000,254.073000L611.607000,359.718000C611.607000,364.540000,615.517000,368.449000,620.339000,368.449000C625.161000,368.449000,629.070000,364.540000,629.070000,359.718000L629.070000,254.073000Z" fill="rgb(255,167,44)" stroke="none" stroke-width="1"/><path id="ehEyqHni7Lw30" d="M393.333000,252.326000C393.333000,247.504000,389.424000,243.595000,384.602000,243.595000C379.780000,243.595000,375.871000,247.504000,375.871000,252.326000L375.871000,357.971000C375.871000,362.793000,379.780000,366.702000,384.602000,366.702000C389.424000,366.702000,393.333000,362.793000,393.333000,357.971000L393.333000,252.326000Z" fill="rgb(255,167,44)" stroke="none" stroke-width="1"/><path id="ehEyqHni7Lw31" d="M325.230000,333.962000C325.230000,329.140000,321.321000,325.230000,316.499000,325.230000C311.677000,325.230000,307.768000,329.140000,307.768000,333.962000L307.768000,439.606000C307.768000,444.429000,311.677000,448.337000,316.499000,448.337000C321.321000,448.337000,325.230000,444.429000,325.230000,439.606000L325.230000,333.962000Z" fill="rgb(255,167,44)" stroke="none" stroke-width="1"/><path id="ehEyqHni7Lw32" d="M240.540000,242.722000C240.540000,237.900000,236.631000,233.991000,231.809000,233.991000C226.987000,233.991000,223.078000,237.900000,223.078000,242.722000L223.078000,420.835000C223.078000,425.657000,226.987000,429.565000,231.809000,429.565000C236.631000,429.565000,240.540000,425.657000,240.540000,420.835000L240.540000,242.722000Z" fill="rgb(255,167,44)" stroke="none" stroke-width="1"/></g><g id="ehEyqHni7Lw33" opacity="0"><path id="ehEyqHni7Lw34" d="M40.598700,160.651000C40.598700,155.829000,36.689700,151.919000,31.867800,151.919000C27.045700,151.919000,23.136700,155.829000,23.136700,160.651000L23.136700,307.331000C23.136700,312.153000,27.045700,316.062000,31.867800,316.062000C36.689700,316.062000,40.598700,312.153000,40.598700,307.331000L40.598700,160.651000Z" fill="rgb(250,189,39)" stroke="none" stroke-width="1"/><path id="ehEyqHni7Lw35" d="M287.250000,420.835000C287.250000,416.013000,283.342000,412.104000,278.520000,412.104000C273.698000,412.104000,269.789000,416.013000,269.789000,420.835000L269.789000,487.190000C269.789000,492.012000,273.698000,495.921000,278.520000,495.921000C283.342000,495.921000,287.250000,492.012000,287.250000,487.190000L287.250000,420.835000Z" fill="rgb(250,189,39)" stroke="none" stroke-width="1"/><path id="ehEyqHni7Lw36" d="M439.171000,66.355700C439.171000,61.533700,435.262000,57.624800,430.440000,57.624800C425.618000,57.624800,421.709000,61.533700,421.709000,66.355700L421.709000,132.712000C421.709000,137.534000,425.618000,141.443000,430.440000,141.443000C435.262000,141.443000,439.171000,137.534000,439.171000,132.712000L439.171000,66.355700Z" fill="rgb(250,189,39)" stroke="none" stroke-width="1"/><path id="ehEyqHni7Lw37" d="M546.999000,427.383000C546.999000,422.561000,543.090000,418.651000,538.268000,418.651000C533.446000,418.651000,529.537000,422.561000,529.537000,427.383000L529.537000,493.738000C529.537000,498.560000,533.446000,502.469000,538.268000,502.469000C543.090000,502.469000,546.999000,498.560000,546.999000,493.738000L546.999000,427.383000Z" fill="rgb(250,189,39)" stroke="none" stroke-width="1"/><path id="ehEyqHni7Lw38" d="M803.688000,192.082000C803.688000,187.260000,799.779000,183.352000,794.957000,183.352000C790.135000,183.352000,786.227000,187.260000,786.227000,192.082000L786.227000,393.769000C786.227000,398.591000,790.135000,402.500000,794.957000,402.500000C799.779000,402.500000,803.688000,398.591000,803.688000,393.769000L803.688000,192.082000Z" fill="rgb(250,189,39)" stroke="none" stroke-width="1"/><path id="ehEyqHni7Lw39" d="M803.688000,38.853100C803.688000,34.031100,799.779000,30.122100,794.957000,30.122100C790.135000,30.122100,786.227000,34.031100,786.227000,38.853100L786.227000,105.646000C786.227000,110.467000,790.135000,114.377000,794.957000,114.377000C799.779000,114.377000,803.688000,110.467000,803.688000,105.646000L803.688000,38.853100Z" fill="rgb(250,189,39)" stroke="none" stroke-width="1"/><path id="ehEyqHni7Lw40" d="M130.529000,41.035900C130.529000,36.213900,126.620000,32.304900,121.798000,32.304900C116.976000,32.304900,113.066000,36.213900,113.066000,41.035900L113.066000,187.717000C113.066000,192.539000,116.976000,196.448000,121.798000,196.448000C126.620000,196.448000,130.529000,192.539000,130.529000,187.717000L130.529000,41.035900Z" fill="rgb(250,189,39)" stroke="none" stroke-width="1"/><path id="ehEyqHni7Lw41" d="M278.519000,169.818000C278.519000,164.996000,274.610000,161.088000,269.788000,161.088000C264.966000,161.088000,261.057000,164.996000,261.057000,169.818000L261.057000,316.500000C261.057000,321.322000,264.966000,325.231000,269.788000,325.231000C274.610000,325.231000,278.519000,321.322000,278.519000,316.500000L278.519000,169.818000Z" fill="rgb(250,189,39)" stroke="none" stroke-width="1"/><path id="ehEyqHni7Lw42" d="M426.509000,298.601000C426.509000,293.778000,422.600000,289.870000,417.778000,289.870000C412.956000,289.870000,409.047000,293.778000,409.047000,298.601000L409.047000,445.282000C409.047000,450.104000,412.956000,454.013000,417.778000,454.013000C422.600000,454.013000,426.509000,450.104000,426.509000,445.282000L426.509000,298.601000Z" fill="rgb(250,189,39)" stroke="none" stroke-width="1"/><path id="ehEyqHni7Lw43" d="M652.644000,110.011000C652.644000,105.189000,648.735000,101.280000,643.913000,101.280000C639.091000,101.280000,635.182000,105.189000,635.182000,110.011000L635.182000,256.691000C635.182000,261.513000,639.091000,265.422000,643.913000,265.422000C648.735000,265.422000,652.644000,261.513000,652.644000,256.691000L652.644000,110.011000Z" fill="rgb(250,189,39)" stroke="none" stroke-width="1"/><path id="ehEyqHni7Lw44" d="M208.671000,354.479000C208.671000,349.657000,204.762000,345.748000,199.940000,345.748000C195.118000,345.748000,191.209000,349.657000,191.209000,354.479000L191.209000,501.160000C191.209000,505.982000,195.118000,509.891000,199.940000,509.891000C204.762000,509.891000,208.671000,505.982000,208.671000,501.160000L208.671000,354.479000Z" fill="rgb(250,189,39)" stroke="none" stroke-width="1"/><path id="ehEyqHni7Lw45" d="M40.598700,375.433000C40.598700,370.611000,36.689700,366.702000,31.867800,366.702000C27.045700,366.702000,23.136700,370.611000,23.136700,375.433000L23.136700,480.642000C23.136700,485.464000,27.045700,489.373000,31.867800,489.373000C36.689700,489.373000,40.598700,485.464000,40.598700,480.642000L40.598700,375.433000Z" fill="rgb(250,189,39)" stroke="none" stroke-width="1"/></g><path id="ehEyqHni7Lw46" d="M124.414000,354.479000C124.414000,349.657000,120.505000,345.748000,115.683000,345.748000C110.861000,345.748000,106.953000,349.657000,106.953000,354.479000L106.953000,420.835000C106.953000,425.657000,110.861000,429.565000,115.683000,429.565000C120.505000,429.565000,124.414000,425.657000,124.414000,420.835000L124.414000,354.479000Z" fill="rgb(250,189,39)" stroke="none" stroke-width="1"/><path id="ehEyqHni7Lw47" d="M361.466000,110.011000C361.466000,105.189000,357.557000,101.280000,352.735000,101.280000C347.913000,101.280000,344.004000,105.189000,344.004000,110.011000L344.004000,176.366000C344.004000,181.188000,347.913000,185.098000,352.735000,185.098000C357.557000,185.098000,361.466000,181.188000,361.466000,176.366000L361.466000,110.011000Z" fill="rgb(250,189,39)" stroke="none" stroke-width="1"/><path id="ehEyqHni7Lw48" d="M87.745300,313.880000C87.745300,309.058000,83.836200,305.148000,79.014200,305.148000C74.192300,305.148000,70.283200,309.058000,70.283200,313.880000L70.283200,420.834000C70.283200,425.657000,74.192300,429.565000,79.014200,429.565000C83.836200,429.565000,87.745300,425.657000,87.745300,420.834000L87.745300,313.880000Z" fill="rgb(255,167,44)" stroke="none" stroke-width="1"/><path id="ehEyqHni7Lw49" d="M199.503000,79.452100L69.410700,79.452100C63.624400,79.452100,58.933600,84.142900,58.933600,89.929400L58.933600,220.022000C58.933600,225.808000,63.624400,230.499000,69.410700,230.499000L199.503000,230.499000C205.289000,230.499000,209.980000,225.808000,209.980000,220.022000L209.980000,89.929400C209.980000,84.142900,205.289000,79.452100,199.503000,79.452100Z" fill="rgb(21,101,207)" stroke="none" stroke-width="1"/><path id="ehEyqHni7Lw50" d="M199.503000,279.392000L69.410700,279.392000C63.624400,279.392000,58.933600,284.083000,58.933600,289.870000L58.933600,419.961000C58.933600,425.748000,63.624400,430.439000,69.410700,430.439000L199.503000,430.439000C205.289000,430.439000,209.980000,425.748000,209.980000,419.961000L209.980000,289.870000C209.980000,284.083000,205.289000,279.392000,199.503000,279.392000Z" fill="rgb(255,255,255)" stroke="none" stroke-width="1"/><path id="ehEyqHni7Lw51" d="M384.600000,279.392000L254.508000,279.392000C248.722000,279.392000,244.031000,284.083000,244.031000,289.870000L244.031000,419.961000C244.031000,425.748000,248.722000,430.439000,254.508000,430.439000L384.600000,430.439000C390.387000,430.439000,395.078000,425.748000,395.078000,419.961000L395.078000,289.870000C395.078000,284.083000,390.387000,279.392000,384.600000,279.392000Z" fill="rgb(255,255,255)" stroke="none" stroke-width="1"/><path id="ehEyqHni7Lw52" d="M569.698000,279.392000L439.606000,279.392000C433.820000,279.392000,429.129000,284.083000,429.129000,289.870000L429.129000,419.961000C429.129000,425.748000,433.820000,430.439000,439.606000,430.439000L569.698000,430.439000C575.485000,430.439000,580.175000,425.748000,580.175000,419.961000L580.175000,289.870000C580.175000,284.083000,575.485000,279.392000,569.698000,279.392000Z" fill="rgb(255,255,255)" stroke="none" stroke-width="1"/><path id="ehEyqHni7Lw53" d="M754.796000,279.392000L624.704000,279.392000C618.918000,279.392000,614.227000,284.083000,614.227000,289.870000L614.227000,419.961000C614.227000,425.748000,618.918000,430.439000,624.704000,430.439000L754.796000,430.439000C760.582000,430.439000,765.273000,425.748000,765.273000,419.961000L765.273000,289.870000C765.273000,284.083000,760.582000,279.392000,754.796000,279.392000Z" fill="rgb(255,255,255)" stroke="none" stroke-width="1"/><path id="ehEyqHni7Lw54" d="M384.600000,79.452100L254.508000,79.452100C248.722000,79.452100,244.031000,84.142900,244.031000,89.929400L244.031000,220.022000C244.031000,225.808000,248.722000,230.499000,254.508000,230.499000L384.600000,230.499000C390.387000,230.499000,395.078000,225.808000,395.078000,220.022000L395.078000,89.929400C395.078000,84.142900,390.387000,79.452100,384.600000,79.452100Z" fill="rgb(255,255,255)" stroke="none" stroke-width="1"/><path id="ehEyqHni7Lw55" d="M566.641000,79.452100L436.550000,79.452100C430.763000,79.452100,426.072000,84.142900,426.072000,89.929400L426.072000,220.022000C426.072000,225.808000,430.763000,230.499000,436.550000,230.499000L566.641000,230.499000C572.428000,230.499000,577.119000,225.808000,577.119000,220.022000L577.119000,89.929400C577.119000,84.142900,572.428000,79.452100,566.641000,79.452100Z" fill="rgb(255,255,255)" stroke="none" stroke-width="1"/><path id="ehEyqHni7Lw56" d="M749.122000,79.452100L619.029000,79.452100C613.243000,79.452100,608.553000,84.142900,608.553000,89.929400L608.553000,220.022000C608.553000,225.808000,613.243000,230.499000,619.029000,230.499000L749.122000,230.499000C754.908000,230.499000,759.598000,225.808000,759.598000,220.022000L759.598000,89.929400C759.598000,84.142900,754.908000,79.452100,749.122000,79.452100Z" fill="rgb(255,255,255)" stroke="none" stroke-width="1"/><path id="ehEyqHni7Lw57" d="M199.503000,79.452100L69.410700,79.452100C63.624400,79.452100,58.933600,84.142900,58.933600,89.929400L58.933600,220.022000C58.933600,225.808000,63.624400,230.499000,69.410700,230.499000L199.503000,230.499000C205.289000,230.499000,209.980000,225.808000,209.980000,220.022000L209.980000,89.929400C209.980000,84.142900,205.289000,79.452100,199.503000,79.452100Z" fill="rgb(255,255,255)" stroke="none" stroke-width="1"/><path id="ehEyqHni7Lw58" d="M280.890000,115.500000C280.438000,116.283000,272.325000,128.366000,268.325000,134.310000L264.510000,139.276000C264.336000,139.031000,263.837000,138.409000,263.230000,137.885000C262.472000,137.229000,261.907000,138.207000,260.726000,138.611000C259.781000,138.935000,257.849000,140.643000,257,141.456000C256.494000,141.020000,255.360000,140.162000,254.868000,140.226000C254.255000,140.305000,253.594000,140.793000,253.508000,143.567000C253.422000,146.341000,256.299000,152.100000,256.895000,153.124000C257.275000,153.778000,258.416000,155.740000,259.081000,156.557000C259.744000,157.376000,262.408000,160.310000,265.388000,163.024000C267.996000,165.397000,297.741000,182.789000,299.446000,183.773000C301.152000,184.757000,303.095000,186.314000,304.089000,186.888000C305.084000,187.463000,311.196000,191.643000,311.954000,192.298000C312.713000,192.953000,323.987000,199.679000,324.697000,200.089000C325.407000,200.499000,325.593000,199.520000,326.446000,200.013000C327.298000,200.505000,326.306000,200.584000,326.686000,201.238000C327.066000,201.892000,333.081000,204.929000,333.649000,205.257000C334.217000,205.586000,334.925000,205.343000,335.255000,205.099000C335.586000,204.855000,336.108000,205.591000,336.252000,206.326000C336.396000,207.061000,343.496000,209.857000,344.491000,210.432000C345.486000,211.006000,345.530000,209.945000,346.523000,209.867000C347.516000,209.788000,347.094000,210.848000,347.804000,211.258000C348.514000,211.668000,356.084000,214.063000,357.501000,213.164000C358.398000,212.596000,359.533000,212.599000,359.677000,213.334000C359.821000,214.069000,367.482000,214.583000,368.096000,214.503000C368.711000,214.423000,368.803000,213.607000,369.938000,213.611000C371.073000,213.614000,370.793000,214.756000,371.784000,214.677000C372.777000,214.599000,382.651000,212.263000,383.784000,211.614000C384.917000,210.965000,387.358000,205.424000,388.577000,202.001000C389.796000,198.577000,383.395000,192.927000,381.025000,191.125000C378.656000,189.322000,365.854000,177.369000,363.624000,174.996000C361.395000,172.623000,358.634000,166.902000,352.034000,157.662000C345.433000,148.421000,334.351000,127.253000,333.638000,125.537000C332.923000,123.821000,329.401000,116.140000,328.076000,115.810000C326.750000,115.479000,324.722000,116.697000,323.305000,117.183000C321.887000,117.668000,320.660000,118.479000,320.098000,120.110000C319.649000,121.414000,319.415000,123.262000,319.355000,124.024000C315.558000,124.801000,307.162000,126.108000,303.945000,125.119000C299.922000,123.882000,297.688000,120.203000,297.620000,113.431000C297.552000,106.658000,293.931000,97.834500,292.510000,97.014100C291.090000,96.193800,288.730000,97.655200,288.166000,98.632600C287.601000,99.610000,287.481000,106.709000,286.824000,107.849000C286.297000,108.762000,283.435000,113.061000,282.071000,115.096000C281.866000,114.905000,281.342000,114.718000,280.890000,115.500000Z" fill="rgb(19,65,199)" stroke="none" stroke-width="1"/><path id="ehEyqHni7Lw59" d="M290.190000,141.069000C288.945000,141.914000,283.278000,143.087000,280.600000,143.568000L267.996000,134.554000C269.344000,132.219000,272.993000,126.883000,273.971000,125.189000C275.194000,123.071000,280.326000,116.478000,280.985000,115.337000C281.643000,114.198000,281.265000,114.196000,282.032000,117.462000C282.799000,120.728000,291.687000,135.851000,292.353000,137.323000C293.020000,138.793000,291.747000,140.013000,290.190000,141.069000Z" fill="rgb(22,146,234)" stroke="none" stroke-width="1"/><path id="ehEyqHni7Lw60" d="M368.375000,212.709000C373.930000,213.081000,379.300000,212.901000,383.499000,211.355000C384.498000,210.987000,384.355000,209.454000,383.356000,209.340000C379.788000,208.933000,374.481000,208.274000,372.143000,208.151000C368.649000,207.968000,355.386000,201.735000,350.651000,199.436000C342.513000,195.483000,336.016000,190.335000,332.462000,188.282000C325.214000,184.098000,318.732000,177.934000,316.158000,175.829000C313.586000,173.722000,305.788000,164.585000,302.828000,161.182000C297.931000,155.552000,282.774000,143.740000,280.783000,141.938000C276.676000,138.223000,269.186000,133.799000,267.711000,134.391000C265.491000,135.281000,265.789000,136.538000,264.931000,137.564000C263.706000,139.029000,263.890000,137.398000,262.662000,137.557000C261.433000,137.717000,255.866000,141.453000,255.589000,143.899000C255.313000,146.347000,258.118000,151.007000,260.301000,153.787000C262.564000,156.669000,269.879000,162.793000,272.155000,164.758000C274.809000,167.052000,302.562000,182.314000,307.255000,186.327000C311.949000,190.340000,333.118000,202.562000,337.099000,204.860000C341.504000,207.404000,346.567000,208.807000,350.305000,209.878000C353.239000,210.720000,363.504000,212.286000,368.375000,212.709000Z" fill="rgb(23,100,226)" stroke="none" stroke-width="1"/><path id="ehEyqHni7Lw61" d="M327.015000,178.296000L297.366000,145.034000C296.483000,144.043000,297.112000,142.279000,298.468000,141.986000C305.891000,140.384000,316.254000,138.709000,316.514000,137.806000C316.888000,136.501000,316.389000,128.177000,318.796000,126.960000C321.204000,125.743000,326.221000,127.554000,327.926000,128.539000C329.631000,129.523000,334.092000,134.922000,336.326000,138.600000C338.559000,142.280000,338.703000,143.015000,337.765000,145.296000C336.826000,147.579000,340.987000,147.591000,342.454000,148.003000C343.921000,148.416000,345.310000,154.214000,346.210000,154.951000C347.111000,155.688000,344.942000,157.476000,345.798000,159.274000C346.655000,161.072000,350.010000,160.185000,350.484000,160.676000C350.957000,161.167000,354.096000,166.888000,354.997000,167.625000C355.467000,168.010000,356.459000,168.209000,357.337000,168.302000C358.022000,168.374000,358.547000,168.929000,358.549000,169.674000C358.551000,170.421000,358.029000,171.118000,357.331000,171.297000L328.521000,178.729000C327.952000,178.876000,327.386000,178.713000,327.015000,178.296000Z" fill="rgb(22,145,231)" stroke="none" stroke-width="1"/><path id="ehEyqHni7Lw62" d="M331.076000,153.430000L307.569000,158.786000C307.031000,158.908000,306.764000,159.609000,307.100000,160.017000L311.211000,165.003000C311.357000,165.180000,311.587000,165.253000,311.821000,165.196000L335.695000,159.335000C336.253000,159.198000,336.500000,158.451000,336.115000,158.065000L331.636000,153.584000C331.491000,153.439000,331.285000,153.382000,331.076000,153.430000Z" fill="rgb(237,237,237)" stroke="none" stroke-width="1"/><path id="ehEyqHni7Lw63" d="M341.557000,164.482000L318.400000,169.971000C317.850000,170.102000,317.594000,170.831000,317.959000,171.225000L322.450000,176.083000C322.597000,176.242000,322.817000,176.305000,323.039000,176.249000L346.317000,170.470000C346.876000,170.331000,347.121000,169.582000,346.733000,169.198000L342.121000,164.632000C341.976000,164.487000,341.768000,164.432000,341.557000,164.482000Z" fill="rgb(237,237,237)" stroke="none" stroke-width="1"/><path id="ehEyqHni7Lw64" d="M300.548000,153.652000L296.067000,148.434000C295.713000,148.023000,295.994000,147.298000,296.548000,147.190000L320.724000,142.456000C320.940000,142.414000,321.149000,142.482000,321.289000,142.640000L325.707000,147.632000C326.067000,148.038000,325.793000,148.768000,325.238000,148.882000L301.125000,153.841000C300.904000,153.886000,300.689000,153.816000,300.548000,153.652000Z" fill="rgb(237,237,237)" stroke="none" stroke-width="1"/><path id="ehEyqHni7Lw65" d="M353.287000,180.105000C352.144000,179.883000,344.426000,180.887000,338.911000,181.673000C338.507000,181.730000,338.453000,182.330000,338.849000,182.366000C344.057000,182.848000,351.070000,183.388000,352.967000,183.612000C355.237000,183.881000,369.617000,191.415000,375.980000,194.944000C368.983000,190.108000,354.649000,180.369000,353.287000,180.105000Z" fill="rgb(237,237,237)" stroke="none" stroke-width="1"/><path id="ehEyqHni7Lw66" d="M339.097000,148.239000C341.058000,149.370000,343.702000,148.466000,345,146.216000C346.299000,143.967000,345.761000,141.226000,343.799000,140.093000C341.837000,138.961000,339.194000,139.865000,337.896000,142.115000C336.597000,144.363000,337.134000,147.106000,339.097000,148.239000Z" fill="rgb(41,35,141)" stroke="none" stroke-width="1"/><path id="ehEyqHni7Lw67" d="M331.683000,136.139000C333.644000,137.272000,336.288000,136.366000,337.587000,134.117000C338.884000,131.868000,338.347000,129.126000,336.385000,127.994000C334.423000,126.861000,331.780000,127.766000,330.481000,130.015000C329.183000,132.265000,329.720000,135.006000,331.683000,136.139000Z" fill="rgb(41,35,141)" stroke="none" stroke-width="1"/><path id="ehEyqHni7Lw68" d="M346.704000,161.318000C348.666000,162.449000,351.309000,161.545000,352.608000,159.295000C353.906000,157.047000,353.368000,154.305000,351.407000,153.172000C349.444000,152.040000,346.802000,152.944000,345.503000,155.194000C344.204000,157.443000,344.742000,160.185000,346.704000,161.318000Z" fill="rgb(41,35,141)" stroke="none" stroke-width="1"/><path id="ehEyqHni7Lw69" d="M0,477.898000L824.824000,477.898000L824.824000,490.895000C824.824000,501.386000,816.318000,509.891000,805.828000,509.891000L18.995900,509.891000C8.504750,509.891000,0,501.386000,0,490.895000L0,477.898000Z" fill="rgb(255,167,44)" stroke="none" stroke-width="1"/><path id="ehEyqHni7Lw70" d="M472.232000,206.072000C472.126000,204.949000,472.188000,148.422000,472.232000,120.298000C472.099000,114.776000,472.299000,103.330000,472.299000,101.794000C472.299000,100.458000,473.101000,99.045300,473.970000,98.052800C475.956000,95.781600,478.312000,94.980000,479.180000,94.980000C480.783000,94.980000,524.739000,95.046800,525.407000,95.046800C526.075000,95.046800,527.411000,95.982000,528.948000,97.451700C530.315000,98.759300,531.219000,100.658000,531.219000,101.727000C531.219000,102.929000,531.153000,204.802000,531.153000,206.740000C531.153000,208.678000,529.482000,210.681000,528.547000,211.616000C526.609000,213.554000,524.472000,213.554000,523.603000,213.554000C522.735000,213.554000,505.233000,213.955000,504.765000,213.955000C504.364000,213.955000,504.565000,213.554000,504.297000,213.554000L498.954000,213.554000C498.620000,213.554000,498.820000,213.955000,498.486000,213.955000C497.417000,213.955000,481.785000,213.554000,480.850000,213.554000C480.249000,213.554000,475.973000,213.621000,474.103000,211.216000C472.232000,208.811000,472.379000,207.608000,472.232000,206.072000Z" fill="rgb(15,187,172)" stroke="none" stroke-width="1"/><path id="ehEyqHni7Lw71" d="M476.109000,204.134000L476.109000,103.798000C476.109000,101.994000,476.444000,100.991000,477.245000,99.923000C478.180000,98.676500,479.717000,97.985700,480.452000,97.985700L484.922000,97.985700C486.265000,97.985700,487.173000,99.146200,487.465000,100.457000C487.598000,101.058000,488.734000,102.212000,489.470000,102.261000C490.319000,102.318000,506.926000,102.278000,512.525000,102.265000L512.917000,102.264000L512.976000,102.264000C514.067000,102.261000,514.460000,102.260000,514.787000,102.061000C515.374000,101.703000,516.285000,100.738000,516.391000,99.989600C516.547000,98.889600,517.285000,97.977300,518.396000,97.976100C520.416000,97.973900,522.780000,97.985700,523.405000,97.985700C524.072000,97.985700,525.743000,99.278300,526.211000,99.789400C526.679000,100.301000,527.480000,101.326000,527.480000,102.328000L527.480000,206.272000C527.480000,206.940000,526.478000,208.342000,526.077000,208.676000C525.130000,209.465000,524.206000,210.080000,523.272000,210.213000C522.518000,210.321000,480.919000,210.236000,480.117000,210.146000C478.914000,210.013000,477.979000,208.991000,477.712000,208.743000C475.843000,207.006000,476.109000,205.337000,476.109000,204.134000Z" fill="rgb(240,255,248)" stroke="none" stroke-width="1"/><path id="ehEyqHni7Lw72" d="M471.898000,115.989000L471.898000,112.114000C471.898000,111.948000,472.033000,111.814000,472.199000,111.814000C472.365000,111.814000,472.499000,111.948000,472.499000,112.114000L472.499000,115.989000C472.499000,116.155000,472.365000,116.289000,472.199000,116.289000C472.033000,116.289000,471.898000,116.155000,471.898000,115.989000Z" fill="rgb(1,137,192)" stroke="none" stroke-width="1"/><path id="ehEyqHni7Lw73" d="M471.898000,127.680000L471.898000,120.799000C471.898000,120.632000,472.033000,120.498000,472.199000,120.498000C472.365000,120.498000,472.499000,120.632000,472.499000,120.799000L472.499000,127.680000C472.499000,127.845000,472.365000,127.979000,472.199000,127.979000C472.033000,127.979000,471.898000,127.845000,471.898000,127.680000Z" fill="rgb(1,137,192)" stroke="none" stroke-width="1"/><path id="ehEyqHni7Lw74" d="M472.499000,137.901000L472.499000,130.752000C472.499000,130.586000,472.365000,130.451000,472.199000,130.451000C472.033000,130.451000,471.898000,130.586000,471.898000,130.752000L471.898000,137.901000C471.898000,138.067000,472.033000,138.201000,472.199000,138.201000C472.365000,138.201000,472.499000,138.067000,472.499000,137.901000Z" fill="rgb(1,137,192)" stroke="none" stroke-width="1"/><path id="ehEyqHni7Lw75" d="M531.217000,136.598000L531.217000,121.767000C531.217000,121.620000,531.337000,121.500000,531.484000,121.500000C531.632000,121.500000,531.751000,121.620000,531.751000,121.767000L531.751000,136.598000C531.751000,136.745000,531.632000,136.865000,531.484000,136.865000C531.337000,136.865000,531.217000,136.745000,531.217000,136.598000Z" fill="rgb(1,137,192)" stroke="none" stroke-width="1"/><path id="ehEyqHni7Lw76" d="M505.267000,98.720700L498.118000,98.720700C497.842000,98.720700,497.617000,98.945100,497.617000,99.221700C497.617000,99.498400,497.842000,99.722700,498.118000,99.722700L505.267000,99.722700C505.543000,99.722700,505.767000,99.498400,505.767000,99.221700C505.767000,98.945100,505.543000,98.720700,505.267000,98.720700Z" fill="rgb(1,137,192)" stroke="none" stroke-width="1"/><path id="ehEyqHni7Lw77" d="M471.898000,115.989000L471.898000,112.114000C471.898000,111.948000,472.033000,111.814000,472.199000,111.814000C472.365000,111.814000,472.499000,111.948000,472.499000,112.114000L472.499000,115.989000C472.499000,116.155000,472.365000,116.289000,472.199000,116.289000C472.033000,116.289000,471.898000,116.155000,471.898000,115.989000Z" fill="none" stroke="rgb(15,187,172)" stroke-width="2"/><path id="ehEyqHni7Lw78" d="M471.898000,127.680000L471.898000,120.799000C471.898000,120.632000,472.033000,120.498000,472.199000,120.498000C472.365000,120.498000,472.499000,120.632000,472.499000,120.799000L472.499000,127.680000C472.499000,127.845000,472.365000,127.979000,472.199000,127.979000C472.033000,127.979000,471.898000,127.845000,471.898000,127.680000Z" fill="none" stroke="rgb(15,187,172)" stroke-width="2"/><path id="ehEyqHni7Lw79" d="M472.499000,137.901000L472.499000,130.752000C472.499000,130.586000,472.365000,130.451000,472.199000,130.451000C472.033000,130.451000,471.898000,130.586000,471.898000,130.752000L471.898000,137.901000C471.898000,138.067000,472.033000,138.201000,472.199000,138.201000C472.365000,138.201000,472.499000,138.067000,472.499000,137.901000Z" fill="none" stroke="rgb(15,187,172)" stroke-width="2"/><path id="ehEyqHni7Lw80" d="M531.217000,136.598000L531.217000,121.767000C531.217000,121.620000,531.337000,121.500000,531.484000,121.500000C531.632000,121.500000,531.751000,121.620000,531.751000,121.767000L531.751000,136.598000C531.751000,136.745000,531.632000,136.865000,531.484000,136.865000C531.337000,136.865000,531.217000,136.745000,531.217000,136.598000Z" fill="none" stroke="rgb(15,187,172)" stroke-width="2"/><path id="ehEyqHni7Lw81" d="M505.267000,98.720700L498.118000,98.720700C497.842000,98.720700,497.617000,98.945100,497.617000,99.221700C497.617000,99.498400,497.842000,99.722700,498.118000,99.722700L505.267000,99.722700C505.543000,99.722700,505.767000,99.498400,505.767000,99.221700C505.767000,98.945100,505.543000,98.720700,505.267000,98.720700Z" fill="none" stroke="rgb(15,187,172)" stroke-width="2"/><path id="ehEyqHni7Lw82" d="M527.528000,103.430000C527.528000,102.652000,526.897000,102.021000,526.119000,102.021000C525.342000,102.021000,524.711000,102.652000,524.711000,103.430000L524.711000,115.048000C524.711000,115.826000,525.342000,116.457000,526.119000,116.457000C526.897000,116.457000,527.528000,115.826000,527.528000,115.048000L527.528000,103.430000Z" fill="rgb(2,171,203)" stroke="none" stroke-width="1"/><path id="ehEyqHni7Lw83" d="M526.119000,119.802000C526.897000,119.802000,527.528000,119.172000,527.528000,118.394000C527.528000,117.616000,526.897000,116.985000,526.119000,116.985000C525.341000,116.985000,524.711000,117.616000,524.711000,118.394000C524.711000,119.172000,525.341000,119.802000,526.119000,119.802000Z" fill="rgb(2,171,203)" stroke="none" stroke-width="1"/><path id="ehEyqHni7Lw84" d="M717.833000,137.325000L708.181000,137.325000L705.601000,137.325000L703.403000,139.809000L699.868000,149.460000L692.223000,164.464000L696.332000,186.251000L709.710000,191.985000L732.358000,153.952000L729.587000,143.344000L717.833000,137.325000Z" fill="rgb(67,42,42)" stroke="none" stroke-width="1"/><path id="ehEyqHni7Lw85" d="M732.930000,169.242000C732.854000,170.540000,731.560000,172.777000,730.923000,173.733000C726.113000,178.543000,716.226000,188.449000,715.155000,189.595000C713.818000,191.029000,713.245000,190.073000,712.098000,190.073000C711.180000,190.073000,705.344000,187.207000,702.541000,185.773000C703.370000,185.231000,705.484000,183.671000,707.320000,181.760000C709.613000,179.371000,717.640000,167.139000,720.889000,163.317000C724.138000,159.494000,730.158000,143.822000,730.923000,144.491000C731.688000,145.160000,733.789000,156.627000,733.407000,156.818000C733.026000,157.009000,732.930000,156.818000,732.930000,157.296000C732.930000,157.774000,733.407000,157.774000,733.407000,158.252000C733.407000,158.730000,733.026000,167.617000,732.930000,169.242000Z" fill="rgb(101,42,42)" stroke="none" stroke-width="1"/><path id="ehEyqHni7Lw86" d="M687.058000,191.316000C688.434000,192.233000,700.500000,195.265000,706.361000,196.667000L709.132000,196.667000C710.374000,196.667000,711.617000,195.998000,712.764000,195.138000C713.910000,194.278000,729.773000,175.643000,731.972000,172.490000C733.729000,169.968000,733.404000,161.118000,733.022000,157.009000C733.213000,156.946000,733.863000,156.359000,734.934000,154.525000C736.272000,152.231000,737.322000,144.874000,737.418000,140.860000C737.513000,136.847000,735.411000,128.532000,734.934000,127.004000C734.456000,125.475000,731.303000,118.404000,730.060000,116.588000C728.818000,114.772000,724.039000,109.611000,722.607000,107.987000C721.173000,106.362000,716.682000,104.738000,710.183000,105.024000C703.686000,105.311000,697.856000,108.083000,688.491000,111.618000C679.126000,115.154000,669.475000,124.232000,666.322000,127.004000C663.168000,129.775000,646.445000,148.409000,645.489000,149.269000C644.533000,150.129000,645.489000,150.129000,644.629000,150.703000C643.769000,151.276000,641.093000,152.900000,640.998000,153.474000C640.921000,153.933000,640.584000,156.086000,640.424000,157.105000C640.297000,156.977000,639.774000,156.837000,638.704000,157.296000C637.367000,157.869000,636.411000,159.685000,636.029000,160.163000C635.646000,160.641000,631.250000,162.074000,631.250000,163.030000C631.250000,163.986000,631.728000,164.941000,631.250000,166.087000C630.773000,167.234000,630.008000,179.180000,630.008000,180.135000C630.008000,181.091000,629.244000,180.804000,631.250000,186.346000C633.258000,191.889000,641.476000,201.732000,643.101000,202.974000C644.724000,204.216000,654.280000,204.885000,656.192000,204.694000C657.720000,204.541000,660.078000,202.974000,661.066000,202.210000C662.785000,201.987000,666.971000,200.050000,669.953000,194.087000C673.679000,186.633000,672.246000,180.326000,670.526000,174.974000C669.150000,170.693000,664.665000,166.119000,662.594000,164.368000C662.658000,164.113000,662.747000,163.297000,662.594000,162.074000C662.441000,160.851000,661.893000,160.673000,661.639000,160.736000C661.925000,160.450000,662.995000,158.978000,664.984000,155.385000C667.468000,150.894000,675.591000,143.727000,680.273000,138.470000C684.956000,133.215000,705.023000,125.188000,709.036000,123.659000C712.248000,122.436000,717.383000,123.150000,719.548000,123.659000C718.242000,124.614000,715.516000,126.622000,715.057000,127.004000C714.483000,127.482000,713.528000,131.017000,713.146000,131.591000C712.840000,132.049000,709.578000,135.094000,707.986000,136.560000C704.991000,136.783000,698.564000,137.344000,696.805000,137.801000C694.608000,138.375000,689.065000,141.625000,687.344000,143.058000C685.624000,144.491000,676.355000,162.839000,676.355000,163.603000C676.355000,164.368000,674.062000,171.821000,676.355000,177.746000C678.648000,183.671000,685.337000,190.169000,687.058000,191.316000Z" fill="rgb(40,224,134)" stroke="none" stroke-width="1"/><path id="ehEyqHni7Lw87" d="M640.140000,157.010000L640.140000,158.730000C639.662000,159.016000,638.649000,159.877000,638.419000,161.023000C638.133000,162.457000,636.412000,173.159000,637.942000,180.422000C639.471000,187.685000,650.077000,198.101000,650.460000,198.770000C650.765000,199.305000,657.468000,201.477000,660.780000,202.497000C663.170000,201.732000,664.603000,200.872000,666.801000,198.770000C668.998000,196.667000,669.667000,195.426000,671.101000,192.080000C672.535000,188.736000,672.630000,183.289000,672.248000,179.849000C671.675000,174.689000,670.270000,172.204000,661.641000,162.935000C653.901000,154.621000,650.268000,154.143000,648.071000,154.143000C646.312000,154.143000,644.663000,155.481000,644.058000,156.150000L644.153000,153.666000L640.904000,156.341000L640.140000,157.010000Z" fill="rgb(40,224,134)" stroke="none" stroke-width="1"/><path id="ehEyqHni7Lw88" d="M637.558000,158.157000C638.170000,157.393000,639.534000,157.074000,640.139000,157.010000L640.139000,158.825000C639.948000,158.794000,639.432000,158.902000,638.897000,159.590000C638.227000,160.450000,637.558000,165.228000,637.176000,169.146000C636.794000,173.064000,637.463000,179.849000,639.279000,183.576000C641.095000,187.302000,648.739000,197.145000,650.364000,198.483000C651.663000,199.554000,657.722000,201.541000,660.588000,202.401000C660.525000,202.975000,659.863000,204.083000,657.722000,203.931000C655.047000,203.739000,648.166000,200.968000,647.592000,200.585000C647.019000,200.204000,646.541000,199.630000,644.726000,197.528000C642.910000,195.426000,637.081000,186.729000,636.126000,184.914000C635.170000,183.098000,634.788000,180.136000,634.597000,177.842000C634.406000,175.549000,635.170000,168.764000,635.265000,167.236000C635.361000,165.706000,636.221000,160.737000,636.412000,160.068000C636.603000,159.399000,636.794000,159.112000,637.558000,158.157000Z" fill="rgb(124,255,127)" stroke="none" stroke-width="1"/><path id="ehEyqHni7Lw89" d="M651.606000,204.886000C648.624000,204.886000,644.439000,204.408000,642.432000,202.497000L647.593000,200.395000C648.006000,200.617000,649.236000,201.235000,650.841000,201.923000C652.447000,202.611000,656.894000,203.453000,658.581000,203.835000C656.289000,205.363000,653.421000,204.886000,651.606000,204.886000Z" fill="rgb(33,233,134)" stroke="none" stroke-width="1"/><path id="ehEyqHni7Lw90" d="M709.900000,176.027000C709.594000,175.415000,705.122000,164.559000,702.924000,159.208000C702.478000,158.825000,701.548000,158.156000,701.395000,158.539000C701.204000,159.016000,700.248000,160.259000,699.101000,162.361000C697.955000,164.464000,696.043000,167.139000,696.043000,168.573000C696.043000,170.006000,702.064000,185.487000,702.924000,186.251000C703.783000,187.016000,710.569000,189.501000,711.811000,190.170000C713.053000,190.838000,713.340000,190.170000,715.156000,189.501000C716.971000,188.832000,721.558000,182.429000,721.081000,181.855000C720.603000,181.282000,710.282000,176.790000,709.900000,176.027000Z" fill="rgb(254,187,0)" stroke="none" stroke-width="1"/><path id="ehEyqHni7Lw91" d="M696.712000,167.712000C696.177000,168.553000,700.375000,180.104000,702.541000,185.773000C701.012000,187.334000,697.534000,190.589000,695.852000,191.125000C693.750000,191.794000,694.323000,191.411000,692.890000,190.456000C691.456000,189.501000,690.788000,186.347000,688.303000,180.614000C685.819000,174.880000,687.060000,168.286000,687.156000,165.802000C687.251000,163.317000,700.344000,142.485000,701.203000,140.956000C701.891000,139.732000,701.490000,137.771000,701.203000,136.942000C703.784000,137.006000,708.715000,137.210000,707.797000,137.516000C706.650000,137.898000,705.599000,139.426000,705.886000,140.191000C706.172000,140.956000,707.224000,142.294000,707.797000,143.154000C708.371000,144.013000,707.893000,146.403000,707.224000,147.454000C706.555000,148.505000,697.381000,166.662000,696.712000,167.712000Z" fill="rgb(35,206,123)" stroke="none" stroke-width="1"/><path id="ehEyqHni7Lw92" d="M694.012000,189.978000L689.807000,189.978000C688.469000,187.111000,685.373000,180.039000,683.691000,174.689000C681.589000,167.999000,683.309000,166.661000,683.691000,164.846000C684.073000,163.030000,689.807000,152.136000,692.387000,147.835000C694.451000,144.396000,699.172000,139.076000,701.274000,136.847000C701.529000,138.120000,701.886000,140.898000,701.274000,141.816000C700.510000,142.962000,694.012000,152.996000,691.623000,158.252000C691.020000,159.580000,687.513000,163.221000,687.800000,170.006000C688.029000,175.433000,692.036000,185.582000,694.012000,189.978000Z" fill="rgb(34,219,128)" stroke="none" stroke-width="1"/><path id="ehEyqHni7Lw93" d="M680.275000,178.989000C680.795000,180.488000,683.381000,185.691000,685.485000,188.834000C686.421000,190.229000,687.893000,191.101000,689.495000,191.607000L694.322000,193.131000C691.902000,191.953000,687.254000,189.412000,687.060000,188.831000C686.677000,187.684000,683.142000,179.658000,681.900000,174.688000C680.657000,169.719000,680.848000,167.999000,681.900000,164.559000C682.951000,161.119000,684.766000,158.347000,688.302000,151.945000C691.131000,146.823000,693.558000,142.867000,699.483000,137.515000C698.368000,137.770000,695.259000,139.082000,691.743000,142.294000C687.347000,146.307000,678.555000,164.941000,678.364000,167.043000C678.104000,169.905000,679.414000,176.503000,680.275000,178.989000Z" fill="rgb(28,200,116)" stroke="none" stroke-width="1"/><path id="ehEyqHni7Lw94" d="M702.731000,185.773000L694.705000,190.456000C695.756000,191.220000,698.087000,192.845000,699.005000,193.228000C700.152000,193.705000,703.209000,194.851000,707.318000,196.094000C708.561000,196.470000,708.943000,196.094000,710.377000,196.094000C711.809000,196.094000,713.912000,194.087000,715.059000,192.750000C715.976000,191.679000,726.143000,179.563000,731.113000,173.637000C730.444000,173.606000,728.533000,174.249000,726.239000,177.077000C723.373000,180.613000,715.728000,188.354000,715.059000,189.213000C714.390000,190.073000,712.861000,189.787000,712.001000,189.787000C711.313000,189.787000,705.535000,187.111000,702.731000,185.773000Z" fill="rgb(37,219,130)" stroke="none" stroke-width="1"/><path id="ehEyqHni7Lw95" d="M688.873000,150.703000C690.975000,146.881000,694.129000,142.580000,698.047000,138.279000L701.105000,136.847000C700.914000,137.229000,700.192000,138.121000,699.767000,138.662000C698.715000,140,693.725000,145.141000,691.358000,149.651000C689.351000,153.474000,683.904000,163.986000,683.427000,165.896000C682.949000,167.808000,682.471000,169.433000,683.904000,174.306000C685.337000,179.180000,688.873000,188.736000,690.211000,189.978000C691.281000,190.972000,694.989000,192.941000,696.709000,193.800000C695.467000,193.450000,692.428000,192.520000,690.211000,191.602000C687.440000,190.456000,687.154000,189.309000,686.198000,187.589000C685.242000,185.869000,682.949000,179.276000,681.993000,175.739000C681.562000,174.147000,680.093000,169.624000,681.611000,165.324000C683.904000,158.825000,686.771000,154.525000,688.873000,150.703000Z" fill="rgb(124,255,127)" stroke="none" stroke-width="1"/><path id="ehEyqHni7Lw96" d="M703.498000,195.520000C705.868000,196.055000,707.989000,196.189000,708.753000,196.189000C707.734000,195.966000,705.256000,195.386000,703.498000,194.851000C701.300000,194.182000,699.484000,193.227000,697.859000,192.558000C696.429000,191.969000,694.642000,190.551000,693.942000,189.882000L689.832000,189.882000L694.324000,193.227000C696.395000,193.768000,701.128000,194.985000,703.498000,195.520000Z" fill="rgb(33,233,134)" stroke="none" stroke-width="1"/><path id="ehEyqHni7Lw97" d="M715.251000,136.847000C715.021000,137.458000,710.122000,137.548000,707.701000,137.516000C709.740000,135.541000,713.989000,131.419000,714.677000,130.731000C715.536000,129.870000,715.251000,127.100000,716.301000,126.335000C717.352000,125.570000,719.933000,123.946000,720.601000,123.373000C721.136000,122.914000,723.309000,122.799000,724.329000,122.799000C723.469000,123.851000,721.519000,126.182000,720.601000,127.100000C719.455000,128.247000,719.933000,130.922000,719.933000,131.591000C719.933000,132.260000,717.543000,134.553000,716.970000,134.457000C716.396000,134.362000,715.537000,136.082000,715.251000,136.847000Z" fill="rgb(35,208,123)" stroke="none" stroke-width="1"/><path id="ehEyqHni7Lw98" d="M729.395000,142.293000C728.554000,141.758000,720.572000,137.292000,716.686000,135.126000C717.736000,133.183000,719.093000,129.736000,719.935000,128.054000C720.776000,126.373000,723.183000,122.735000,724.330000,121.843000C727.675000,124.423000,733.562000,130.673000,734.173000,131.208000C734.938000,131.877000,737.040000,138.757000,737.040000,139.809000C737.040000,140.860000,736.466000,147.740000,736.466000,148.504000C736.466000,149.116000,734.428000,154.238000,733.409000,156.722000C732.421000,152.136000,730.236000,142.828000,729.395000,142.293000Z" fill="rgb(39,217,130)" stroke="none" stroke-width="1"/><path id="ehEyqHni7Lw99" d="M725.760000,114.964000C726.219000,116.798000,725.124000,120.569000,724.519000,122.226000C725.824000,123.436000,729.087000,126.430000,731.685000,128.724000C734.285000,131.017000,736.145000,135.286000,736.750000,137.133000C736.750000,130.826000,735.126000,129.393000,734.362000,125.857000C733.597000,122.321000,730.825000,119.073000,730.157000,117.639000C729.622000,116.492000,725.665000,111.873000,723.754000,109.708000C724.232000,110.695000,725.303000,113.128000,725.760000,114.964000Z" fill="rgb(254,187,0)" stroke="none" stroke-width="1"/><path id="ehEyqHni7Lw100" d="M719.659000,110.687000C720.883000,111.451000,721.762000,114.956000,722.049000,116.612000C722.367000,117.663000,723.004000,120.091000,723.004000,121.390000C723.004000,123.014000,722.526000,122.728000,721.284000,122.919000C720.542000,123.033000,720.074000,123.332000,719.831000,123.568000C719.714000,123.682000,719.553000,123.758000,719.393000,123.728000C717.492000,123.368000,713.628000,122.773000,711.441000,122.919000C708.575000,123.110000,700.629000,126.335000,698.622000,126.813000C696.615000,127.291000,694.814000,128.748000,690.036000,130.946000C685.258000,133.144000,683.524000,134.363000,681.422000,136.082000C679.877000,137.346000,676.276000,139.757000,674.474000,140.948000C674.159000,141.156000,673.101000,140.886000,672.876000,140.583000C670.913000,137.937000,664.788000,131.252000,665.095000,130.946000C665.477000,130.563000,673.530000,123.779000,678.760000,120.339000C683.989000,116.898000,693.080000,112.621000,697.298000,111.260000C700.261000,110.305000,705.039000,109.254000,710.294000,108.680000C715.534000,108.109000,718.115000,109.722000,719.645000,110.679000L719.659000,110.687000Z" fill="rgb(0,150,115)" stroke="none" stroke-width="1"/><path id="ehEyqHni7Lw101" d="M723.180000,116.110000L722.034000,116.588000L722.034000,122.704000C722.416000,122.863000,723.467000,122.990000,724.614000,122.226000C726.048000,121.270000,725.857000,118.499000,725.857000,115.727000C725.857000,114.390000,724.614000,111.116000,723.945000,109.612000C723.181000,107.892000,720.123000,105.408000,713.434000,105.025000C705.407000,104.567000,699.100000,107.605000,700.246000,107.223000C701.393000,106.840000,708.858000,105.539000,712.669000,105.884000C716.874000,106.267000,720.696000,108.752000,722.034000,110.281000C723.105000,111.504000,723.244000,114.677000,723.180000,116.110000Z" fill="rgb(255,170,17)" stroke="none" stroke-width="1"/><path id="ehEyqHni7Lw102" d="M666.991000,152.232000L655.142000,138.854000L648.357000,146.976000L661.736000,160.832000L666.991000,152.232000Z" fill="rgb(0,150,115)" stroke="none" stroke-width="1"/><path id="ehEyqHni7Lw103" d="M641.665000,154.164000L641.143000,155.816000L643.344000,154.087000C644.488000,153.187000,645.157000,151.813000,645.157000,150.358000L645.157000,149.891000L643.911000,150.888000C642.854000,151.734000,642.072000,152.873000,641.665000,154.164000Z" fill="rgb(28,215,123)" stroke="none" stroke-width="1"/><path id="ehEyqHni7Lw104" d="M632.813000,161.431000L636.701000,159.590000C636.541000,160.195000,635.827000,162.324000,635.458000,166.088000C634.980000,170.962000,634.024000,177.389000,635.458000,182.524000C636.376000,185.812000,643.676000,197.241000,647.498000,200.395000C646.129000,201.095000,643.217000,202.497000,642.529000,202.497000C641.670000,202.497000,637.751000,197.241000,635.458000,193.992000C633.164000,190.743000,631.540000,188.640000,630.011000,181.952000C629.543000,179.903000,630.287000,169.815000,631.023000,163.881000C631.156000,162.811000,631.839000,161.893000,632.813000,161.431000Z" fill="rgb(34,219,128)" stroke="none" stroke-width="1"/><path id="ehEyqHni7Lw105" d="M640.722000,169.768000C640.340000,163.193000,642.665000,157.790000,643.876000,155.912000C643.876000,155.816000,643.819000,155.529000,643.589000,155.147000C643.360000,154.765000,643.493000,154.160000,643.589000,153.905000L640.339000,156.294000L639.576000,157.154000C639.289000,157.314000,638.563000,157.861000,637.951000,158.778000C637.186000,159.925000,636.804000,161.646000,636.422000,163.461000C636.039000,165.277000,635.657000,177.604000,636.422000,180.471000C637.186000,183.337000,647.794000,197.481000,649.227000,198.819000C650.373000,199.888000,656.904000,201.749000,660.025000,202.545000C660.184000,202.513000,660.618000,202.373000,661.076000,202.067000C661.650000,201.685000,660.981000,201.494000,658.878000,200.538000C656.776000,199.582000,649.704000,194.710000,647.794000,192.033000C645.882000,189.358000,644.544000,186.013000,643.876000,184.771000C643.207000,183.529000,641.200000,177.986000,640.722000,169.768000Z" fill="rgb(28,200,116)" stroke="none" stroke-width="1"/><path id="ehEyqHni7Lw106" d="M663.223000,318.836000L663.223000,320.337000C663.223000,321.400000,664.096000,322.256000,665.159000,322.233000L686.103000,321.799000L699.262000,321.799000C700.310000,321.799000,701.159000,320.950000,701.159000,319.903000L701.159000,317.295000C701.159000,316.247000,700.310000,315.397000,699.262000,315.397000L688.974000,315.397000C688.016000,315.397000,687.066000,315.568000,686.168000,315.902000L683.376000,316.939000L665.119000,316.939000C664.073000,316.939000,663.223000,317.788000,663.223000,318.836000Z" fill="rgb(22,145,231)" stroke="none" stroke-width="1"/><path id="ehEyqHni7Lw107" d="M686.902000,315.804000L682.833000,317.194000C682.449000,317.325000,682.191000,317.686000,682.191000,318.091000L682.191000,319.732000C682.191000,320.178000,682.501000,320.563000,682.936000,320.659000L686.951000,321.540000C687.018000,321.555000,687.086000,321.562000,687.154000,321.562000L689.779000,321.562000C690.303000,321.562000,690.727000,321.138000,690.727000,320.614000L690.727000,316.702000C690.727000,316.178000,690.303000,315.753000,689.779000,315.753000L687.209000,315.753000C687.105000,315.753000,687.001000,315.771000,686.902000,315.804000Z" fill="rgb(23,100,226)" stroke="none" stroke-width="1"/><path id="ehEyqHni7Lw108" d="M668.199000,381.903000L668.199000,330.571000L670.333000,330.571000L670.333000,381.903000L668.199000,381.903000Z" fill="rgb(23,100,226)" stroke="none" stroke-width="1"/><path id="ehEyqHni7Lw109" d="M665.890000,323.222000L665.179000,323.222000C664.950000,323.222000,664.764000,323.036000,664.764000,322.807000C664.764000,322.578000,664.950000,322.392000,665.179000,322.392000L673.833000,322.392000C674.062000,322.392000,674.248000,322.578000,674.248000,322.807000C674.248000,323.036000,674.062000,323.222000,673.833000,323.222000L673.122000,323.222000C672.958000,323.222000,672.825000,323.355000,672.825000,323.518000C672.825000,323.682000,672.693000,323.815000,672.529000,323.815000L672.505000,323.815000C672.348000,323.815000,672.214000,323.929000,672.189000,324.084000L671.229000,330.054000C671.192000,330.284000,670.994000,330.453000,670.761000,330.453000L668.146000,330.453000C667.907000,330.453000,667.705000,330.275000,667.676000,330.038000L666.939000,324.146000C666.915000,323.957000,666.755000,323.815000,666.564000,323.815000L666.483000,323.815000C666.319000,323.815000,666.186000,323.682000,666.186000,323.518000C666.186000,323.355000,666.053000,323.222000,665.890000,323.222000Z" fill="rgb(41,35,141)" stroke="none" stroke-width="1"/><path id="ehEyqHni7Lw110" d="M716.924000,382.852000L716.924000,352.504000L719.057000,352.504000L719.057000,382.852000L716.924000,382.852000Z" fill="rgb(23,100,226)" stroke="none" stroke-width="1"/><path id="ehEyqHni7Lw111" d="M663.459000,316.819000L669.031000,316.819000C670.968000,316.701000,674.034000,316.819000,675.077000,316.819000C675.907000,316.819000,676.500000,316.345000,677.330000,315.041000C678,313.988000,678.396000,311.959000,678.396000,310.180000C678.396000,309.114000,678.515000,306.269000,678.278000,304.254000C678.028000,302.134000,677.448000,299.867000,676.500000,298.326000C675.551000,296.784000,673.485000,295.389000,670.809000,295.007000C668.319000,294.651000,664.763000,295.718000,663.459000,296.666000C661.355000,298.197000,660.732000,299.749000,660.259000,301.526000C659.737000,303.484000,659.757000,311.840000,660.140000,314.330000C660.432000,316.227000,662.630000,316.819000,663.459000,316.819000Z" fill="rgb(41,35,141)" stroke="none" stroke-width="1"/><path id="ehEyqHni7Lw112" d="M665.709000,318.953000C665.804000,317.531000,667.488000,317.175000,668.318000,317.175000L682.899000,317.412000L682.899000,321.087000C677.841000,321.206000,667.843000,321.324000,667.369000,321.324000C666.776000,321.324000,665.591000,320.731000,665.709000,318.953000Z" fill="rgb(23,100,226)" stroke="none" stroke-width="1"/><path id="ehEyqHni7Lw113" d="M692.790000,315.753000L691.553000,315.753000C691.422000,315.753000,691.316000,315.859000,691.316000,315.990000L691.316000,320.917000C691.316000,321.048000,691.422000,321.154000,691.553000,321.154000L692.790000,321.154000C692.921000,321.154000,693.027000,321.048000,693.027000,320.917000L693.027000,315.990000C693.027000,315.859000,692.921000,315.753000,692.790000,315.753000Z" fill="rgb(255,255,255)" stroke="none" stroke-width="1"/><path id="ehEyqHni7Lw114" d="M693.258000,320.917000L693.258000,315.990000C693.258000,315.859000,693.365000,315.753000,693.495000,315.753000L694.390000,315.753000C694.521000,315.753000,694.627000,315.859000,694.627000,315.990000L694.627000,320.917000C694.627000,321.048000,694.521000,321.154000,694.390000,321.154000L693.495000,321.154000C693.365000,321.154000,693.258000,321.048000,693.258000,320.917000Z" fill="rgb(255,255,255)" stroke="none" stroke-width="1"/><path id="ehEyqHni7Lw115" d="M694.854000,320.917000L694.854000,315.990000C694.854000,315.859000,694.959000,315.753000,695.090000,315.753000L695.756000,315.753000C695.887000,315.753000,695.994000,315.859000,695.994000,315.990000L695.994000,320.917000C695.994000,321.048000,695.887000,321.154000,695.756000,321.154000L695.090000,321.154000C694.959000,321.154000,694.854000,321.048000,694.854000,320.917000Z" fill="rgb(255,255,255)" stroke="none" stroke-width="1"/><path id="ehEyqHni7Lw116" d="M696.336000,320.917000L696.336000,315.990000C696.336000,315.859000,696.443000,315.753000,696.574000,315.753000L697.240000,315.753000C697.371000,315.753000,697.477000,315.859000,697.477000,315.990000L697.477000,320.917000C697.477000,321.048000,697.371000,321.154000,697.240000,321.154000L696.574000,321.154000C696.443000,321.154000,696.336000,321.048000,696.336000,320.917000Z" fill="rgb(255,255,255)" stroke="none" stroke-width="1"/><path id="ehEyqHni7Lw117" d="M697.820000,320.917000L697.820000,315.990000C697.820000,315.859000,697.926000,315.753000,698.057000,315.753000L698.723000,315.753000C698.854000,315.753000,698.960000,315.859000,698.960000,315.990000L698.960000,320.917000C698.960000,321.048000,698.854000,321.154000,698.723000,321.154000L698.057000,321.154000C697.926000,321.154000,697.820000,321.048000,697.820000,320.917000Z" fill="rgb(255,255,255)" stroke="none" stroke-width="1"/><path id="ehEyqHni7Lw118" d="M699.298000,320.965000L699.193000,315.995000C699.190000,315.863000,699.297000,315.753000,699.430000,315.753000L699.986000,315.753000C700.260000,315.753000,700.329000,315.993000,700.329000,316.113000L700.329000,320.554000C700.329000,320.794000,700.100000,321.034000,699.986000,321.154000C699.919000,321.224000,699.683000,321.213000,699.487000,321.186000C699.378000,321.171000,699.300000,321.076000,699.298000,320.965000Z" fill="rgb(255,255,255)" stroke="none" stroke-width="1"/><path id="ehEyqHni7Lw119" d="M682.546000,317.175000L668.794000,317.175000C668.532000,317.175000,668.320000,317.388000,668.320000,317.649000L668.320000,320.138000C668.320000,320.400000,668.532000,320.613000,668.794000,320.613000L682.546000,320.613000C682.808000,320.613000,683.020000,320.400000,683.020000,320.138000L683.020000,317.649000C683.020000,317.388000,682.808000,317.175000,682.546000,317.175000Z" fill="rgb(22,145,231)" stroke="none" stroke-width="1"/><path id="ehEyqHni7Lw120" d="M692.269000,314.805000L690.372000,314.805000C690.241000,314.805000,690.135000,314.911000,690.135000,315.042000C690.135000,315.173000,690.241000,315.279000,690.372000,315.279000L692.269000,315.279000C692.399000,315.279000,692.506000,315.173000,692.506000,315.042000C692.506000,314.911000,692.399000,314.805000,692.269000,314.805000Z" fill="rgb(255,255,255)" stroke="none" stroke-width="1"/><path id="ehEyqHni7Lw121" d="M690.486000,322.629000L690.486000,321.918000C690.486000,321.787000,690.592000,321.681000,690.723000,321.681000L692.739000,321.681000C692.870000,321.681000,692.976000,321.787000,692.976000,321.918000L692.976000,322.629000C692.976000,322.760000,692.870000,322.866000,692.739000,322.866000L690.723000,322.866000C690.592000,322.866000,690.486000,322.760000,690.486000,322.629000Z" fill="rgb(255,255,255)" stroke="none" stroke-width="1"/><path id="ehEyqHni7Lw122" d="M717.635000,381.193000L717.635000,352.504000L718.109000,352.504000L718.109000,381.193000L717.635000,381.193000Z" fill="rgb(22,146,234)" stroke="none" stroke-width="1"/><path id="ehEyqHni7Lw123" d="M668.910000,379.058000L668.910000,330.571000L669.503000,330.571000L669.503000,379.058000L668.910000,379.058000Z" fill="rgb(22,146,234)" stroke="none" stroke-width="1"/><path id="ehEyqHni7Lw124" d="M693.569000,413.911000C708.037000,413.911000,719.768000,402.182000,719.768000,387.712000C719.768000,373.243000,708.037000,361.513000,693.569000,361.513000C679.099000,361.513000,667.369000,373.243000,667.369000,387.712000C667.369000,402.182000,679.099000,413.911000,693.569000,413.911000ZM693.569000,405.850000C703.585000,405.850000,711.707000,397.730000,711.707000,387.712000C711.707000,377.695000,703.585000,369.574000,693.569000,369.574000C683.551000,369.574000,675.430000,377.695000,675.430000,387.712000C675.430000,397.730000,683.551000,405.850000,693.569000,405.850000Z" clip-rule="evenodd" fill="rgb(19,65,199)" fill-rule="evenodd" stroke="none" stroke-width="1"/><path id="ehEyqHni7Lw125" d="M720.007000,352.621000L716.332000,352.621000C716.201000,352.621000,716.095000,352.515000,716.095000,352.384000L716.095000,351.613000C716.095000,351.581000,716.122000,351.554000,716.154000,351.554000C716.187000,351.554000,716.214000,351.527000,716.214000,351.495000L716.214000,351.317000C716.214000,351.186000,716.107000,351.081000,715.977000,351.081000C715.845000,351.081000,715.739000,350.975000,715.739000,350.844000L715.739000,350.606000L715.739000,350.369000C715.739000,350.238000,715.845000,350.132000,715.977000,350.132000C716.107000,350.132000,716.214000,350.026000,716.214000,349.895000L716.214000,349.658000C716.214000,349.527000,716.107000,349.421000,715.977000,349.421000L715.858000,349.421000C715.727000,349.421000,715.621000,349.315000,715.621000,349.183000L715.621000,348.709000C715.621000,348.578000,715.727000,348.472000,715.858000,348.472000L715.977000,348.472000C716.107000,348.472000,716.214000,348.366000,716.214000,348.235000L716.214000,347.998000C716.214000,347.867000,716.107000,347.761000,715.977000,347.761000L715.739000,347.761000C715.608000,347.761000,715.502000,347.655000,715.502000,347.523000L715.502000,337.565000C715.502000,337.434000,715.608000,337.328000,715.739000,337.328000L715.858000,337.328000C715.923000,337.328000,715.977000,337.275000,715.977000,337.209000C715.977000,337.144000,716.029000,337.091000,716.095000,337.091000L716.332000,337.091000C716.398000,337.091000,716.451000,337.039000,716.451000,336.973000C716.451000,336.908000,716.504000,336.855000,716.569000,336.855000L716.688000,336.855000C716.819000,336.855000,716.925000,336.749000,716.925000,336.618000L716.925000,329.267000C716.925000,329.136000,717.031000,329.030000,717.162000,329.030000C717.293000,329.030000,717.399000,328.924000,717.399000,328.793000L717.399000,326.378000C717.399000,326.247000,717.505000,326.141000,717.637000,326.141000L717.658000,326.141000C717.776000,326.141000,717.873000,326.044000,717.873000,325.926000C717.873000,325.807000,717.969000,325.711000,718.088000,325.711000L718.606000,325.711000C718.725000,325.711000,718.821000,325.807000,718.821000,325.926000L718.821000,326.022000C718.821000,326.088000,718.874000,326.141000,718.940000,326.141000C719.005000,326.141000,719.058000,326.194000,719.058000,326.259000L719.058000,328.793000C719.058000,328.924000,719.164000,329.030000,719.296000,329.030000C719.427000,329.030000,719.533000,329.136000,719.533000,329.267000L719.533000,336.618000C719.533000,336.749000,719.639000,336.855000,719.770000,336.855000L719.889000,336.855000C720.019000,336.855000,720.126000,336.961000,720.126000,337.091000C720.126000,337.222000,720.232000,337.328000,720.363000,337.328000L720.481000,337.328000C720.612000,337.328000,720.719000,337.434000,720.719000,337.565000L720.719000,347.523000C720.719000,347.655000,720.612000,347.761000,720.481000,347.761000L720.244000,347.761000C720.113000,347.761000,720.007000,347.867000,720.007000,347.998000L720.007000,348.235000C720.007000,348.366000,720.113000,348.472000,720.244000,348.472000L720.481000,348.472000C720.612000,348.472000,720.719000,348.578000,720.719000,348.709000L720.719000,349.183000C720.719000,349.315000,720.612000,349.421000,720.481000,349.421000C720.350000,349.421000,720.244000,349.527000,720.244000,349.658000L720.244000,349.776000C720.244000,349.842000,720.297000,349.895000,720.363000,349.895000C720.428000,349.895000,720.481000,349.948000,720.481000,350.014000L720.481000,350.606000C720.481000,350.738000,720.375000,350.844000,720.244000,350.844000C720.113000,350.844000,720.007000,350.950000,720.007000,351.081000L720.007000,351.435000C720.007000,351.501000,720.060000,351.554000,720.126000,351.554000C720.191000,351.554000,720.244000,351.607000,720.244000,351.673000L720.244000,352.384000C720.244000,352.515000,720.138000,352.621000,720.007000,352.621000Z" fill="rgb(41,35,141)" stroke="none" stroke-width="1"/><path id="ehEyqHni7Lw126" d="M719.532000,329.267000L719.532000,336.618000C719.532000,336.749000,719.426000,336.855000,719.295000,336.855000L717.161000,336.855000C717.030000,336.855000,716.924000,336.749000,716.924000,336.618000L716.924000,329.267000C716.924000,329.136000,717.030000,329.030000,717.161000,329.030000C717.292000,329.030000,717.398000,328.924000,717.398000,328.793000L717.398000,326.378000C717.398000,326.247000,717.504000,326.141000,717.636000,326.141000L717.658000,326.141000C717.776000,326.141000,717.873000,326.044000,717.873000,325.926000C717.873000,325.807000,717.969000,325.711000,718.088000,325.711000L718.605000,325.711000C718.724000,325.711000,718.820000,325.807000,718.820000,325.926000L718.820000,326.022000C718.820000,326.088000,718.873000,326.141000,718.939000,326.141000C719.004000,326.141000,719.057000,326.194000,719.057000,326.259000L719.057000,328.793000C719.057000,328.924000,719.163000,329.030000,719.295000,329.030000C719.426000,329.030000,719.532000,329.136000,719.532000,329.267000Z" fill="rgb(237,237,237)" stroke="none" stroke-width="1"/><path id="ehEyqHni7Lw127" d="M476.490000,327.340000L475.275000,327.340000L475.275000,327.977000C475.275000,328.382000,475.275000,329.047000,476.866000,330.406000C478.139000,331.494000,480.810000,332.036000,481.986000,332.171000L535.008000,320.918000C534.748000,320.793000,534.071000,320.473000,533.446000,320.195000C532.665000,319.849000,531.971000,319.299000,530.987000,318.489000C530.201000,317.841000,529.773000,316.676000,529.657000,316.174000C512.281000,319.897000,477.323000,327.340000,476.490000,327.340000Z" fill="rgb(255,144,15)" stroke="none" stroke-width="1"/><path id="ehEyqHni7Lw128" d="M478.022000,327.051000C476.969000,327.248000,475.712000,327.278000,475.216000,327.268000C474.989000,327.292000,474.533000,327.282000,474.521000,327.051000C474.507000,326.762000,474.565000,326.603000,474.854000,326.154000C475.085000,325.795000,475.413000,325.600000,475.548000,325.546000C476.088000,325.527000,477.223000,325.477000,477.443000,325.431000C477.718000,325.373000,477.877000,325.055000,478.109000,325.026000C478.340000,324.997000,478.586000,325.127000,478.847000,325.141000C479.042000,325.152000,509.517000,318.515000,527.372000,314.618000C528.975000,314.268000,530.479000,315.507000,530.449000,317.148000L530.436000,317.824000C530.403000,317.756000,530.303000,317.580000,530.176000,317.418000C530.017000,317.216000,530.060000,317.216000,529.916000,316.927000C529.800000,316.695000,529.732000,316.290000,529.713000,316.117000C512.921000,319.679000,479.074000,326.854000,478.022000,327.051000Z" fill="rgb(236,75,0)" stroke="none" stroke-width="1"/><path id="ehEyqHni7Lw129" d="M474.869000,326.603000C474.719000,326.579000,474.614000,326.689000,474.580000,326.747000C474.479000,327.027000,474.395000,327.797000,474.869000,328.642000C475.344000,329.486000,476.321000,330.160000,476.750000,330.392000C476.572000,330.160000,476.169000,329.639000,475.983000,329.408000C475.752000,329.119000,475.347000,328.454000,475.246000,328.049000C475.144000,327.644000,475.303000,327.167000,475.246000,327.022000C475.188000,326.877000,475.058000,326.632000,474.869000,326.603000Z" fill="rgb(167,47,56)" stroke="none" stroke-width="1"/><path id="ehEyqHni7Lw130" d="M489.390000,409.491000L485.572000,331.158000L537.171000,320.486000C538.526000,320.206000,539.785000,321.273000,539.729000,322.655000L536.935000,392.614000C536.871000,394.197000,535.812000,395.564000,534.296000,396.019000L489.390000,409.491000Z" fill="rgb(236,75,0)" stroke="none" stroke-width="1"/><path id="ehEyqHni7Lw131" d="M474.652000,326.544000C474.826000,326.128000,475.323000,325.648000,475.564000,325.517000C475.289000,325.517000,474.707000,325.653000,474.464000,325.734000C474.221000,325.815000,474.103000,326.086000,474.074000,326.212000L474.074000,327.051000C474.074000,327.557000,474.349000,328.815000,475.810000,330.348000C476.979000,331.575000,480.375000,332.161000,481.928000,332.301000C481.832000,332.262000,481.393000,332.142000,480.409000,331.968000C479.179000,331.751000,477.126000,330.695000,476.475000,330.232000C475.824000,329.769000,475.159000,328.945000,474.869000,328.468000C474.580000,327.991000,474.435000,327.065000,474.652000,326.544000Z" fill="rgb(179,37,37)" stroke="none" stroke-width="1"/><path id="ehEyqHni7Lw132" d="M487.536000,409.490000L483.371000,331.505000L485.598000,331.245000L489.359000,409.490000L487.536000,409.490000Z" fill="rgb(220,66,1)" stroke="none" stroke-width="1"/><path id="ehEyqHni7Lw133" d="M487.569000,409.577000L485.949000,410.416000L481.928000,332.258000L483.374000,331.534000L487.569000,409.577000Z" fill="rgb(255,144,15)" stroke="none" stroke-width="1"/><path id="ehEyqHni7Lw134" d="M481.928000,332.315000C479.758000,332.142000,477.820000,331.456000,475.766000,330.203000C475.650000,330.092000,475.297000,329.704000,474.811000,329.032000C474.204000,328.193000,474.160000,326.096000,474.103000,326.183000C474.045000,326.269000,473.900000,326.747000,473.900000,326.949000C473.900000,327.152000,474.435000,332.460000,474.493000,333.212000C474.551000,333.964000,477.271000,375.329000,477.357000,376.023000C477.427000,376.579000,478.253000,395.173000,478.658000,404.400000C479.092000,405.498000,479.192000,406.120000,480.770000,407.900000C482.574000,409.931000,485.052000,410.474000,485.862000,410.474000L481.928000,332.315000Z" fill="rgb(184,54,0)" stroke="none" stroke-width="1"/><path id="ehEyqHni7Lw135" d="M350.100000,404.914000C350.882000,404.914000,351.361000,404.056000,350.952000,403.390000L289.789000,303.946000C289.261000,303.087000,287.938000,303.461000,287.938000,304.470000L287.938000,403.914000C287.938000,404.466000,288.385000,404.914000,288.937000,404.914000L350.100000,404.914000Z" fill="rgb(243,27,113)" stroke="none" stroke-width="1"/><path id="ehEyqHni7Lw136" d="M327.104000,391.572000C327.884000,391.572000,328.364000,390.719000,327.959000,390.052000L303.592000,349.992000C303.067000,349.129000,301.738000,349.501000,301.738000,350.512000L301.738000,390.572000C301.738000,391.124000,302.185000,391.572000,302.738000,391.572000L327.104000,391.572000Z" fill="rgb(255,255,255)" stroke="none" stroke-width="1"/><path id="ehEyqHni7Lw137" d="M288.166000,366.957000L295.296000,366.957000M288.166000,357.756000L295.296000,357.756000L288.166000,357.756000ZM288.166000,362.126000L295.296000,362.126000L288.166000,362.126000Z" fill="none" stroke="rgb(255,104,146)" stroke-width="1"/><path id="ehEyqHni7Lw138" d="M287.938000,380.530000L295.069000,380.530000M287.938000,371.328000L295.069000,371.328000L287.938000,371.328000ZM287.938000,375.699000L295.069000,375.699000L287.938000,375.699000Z" fill="none" stroke="rgb(255,104,146)" stroke-width="1"/><path id="ehEyqHni7Lw139" d="M124.643000,348.345000C123.557000,345.972000,120.753000,344.928000,118.380000,346.014000C116.006000,347.099000,114.962000,349.904000,116.048000,352.277000L137.557000,399.296000C138.643000,401.670000,141.447000,402.714000,143.820000,401.628000C146.194000,400.542000,147.238000,397.738000,146.152000,395.365000L124.643000,348.345000Z" fill="rgb(249,216,49)" stroke="none" stroke-width="1"/><path id="ehEyqHni7Lw140" d="M80.643200,340.186000C75.308700,328.525000,80.437700,314.746000,92.099100,309.413000L107.001000,302.596000C118.662000,297.261000,132.440000,302.390000,137.774000,314.052000L145.808000,331.614000C153.025000,347.390000,146.086000,366.030000,130.310000,373.247000C114.534000,380.463000,95.893900,373.525000,88.677100,357.748000L80.643200,340.186000Z" fill="rgb(209,80,26)" stroke="none" stroke-width="1"/><path id="ehEyqHni7Lw141" d="M142.148000,413.361000C145.496000,411.829000,146.919000,407.765000,145.326000,404.283000C143.733000,400.801000,139.728000,399.220000,136.380000,400.752000C133.032000,402.283000,131.610000,406.347000,133.202000,409.829000C134.795000,413.311000,138.800000,414.892000,142.148000,413.361000Z" fill="rgb(249,216,49)" stroke="none" stroke-width="1"/><path id="ehEyqHni7Lw142" d="M153.785000,408.036000C157.133000,406.505000,158.555000,402.441000,156.963000,398.959000C155.370000,395.477000,151.365000,393.896000,148.017000,395.428000C144.669000,396.959000,143.246000,401.023000,144.839000,404.505000C146.432000,407.987000,150.437000,409.568000,153.785000,408.036000Z" fill="rgb(249,216,49)" stroke="none" stroke-width="1"/><path id="ehEyqHni7Lw143" d="M179.812000,121.257000C179.859000,119.155000,181.577000,117.475000,183.679000,117.475000C186.155000,117.475000,188.108000,119.580000,187.923000,122.048000L187.139000,132.505000C186.453000,141.667000,183.646000,150.510000,178.980000,158.351000L179.812000,121.257000Z" fill="none" stroke="rgb(0,0,0)" stroke-width="5"/><path id="ehEyqHni7Lw144" d="M87.129900,120.924000C87.083100,118.822000,85.364900,117.141000,83.261600,117.141000C80.786600,117.141000,78.833800,119.246000,79.017900,121.713000L79.805300,132.270000C80.490800,141.459000,83.296100,150.331000,87.962000,158.203000L87.129900,120.924000Z" fill="none" stroke="rgb(0,0,0)" stroke-width="5"/><path id="ehEyqHni7Lw145" d="M87.521400,159.011000L85.837800,137.125000C85.617000,134.253000,86.972400,131.489000,89.377400,129.905000L89.874500,129.577000C116.188000,112.249000,150.327000,112.386000,176.500000,129.925000C179.750000,132.103000,181.509000,135.914000,181.057000,139.799000L178.703000,160.082000C177.400000,171.304000,170.723000,181.232000,160.840000,186.706000C143.728000,196.183000,122.895000,196.322000,105.694000,187.011000C95.274000,181.369000,88.430200,170.824000,87.521400,159.011000Z" fill="rgb(38,38,38)" stroke="none" stroke-width="1"/></svg>