<svg width="500"  viewBox="0 0 599 725" fill="none" xmlns="http://www.w3.org/2000/svg">
<path d="M134.898 631.049C134.291 624.674 134.645 303.571 134.898 143.817C134.139 112.448 135.277 47.433 135.277 38.7053C135.277 31.1161 139.831 23.0931 144.764 17.4553C156.053 4.55357 169.429 0 174.362 0C183.469 0 433.156 0.379464 436.951 0.379464C440.746 0.379464 448.335 5.69196 457.063 14.0401C464.829 21.4678 469.964 32.2544 469.964 38.3258C469.964 45.1562 469.585 623.839 469.585 634.844C469.585 645.848 460.098 657.233 454.786 662.545C443.779 673.549 431.639 673.549 426.706 673.549C421.772 673.549 322.353 675.826 319.697 675.826C317.42 675.826 318.558 673.549 317.04 673.549H286.683C284.786 673.549 285.925 675.826 284.027 675.826C277.956 675.826 189.161 673.549 183.848 673.549C180.433 673.549 156.147 673.928 145.522 660.268C134.898 646.607 135.729 639.777 134.898 631.049Z" fill="#174DED"/>
<path d="M156.908 620.044V50.0894C156.908 39.8439 158.807 34.1519 163.361 28.0805C168.671 21 177.401 17.076 181.575 17.0759L215.731 17.0759C218.612 17.0759 220.895 19.5047 220.887 22.385C220.878 25.8117 221.027 29.3666 221.416 31.1162C222.174 34.5314 228.625 41.083 232.803 41.3617C237.627 41.6835 331.961 41.4595 363.763 41.384L365.991 41.3787L366.327 41.378C372.522 41.3636 374.752 41.3585 376.616 40.2233C379.953 38.1913 385.124 32.7106 385.727 28.4599C385.956 26.8445 385.906 24.5273 385.832 22.0204C385.751 19.2816 387.93 17.0523 390.67 17.0391C402.939 16.9798 421.324 17.076 425.567 17.076C429.362 17.0759 438.849 24.4183 441.508 27.3215C444.167 30.2247 448.715 36.0492 448.715 41.7412L448.718 632.187C448.718 635.982 443.023 643.951 440.746 645.848C435.371 650.328 430.121 653.817 424.811 654.576C420.528 655.188 184.228 654.702 179.676 654.196C172.844 653.437 167.532 647.636 166.016 646.228C155.393 636.358 156.909 626.875 156.908 620.044Z" fill="#1A71FF"/>
<path d="M133 119.342V97.3326C133 96.3895 133.765 95.625 134.708 95.625C135.651 95.625 136.415 96.3895 136.415 97.3326V119.342C136.415 120.285 135.651 121.049 134.708 121.049C133.765 121.049 133 120.285 133 119.342Z" fill="white"/>
<path d="M133 185.748V146.663C133 145.72 133.765 144.955 134.708 144.955C135.651 144.955 136.415 145.72 136.415 146.663V185.748C136.415 186.691 135.651 187.455 134.708 187.455C133.765 187.455 133 186.691 133 185.748Z" fill="white"/>
<path d="M136.415 243.806V203.203C136.415 202.26 135.651 201.496 134.708 201.496C133.765 201.496 133 202.26 133 203.203V243.806C133 244.749 133.765 245.513 134.708 245.513C135.651 245.513 136.415 244.749 136.415 243.806Z" fill="white"/>
<path d="M469.964 236.406V152.165C469.964 151.327 470.644 150.647 471.482 150.647C472.32 150.647 473 151.327 473 152.165V236.406C473 237.245 472.32 237.924 471.482 237.924C470.644 237.924 469.964 237.245 469.964 236.406Z" fill="white"/>
<path d="M322.542 21.25H281.94C280.368 21.25 279.094 22.5242 279.094 24.096C279.094 25.6678 280.368 26.942 281.94 26.942H322.542C324.114 26.942 325.388 25.6678 325.388 24.096C325.388 22.5242 324.114 21.25 322.542 21.25Z" fill="white"/>
<path d="M133 119.342V97.3326C133 96.3895 133.765 95.625 134.708 95.625C135.651 95.625 136.415 96.3895 136.415 97.3326V119.342C136.415 120.285 135.651 121.049 134.708 121.049C133.765 121.049 133 120.285 133 119.342Z" stroke="white" stroke-width="3"/>
<path d="M133 185.748V146.663C133 145.72 133.765 144.955 134.708 144.955C135.651 144.955 136.415 145.72 136.415 146.663V185.748C136.415 186.691 135.651 187.455 134.708 187.455C133.765 187.455 133 186.691 133 185.748Z" stroke="white" stroke-width="3"/>
<path d="M136.415 243.806V203.203C136.415 202.26 135.651 201.496 134.708 201.496C133.765 201.496 133 202.26 133 203.203V243.806C133 244.749 133.765 245.513 134.708 245.513C135.651 245.513 136.415 244.749 136.415 243.806Z" stroke="white" stroke-width="3"/>
<path d="M469.964 236.406V152.165C469.964 151.327 470.644 150.647 471.482 150.647C472.32 150.647 473 151.327 473 152.165V236.406C473 237.245 472.32 237.924 471.482 237.924C470.644 237.924 469.964 237.245 469.964 236.406Z" stroke="white" stroke-width="3"/>
<path d="M322.542 21.25H281.94C280.368 21.25 279.094 22.5242 279.094 24.096C279.094 25.6678 280.368 26.942 281.94 26.942H322.542C324.114 26.942 325.388 25.6678 325.388 24.096C325.388 22.5242 324.114 21.25 322.542 21.25Z" stroke="white" stroke-width="3"/>
<rect x="433" y="40" width="16" height="82" rx="8" fill="#189FFF"/>
<circle cx="441" cy="133" r="8" fill="#189FFF"/>
<path d="M303.367 724.199C411.818 724.199 499.734 717.886 499.734 710.099C499.734 702.313 411.818 696 303.367 696C194.917 696 107 702.313 107 710.099C107 717.886 194.917 724.199 303.367 724.199Z" fill="#151439"/>
<path d="M385.25 315.343L358.209 354.269C354.856 359.096 347.281 356.723 347.281 350.846V315.343C312.332 315.343 284 287.011 284 252.062V246.672C284 208.745 314.745 178 352.672 178H530.328C568.255 178 599 208.745 599 246.672C599 284.598 568.255 315.343 530.328 315.343H385.25Z" fill="#26DC83"/>
<rect x="334" y="210" width="83" height="19" rx="9.5" fill="#7EFE7F"/>
<rect x="334" y="241" width="191" height="19" rx="9.5" fill="#7EFE7F"/>
<rect x="334" y="264" width="159" height="19" rx="9.5" fill="#7EFE7F"/>
<path d="M245 440.343V481.101C245 486.361 238.713 489.076 234.885 485.468L187 440.343H68.6715C30.7453 440.343 0 409.598 0 371.672C0 333.745 30.7453 303 68.6715 303H246.328C284.255 303 315 333.745 315 371.672C315 409.598 284.255 440.343 246.328 440.343H245Z" fill="#FEBB00"/>
<rect x="47" y="336" width="101" height="19" rx="9.5" fill="#FFEF48"/>
<rect x="169" y="336" width="34" height="19" rx="9.5" fill="#FFEF48"/>
<rect x="47" y="370" width="208" height="19" rx="9.5" fill="#FFEF48"/>
<rect x="47" y="394" width="186" height="19" rx="9.5" fill="#FFEF48"/>
<rect x="172" y="591" width="263" height="43" rx="21.5" fill="white"/>
</svg>
