<svg width="580" height="auto" viewBox="0 0 662 605" fill="none" xmlns="http://www.w3.org/2000/svg">
<path d="M494.997 347.63C445.033 414.675 445.987 459.672 454.607 478.841C456.472 482.986 459.886 486.271 464.209 487.676C486.72 494.993 541.452 485.074 591.752 415.467C661.467 318.993 654.825 260.348 642.992 252.052C633.247 245.22 565.129 253.525 494.997 347.63Z" fill="#5DB3AB"/>
<path d="M553.986 360.957C554.794 359.804 554.515 358.214 553.362 357.405C552.208 356.597 550.618 356.876 549.809 358.029L435.612 520.909C434.803 522.063 435.083 523.653 436.236 524.462C437.389 525.27 438.98 524.991 439.788 523.838L553.986 360.957Z" fill="#49787D"/>
<path d="M544.87 421.093C546.147 420.499 546.7 418.982 546.106 417.705C545.511 416.428 543.994 415.875 542.717 416.469L494.728 438.812C493.451 439.406 492.898 440.923 493.492 442.2C494.087 443.477 495.604 444.03 496.881 443.436L544.87 421.093Z" fill="#49787D"/>
<path d="M520.681 362.106C520.805 360.703 519.768 359.466 518.365 359.342C516.962 359.218 515.724 360.256 515.6 361.659L510.955 414.39C510.831 415.793 511.868 417.031 513.271 417.154C514.674 417.278 515.912 416.241 516.036 414.838L520.681 362.106Z" fill="#49787D"/>
<path d="M479.513 432.219C479.637 430.816 478.6 429.578 477.197 429.454C475.794 429.331 474.556 430.368 474.432 431.771L470.935 471.467C470.812 472.871 471.849 474.108 473.252 474.232C474.655 474.355 475.892 473.318 476.016 471.915L479.513 432.219Z" fill="#49787D"/>
<path d="M43.5165 362.091C89.4871 447.327 137.224 467.449 160.925 467.214C165.47 467.169 169.873 465.476 173.062 462.238C191.774 443.243 208.888 381.308 160.453 294.577C94.1371 175.829 30.1829 154.427 15.8813 162.683C4.10354 169.483 -20.1457 244.054 43.5165 362.091Z" fill="#E699AB"/>
<path d="M85.7722 307.409C84.9675 306.015 83.1852 305.538 81.7914 306.342C80.3975 307.147 79.9199 308.929 80.7247 310.323L194.379 507.179C195.184 508.573 196.966 509.05 198.36 508.245C199.754 507.441 200.231 505.658 199.427 504.264L85.7722 307.409Z" fill="#FDCDDD"/>
<path d="M143.67 345.856C143.67 344.246 142.365 342.942 140.756 342.942C139.147 342.942 137.842 344.246 137.842 345.856V406.344C137.842 407.954 139.147 409.259 140.756 409.259C142.365 409.259 143.67 407.954 143.67 406.344V345.856Z" fill="#FDCDDD"/>
<path d="M70.8989 342.465C69.5051 341.661 67.7228 342.138 66.918 343.532C66.1133 344.926 66.5909 346.708 67.9847 347.513L120.369 377.757C121.763 378.562 123.546 378.084 124.35 376.691C125.155 375.297 124.677 373.514 123.284 372.71L70.8989 342.465Z" fill="#FDCDDD"/>
<path d="M123.676 418.926C122.282 418.121 120.5 418.598 119.695 419.992C118.891 421.386 119.368 423.168 120.762 423.973L160.198 446.741C161.592 447.546 163.374 447.069 164.179 445.675C164.983 444.281 164.506 442.499 163.112 441.694L123.676 418.926Z" fill="#FDCDDD"/>
<path d="M539.548 426.306C491.619 454.62 478.954 482.515 478.235 497.734C478.02 502.274 479.949 506.699 483.631 509.365C497.569 519.464 534.436 525.975 583.497 496.011C654.335 452.749 665.867 413.241 660.492 404.715C656.066 397.695 610.015 384.679 539.548 426.306Z" fill="#49908D"/>
<path d="M573.897 450.776C574.727 450.252 574.976 449.154 574.452 448.323C573.929 447.492 572.83 447.243 572 447.767L454.657 521.753C453.826 522.277 453.577 523.375 454.101 524.206C454.625 525.037 455.723 525.286 456.554 524.762L573.897 450.776Z" fill="#49787D"/>
<path d="M551.826 486.997C552.808 486.959 553.572 486.132 553.534 485.15C553.496 484.169 552.669 483.404 551.688 483.443L514.801 484.88C513.82 484.918 513.055 485.745 513.093 486.727C513.131 487.708 513.958 488.473 514.94 488.434L551.826 486.997Z" fill="#49787D"/>
<path d="M552.164 442.539C552.622 441.67 552.288 440.594 551.419 440.137C550.55 439.679 549.475 440.013 549.017 440.882L531.819 473.545C531.361 474.415 531.695 475.49 532.564 475.948C533.433 476.405 534.509 476.072 534.966 475.203L552.164 442.539Z" fill="#49787D"/>
<path d="M506.791 476.54C507.249 475.67 506.915 474.595 506.046 474.137C505.177 473.68 504.102 474.013 503.644 474.882L490.697 499.472C490.239 500.341 490.573 501.416 491.442 501.874C492.311 502.332 493.387 501.998 493.844 501.129L506.791 476.54Z" fill="#49787D"/>
<path d="M439.918 0H165.376C148.177 0 134.234 13.9428 134.234 31.142V567.932C134.234 585.131 148.177 599.074 165.376 599.074H439.918C457.117 599.074 471.06 585.131 471.06 567.932V31.142C471.06 13.9428 457.117 0 439.918 0Z" fill="#3E2F43"/>
<path d="M145.707 561.376V36.8787C145.707 23.7529 156.348 13.1124 169.473 13.1124H223.185C227.043 13.1124 230.727 14.7117 233.362 17.5293L254.996 40.667C257.63 43.4846 261.314 45.0839 265.172 45.0839H331.204C335.134 45.0839 338.881 43.4244 341.521 40.5145L362.242 17.6818C364.883 14.7718 368.63 13.1124 372.559 13.1124H435.82C448.945 13.1124 459.586 23.753 459.586 36.8787V561.376C459.586 574.501 448.945 585.142 435.82 585.142H169.473C156.348 585.142 145.707 574.501 145.707 561.376Z" fill="white"/>
<path d="M302.238 158.988C324.869 158.988 343.214 140.642 343.214 118.012C343.214 95.3813 324.869 77.0355 302.238 77.0355C279.607 77.0355 261.262 95.3813 261.262 118.012C261.262 140.642 279.607 158.988 302.238 158.988Z" fill="#C8C0FE"/>
<path d="M302.238 140.959C314.911 140.959 325.185 130.685 325.185 118.012C325.185 105.339 314.911 95.0651 302.238 95.0651C289.565 95.0651 279.291 105.339 279.291 118.012C279.291 130.685 289.565 140.959 302.238 140.959Z" fill="#A272FD"/>
<path d="M415.332 183.574H189.962C184.078 183.574 179.309 188.344 179.309 194.228V245.039C179.309 250.923 184.078 255.692 189.962 255.692H415.332C421.216 255.692 425.986 250.923 425.986 245.039V194.228C425.986 188.344 421.216 183.574 415.332 183.574Z" fill="#FFB752"/>
<path d="M397.712 195.867H206.762C201.557 195.867 197.338 200.086 197.338 205.291C197.338 210.497 201.557 214.716 206.762 214.716H397.712C402.917 214.716 407.137 210.497 407.137 205.291C407.137 200.086 402.917 195.867 397.712 195.867Z" fill="white"/>
<path d="M412.874 286.015H248.15C240.908 286.015 235.037 291.886 235.037 299.127C235.037 306.369 240.908 312.24 248.15 312.24H412.874C420.116 312.24 425.987 306.369 425.987 299.127C425.987 291.886 420.116 286.015 412.874 286.015Z" fill="#CBC5FE"/>
<path d="M412.874 344.201H248.15C240.908 344.201 235.037 350.072 235.037 357.314C235.037 364.556 240.908 370.426 248.15 370.426H412.874C420.116 370.426 425.987 364.556 425.987 357.314C425.987 350.072 420.116 344.201 412.874 344.201Z" fill="#CBC5FE"/>
<path d="M397.712 223.731H206.762C201.557 223.731 197.338 227.95 197.338 233.155C197.338 238.36 201.557 242.58 206.762 242.58H397.712C402.917 242.58 407.137 238.36 407.137 233.155C407.137 227.95 402.917 223.731 397.712 223.731Z" fill="white"/>
<path d="M196.109 315.518C205.387 315.518 212.909 307.996 212.909 298.718C212.909 289.439 205.387 281.917 196.109 281.917C186.83 281.917 179.309 289.439 179.309 298.718C179.309 307.996 186.83 315.518 196.109 315.518Z" fill="#CBC5FE"/>
<path d="M196.109 373.704C205.387 373.704 212.909 366.182 212.909 356.904C212.909 347.625 205.387 340.104 196.109 340.104C186.83 340.104 179.309 347.625 179.309 356.904C179.309 366.182 186.83 373.704 196.109 373.704Z" fill="#CBC5FE"/>
<path d="M416.971 409.763H188.323C183.345 409.763 179.309 413.799 179.309 418.778V491.716C179.309 496.695 183.345 500.731 188.323 500.731H416.971C421.95 500.731 425.986 496.695 425.986 491.716V418.778C425.986 413.799 421.95 409.763 416.971 409.763Z" fill="#FEB3BA"/>
<path d="M264.539 421.237H200.616C198.806 421.237 197.338 422.704 197.338 424.515V486.799C197.338 488.609 198.806 490.077 200.616 490.077H264.539C266.35 490.077 267.817 488.609 267.817 486.799V424.515C267.817 422.704 266.35 421.237 264.539 421.237Z" fill="#FFA2AA"/>
<path d="M402.63 418.778H288.716C283.511 418.778 279.291 422.998 279.291 428.203C279.291 433.408 283.511 437.627 288.716 437.627H402.63C407.835 437.627 412.054 433.408 412.054 428.203C412.054 422.998 407.835 418.778 402.63 418.778Z" fill="white"/>
<path d="M402.63 445.003H288.716C283.511 445.003 279.291 449.223 279.291 454.428C279.291 459.633 283.511 463.852 288.716 463.852H402.63C407.835 463.852 412.054 459.633 412.054 454.428C412.054 449.223 407.835 445.003 402.63 445.003Z" fill="white"/>
<path d="M402.63 471.228H288.716C283.511 471.228 279.291 475.447 279.291 480.652C279.291 485.858 283.511 490.077 288.716 490.077H402.63C407.835 490.077 412.054 485.858 412.054 480.652C412.054 475.447 407.835 471.228 402.63 471.228Z" fill="white"/>
<path d="M360.424 518.76H244.871C232.197 518.76 221.924 529.034 221.924 541.707C221.924 554.38 232.197 564.654 244.871 564.654H360.424C373.097 564.654 383.371 554.38 383.371 541.707C383.371 529.034 373.097 518.76 360.424 518.76Z" fill="#F488F6"/>
<path d="M498.924 603.991C532.869 603.991 560.388 576.473 560.388 542.527C560.388 508.581 532.869 481.062 498.924 481.062C464.978 481.062 437.459 508.581 437.459 542.527C437.459 576.473 464.978 603.991 498.924 603.991Z" fill="#E699AB"/>
<path d="M460.406 590.469L468.489 595.099C521.056 625.204 580.776 568.919 553.832 514.663L552.113 519.702C538.71 558.988 503.401 586.675 462.053 590.324L460.406 590.469Z" fill="#EA8AA1"/>
<path d="M470.651 546.624C481.74 546.624 490.729 537.635 490.729 526.546C490.729 515.457 481.74 506.468 470.651 506.468C459.562 506.468 450.572 515.457 450.572 526.546C450.572 537.635 459.562 546.624 470.651 546.624Z" fill="#FDCDDD"/>
<path d="M13.24 565.948C38.2971 605.261 90.4789 616.817 129.792 591.76C169.104 566.703 180.66 514.521 155.603 475.208C130.547 435.896 78.3646 424.34 39.0519 449.397C-0.260398 474.454 -11.817 526.635 13.24 565.948Z" fill="#F7B754"/>
<path d="M0.46875 511.359L1.07381 524.137C5.01081 607.237 114.276 634.851 157.222 563.6L150.116 565.328C94.7256 578.805 36.5982 558.351 1.85203 513.159L0.46875 511.359Z" fill="#F4AC36"/>
<path d="M58.8077 490.859C66.9923 503.702 84.0385 507.476 96.8813 499.291C109.723 491.106 113.498 474.06 105.313 461.217C97.128 448.375 80.0818 444.601 67.239 452.786C54.397 460.971 50.6223 478.017 58.8077 490.859Z" fill="#FFDF82"/>
<path d="M507.667 85.0351L435.276 111.379C430.597 113.081 428.185 118.254 429.887 122.933L451.747 183.002C453.45 187.681 458.623 190.093 463.301 188.391L535.692 162.047C540.371 160.344 542.784 155.171 541.081 150.493L519.221 90.4236C517.519 85.745 512.346 83.3325 507.667 85.0351Z" fill="#FF3030"/>
<path d="M452.029 183.772L450.68 180.065L524.996 153.02C526.697 152.401 527.575 150.52 526.956 148.819L522.139 135.584C521.52 133.883 522.397 132.002 524.099 131.382L532.955 128.16L541.363 151.263C542.911 155.517 540.717 160.219 536.464 161.767L462.533 188.671C458.279 190.219 453.577 188.026 452.029 183.772Z" fill="#F72929"/>
<path d="M506.99 125.111C510.096 125.659 511.445 129.364 509.417 131.781L484.78 161.138C482.752 163.555 478.869 162.869 477.791 159.905L464.684 123.89C463.606 120.926 466.141 117.906 469.247 118.454L506.99 125.111Z" fill="white"/>
<path d="M62.1152 71.2988C62.1152 69.4884 63.583 68.0207 65.3933 68.0207H162.098C163.908 68.0207 165.376 69.4884 165.376 71.2988V152.432C165.376 154.242 163.908 155.71 162.098 155.71H144.068C143.036 155.71 142.064 156.196 141.445 157.021L130.047 172.219C128.816 173.861 126.395 173.98 125.008 172.467L110.622 156.773C110.001 156.096 109.124 155.71 108.205 155.71H65.3933C63.583 155.71 62.1152 154.242 62.1152 152.432V71.2988Z" fill="#68A4F0"/>
<path d="M62.1152 136.041H165.376V152.432C165.376 154.242 163.908 155.71 162.098 155.71H144.068C143.036 155.71 142.064 156.196 141.445 157.021L130.047 172.219C128.816 173.861 126.395 173.98 125.008 172.467L110.622 156.773C110.001 156.096 109.124 155.71 108.205 155.71H65.3933C63.583 155.71 62.1152 154.242 62.1152 152.432V136.041Z" fill="#4496FF"/>
<path d="M145.297 86.8698H82.1937C77.8939 86.8698 74.4082 90.3555 74.4082 94.6553C74.4082 98.9552 77.8939 102.441 82.1937 102.441H145.297C149.597 102.441 153.083 98.9552 153.083 94.6553C153.083 90.3555 149.597 86.8698 145.297 86.8698Z" fill="white"/>
<path d="M145.297 110.636H82.1937C77.8939 110.636 74.4082 114.122 74.4082 118.422C74.4082 122.721 77.8939 126.207 82.1937 126.207H145.297C149.597 126.207 153.083 122.721 153.083 118.422C153.083 114.122 149.597 110.636 145.297 110.636Z" fill="white"/>
</svg>
