<svg width="580" height="auto" id="eJo1fcjCQ0s1" xmlns="http://www.w3.org/2000/svg" xmlns:xlink="http://www.w3.org/1999/xlink" viewBox="0 0 662 605" shape-rendering="geometricPrecision" text-rendering="geometricPrecision"><style><![CDATA[#eJo1fcjCQ0s26_ts {animation: eJo1fcjCQ0s26_ts__ts 3000ms linear infinite normal forwards}@keyframes eJo1fcjCQ0s26_ts__ts { 0% {transform: translate(302.237991px,118.011753px) scale(1,1);animation-timing-function: cubic-bezier(0.420000,0,0.580000,1)} 16.666667% {transform: translate(302.237991px,118.011753px) scale(1.200000,1.200000);animation-timing-function: cubic-bezier(0.420000,0,0.580000,1)} 33.333333% {transform: translate(302.237991px,118.011753px) scale(1,1);animation-timing-function: cubic-bezier(0.420000,0,0.580000,1)} 50% {transform: translate(302.237991px,118.011753px) scale(1.200000,1.200000);animation-timing-function: cubic-bezier(0.420000,0,0.580000,1)} 66.666667% {transform: translate(302.237991px,118.011753px) scale(1,1);animation-timing-function: cubic-bezier(0.420000,0,0.580000,1)} 83.333333% {transform: translate(302.237991px,118.011753px) scale(1.200000,1.200000);animation-timing-function: cubic-bezier(0.420000,0,0.580000,1)} 100% {transform: translate(302.237991px,118.011753px) scale(1,1)}} #eJo1fcjCQ0s49_to {animation: eJo1fcjCQ0s49_to__to 3000ms linear infinite normal forwards}@keyframes eJo1fcjCQ0s49_to__to { 0% {transform: translate(298.334244px,273.898227px);animation-timing-function: cubic-bezier(1,0,0,1)} 50% {transform: translate(485.599018px,136.829149px)} 100% {transform: translate(485.599018px,136.829149px)}} #eJo1fcjCQ0s49_tr {animation: eJo1fcjCQ0s49_tr__tr 3000ms linear infinite normal forwards}@keyframes eJo1fcjCQ0s49_tr__tr { 0% {transform: rotate(18.318856deg);animation-timing-function: cubic-bezier(1,0,0,1)} 50% {transform: rotate(0deg)} 100% {transform: rotate(0deg)}} #eJo1fcjCQ0s49 {animation: eJo1fcjCQ0s49_c_o 3000ms linear infinite normal forwards}@keyframes eJo1fcjCQ0s49_c_o { 0% {opacity: 0} 50% {opacity: 1} 70% {opacity: 1} 100% {opacity: 0}} #eJo1fcjCQ0s53_to {animation: eJo1fcjCQ0s53_to__to 3000ms linear infinite normal forwards}@keyframes eJo1fcjCQ0s53_to__to { 0% {offset-distance: 0%;animation-timing-function: cubic-bezier(1,0,0,1)} 50% {offset-distance: 100%} 100% {offset-distance: 100%}} #eJo1fcjCQ0s53 {animation: eJo1fcjCQ0s53_c_o 3000ms linear infinite normal forwards}@keyframes eJo1fcjCQ0s53_c_o { 0% {opacity: 0} 50% {opacity: 1} 70% {opacity: 1} 100% {opacity: 0}}]]></style><g id="eJo1fcjCQ0s2"><g id="eJo1fcjCQ0s3"><path id="eJo1fcjCQ0s4" d="M494.997000,347.630000C445.033000,414.675000,445.987000,459.672000,454.607000,478.841000C456.472000,482.986000,459.886000,486.271000,464.209000,487.676000C486.720000,494.993000,541.452000,485.074000,591.752000,415.467000C661.467000,318.993000,654.825000,260.348000,642.992000,252.052000C633.247000,245.220000,565.129000,253.525000,494.997000,347.630000Z" fill="rgb(93,179,171)" stroke="none" stroke-width="1"/><path id="eJo1fcjCQ0s5" d="M553.986000,360.957000C554.794000,359.804000,554.515000,358.214000,553.362000,357.405000C552.208000,356.597000,550.618000,356.876000,549.809000,358.029000L435.612000,520.909000C434.803000,522.063000,435.083000,523.653000,436.236000,524.462000C437.389000,525.270000,438.980000,524.991000,439.788000,523.838000L553.986000,360.957000Z" transform="matrix(1 0 0 1 0 -1.00166320999989)" fill="rgb(73,120,125)" stroke="none" stroke-width="1"/></g><path id="eJo1fcjCQ0s6" d="M544.870000,421.093000C546.147000,420.499000,546.700000,418.982000,546.106000,417.705000C545.511000,416.428000,543.994000,415.875000,542.717000,416.469000L494.728000,438.812000C493.451000,439.406000,492.898000,440.923000,493.492000,442.200000C494.087000,443.477000,495.604000,444.030000,496.881000,443.436000L544.870000,421.093000Z" fill="rgb(73,120,125)" stroke="none" stroke-width="1"/><path id="eJo1fcjCQ0s7" d="M520.681000,362.106000C520.805000,360.703000,519.768000,359.466000,518.365000,359.342000C516.962000,359.218000,515.724000,360.256000,515.600000,361.659000L510.955000,414.390000C510.831000,415.793000,511.868000,417.031000,513.271000,417.154000C514.674000,417.278000,515.912000,416.241000,516.036000,414.838000L520.681000,362.106000Z" fill="rgb(73,120,125)" stroke="none" stroke-width="1"/><path id="eJo1fcjCQ0s8" d="M479.513000,432.219000C479.637000,430.816000,478.600000,429.578000,477.197000,429.454000C475.794000,429.331000,474.556000,430.368000,474.432000,431.771000L470.935000,471.467000C470.812000,472.871000,471.849000,474.108000,473.252000,474.232000C474.655000,474.355000,475.892000,473.318000,476.016000,471.915000L479.513000,432.219000Z" fill="rgb(73,120,125)" stroke="none" stroke-width="1"/></g><g id="eJo1fcjCQ0s9"><g id="eJo1fcjCQ0s10"><path id="eJo1fcjCQ0s11" d="M43.516500,362.091000C89.487100,447.327000,137.224000,467.449000,160.925000,467.214000C165.470000,467.169000,169.873000,465.476000,173.062000,462.238000C191.774000,443.243000,208.888000,381.308000,160.453000,294.577000C94.137100,175.829000,30.182900,154.427000,15.881300,162.683000C4.103540,169.483000,-20.145700,244.054000,43.516500,362.091000Z" transform="matrix(1 0 0 1 0 -0.08024731000000)" fill="rgb(230,153,171)" stroke="none" stroke-width="1"/><path id="eJo1fcjCQ0s12" d="M70.898900,342.465000C69.505100,341.661000,67.722800,342.138000,66.918000,343.532000C66.113300,344.926000,66.590900,346.708000,67.984700,347.513000L120.369000,377.757000C121.763000,378.562000,123.546000,378.084000,124.350000,376.691000C125.155000,375.297000,124.677000,373.514000,123.284000,372.710000L70.898900,342.465000Z" fill="rgb(253,205,221)" stroke="none" stroke-width="1"/></g><path id="eJo1fcjCQ0s13" d="M85.772200,307.409000C84.967500,306.015000,83.185200,305.538000,81.791400,306.342000C80.397500,307.147000,79.919900,308.929000,80.724700,310.323000L194.379000,507.179000C195.184000,508.573000,196.966000,509.050000,198.360000,508.245000C199.754000,507.441000,200.231000,505.658000,199.427000,504.264000L85.772200,307.409000Z" fill="rgb(253,205,221)" stroke="none" stroke-width="1"/><path id="eJo1fcjCQ0s14" d="M143.670000,345.856000C143.670000,344.246000,142.365000,342.942000,140.756000,342.942000C139.147000,342.942000,137.842000,344.246000,137.842000,345.856000L137.842000,406.344000C137.842000,407.954000,139.147000,409.259000,140.756000,409.259000C142.365000,409.259000,143.670000,407.954000,143.670000,406.344000L143.670000,345.856000Z" fill="rgb(253,205,221)" stroke="none" stroke-width="1"/><path id="eJo1fcjCQ0s15" d="M123.676000,418.926000C122.282000,418.121000,120.500000,418.598000,119.695000,419.992000C118.891000,421.386000,119.368000,423.168000,120.762000,423.973000L160.198000,446.741000C161.592000,447.546000,163.374000,447.069000,164.179000,445.675000C164.983000,444.281000,164.506000,442.499000,163.112000,441.694000L123.676000,418.926000Z" fill="rgb(253,205,221)" stroke="none" stroke-width="1"/></g><g id="eJo1fcjCQ0s16"><g id="eJo1fcjCQ0s17"><path id="eJo1fcjCQ0s18" d="M539.548000,426.306000C491.619000,454.620000,478.954000,482.515000,478.235000,497.734000C478.020000,502.274000,479.949000,506.699000,483.631000,509.365000C497.569000,519.464000,534.436000,525.975000,583.497000,496.011000C654.335000,452.749000,665.867000,413.241000,660.492000,404.715000C656.066000,397.695000,610.015000,384.679000,539.548000,426.306000Z" fill="rgb(73,144,141)" stroke="none" stroke-width="1"/><path id="eJo1fcjCQ0s19" d="M573.897000,450.776000C574.727000,450.252000,574.976000,449.154000,574.452000,448.323000C573.929000,447.492000,572.830000,447.243000,572,447.767000L454.657000,521.753000C453.826000,522.277000,453.577000,523.375000,454.101000,524.206000C454.625000,525.037000,455.723000,525.286000,456.554000,524.762000L573.897000,450.776000Z" fill="rgb(73,120,125)" stroke="none" stroke-width="1"/></g><path id="eJo1fcjCQ0s20" d="M551.826000,486.997000C552.808000,486.959000,553.572000,486.132000,553.534000,485.150000C553.496000,484.169000,552.669000,483.404000,551.688000,483.443000L514.801000,484.880000C513.820000,484.918000,513.055000,485.745000,513.093000,486.727000C513.131000,487.708000,513.958000,488.473000,514.940000,488.434000L551.826000,486.997000Z" fill="rgb(73,120,125)" stroke="none" stroke-width="1"/><path id="eJo1fcjCQ0s21" d="M552.164000,442.539000C552.622000,441.670000,552.288000,440.594000,551.419000,440.137000C550.550000,439.679000,549.475000,440.013000,549.017000,440.882000L531.819000,473.545000C531.361000,474.415000,531.695000,475.490000,532.564000,475.948000C533.433000,476.405000,534.509000,476.072000,534.966000,475.203000L552.164000,442.539000Z" fill="rgb(73,120,125)" stroke="none" stroke-width="1"/><path id="eJo1fcjCQ0s22" d="M506.791000,476.540000C507.249000,475.670000,506.915000,474.595000,506.046000,474.137000C505.177000,473.680000,504.102000,474.013000,503.644000,474.882000L490.697000,499.472000C490.239000,500.341000,490.573000,501.416000,491.442000,501.874000C492.311000,502.332000,493.387000,501.998000,493.844000,501.129000L506.791000,476.540000Z" fill="rgb(73,120,125)" stroke="none" stroke-width="1"/></g><g id="eJo1fcjCQ0s23"><path id="eJo1fcjCQ0s24" d="M439.918000,0L165.376000,0C148.177000,0,134.234000,13.942800,134.234000,31.142000L134.234000,567.932000C134.234000,585.131000,148.177000,599.074000,165.376000,599.074000L439.918000,599.074000C457.117000,599.074000,471.060000,585.131000,471.060000,567.932000L471.060000,31.142000C471.060000,13.942800,457.117000,0,439.918000,0Z" fill="rgb(62,47,67)" stroke="none" stroke-width="1"/><path id="eJo1fcjCQ0s25" d="M145.707000,561.376000L145.707000,36.878700C145.707000,23.752900,156.348000,13.112400,169.473000,13.112400L223.185000,13.112400C227.043000,13.112400,230.727000,14.711700,233.362000,17.529300L254.996000,40.667000C257.630000,43.484600,261.314000,45.083900,265.172000,45.083900L331.204000,45.083900C335.134000,45.083900,338.881000,43.424400,341.521000,40.514500L362.242000,17.681800C364.883000,14.771800,368.630000,13.112400,372.559000,13.112400L435.820000,13.112400C448.945000,13.112400,459.586000,23.753000,459.586000,36.878700L459.586000,561.376000C459.586000,574.501000,448.945000,585.142000,435.820000,585.142000L169.473000,585.142000C156.348000,585.142000,145.707000,574.501000,145.707000,561.376000Z" transform="matrix(1 0 0 1 -2.03700000000003 0)" fill="rgb(255,255,255)" stroke="none" stroke-width="1"/><g id="eJo1fcjCQ0s26_ts" transform="translate(302.237991,118.011753) scale(1,1)"><path id="eJo1fcjCQ0s26" d="M302.238000,158.988000C324.869000,158.988000,343.214000,140.642000,343.214000,118.012000C343.214000,95.381300,324.869000,77.035500,302.238000,77.035500C279.607000,77.035500,261.262000,95.381300,261.262000,118.012000C261.262000,140.642000,279.607000,158.988000,302.238000,158.988000Z" transform="translate(-302.237991,-118.011753)" fill="rgb(200,192,254)" stroke="none" stroke-width="1"/></g><path id="eJo1fcjCQ0s27" d="M302.238000,140.959000C314.911000,140.959000,325.185000,130.685000,325.185000,118.012000C325.185000,105.339000,314.911000,95.065100,302.238000,95.065100C289.565000,95.065100,279.291000,105.339000,279.291000,118.012000C279.291000,130.685000,289.565000,140.959000,302.238000,140.959000Z" fill="rgb(162,114,253)" stroke="none" stroke-width="1"/><path id="eJo1fcjCQ0s28" d="M415.332000,183.574000L189.962000,183.574000C184.078000,183.574000,179.309000,188.344000,179.309000,194.228000L179.309000,245.039000C179.309000,250.923000,184.078000,255.692000,189.962000,255.692000L415.332000,255.692000C421.216000,255.692000,425.986000,250.923000,425.986000,245.039000L425.986000,194.228000C425.986000,188.344000,421.216000,183.574000,415.332000,183.574000Z" fill="rgb(255,183,82)" stroke="none" stroke-width="1"/><path id="eJo1fcjCQ0s29" d="M397.712000,195.867000L206.762000,195.867000C201.557000,195.867000,197.338000,200.086000,197.338000,205.291000C197.338000,210.497000,201.557000,214.716000,206.762000,214.716000L397.712000,214.716000C402.917000,214.716000,407.137000,210.497000,407.137000,205.291000C407.137000,200.086000,402.917000,195.867000,397.712000,195.867000Z" fill="rgb(255,255,255)" stroke="none" stroke-width="1"/><path id="eJo1fcjCQ0s30" d="M412.874000,286.015000L248.150000,286.015000C240.908000,286.015000,235.037000,291.886000,235.037000,299.127000C235.037000,306.369000,240.908000,312.240000,248.150000,312.240000L412.874000,312.240000C420.116000,312.240000,425.987000,306.369000,425.987000,299.127000C425.987000,291.886000,420.116000,286.015000,412.874000,286.015000Z" fill="rgb(203,197,254)" stroke="none" stroke-width="1"/><path id="eJo1fcjCQ0s31" d="M412.874000,344.201000L248.150000,344.201000C240.908000,344.201000,235.037000,350.072000,235.037000,357.314000C235.037000,364.556000,240.908000,370.426000,248.150000,370.426000L412.874000,370.426000C420.116000,370.426000,425.987000,364.556000,425.987000,357.314000C425.987000,350.072000,420.116000,344.201000,412.874000,344.201000Z" fill="rgb(203,197,254)" stroke="none" stroke-width="1"/><path id="eJo1fcjCQ0s32" d="M397.712000,223.731000L206.762000,223.731000C201.557000,223.731000,197.338000,227.950000,197.338000,233.155000C197.338000,238.360000,201.557000,242.580000,206.762000,242.580000L397.712000,242.580000C402.917000,242.580000,407.137000,238.360000,407.137000,233.155000C407.137000,227.950000,402.917000,223.731000,397.712000,223.731000Z" fill="rgb(255,255,255)" stroke="none" stroke-width="1"/><path id="eJo1fcjCQ0s33" d="M196.109000,315.518000C205.387000,315.518000,212.909000,307.996000,212.909000,298.718000C212.909000,289.439000,205.387000,281.917000,196.109000,281.917000C186.830000,281.917000,179.309000,289.439000,179.309000,298.718000C179.309000,307.996000,186.830000,315.518000,196.109000,315.518000Z" fill="rgb(203,197,254)" stroke="none" stroke-width="1"/><path id="eJo1fcjCQ0s34" d="M196.109000,373.704000C205.387000,373.704000,212.909000,366.182000,212.909000,356.904000C212.909000,347.625000,205.387000,340.104000,196.109000,340.104000C186.830000,340.104000,179.309000,347.625000,179.309000,356.904000C179.309000,366.182000,186.830000,373.704000,196.109000,373.704000Z" fill="rgb(203,197,254)" stroke="none" stroke-width="1"/><path id="eJo1fcjCQ0s35" d="M416.971000,409.763000L188.323000,409.763000C183.345000,409.763000,179.309000,413.799000,179.309000,418.778000L179.309000,491.716000C179.309000,496.695000,183.345000,500.731000,188.323000,500.731000L416.971000,500.731000C421.950000,500.731000,425.986000,496.695000,425.986000,491.716000L425.986000,418.778000C425.986000,413.799000,421.950000,409.763000,416.971000,409.763000Z" fill="rgb(254,179,186)" stroke="none" stroke-width="1"/><path id="eJo1fcjCQ0s36" d="M264.539000,421.237000L200.616000,421.237000C198.806000,421.237000,197.338000,422.704000,197.338000,424.515000L197.338000,486.799000C197.338000,488.609000,198.806000,490.077000,200.616000,490.077000L264.539000,490.077000C266.350000,490.077000,267.817000,488.609000,267.817000,486.799000L267.817000,424.515000C267.817000,422.704000,266.350000,421.237000,264.539000,421.237000Z" fill="rgb(255,162,170)" stroke="none" stroke-width="1"/><path id="eJo1fcjCQ0s37" d="M402.630000,418.778000L288.716000,418.778000C283.511000,418.778000,279.291000,422.998000,279.291000,428.203000C279.291000,433.408000,283.511000,437.627000,288.716000,437.627000L402.630000,437.627000C407.835000,437.627000,412.054000,433.408000,412.054000,428.203000C412.054000,422.998000,407.835000,418.778000,402.630000,418.778000Z" fill="rgb(255,255,255)" stroke="none" stroke-width="1"/><path id="eJo1fcjCQ0s38" d="M402.630000,445.003000L288.716000,445.003000C283.511000,445.003000,279.291000,449.223000,279.291000,454.428000C279.291000,459.633000,283.511000,463.852000,288.716000,463.852000L402.630000,463.852000C407.835000,463.852000,412.054000,459.633000,412.054000,454.428000C412.054000,449.223000,407.835000,445.003000,402.630000,445.003000Z" fill="rgb(255,255,255)" stroke="none" stroke-width="1"/><path id="eJo1fcjCQ0s39" d="M402.630000,471.228000L288.716000,471.228000C283.511000,471.228000,279.291000,475.447000,279.291000,480.652000C279.291000,485.858000,283.511000,490.077000,288.716000,490.077000L402.630000,490.077000C407.835000,490.077000,412.054000,485.858000,412.054000,480.652000C412.054000,475.447000,407.835000,471.228000,402.630000,471.228000Z" fill="rgb(255,255,255)" stroke="none" stroke-width="1"/><path id="eJo1fcjCQ0s40" d="M360.424000,518.760000L244.871000,518.760000C232.197000,518.760000,221.924000,529.034000,221.924000,541.707000C221.924000,554.380000,232.197000,564.654000,244.871000,564.654000L360.424000,564.654000C373.097000,564.654000,383.371000,554.380000,383.371000,541.707000C383.371000,529.034000,373.097000,518.760000,360.424000,518.760000Z" fill="rgb(244,136,246)" stroke="none" stroke-width="1"/></g><g id="eJo1fcjCQ0s41"><path id="eJo1fcjCQ0s42" d="M498.924000,603.991000C532.869000,603.991000,560.388000,576.473000,560.388000,542.527000C560.388000,508.581000,532.869000,481.062000,498.924000,481.062000C464.978000,481.062000,437.459000,508.581000,437.459000,542.527000C437.459000,576.473000,464.978000,603.991000,498.924000,603.991000Z" transform="matrix(1 0 0 1 0 -0.81949999999995)" fill="rgb(230,153,171)" stroke="none" stroke-width="1"/><path id="eJo1fcjCQ0s43" d="M460.406000,590.469000L468.489000,595.099000C521.056000,625.204000,580.776000,568.919000,553.832000,514.663000L552.113000,519.702000C538.710000,558.988000,503.401000,586.675000,462.053000,590.324000L460.406000,590.469000Z" fill="rgb(234,138,161)" stroke="none" stroke-width="1"/><path id="eJo1fcjCQ0s44" d="M470.651000,546.624000C481.740000,546.624000,490.729000,537.635000,490.729000,526.546000C490.729000,515.457000,481.740000,506.468000,470.651000,506.468000C459.562000,506.468000,450.572000,515.457000,450.572000,526.546000C450.572000,537.635000,459.562000,546.624000,470.651000,546.624000Z" fill="rgb(253,205,221)" stroke="none" stroke-width="1"/></g><g id="eJo1fcjCQ0s45"><path id="eJo1fcjCQ0s46" d="M13.240000,565.948000C38.297100,605.261000,90.478900,616.817000,129.792000,591.760000C169.104000,566.703000,180.660000,514.521000,155.603000,475.208000C130.547000,435.896000,78.364600,424.340000,39.051900,449.397000C-0.260398,474.454000,-11.817000,526.635000,13.240000,565.948000Z" transform="matrix(1 0 0 1 -0.00119118000001 0)" fill="rgb(247,183,84)" stroke="none" stroke-width="1"/><path id="eJo1fcjCQ0s47" d="M0.468750,511.359000L1.073810,524.137000C5.010810,607.237000,114.276000,634.851000,157.222000,563.600000L150.116000,565.328000C94.725600,578.805000,36.598200,558.351000,1.852030,513.159000L0.468750,511.359000Z" fill="rgb(244,172,54)" stroke="none" stroke-width="1"/><path id="eJo1fcjCQ0s48" d="M58.807700,490.859000C66.992300,503.702000,84.038500,507.476000,96.881300,499.291000C109.723000,491.106000,113.498000,474.060000,105.313000,461.217000C97.128000,448.375000,80.081800,444.601000,67.239000,452.786000C54.397000,460.971000,50.622300,478.017000,58.807700,490.859000Z" transform="matrix(1 0 0 1 2.36022708500001 0)" fill="rgb(255,223,130)" stroke="none" stroke-width="1"/></g><g id="eJo1fcjCQ0s49_to" transform="translate(298.334244,273.898227)"><g id="eJo1fcjCQ0s49_tr" transform="rotate(18.318856)"><g id="eJo1fcjCQ0s49" transform="translate(-485.600296,-136.828285)" opacity="0"><path id="eJo1fcjCQ0s50" d="M507.667000,85.035100L435.276000,111.379000C430.597000,113.081000,428.185000,118.254000,429.887000,122.933000L451.747000,183.002000C453.450000,187.681000,458.623000,190.093000,463.301000,188.391000L535.692000,162.047000C540.371000,160.344000,542.784000,155.171000,541.081000,150.493000L519.221000,90.423600C517.519000,85.745000,512.346000,83.332500,507.667000,85.035100Z" fill="rgb(255,48,48)" stroke="none" stroke-width="1"/><path id="eJo1fcjCQ0s51" d="M452.029000,183.772000L450.680000,180.065000L524.996000,153.020000C526.697000,152.401000,527.575000,150.520000,526.956000,148.819000L522.139000,135.584000C521.520000,133.883000,522.397000,132.002000,524.099000,131.382000L532.955000,128.160000L541.363000,151.263000C542.911000,155.517000,540.717000,160.219000,536.464000,161.767000L462.533000,188.671000C458.279000,190.219000,453.577000,188.026000,452.029000,183.772000Z" fill="rgb(247,41,41)" stroke="none" stroke-width="1"/><path id="eJo1fcjCQ0s52" d="M506.990000,125.111000C510.096000,125.659000,511.445000,129.364000,509.417000,131.781000L484.780000,161.138000C482.752000,163.555000,478.869000,162.869000,477.791000,159.905000L464.684000,123.890000C463.606000,120.926000,466.141000,117.906000,469.247000,118.454000L506.990000,125.111000Z" fill="rgb(255,255,255)" stroke="none" stroke-width="1"/></g></g></g><g id="eJo1fcjCQ0s53_to" style="offset-path:path('M294.042098,276.485711C296.737604,279.758403,72.107822,76.504702,62.120000,68.020000');offset-rotate:0deg"><g id="eJo1fcjCQ0s53" transform="translate(-113.745602,-120.775410)" opacity="0"><path id="eJo1fcjCQ0s54" d="M62.115200,71.298800C62.115200,69.488400,63.583000,68.020700,65.393300,68.020700L162.098000,68.020700C163.908000,68.020700,165.376000,69.488400,165.376000,71.298800L165.376000,152.432000C165.376000,154.242000,163.908000,155.710000,162.098000,155.710000L144.068000,155.710000C143.036000,155.710000,142.064000,156.196000,141.445000,157.021000L130.047000,172.219000C128.816000,173.861000,126.395000,173.980000,125.008000,172.467000L110.622000,156.773000C110.001000,156.096000,109.124000,155.710000,108.205000,155.710000L65.393300,155.710000C63.583000,155.710000,62.115200,154.242000,62.115200,152.432000L62.115200,71.298800Z" fill="rgb(104,164,240)" stroke="none" stroke-width="1"/><path id="eJo1fcjCQ0s55" d="M62.115200,136.041000L165.376000,136.041000L165.376000,152.432000C165.376000,154.242000,163.908000,155.710000,162.098000,155.710000L144.068000,155.710000C143.036000,155.710000,142.064000,156.196000,141.445000,157.021000L130.047000,172.219000C128.816000,173.861000,126.395000,173.980000,125.008000,172.467000L110.622000,156.773000C110.001000,156.096000,109.124000,155.710000,108.205000,155.710000L65.393300,155.710000C63.583000,155.710000,62.115200,154.242000,62.115200,152.432000L62.115200,136.041000Z" fill="rgb(68,150,255)" stroke="none" stroke-width="1"/><path id="eJo1fcjCQ0s56" d="M145.297000,86.869800L82.193700,86.869800C77.893900,86.869800,74.408200,90.355500,74.408200,94.655300C74.408200,98.955200,77.893900,102.441000,82.193700,102.441000L145.297000,102.441000C149.597000,102.441000,153.083000,98.955200,153.083000,94.655300C153.083000,90.355500,149.597000,86.869800,145.297000,86.869800Z" fill="rgb(255,255,255)" stroke="none" stroke-width="1"/><path id="eJo1fcjCQ0s57" d="M145.297000,110.636000L82.193700,110.636000C77.893900,110.636000,74.408200,114.122000,74.408200,118.422000C74.408200,122.721000,77.893900,126.207000,82.193700,126.207000L145.297000,126.207000C149.597000,126.207000,153.083000,122.721000,153.083000,118.422000C153.083000,114.122000,149.597000,110.636000,145.297000,110.636000Z" fill="rgb(255,255,255)" stroke="none" stroke-width="1"/></g></g></svg>