<?xml version="1.0" encoding="iso-8859-1"?>
<!-- Generator: Adobe Illustrator 19.0.0, SVG Export Plug-In . SVG Version: 6.00 Build 0)  -->
<svg version="1.1" id="Capa_1" xmlns="http://www.w3.org/2000/svg" xmlns:xlink="http://www.w3.org/1999/xlink" x="0px" y="0px"
	 viewBox="0 0 512 512" style="enable-background:new 0 0 512 512;" xml:space="preserve">
<g>
	<g>
		<path fill='#ffffff' d="M464,224H48c-26.496,0-48,21.504-48,48c0,26.496,21.504,48,48,48h416c26.496,0,48-21.504,48-48
			C512,245.504,490.496,224,464,224z"/>
	</g>
</g>
<g>
	<g>
		<path fill="#ffffff" d="M336,64H176c-72.352,0-133.824,54.144-142.912,125.984c-0.096,0.672,0.16,1.344,0.16,2.016H478.72
			c0-0.672,0.256-1.344,0.192-2.016C469.792,118.144,408.352,64,336,64z"/>
	</g>
</g>
<g>
	<g>
		<path fill='#ffffff' d="M32,352v16c0,44.128,35.904,80,80,80h288c44.128,0,80-35.872,80-80v-16H32z"/>
	</g>
</g>
<g>
</g>
<g>
</g>
<g>
</g>
<g>
</g>
<g>
</g>
<g>
</g>
<g>
</g>
<g>
</g>
<g>
</g>
<g>
</g>
<g>
</g>
<g>
</g>
<g>
</g>
<g>
</g>
<g>
</g>
</svg>
