<svg width="206" height="176" viewBox="0 0 206 176" fill="none" xmlns="http://www.w3.org/2000/svg">
<path d="M26.7757 0.420448C11.9879 0.420448 0 9.98495 0 21.7834C0 33.5818 11.9879 43.1463 26.7757 43.1463L178.862 43.1463C193.649 43.1463 205.637 33.5818 205.637 21.7834C205.637 9.98495 193.649 0.420448 178.862 0.420448L26.7757 0.420448Z" fill="white"/>
<path d="M26.7757 66.5073C11.9879 66.5073 0 76.003 0 87.7165C0 99.4301 11.9879 108.926 26.7757 108.926L178.862 108.926C193.649 108.926 205.637 99.4301 205.637 87.7165C205.637 76.003 193.649 66.5073 178.862 66.5073L26.7757 66.5073Z" fill="white"/>
<path d="M26.7757 132.286C11.9879 132.286 0 141.851 0 153.649C0 165.448 11.9879 175.012 26.7757 175.012L178.862 175.012C193.649 175.012 205.637 165.448 205.637 153.649C205.637 141.851 193.649 132.286 178.862 132.286L26.7757 132.286Z" fill="white"/>
<path d="M205.638 153.649L0.00106417 153.649C0.00106417 165.448 11.9889 175.012 26.7767 175.012L178.863 175.012C193.65 175.012 205.638 165.448 205.638 153.649Z" fill="#F5F5F5"/>
<path d="M205.638 87.7165L0.00106417 87.7165C0.00106417 99.5149 11.9889 109.079 26.7767 109.079L178.863 109.079C193.65 109.079 205.638 99.5149 205.638 87.7165Z" fill="#F5F5F5"/>
<path d="M205.638 21.7834L0.00106417 21.7834C0.00106417 33.5818 11.9889 43.1463 26.7767 43.1463L178.863 43.1463C193.65 43.1463 205.638 33.5818 205.638 21.7834Z" fill="#F5F5F5"/>
</svg>
