<svg id="eOP2K07BGQ41" xmlns="http://www.w3.org/2000/svg" xmlns:xlink="http://www.w3.org/1999/xlink" viewBox="0 0 78 71" shape-rendering="geometricPrecision" text-rendering="geometricPrecision"><style><![CDATA[#eOP2K07BGQ42_tr {animation: eOP2K07BGQ42_tr__tr 3000ms linear infinite normal forwards}@keyframes eOP2K07BGQ42_tr__tr { 0% {transform: translate(25.662151px,35.237219px) rotate(-29deg);animation-timing-function: cubic-bezier(1,0,0,1)} 66.666667% {transform: translate(25.662151px,35.237219px) rotate(0deg)} 100% {transform: translate(25.662151px,35.237219px) rotate(0deg)}} #eOP2K07BGQ42 {animation: eOP2K07BGQ42_c_o 3000ms linear infinite normal forwards}@keyframes eOP2K07BGQ42_c_o { 0% {opacity: 0;animation-timing-function: cubic-bezier(1,0,0,1)} 66.666667% {opacity: 1} 100% {opacity: 0}} #eOP2K07BGQ45_tr {animation: eOP2K07BGQ45_tr__tr 3000ms linear infinite normal forwards}@keyframes eOP2K07BGQ45_tr__tr { 0% {transform: translate(51.453220px,35.237226px) rotate(29deg);animation-timing-function: cubic-bezier(1,0,0,1)} 66.666667% {transform: translate(51.453220px,35.237226px) rotate(0deg)} 100% {transform: translate(51.453220px,35.237226px) rotate(0deg)}} #eOP2K07BGQ45 {animation: eOP2K07BGQ45_c_o 3000ms linear infinite normal forwards}@keyframes eOP2K07BGQ45_c_o { 0% {opacity: 0;animation-timing-function: cubic-bezier(1,0,0,1)} 66.666667% {opacity: 1} 100% {opacity: 0}}]]></style><g id="eOP2K07BGQ42_tr" transform="translate(25.662151,35.237219) rotate(-29)"><g id="eOP2K07BGQ42" transform="translate(-25.662151,-35.237219)" opacity="0"><path id="eOP2K07BGQ43" d="M46.719600,17.188000C49.263100,12.782500,47.753700,7.149090,43.348100,4.605520C38.942500,2.061960,33.309100,3.571430,30.765600,7.977000L4.606190,53.286400C2.062630,57.692000,3.572090,63.325300,7.977670,65.868900C12.383200,68.412500,18.016600,66.903000,20.560200,62.497400L46.719600,17.188000Z" fill="rgb(247,183,84)" stroke="none" stroke-width="1"/><path id="eOP2K07BGQ44" d="M14.726100,35.738900L15.532100,37.571900C17.837300,42.814400,23.323900,45.908600,29.003000,45.168400L30.680100,44.949900L20.558700,62.480700C18.015200,66.886200,12.381800,68.395700,7.976200,65.852400C3.570620,63.308600,2.061160,57.675200,4.604740,53.269700L14.726100,35.738900Z" fill="rgb(244,172,54)" stroke="none" stroke-width="1"/></g></g><g id="eOP2K07BGQ45_tr" transform="translate(51.453220,35.237226) rotate(29)"><g id="eOP2K07BGQ45" transform="translate(-51.453220,-35.237226)" opacity="0"><path id="eOP2K07BGQ46" d="M46.350500,7.977010C43.807000,3.571440,38.173600,2.061970,33.768000,4.605540C29.362400,7.149100,27.853000,12.782500,30.396500,17.188100L56.555900,62.497400C59.099500,66.903000,64.732900,68.412500,69.138400,65.868900C73.544000,63.325300,75.053500,57.692000,72.509900,53.286400L46.350500,7.977010Z" fill="rgb(104,164,240)" stroke="none" stroke-width="1"/><path id="eOP2K07BGQ47" d="M46.433600,44.966500L48.423900,45.185000C54.116700,45.809800,59.539800,42.605500,61.738300,37.317300L62.387900,35.755600L72.509000,53.286300C75.052700,57.692100,73.543200,63.325200,69.137700,65.868900C64.731900,68.412300,59.098800,66.903200,56.555100,62.497300L46.433600,44.966500Z" fill="rgb(68,150,255)" stroke="none" stroke-width="1"/></g></g></svg>