<svg width="78" height="71" viewBox="0 0 78 71" fill="none" xmlns="http://www.w3.org/2000/svg">
<path d="M46.7196 17.188C49.2631 12.7825 47.7537 7.14909 43.3481 4.60552C38.9425 2.06196 33.3091 3.57143 30.7656 7.977L4.60619 53.2864C2.06263 57.692 3.57209 63.3253 7.97767 65.8689C12.3832 68.4125 18.0166 66.903 20.5602 62.4974L46.7196 17.188Z" fill="#F7B754"/>
<path d="M46.3505 7.97701C43.807 3.57144 38.1736 2.06197 33.768 4.60554C29.3624 7.1491 27.853 12.7825 30.3965 17.1881L56.5559 62.4974C59.0995 66.903 64.7329 68.4125 69.1384 65.8689C73.544 63.3253 75.0535 57.692 72.5099 53.2864L46.3505 7.97701Z" fill="#68A4F0"/>
<path d="M46.4336 44.9665L48.4239 45.185C54.1167 45.8098 59.5398 42.6055 61.7383 37.3173L62.3879 35.7556L72.509 53.2863C75.0527 57.6921 73.5432 63.3252 69.1377 65.8689C64.7319 68.4123 59.0988 66.9032 56.5551 62.4973L46.4336 44.9665Z" fill="#4496FF"/>
<path d="M14.7261 35.7389L15.5321 37.5719C17.8373 42.8144 23.3239 45.9086 29.003 45.1684L30.6801 44.9499L20.5587 62.4807C18.0152 66.8862 12.3818 68.3957 7.9762 65.8524C3.57062 63.3086 2.06116 57.6752 4.60474 53.2697L14.7261 35.7389Z" fill="#F4AC36"/>
</svg>
