<svg width="512" height="512" viewBox="0 0 512 512" fill="none" xmlns="http://www.w3.org/2000/svg">
<g clip-path="url(#clip0)">
<path d="M313.917 184.932L262.669 232.612L215.117 136.692L239.725 81.5239C246.125 70.3239 256.109 70.4519 262.349 81.5239L313.917 184.932Z" fill="#FFA000"/>
<path d="M215.116 136.688L262.668 232.607L71.1484 410.767L215.116 136.688Z" fill="#F57F17"/>
<path d="M369.964 112.048C379.116 103.248 388.588 106.256 391.004 118.72L440.86 408.4L275.612 507.6C269.852 510.8 254.492 512.176 254.492 512.176C254.492 512.176 240.508 510.512 235.18 507.376L71.1484 410.768L369.964 112.048Z" fill="#FFCA28"/>
<path d="M215.124 136.684L71.1719 410.764L135.284 10.2038C137.652 -2.27622 144.756 -3.47622 151.092 7.53178L215.124 136.684Z" fill="#FFA000"/>
</g>
<defs>
<clipPath id="clip0">
<rect width="512" height="512" fill="white"/>
</clipPath>
</defs>
</svg>
