<svg width="507" height="512" viewBox="0 0 507 512" fill="none" xmlns="http://www.w3.org/2000/svg">
<path d="M250.188 0.00445193C229.305 0.10012 209.365 1.88137 191.821 4.98829C140.133 14.1223 130.749 33.2331 130.749 68.4844V115.038H252.894V130.555H84.9057C49.4083 130.555 18.3208 151.893 8.59916 192.484C-2.61676 239.01 -3.11332 268.043 8.59916 316.624C17.2822 352.787 38.0193 378.553 73.5166 378.553H115.515V322.747C115.515 282.43 150.397 246.869 191.821 246.869H313.825C347.787 246.869 374.898 218.906 374.898 184.798V68.4799C374.898 35.3788 346.972 10.5097 313.825 4.98374C292.838 1.49414 271.071 -0.0957716 250.188 0.00445193ZM184.131 37.4425C196.751 37.4425 207.051 47.9158 207.051 60.79C207.051 73.6186 196.746 83.9963 184.131 83.9963C171.471 83.9963 161.212 73.6232 161.212 60.79C161.212 47.9158 171.471 37.4425 184.131 37.4425Z" fill="url(#paint0_linear)"/>
<path d="M390.131 130.551V184.79C390.131 226.843 354.479 262.235 313.824 262.235H191.821C158.401 262.235 130.748 290.835 130.748 324.306V440.615C130.748 473.721 159.53 493.191 191.821 502.685C230.484 514.056 267.562 516.111 313.824 502.685C344.575 493.783 374.897 475.862 374.897 440.615V394.066H252.893V378.549H435.97C471.471 378.549 484.696 353.785 497.042 316.62C509.798 278.362 509.256 241.562 497.042 192.48C488.268 157.142 471.512 130.551 435.97 130.551H390.131ZM321.51 425.098C334.17 425.098 344.429 435.472 344.429 448.305C344.429 461.179 334.17 471.652 321.51 471.652C308.891 471.652 298.591 461.179 298.591 448.305C298.591 435.476 308.895 425.098 321.51 425.098Z" fill="url(#paint1_linear)"/>
<defs>
<linearGradient id="paint0_linear" x1="-12.0469" y1="14.5413" x2="269.619" y2="254.529" gradientUnits="userSpaceOnUse">
<stop stop-color="#5A9FD4"/>
<stop offset="1" stop-color="#306998"/>
</linearGradient>
<linearGradient id="paint1_linear" x1="375.307" y1="404.137" x2="274.252" y2="262.542" gradientUnits="userSpaceOnUse">
<stop stop-color="#FFD43B"/>
<stop offset="1" stop-color="#FFE873"/>
</linearGradient>
</defs>
</svg>
