<svg width="512" height="512" viewBox="0 0 512 512" fill="none" xmlns="http://www.w3.org/2000/svg">
<path d="M0 10C0 4.47715 4.47715 0 10 0H502C507.523 0 512 4.47715 512 10V502C512 507.523 507.523 512 502 512H10C4.47715 512 0 507.523 0 502V10Z" fill="#F7DF1E"/>
<path d="M134.622 427.866L173.804 404.154C181.363 417.556 188.239 428.895 204.733 428.895C220.543 428.895 230.511 422.711 230.511 398.655V235.059H278.626V399.335C278.626 449.17 249.414 471.853 206.795 471.853C168.305 471.853 145.962 451.918 134.621 427.862" fill="black"/>
<path d="M304.762 422.707L343.939 400.024C354.252 416.866 367.656 429.238 391.369 429.238C411.305 429.238 424.018 419.27 424.018 405.522C424.018 389.025 410.959 383.182 388.962 373.562L376.937 368.403C342.222 353.628 319.194 335.069 319.194 295.888C319.194 259.801 346.689 232.305 389.651 232.305C420.24 232.305 442.235 242.96 458.043 270.799L420.581 294.856C412.332 280.078 403.399 274.237 389.652 274.237C375.561 274.237 366.624 283.172 366.624 294.856C366.624 309.291 375.561 315.135 396.18 324.071L408.208 329.226C449.107 346.755 472.134 364.625 472.134 404.835C472.134 448.142 438.11 471.854 392.401 471.854C347.722 471.854 318.851 450.547 304.763 422.707" fill="black"/>
</svg>
