<svg width="512" height="512" viewBox="0 0 512 512" fill="none" xmlns="http://www.w3.org/2000/svg">
<g clip-path="url(#clip0)">
<path d="M34.3048 123.281C-10.9751 188.401 -5.37515 273.105 29.2488 342.481C30.0488 344.145 30.9288 345.777 31.7768 347.409L33.3768 350.529C33.6968 351.137 34.0488 351.729 34.3848 352.321C34.9768 353.441 35.5848 354.465 36.1928 355.553L39.5048 361.217L41.3928 364.321L45.2328 370.321L46.8648 372.849C48.6728 375.537 50.5128 378.225 52.4168 380.849L53.5048 382.321C55.1541 384.588 56.8397 386.829 58.5608 389.041L60.4808 391.473L65.1528 397.233L66.9448 399.377C69.0728 401.889 71.2648 404.385 73.4568 406.817C73.6808 407.057 73.7768 407.137 73.8408 407.233C76.0145 409.591 78.2227 411.917 80.4648 414.209L82.5928 416.353L87.8728 421.537L90.0328 423.617C92.409 425.858 94.8254 428.056 97.2808 430.209L105.217 436.929L107.937 439.105L113.425 443.393L116.353 445.633L122.513 450.049L125.393 452.081C127.361 453.441 129.361 454.737 131.377 456.033L133.969 457.761C137.057 459.722 140.178 461.632 143.329 463.489L145.921 465.089L152.961 469.025C154.241 469.713 155.553 470.369 156.849 471.025L161.873 473.633L163.041 474.193L165.121 475.185L173.089 478.865L174.769 479.617C177.845 480.957 180.944 482.243 184.065 483.473L186.305 484.369L195.073 487.617L196.193 488.001C199.43 489.116 202.684 490.183 205.953 491.201L208.321 491.905C211.521 492.913 214.977 494.145 218.401 494.753C437.505 534.706 501.121 363.073 501.121 363.073C447.681 432.705 352.801 451.073 262.721 430.625C259.313 429.857 256.001 428.801 252.689 427.809L250.193 427.057C246.954 426.062 243.732 425.011 240.529 423.905L239.201 423.425C236.349 422.413 233.512 421.363 230.689 420.273L228.289 419.313C225.196 418.097 222.129 416.816 219.089 415.473L217.249 414.673L209.489 411.057L207.249 409.985C205.233 409.025 203.249 407.953 201.249 406.785L197.249 404.705C194.817 403.425 192.449 402.049 190.049 400.673L187.617 399.313C184.467 397.453 181.347 395.544 178.257 393.585C177.409 393.041 176.577 392.465 175.729 391.905L169.073 387.473C168.337 386.993 167.473 386.449 166.929 385.969L160.625 381.409L157.825 379.297L152.145 374.849L149.617 372.817L142.545 366.849C142.288 366.625 142.021 366.411 141.745 366.209L134.305 359.441L132.225 357.425L126.913 352.145L124.833 350.065C122.593 347.777 120.417 345.473 118.433 343.121C118.321 343.009 118.209 342.897 118.113 342.769C115.847 340.283 113.628 337.754 111.457 335.185L109.857 333.105L105.057 327.185L103.457 324.993L97.9208 317.633C47.7128 249.601 29.7608 155.553 69.6648 78.4335L34.3048 123.281ZM174.945 68.4335C142.177 115.585 143.953 178.833 169.505 228.561C173.786 236.943 178.63 245.025 184.001 252.753C188.913 259.793 194.353 268.161 200.865 273.809C203.233 276.417 205.697 278.929 208.225 281.441L210.145 283.361C212.59 285.746 215.092 288.072 217.649 290.337C217.761 290.417 217.841 290.529 217.969 290.609C220.881 293.169 223.825 295.409 226.817 297.937L228.801 299.489C231.803 301.805 234.865 304.04 237.985 306.193L238.257 306.385C239.633 307.345 241.041 308.225 242.449 309.153C243.121 309.585 243.761 310.049 244.433 310.465C246.67 311.9 248.937 313.287 251.233 314.625L252.193 315.185L258.209 318.385C258.913 318.785 259.809 319.121 260.353 319.505L264.561 321.681C264.769 321.793 264.993 321.873 265.201 321.969C268.087 323.407 271.011 324.767 273.969 326.049L275.889 326.849C278.272 327.861 280.672 328.832 283.089 329.761L286.161 330.881C288.352 331.678 290.555 332.441 292.769 333.169L295.761 334.129C298.913 335.089 302.161 336.369 305.313 336.897C474.481 364.929 513.537 234.497 513.537 234.497C478.337 285.217 410.177 309.377 337.409 290.497C334.193 289.651 330.997 288.728 327.825 287.729C326.865 287.441 325.905 287.121 324.945 286.801L318.225 284.497L315.025 283.377C312.609 282.446 310.209 281.475 307.825 280.465L305.873 279.665C302.896 278.372 299.951 277.006 297.041 275.569L292.609 273.329L290.049 272.017C288.166 270.995 286.299 269.945 284.449 268.865L283.105 268.113C280.816 266.773 278.554 265.386 276.321 263.953C275.633 263.521 274.961 263.041 274.273 262.593L269.873 259.681C266.774 257.534 263.733 255.304 260.753 252.993L258.673 251.393C226.673 226.241 201.585 191.873 189.585 152.929C177.009 112.529 179.713 67.1695 201.505 30.3695L174.945 68.4335ZM293.217 27.4415C273.921 56.0015 272.001 91.1695 285.409 122.561C299.537 155.889 328.497 182.017 362.305 194.561L366.497 196.161L368.353 196.737L374.385 198.337C467.793 216.385 493.105 150.401 499.873 140.689C477.681 172.641 440.385 180.305 394.625 169.201C391.009 168.321 387.041 167.009 383.553 165.777C379.076 164.191 374.686 162.37 370.401 160.321C362.268 156.41 354.544 151.699 347.345 146.257C306.401 115.201 280.961 55.7775 307.681 7.52148" fill="#0868AC"/>
</g>
<defs>
<clipPath id="clip0">
<rect width="512" height="512" fill="white"/>
</clipPath>
</defs>
</svg>
