<svg width="454" height="512" viewBox="0 0 454 512" fill="none" xmlns="http://www.w3.org/2000/svg">
<g clip-path="url(#clip0)">
<path d="M226.768 511.05C219.726 511.05 213.153 509.172 207.049 505.885L144.606 468.795C135.216 463.631 139.911 461.753 142.728 460.814C155.404 456.588 157.752 455.649 170.898 448.137C172.306 447.198 174.184 447.668 175.593 448.607L223.482 477.246C225.36 478.185 227.707 478.185 229.116 477.246L416.446 368.792C418.324 367.853 419.263 365.975 419.263 363.627V147.188C419.263 144.841 418.324 142.963 416.446 142.024L229.116 34.0387C227.238 33.0997 224.89 33.0997 223.482 34.0387L36.1514 142.024C34.2734 142.963 33.3344 145.31 33.3344 147.188V363.627C33.3344 365.505 34.2734 367.853 36.1514 368.792L87.3269 398.37C115.027 412.455 132.399 396.023 132.399 379.59V165.968C132.399 163.151 134.746 160.334 138.033 160.334H161.977C164.794 160.334 167.611 162.682 167.611 165.968V379.59C167.611 416.681 147.423 438.278 112.21 438.278C101.412 438.278 92.9609 438.278 69.0164 426.54L19.719 398.37C7.51199 391.328 0 378.182 0 364.097V147.658C0 133.573 7.51199 120.427 19.719 113.384L207.049 4.92974C218.787 -1.64325 234.75 -1.64325 246.487 4.92974L433.817 113.384C446.024 120.427 453.536 133.573 453.536 147.658V364.097C453.536 378.182 446.024 391.328 433.817 398.37L246.487 506.825C240.384 509.642 233.341 511.05 226.768 511.05ZM284.517 362.219C202.354 362.219 185.452 324.659 185.452 292.733C185.452 289.916 187.8 287.099 191.086 287.099H215.5C218.317 287.099 220.665 288.977 220.665 291.794C224.421 316.677 235.219 328.884 284.986 328.884C324.424 328.884 341.326 319.964 341.326 298.836C341.326 286.629 336.631 277.709 275.127 271.605C223.951 266.441 192.025 255.173 192.025 214.326C192.025 176.297 223.951 153.761 277.474 153.761C337.57 153.761 367.148 174.419 370.904 219.491C370.904 220.899 370.435 222.308 369.496 223.716C368.557 224.655 367.148 225.594 365.74 225.594H341.326C338.978 225.594 336.631 223.716 336.161 221.369C330.527 195.546 315.973 187.095 277.474 187.095C234.28 187.095 229.116 202.119 229.116 213.387C229.116 227.003 235.219 231.228 293.437 238.74C351.185 246.252 378.416 257.051 378.416 297.428C377.947 338.744 344.143 362.219 284.517 362.219Z" fill="#539E43"/>
</g>
<defs>
<clipPath id="clip0">
<rect width="453.536" height="512" fill="white"/>
</clipPath>
</defs>
</svg>
