<svg width="683" height="512" viewBox="0 0 683 512" fill="none" xmlns="http://www.w3.org/2000/svg">
<g clip-path="url(#clip0)">
<path d="M587.467 294.133C563.6 294.267 542.933 299.999 525.6 308.534C519.2 295.867 512.8 284.799 511.735 276.534C510.535 266.934 509.068 261.066 510.535 249.601C512 238.133 518.667 221.866 518.667 220.533C518.532 219.333 517.199 213.466 503.467 213.333C489.735 213.199 477.867 215.999 476.533 219.599C475.2 223.199 472.533 231.466 470.8 239.999C468.4 252.533 443.333 296.933 429.067 320.266C424.4 311.199 420.4 303.199 419.599 296.798C418.4 287.199 416.932 281.331 418.4 269.866C419.867 258.398 426.533 242.133 426.533 240.799C426.4 239.599 425.067 233.733 411.335 233.599C397.6 233.466 385.735 236.266 384.401 239.866C383.068 243.466 381.601 251.999 378.668 260.266C375.867 268.533 342.533 342.666 333.867 361.999C329.467 371.866 325.601 379.733 322.8 385.066C320 390.399 322.667 385.466 322.4 385.999C320 390.533 318.667 393.066 318.667 393.066V393.201C316.8 396.534 314.8 399.733 313.865 399.733C313.199 399.733 311.865 390.799 314.132 378.534C319.065 352.799 331.065 312.667 330.933 311.201C330.933 310.534 333.199 303.466 323.199 299.867C313.465 296.267 310 302.267 309.199 302.267C308.399 302.267 307.732 304.401 307.732 304.401C307.732 304.401 318.532 259.202 287.065 259.202C267.332 259.202 240.132 280.669 226.665 300.269C218.132 304.935 199.999 314.801 180.799 325.335C173.465 329.335 165.865 333.602 158.665 337.469L157.2 335.866C119.067 295.199 48.5333 266.399 51.4666 211.733C52.5333 191.866 59.4666 139.466 186.935 75.9995C291.335 23.9995 374.935 38.2662 389.467 69.9995C410.133 115.333 344.8 199.599 236.268 211.733C194.935 216.399 173.2 200.399 167.735 194.399C162.001 188.133 161.201 187.866 159.068 189.066C155.601 190.933 157.735 196.533 159.068 199.866C162.268 208.266 175.601 223.199 198.268 230.666C218.133 237.199 266.668 240.799 325.335 218.133C391.068 192.666 442.401 121.999 427.335 62.9328C412.001 2.7995 312.268 -16.9338 218.001 16.5328C161.867 36.5328 101.067 67.7328 57.3333 108.666C5.33326 157.199 -2.93341 199.599 0.533256 217.199C12.6679 279.999 99.1999 320.933 133.867 351.199C132.133 352.131 130.533 353.065 129.067 353.866C111.733 362.398 45.7333 396.933 29.1999 433.465C10.5333 474.798 32.1333 504.533 46.5333 508.533C91.0666 520.933 136.667 498.666 161.333 461.999C185.865 425.333 182.933 377.733 171.6 355.999L171.199 355.199L184.799 347.199C193.6 341.999 202.267 337.199 209.865 333.065C205.6 344.665 202.532 358.398 200.933 378.398C199.067 401.866 208.667 432.265 221.333 444.265C226.933 449.464 233.6 449.598 237.733 449.598C252.4 449.598 259.067 437.464 266.4 422.931C275.467 405.198 283.467 384.665 283.467 384.665C283.467 384.665 273.467 440.265 300.8 440.265C310.8 440.265 320.8 427.331 325.333 420.665V420.798C325.333 420.798 325.6 420.398 326.133 419.465C326.693 418.638 327.226 417.793 327.733 416.933V416.666C331.733 409.733 340.667 393.866 354 367.6C371.199 333.733 387.733 291.333 387.733 291.333C387.733 291.333 389.333 301.733 394.267 318.799C397.199 328.934 403.599 340 408.532 350.799C404.532 356.4 402.132 359.601 402.132 359.601L402.265 359.734C399.067 364.001 395.465 368.535 391.733 373.067C378.133 389.334 361.867 407.869 359.733 413.202C357.2 419.467 357.733 424.134 362.667 427.869C366.267 430.535 372.667 431.068 379.467 430.535C391.733 429.734 400.267 426.669 404.533 424.801C411.2 422.401 418.8 418.801 426.133 413.467C439.467 403.602 447.6 389.602 446.8 370.935C446.4 360.669 443.067 350.535 438.933 340.935C440.133 339.202 441.335 337.467 442.533 335.602C463.6 304.801 479.867 270.935 479.867 270.935C479.867 270.935 481.467 281.335 486.4 298.402C488.932 307.069 494 316.537 498.533 325.87C478.8 342.003 466.4 360.67 462.133 372.937C454.267 395.603 460.4 405.87 472 408.27C477.199 409.337 484.667 406.937 490.265 404.537C497.199 402.27 505.599 398.402 513.333 392.67C526.667 382.803 539.467 369.07 538.8 350.537C538.4 342.004 536.133 333.603 533.067 325.603C549.867 318.67 571.599 314.67 599.2 318.003C658.533 324.937 670.267 362.003 668.001 377.47C665.735 392.938 653.335 401.47 649.2 404.137C645.067 406.67 643.733 407.605 644.133 409.47C644.667 412.271 646.533 412.137 650.133 411.605C655.067 410.803 681.333 398.938 682.4 370.406C684 333.734 649.2 293.734 587.467 294.133ZM129.867 448.399C110.267 469.866 82.6666 477.999 70.9333 471.066C58.2666 463.733 63.1986 432.133 87.3332 409.333C102 395.466 121.067 382.666 133.6 374.799C136.4 373.066 140.667 370.534 145.733 367.466C146.533 366.934 147.067 366.666 147.067 366.666C148 366.133 149.067 365.466 150.133 364.799C159.067 397.333 150.533 425.866 129.867 448.399ZM273.2 350.933C266.4 367.6 252 410.399 243.333 407.999C235.865 405.999 231.333 373.599 241.865 341.599C247.199 325.465 258.532 306.266 265.199 298.798C276 286.798 287.732 282.798 290.667 287.731C294.133 294.133 277.467 340.533 273.2 350.933ZM391.467 407.466C388.533 408.934 385.867 409.999 384.667 409.201C383.733 408.667 385.865 406.668 385.865 406.668C385.865 406.668 400.665 390.801 406.532 383.467C409.865 379.202 413.865 374.269 418.132 368.668V370.267C418.133 389.466 399.733 402.266 391.467 407.466ZM482.665 386.666C480.532 385.066 480.8 380.133 487.999 364.666C490.8 358.533 497.199 348.266 508.265 338.533C509.599 342.533 510.4 346.398 510.265 349.999C510.133 373.999 493.067 382.933 482.665 386.666Z" fill="#CF649A"/>
</g>
<defs>
<clipPath id="clip0">
<rect width="682.667" height="512" fill="white"/>
</clipPath>
</defs>
</svg>
